<svg xmlns="http://www.w3.org/2000/svg" xlink="http://www.w3.org/1999/xlink" version="1.1" id="person" x="0px" y="0px" viewBox="0 0 148.9632 147.9442" space="preserve" width="148.9632" height="147.9442">
<g>
	<defs>
		<path id="SVGID_1_" d="M117.5277,96.9509c-5.4534,0-10.5775,2.0797-14.4296,5.8545c-3.8551,3.7748-5.9791,8.7951-5.9791,14.129    c0,5.3368,2.1209,10.3542,5.9791,14.129c3.8582,3.7748,8.9793,5.8546,14.4296,5.8546c5.4504,0,10.5745-2.0797,14.4297-5.8546    c7.958-7.7893,7.958-20.4687,0-28.2609C128.1022,99.0277,122.9781,96.9509,117.5277,96.9509z M117.5277,142.8317    c-7.0667,0-13.7075-2.695-18.7017-7.5852c-4.9972-4.8901-7.7495-11.3955-7.7465-18.3121c0-6.9166,2.7493-13.422,7.7465-18.3121    c4.9942-4.8931,11.638-7.5852,18.7017-7.5852c7.0638,0,13.7045,2.6951,18.7017,7.5852c10.3117,10.0997,10.3117,26.5303,0,36.6271    C131.2322,140.1396,124.5915,142.8317,117.5277,142.8317z" fill="#808000"></path>
	</defs>
	<clipPath id="SVGID_2_">
		<use href="#SVGID_1_" overflow="visible"></use>
	</clipPath>
	<rect x="86.0795" y="86.0372" clip-path="url(#SVGID_2_)" fill="#808000" width="62.8837" height="61.7945"></rect>
</g>
<g>
	<defs>
		<path id="SVGID_3_" d="M44.3766,57.6199c0.1511,0.0947,0.3202,0.1953,0.4985,0.3018c1.417,0.8638,2.4382,1.485,2.8219,2.7926    c1.5288,5.1978,11.8887,24.5512,25.9014,24.5512c14.0127,0,24.3696-19.3534,25.8984-24.5512    c0.3927-1.3105,1.4109-1.9318,2.8218-2.7867c0.1753-0.1065,0.3475-0.2101,0.4985-0.3047    c3.8129-6.7953,3.1603-9.7862,2.692-10.7654c-0.5559-1.1656-1.698-1.4555-1.707-1.4585c-1.4956-0.2692-2.553-1.5856-2.4684-3.0707    c0.003-0.0769,0.3958-7.7331-1.5046-14.7591c-0.1873-0.6568-4.9881-16.6436-26.2277-16.6436    c-21.3997,0-26.1854,16.4897-26.2307,16.6584c-1.8974,7.0142-1.5076,14.6703-1.5016,14.7472    c0.0786,1.4851-0.9789,2.7986-2.4714,3.0678c-0.0604,0.0178-1.1964,0.3136-1.7402,1.5295    C41.2103,47.9136,40.6151,50.9134,44.3766,57.6199z M73.5983,91.1792c-16.8557,0-28.6206-19.8504-31.4183-27.9355    c-0.1571-0.0976-0.3263-0.1982-0.4925-0.2988c-1.0967-0.6656-1.8248-1.1094-2.2962-1.9347    c-4.0425-7.0054-5.112-12.6144-3.1784-16.6643c0.9305-1.9466,2.3354-3.1181,3.5711-3.8163    c-0.003-3.0264,0.2206-8.8395,1.7463-14.481C41.594,25.8267,47.6214,5,73.5983,5s32.0074,20.8237,32.0648,21.0338    c1.5287,5.6504,1.7523,11.4635,1.7463,14.4929c1.2327,0.6952,2.6406,1.8667,3.5711,3.8162    c1.9367,4.0529,0.8641,9.6619-3.1814,16.6732c-0.4683,0.8165-1.1964,1.2602-2.2931,1.9259    c-0.1662,0.1005-0.3354,0.2011-0.4925,0.2987C102.228,71.3052,90.4601,91.1792,73.5983,91.1792z" fill="#808000"></path>
	</defs>
	<clipPath id="SVGID_4_">
		<use href="#SVGID_3_" overflow="visible"></use>
	</clipPath>
	<rect x="30.2783" clip-path="url(#SVGID_4_)" fill="#808000" width="86.6382" height="96.1792"></rect>
</g>
<g>
	<defs>
		<path id="SVGID_5_" d="M65.4077,142.9442c-33.8897,0-57.087-5.677-58.1324-5.9374c-1.3898-0.3461-2.3385-1.6034-2.272-3.0086    c1.4472-29.8289,20.4269-39.0914,34.5725-43.4638c10.937-3.3814,16.8285-8.943,16.8859-8.9993    c1.1934-1.1449,3.0998-1.1242,4.2691,0.0355c1.1692,1.1626,1.1632,3.0264-0.0211,4.1742    c-0.278,0.2663-6.8946,6.5941-19.318,10.434c-13.8405,4.2777-28.1372,11.8925-30.1886,35.639    c7.4565,1.5709,31.3729,5.9551,62.3078,5.1002c4.6769-0.1272,18.6896-0.5591,18.6896-0.5591l0.1903,5.9137    c0,0-14.0247,0.4319-18.7047,0.5591C70.8611,142.9087,68.0996,142.9442,65.4077,142.9442" fill="#808000"></path>
	</defs>
	<clipPath id="SVGID_6_">
		<use href="#SVGID_5_" overflow="visible"></use>
	</clipPath>
	<rect y="75.6885" clip-path="url(#SVGID_6_)" fill="#808000" width="97.3907" height="72.2557"></rect>
</g>
<g>
	<defs>
		<path id="SVGID_7_" d="M99.953,91.2177c-0.3022,0-0.6073-0.0444-0.9094-0.139c-12.1939-3.7689-12.7196-5.0292-13.2272-6.251    c-0.3384-0.8165-0.2961-1.8075,0.1299-2.5826c0.7856-1.4407,2.6165-1.9821,4.0908-1.21c0.3868,0.2041,0.707,0.4763,0.9608,0.7958    c0.6647,0.3727,2.9337,1.4614,9.8645,3.6032c1.5922,0.4911,2.4744,2.1537,1.9729,3.7098    C102.4304,90.4101,101.237,91.2177,99.953,91.2177" fill="#808000"></path>
	</defs>
	<clipPath id="SVGID_8_">
		<use href="#SVGID_7_" overflow="visible"></use>
	</clipPath>
	<rect x="80.5911" y="75.6834" clip-path="url(#SVGID_8_)" fill="#808000" width="27.3848" height="20.5343"></rect>
</g>
<g>
	<defs>
		<path id="SVGID_9_" d="M100.9591,136.1134c-0.7735,0-1.5469-0.2899-2.1361-0.8668c-1.1813-1.1567-1.1813-3.0264,0-4.1831    l33.1344-32.444c1.1813-1.1567,3.0907-1.1567,4.272,0c1.1814,1.1567,1.1814,3.0264,0,4.1831l-33.1343,32.444    C102.5059,135.8234,101.7325,136.1134,100.9591,136.1134" fill="#808000"></path>
	</defs>
	<clipPath id="SVGID_10_">
		<use href="#SVGID_9_" overflow="visible"></use>
	</clipPath>
	<rect x="92.937" y="92.7519" clip-path="url(#SVGID_10_)" fill="#808000" width="49.1784" height="48.3615"></rect>
</g>
</svg>