<?xml version="1.0" encoding="utf-8"?>
<!-- Generator: Adobe Illustrator 19.1.0, SVG Export Plug-In . SVG Version: 6.00 Build 0)  -->
<svg version="1.1" id="building" xmlns="http://www.w3.org/2000/svg" xmlns:xlink="http://www.w3.org/1999/xlink" x="0px" y="0px"
	 viewBox="0 0 159.3998 163.4929" enable-background="new 0 0 159.3998 163.4929" xml:space="preserve">
<g>
	<g>
		<defs>
			<path id="SVGID_1_" d="M64.7599,158.4929c-1.836,0-3.32-1.4915-3.32-3.3368V41.7048c0-0.7608,0.2556-1.4916,0.7271-2.0856
				l26.56-33.368C89.5404,5.2335,90.8783,4.783,92.1234,5.1l39.84,10.0104c1.4774,0.3737,2.5166,1.7051,2.5166,3.2367v50.0521
				c0,1.8453-1.4841,3.3368-3.32,3.3368c-1.836,0-3.32-1.4915-3.32-3.3368v-47.446L92.5815,12.094L68.0799,42.876v112.2801
				C68.0799,157.0013,66.5959,158.4929,64.7599,158.4929"/>
		</defs>
		<clipPath id="SVGID_2_">
			<use xlink:href="#SVGID_1_"  overflow="visible"/>
		</clipPath>
		<rect x="56.4399" clip-path="url(#SVGID_2_)" fill="#429CCF" width="83.04" height="163.4929"/>
	</g>
	<g>
		<defs>
			<path id="SVGID_3_" d="M18.28,158.4929c-1.836,0-3.32-1.4915-3.32-3.3368V84.853c0-0.8042,0.2888-1.5783,0.8101-2.1856
				l19.92-23.1241c0.7437-0.8642,1.8758-1.2947,2.988-1.1178l26.56,3.8807c1.8127,0.2636,3.071,1.9587,2.8054,3.7806
				c-0.2656,1.8186-1.9588,3.0932-3.7616,2.8196l-24.7605-3.6171L21.6,86.0976v69.0585
				C21.6,157.0013,20.1159,158.4929,18.28,158.4929"/>
		</defs>
		<clipPath id="SVGID_4_">
			<use xlink:href="#SVGID_3_"  overflow="visible"/>
		</clipPath>
		<rect x="9.96" y="53.3863" clip-path="url(#SVGID_4_)" fill="#429CCF" width="63.1188" height="110.1066"/>
	</g>
	<g>
		<defs>
			<path id="SVGID_5_" d="M94.6399,156.5475c-0.8167,0-1.6334-0.3003-2.2742-0.9076c-1.3546-1.278-33.1634-32.0967-30.9224-97.3646
				c0.0631-1.8419,1.6135-3.3535,3.4296-3.22c1.836,0.0601,3.2702,1.605,3.2038,3.4469
				c-2.1381,62.2781,28.5287,91.9857,28.8375,92.276c1.3346,1.2613,1.401,3.3735,0.1428,4.7182
				C96.4062,156.1972,95.5264,156.5475,94.6399,156.5475"/>
		</defs>
		<clipPath id="SVGID_6_">
			<use xlink:href="#SVGID_5_"  overflow="visible"/>
		</clipPath>
		<rect x="56.3302" y="50.0471" clip-path="url(#SVGID_6_)" fill="#429CCF" width="46.6292" height="111.5004"/>
	</g>
	<g>
		<defs>
			<path id="SVGID_7_" d="M38.2033,158.4929c-1.0093,0-2.0053-0.4605-2.656-1.328C19.1166,135.2354,15.136,90.5956,14.9733,88.707
				c-0.1594-1.8386,1.1952-3.4536,3.0212-3.6104c1.8526-0.1869,3.4329,1.2046,3.5922,3.0365
				c0.0398,0.4438,3.984,44.6264,19.2659,65.0143c1.1022,1.4749,0.8101,3.567-0.654,4.6749
				C39.601,158.276,38.8972,158.4929,38.2033,158.4929"/>
		</defs>
		<clipPath id="SVGID_8_">
			<use xlink:href="#SVGID_7_"  overflow="visible"/>
		</clipPath>
		<rect x="9.9605" y="80.0797" clip-path="url(#SVGID_8_)" fill="#429CCF" width="36.56" height="83.4132"/>
	</g>
	<g>
		<defs>
			<path id="SVGID_9_" d="M28.24,138.4721c-1.836,0-3.32-1.4915-3.32-3.3368V75.0728c0-1.8452,1.484-3.3368,3.32-3.3368
				c1.8359,0,3.32,1.4916,3.32,3.3368v60.0625C31.56,136.9805,30.0759,138.4721,28.24,138.4721"/>
		</defs>
		<clipPath id="SVGID_10_">
			<use xlink:href="#SVGID_9_"  overflow="visible"/>
		</clipPath>
		<rect x="19.92" y="66.736" clip-path="url(#SVGID_10_)" fill="#429CCF" width="16.64" height="76.7361"/>
	</g>
	<g>
		<defs>
			<path id="SVGID_11_" d="M38.2,158.4929c-1.836,0-3.32-1.4915-3.32-3.3368V61.7256c0-1.8453,1.484-3.3368,3.32-3.3368
				c1.8359,0,3.32,1.4915,3.32,3.3368v93.4305C41.52,157.0013,40.0359,158.4929,38.2,158.4929"/>
		</defs>
		<clipPath id="SVGID_12_">
			<use xlink:href="#SVGID_11_"  overflow="visible"/>
		</clipPath>
		<rect x="29.88" y="53.3888" clip-path="url(#SVGID_12_)" fill="#429CCF" width="16.64" height="110.1041"/>
	</g>
	<g>
		<defs>
			<path id="SVGID_13_" d="M84.6799,141.8089c-1.836,0-3.32-1.4915-3.32-3.3368V18.3471c0-1.8452,1.484-3.3368,3.32-3.3368
				c1.836,0,3.32,1.4916,3.32,3.3368v120.125C87.9999,140.3173,86.5159,141.8089,84.6799,141.8089"/>
		</defs>
		<clipPath id="SVGID_14_">
			<use xlink:href="#SVGID_13_"  overflow="visible"/>
		</clipPath>
		<rect x="76.3599" y="10.0103" clip-path="url(#SVGID_14_)" fill="#429CCF" width="16.64" height="136.7986"/>
	</g>
	<g>
		<defs>
			<path id="SVGID_15_" d="M74.7199,121.788c-1.836,0-3.32-1.4915-3.32-3.3368v-86.757c0-1.8452,1.484-3.3368,3.32-3.3368
				s3.32,1.4916,3.32,3.3368v86.757C78.0399,120.2965,76.5559,121.788,74.7199,121.788"/>
		</defs>
		<clipPath id="SVGID_16_">
			<use xlink:href="#SVGID_15_"  overflow="visible"/>
		</clipPath>
		<rect x="66.3999" y="23.3575" clip-path="url(#SVGID_16_)" fill="#429CCF" width="16.64" height="103.4305"/>
	</g>
	<g>
		<defs>
			<path id="SVGID_17_" d="M94.6399,155.1561c-1.836,0-3.32-1.4915-3.32-3.3368V11.6735c0-1.8452,1.484-3.3368,3.32-3.3368
				s3.32,1.4916,3.32,3.3368v140.1458C97.9599,153.6645,96.4759,155.1561,94.6399,155.1561"/>
		</defs>
		<clipPath id="SVGID_18_">
			<use xlink:href="#SVGID_17_"  overflow="visible"/>
		</clipPath>
		<rect x="86.3199" y="3.3367" clip-path="url(#SVGID_18_)" fill="#429CCF" width="16.64" height="156.8194"/>
	</g>
	<g>
		<defs>
			<path id="SVGID_19_" d="M151.0798,158.4929H8.32c-1.836,0-3.32-1.4915-3.32-3.3368c0-1.8452,1.484-3.3368,3.32-3.3368h142.7598
				c1.836,0,3.32,1.4915,3.32,3.3368C154.3998,157.0013,152.9158,158.4929,151.0798,158.4929"/>
		</defs>
		<clipPath id="SVGID_20_">
			<use xlink:href="#SVGID_19_"  overflow="visible"/>
		</clipPath>
		<rect y="146.8193" clip-path="url(#SVGID_20_)" fill="#429CCF" width="159.3998" height="16.6736"/>
	</g>
	<g>
		<defs>
			<path id="SVGID_21_" d="M130.5888,127.5774c0.9628,0,1.8991,0.4204,2.5465,1.1979c1.6002,1.922,3.9043,3.0231,6.3246,3.0231
				c4.5782,0,8.3-3.7406,8.3-8.342c0-2.2523-0.8931-4.3679-2.5066-5.9562c-0.6375-0.6307-0.9994-1.4882-0.9994-2.3858
				c0-0.8976,0.3619-1.7552,0.9994-2.3858c1.6135-1.5883,2.5066-3.7038,2.5066-5.9562c0-0.3604-0.0631-0.7107-0.1129-1.0578
				c-0.0498-0.327-0.0697-0.7741-0.0199-1.1011c0.0697-0.4672,0.1328-0.8175,0.1328-1.1779c0-2.5393-1.1687-4.9184-3.2138-6.5268
				c-1.3081-1.0344-1.6567-2.8763-0.8134-4.3178c0.4714-0.8008,0.7072-1.6417,0.7072-2.5026c0-2.0722-1.3181-3.9541-3.2769-4.6715
				c-1.0358-0.3837-1.8127-1.2513-2.0783-2.3291c-0.2689-1.0711,0.01-2.2056,0.7437-3.0298
				c0.5876-0.664,1.2915-1.7752,1.2915-3.3168c0-2.7595-2.2344-5.0052-4.98-5.0052c-2.7457,0-4.98,2.2457-4.98,5.0052
				c0,2.0722,1.3147,3.9541,3.2768,4.6715c1.0358,0.3837,1.8127,1.2513,2.0783,2.3291c0.2689,1.0711-0.0099,2.209-0.7437,3.0332
				c-0.0996,0.1101-0.1958,0.2202-0.2855,0.3404c-0.6275,0.8475-1.6135,1.3514-2.6626,1.3514h-0.0033
				c-1.0492,0-2.0352-0.5005-2.6627-1.3447c-0.9594-1.2947-2.4103-2.0388-3.9773-2.0388c-2.7457,0-4.98,2.2457-4.98,5.0052
				c0,1.3748,0.5577,2.6628,1.5737,3.6271c1.2616,1.1946,1.3944,3.1633,0.3021,4.518c-0.8533,1.0678-1.8758,2.8363-1.8758,5.2021
				c0,1.7285,0.5445,3.4002,1.5703,4.835c0.5379,0.7508,0.7404,1.6918,0.5611,2.596c-0.1793,0.9076-0.7237,1.6984-1.5039,2.1889
				c-2.4734,1.5449-3.9475,4.1844-3.9475,7.064c0,4.6015,3.7217,8.342,8.3,8.342c1.0723,0,2.1347-0.2136,3.144-0.634
				C129.7323,127.6608,130.1639,127.5774,130.5888,127.5774z M139.4599,138.4721c-3.6255,0-7.0949-1.3447-9.804-3.7506
				c-1.1387,0.2736-2.3007,0.4138-3.476,0.4138c-8.2369,0-14.94-6.737-14.94-15.0156c0-4.1176,1.66-7.9583,4.5484-10.7545
				c-0.8101-1.8653-1.2284-3.874-1.2284-5.9295c0-2.4993,0.6208-4.9118,1.816-7.094c-1.1852-1.8553-1.816-4.0008-1.816-6.2532
				c0-5.9195,4.4056-10.8279,10.0961-11.5787c-0.0896-0.5806-0.1361-1.1712-0.1361-1.7685c0-6.44,5.2124-11.6788,11.62-11.6788
				c6.4076,0,11.62,5.2388,11.62,11.6788c0,1.5182-0.3022,3.0098-0.8765,4.4012c2.5995,2.1789,4.1964,5.439,4.1964,8.946
				c0,1.1378-0.1759,2.2724-0.5112,3.3702c2.4601,2.7328,3.8312,6.2565,3.8312,9.9771c0,0.5706-0.0597,1.1212-0.1328,1.6717
				c0.0764,0.5839,0.1328,1.1178,0.1328,1.6651c0,3.0131-0.8831,5.8928-2.5232,8.342c1.6401,2.4492,2.5232,5.3289,2.5232,8.342
				C154.3998,131.7351,147.6968,138.4721,139.4599,138.4721z"/>
		</defs>
		<clipPath id="SVGID_22_">
			<use xlink:href="#SVGID_21_"  overflow="visible"/>
		</clipPath>
		<rect x="106.2399" y="60.0624" clip-path="url(#SVGID_22_)" fill="#429CCF" width="53.1599" height="83.4097"/>
	</g>
	<g>
		<defs>
			<path id="SVGID_23_" d="M134.4799,158.4929c-1.836,0-3.32-1.4915-3.32-3.3368v-20.0208c0-1.8453,1.484-3.3368,3.32-3.3368
				c1.8359,0,3.32,1.4915,3.32,3.3368v20.0208C137.7999,157.0013,136.3158,158.4929,134.4799,158.4929"/>
		</defs>
		<clipPath id="SVGID_24_">
			<use xlink:href="#SVGID_23_"  overflow="visible"/>
		</clipPath>
		<rect x="126.1599" y="126.7985" clip-path="url(#SVGID_24_)" fill="#429CCF" width="16.64" height="36.6944"/>
	</g>
	<g>
		<defs>
			<path id="SVGID_25_" d="M131.1632,121.788c-0.2822,0-0.5644-0.0367-0.8499-0.1101c-3.071-0.8109-4.5584-2.6094-5.2655-3.9775
				c-1.66-3.2033-0.4648-6.687-0.3221-7.0774c0.6341-1.7285,2.5431-2.606,4.2629-1.9754c1.7065,0.6306,2.5896,2.526,1.9787,4.2477
				c-0.1295,0.3871-0.2656,1.288-0.0232,1.7318c0.1693,0.3203,0.737,0.5105,1.0624,0.5973
				c1.7728,0.4705,2.8286,2.2957,2.3638,4.0776C133.9785,120.797,132.6306,121.788,131.1632,121.788"/>
		</defs>
		<clipPath id="SVGID_26_">
			<use xlink:href="#SVGID_25_"  overflow="visible"/>
		</clipPath>
		<rect x="119.1762" y="103.4435" clip-path="url(#SVGID_26_)" fill="#429CCF" width="20.3037" height="23.3446"/>
	</g>
	<g>
		<defs>
			<path id="SVGID_27_" d="M137.8032,105.104c-1.1554,0-2.2742-0.604-2.8851-1.6818c-0.8499-1.4882-1.5471-1.8553-1.5571-1.8586
				c-1.7762-0.4438-2.7025-2.2056-2.2609-3.9941c0.4482-1.7919,2.407-2.833,4.1832-2.3758
				c0.7138,0.1769,3.2071,1.0644,5.3983,4.9185c0.913,1.5983,0.3586,3.6371-1.235,4.5514
				C138.9287,104.9639,138.3609,105.104,137.8032,105.104"/>
		</defs>
		<clipPath id="SVGID_28_">
			<use xlink:href="#SVGID_27_"  overflow="visible"/>
		</clipPath>
		<rect x="125.9909" y="90.0863" clip-path="url(#SVGID_28_)" fill="#429CCF" width="20.1306" height="20.0177"/>
	</g>
</g>
</svg>
