<svg xmlns="http://www.w3.org/2000/svg" xmlns:xlink="http://www.w3.org/1999/xlink">
<g class="-ask-file">
<g id="ask-file">
	<path d="M24,38c-1.654,0-3-1.346-3-3s1.346-3,3-3s3,1.346,3,3S25.654,38,24,38z M24,34c-0.551,0-1,0.448-1,1   s0.449,1,1,1s1-0.448,1-1S24.551,34,24,34z"/>
	<path d="M23.833,29.5c-0.552,0-1-0.447-1-1v-0.663c0-2.53,1.236-4.886,3.227-6.147   c1.234-0.783,1.96-2.122,1.939-3.583c-0.03-2.195-1.911-4.075-4.106-4.105c-1.109,0.012-2.185,0.41-2.985,1.198   c-0.801,0.789-1.242,1.844-1.242,2.968c0,0.553-0.448,1-1,1s-1-0.447-1-1c0-1.664,0.653-3.224,1.837-4.392   s2.758-1.787,4.417-1.774c3.306,0.046,6.033,2.772,6.079,6.078c0.03,2.16-1.042,4.142-2.869,5.3   c-1.417,0.898-2.297,2.606-2.297,4.458V28.5C24.833,29.053,24.386,29.5,23.833,29.5z"/>
	<path d="M40,47H8c-1.654,0-3-1.346-3-3V4c0-1.654,1.346-3,3-3h25c0.284,0,0.554,0.12,0.743,0.331l9,10   C42.909,11.515,43,11.753,43,12v32C43,45.654,41.654,47,40,47z M8,3C7.449,3,7,3.448,7,4v40c0,0.552,0.449,1,1,1h32   c0.551,0,1-0.448,1-1V12.384L32.555,3H8z"/>
	<path d="M42,13h-9c-0.552,0-1-0.447-1-1V3h2v8h8V13z"/>
</g>
</g>
<g class="-board-edit">
<g id="board-edit">
	<path d="M31.207,45.222c-0.262,0-0.518-0.103-0.707-0.293c-0.252-0.251-0.351-0.617-0.26-0.962l1.453-5.521   c0.045-0.171,0.135-0.327,0.26-0.452l8.133-8.134c0.391-0.391,1.023-0.391,1.414,0l4.067,4.067c0.391,0.391,0.391,1.023,0,1.414   l-8.134,8.134c-0.125,0.125-0.281,0.215-0.452,0.26l-5.52,1.453C31.378,45.211,31.292,45.222,31.207,45.222z M33.559,39.217   l-0.948,3.602l3.601-0.948l7.235-7.235l-2.653-2.653L33.559,39.217z"/>
	
		<rect x="32.42" y="39.829" transform="matrix(0.7224 0.6915 -0.6915 0.7224 37.8342 -12.5808)" width="4.33" height="2"/>
	<path d="M32,13H12c-0.313,0-0.609-0.147-0.799-0.397c-0.188-0.251-0.249-0.575-0.163-0.877l2-7   C13.161,4.296,13.554,4,14,4h4c0-2.206,1.794-4,4-4s4,1.794,4,4h4c0.446,0,0.839,0.296,0.962,0.726l2,7   c0.086,0.302,0.025,0.626-0.163,0.877C32.609,12.853,32.313,13,32,13z M13.326,11h17.348l-1.428-5H25c-0.553,0-1-0.447-1-1V4   c0-1.103-0.897-2-2-2s-2,0.897-2,2v1c0,0.553-0.447,1-1,1h-4.246L13.326,11z"/>
	<path d="M29,47H7c-2.206,0-4-1.794-4-4V9c0-2.206,1.794-4,4-4h6v2H7C5.897,7,5,7.897,5,9v34c0,1.103,0.897,2,2,2   h22V47z"/>
	<path d="M41,25h-2V9c0-1.103-0.897-2-2-2h-6V5h6c2.206,0,4,1.794,4,4V25z"/>
	<path d="M28,43H15c-0.266,0-0.52-0.105-0.707-0.293l-7-7C7.105,35.52,7,35.266,7,35V10.008c0-0.553,0.447-1,1-1h5   v2H9v23.578L15.414,41H28V43z"/>
	<path d="M37,24h-2V11.008h-4v-2h5c0.553,0,1,0.447,1,1V24z"/>
	<path d="M16,42h-2v-6H8v-2h7c0.553,0,1,0.447,1,1V42z"/>
	<rect x="13" y="19" width="7" height="2"/>
	<rect x="13" y="24" width="17" height="2"/>
	<rect x="13" y="29" width="14" height="2"/>
</g>
</g>
<g class="-covisint-logo--light">
<g>
	<path fill="#009DDC" d="M56.8111,62.4375c1.9931-1.5898,3.8134-3.375,5.4214-5.3584c-4.8877-6.0195-7.8233-13.6884-7.8233-22.0537   c0-8.354,2.9356-16.0166,7.8233-22.0449C55.8086,5.0655,46.0166,0,35.0308,0C15.6841,0,0,15.6875,0,35.0254   c0,11.1075,5.1866,20.9942,13.253,27.4121c5.9804-4.7617,13.5361-7.622,21.7778-7.622   C43.2681,54.8155,50.8238,57.6758,56.8111,62.4375z"/>
	<path fill="#FFFFFF" d="M62.2325,57.0791c1.6069,1.9834,3.4272,3.7686,5.4262,5.3584c5.9785-4.7617,13.5371-7.622,21.7754-7.622   c8.2344,0,15.7998,2.8603,21.7783,7.622c8.062-6.4179,13.2495-16.3046,13.2495-27.4121C124.4619,15.6875,108.7808,0,89.4341,0   C78.4473,0,68.6499,5.0655,62.2325,12.9805c4.8891,6.0283,7.8256,13.6909,7.8256,22.0449   C70.0581,43.3907,67.1216,51.0596,62.2325,57.0791z"/>
	<path fill="#0079C1" d="M62.2325,57.0791c4.8891-6.0195,7.8256-13.6884,7.8256-22.0537c0-8.354-2.9365-16.0166-7.8256-22.0449   c-4.8877,6.0283-7.8233,13.6909-7.8233,22.0449C54.4092,43.3907,57.3448,51.0596,62.2325,57.0791z"/>
	<path fill="#009DDC" d="M111.2124,62.4375c-5.9785,4.7593-13.5439,7.6246-21.7783,7.6246c-8.2383,0-15.7969-2.8653-21.7754-7.6246   c-1.999,1.5796-3.8193,3.3746-5.4262,5.3589c4.8891,6.0196,7.8256,13.6914,7.8256,22.045c0,8.3496-2.9365,16.0234-7.8256,22.0507   c6.4174,7.9141,16.2148,12.9707,27.2016,12.9707c19.3467,0,35.0278-15.6855,35.0278-35.0214   C124.4619,78.7378,119.2744,68.8492,111.2124,62.4375z"/>
	<path fill="#0079C1" d="M67.6587,62.4375c5.9785,4.7593,13.5371,7.6246,21.7754,7.6246c8.2344,0,15.7998-2.8653,21.7783-7.6246   c-5.9785-4.7617-13.5439-7.622-21.7783-7.622C81.1958,54.8155,73.6372,57.6758,67.6587,62.4375z"/>
	<path fill="#FFFFFF" d="M62.2325,67.7964c-1.608-1.9843-3.4283-3.7793-5.4214-5.3589c-5.9873,4.7593-13.543,7.6246-21.7803,7.6246   c-8.2417,0-15.7974-2.8653-21.7778-7.6246C5.1866,68.8492,0,78.7378,0,89.8414c0,19.3359,15.6841,35.0214,35.0308,35.0214   c10.9858,0,20.7778-5.0566,27.2017-12.9707c-4.8877-6.0273-7.8233-13.7011-7.8233-22.0507   C54.4092,81.4878,57.3448,73.816,62.2325,67.7964z"/>
	<path fill="#0079C1" d="M56.8111,62.4375c-5.9873-4.7617-13.543-7.622-21.7803-7.622c-8.2417,0-15.7974,2.8603-21.7778,7.622   c5.9804,4.7593,13.5361,7.6246,21.7778,7.6246C43.2681,70.0621,50.8238,67.1968,56.8111,62.4375z"/>
	<path fill="#0079C1" d="M62.2325,67.7964c-4.8877,6.0196-7.8233,13.6914-7.8233,22.045c0,8.3496,2.9356,16.0234,7.8233,22.0507   c4.8891-6.0273,7.8256-13.7011,7.8256-22.0507C70.0581,81.4878,67.1216,73.816,62.2325,67.7964z"/>
	<circle fill="#FFFFFF" cx="397.0996" cy="11.7852" r="9.0947"/>
	<circle fill="#FFFFFF" cx="494.8233" cy="11.7852" r="9.0967"/>
	<path fill="#FFFFFF" d="M218.0825,52.9092c-1.2241-8.5517-7.4692-13.1689-16.0156-13.1689   c-8.0127,0-19.2759,4.2197-19.2759,25.5171c0,11.6718,5.1597,24.0254,18.5938,24.0254c8.9585,0,15.2036-5.9688,16.6977-16.0157   h15.4683c-2.8496,18.1836-14.1162,28.2305-32.166,28.2305c-21.9854,0-34.0674-15.6016-34.0674-36.2402   c0-21.1665,11.5332-37.732,34.6128-37.732c16.2856,0,30.1348,8.1543,31.6206,25.3838H218.0825z"/>
	<path fill="#FFFFFF" d="M295.5821,64.4507c0-12.0893-6.1104-24.7104-19.9546-24.7104c-13.8457,0-19.9541,12.6211-19.9541,24.7104   c0,12.2012,6.1084,24.8321,19.9541,24.8321C289.4717,89.2828,295.5821,76.6519,295.5821,64.4507 M240.2012,64.4507   c0-21.4546,12.8975-36.9253,35.4263-36.9253c22.5307,0,35.4277,15.4707,35.4277,36.9253c0,21.5782-12.897,37.0469-35.4277,37.0469   C253.0987,101.4976,240.2012,86.0289,240.2012,64.4507"/>
	<polygon fill="#FFFFFF" points="314.3072,29.4288 331.1397,29.4288 348.918,83.314 349.1817,83.314 366.291,29.4288    382.3018,29.4288 357.1944,99.5972 339.8242,99.5972  "/>
	<rect x="389.3653" y="29.4288" fill="#FFFFFF" width="15.4687" height="70.1743"/>
	<path fill="#FFFFFF" d="M430.6201,77.0601c0.8155,8.9688,7.6006,12.2227,15.8916,12.2227c5.8252,0,16.0079-1.2207,15.6026-9.2325   c-0.4121-8.1445-11.6748-9.0839-22.9414-11.6738c-11.4033-2.4316-22.5303-6.5171-22.5303-20.7573   c0-15.334,16.5557-20.0845,29.3203-20.0845c14.3838,0,27.4141,5.9634,29.3203,21.565h-16.1591   c-1.3526-7.3252-7.4639-9.3506-14.2481-9.3506c-4.4756,0-12.7607,1.0879-12.7607,7.1904c0,7.5977,11.4082,8.6768,22.8047,11.2598   c11.2617,2.5752,22.6689,6.6577,22.6689,20.4878c0,16.6992-16.834,22.8105-31.3555,22.8105   c-17.6416,0-30.8134-7.8789-31.084-24.4375H430.6201z"/>
	<rect x="487.0879" y="29.4288" fill="#FFFFFF" width="15.4717" height="70.1743"/>
	<path fill="#FFFFFF" d="M516.668,29.4288h14.6611v10.3115l0.2637,0.2754c4.627-7.7305,12.6299-12.4903,21.8584-12.4903   c15.2031,0,24.8457,8.1377,24.8457,23.8897v48.1821h-15.4736V55.4825c-0.2735-10.9825-4.6241-15.7422-13.7158-15.7422   c-10.3174,0-16.9678,8.1465-16.9678,18.4658v41.3911H516.668V29.4288z"/>
	<path fill="#FFFFFF" d="M584.8018,29.4288h11.6748V8.3868h15.4668v21.042h13.9824v11.542h-13.9824v37.4526   c0,6.375,0.5508,9.6387,7.4746,9.6387c2.168,0,4.3369,0,6.5078-0.5391v11.9414c-3.3867,0.2734-6.6416,0.8027-10.0371,0.8027   c-16.1533,0-19.1387-6.2422-19.4121-17.9179V40.9708h-11.6748V29.4288z"/>
	<g>
		<path fill="#FFFFFF" d="M632.9336,3.8614c3.7862,0,6.9688,2.9892,6.9688,6.9092c0,3.9946-3.1826,6.9926-6.9688,6.9926    c-3.8095,0-7.0078-2.998-7.0078-6.9926C625.9258,6.8506,629.1241,3.8614,632.9336,3.8614z M632.9336,16.7403    c3.2149,0,5.7051-2.5737,5.7051-5.9697c0-3.3213-2.4902-5.8863-5.7051-5.8863c-3.2529,0-5.7402,2.565-5.7402,5.8863    C627.1934,14.1666,629.6807,16.7403,632.9336,16.7403z M630.2207,6.7432h3.1436c1.9326,0,2.8369,0.7656,2.8369,2.3164    c0,1.4712-0.9346,2.085-2.1318,2.2183l2.3154,3.5854h-1.3486l-2.2178-3.4931h-1.332v3.4931h-1.2657V6.7432z M631.4864,10.3472    h1.3164c1.1211,0,2.1328-0.0571,2.1328-1.3379c0-1.0796-0.9287-1.2451-1.7754-1.2451h-1.6738V10.3472z"/>
	</g>
</g>
</g>
<g class="-covisint-logo-with-tagline--light">
<g>
	<g>
		<path fill="none" d="M68.2822,74.1338c-1.7637,2.1719-3.7661,4.1309-5.9536,5.8769c2.1875,1.7422,4.1899,3.7071,5.9536,5.8799    c1.7598-2.1728,3.7622-4.1377,5.9502-5.8799C72.0444,78.2647,70.042,76.3057,68.2822,74.1338z"/>
		<path fill="#009DDC" d="M62.3286,80.0107c2.1875-1.746,4.1899-3.705,5.9536-5.8769c-5.3652-6.6074-8.5859-15.0234-8.5859-24.1953    c0-9.166,3.2207-17.5791,8.5859-24.1895c-7.0488-8.6826-17.793-14.2402-29.8501-14.2402C17.2046,11.5088,0,28.7158,0,49.9385    C0,62.123,5.687,72.9678,14.5361,80.0107c6.563-5.2187,14.8564-8.3642,23.896-8.3642    C47.4726,71.6465,55.7632,74.792,62.3286,80.0107z"/>
		<path fill="#FFFFFF" d="M68.2822,74.1338c1.7598,2.1719,3.7622,4.1309,5.9502,5.8769c6.563-5.2187,14.8564-8.3642,23.8965-8.3642    c9.0395,0,17.3305,3.1455,23.8955,8.3642c8.8467-7.0429,14.5342-17.8877,14.5342-30.0722    c0-21.2227-17.2051-38.4297-38.4297-38.4297c-12.0537,0-22.8008,5.5576-29.8467,14.2402    c5.3589,6.6104,8.583,15.0235,8.583,24.1895C76.8652,59.1104,73.6411,67.5264,68.2822,74.1338z"/>
		<path fill="#0079C1" d="M68.2822,74.1338c5.3589-6.6074,8.583-15.0234,8.583-24.1953c0-9.166-3.2241-17.5791-8.583-24.1895    c-5.3652,6.6104-8.5859,15.0235-8.5859,24.1895C59.6963,59.1104,62.917,67.5264,68.2822,74.1338z"/>
		<path fill="#009DDC" d="M122.0244,80.0107c-6.565,5.2237-14.856,8.3633-23.8955,8.3633c-9.0401,0-17.3335-3.1396-23.8965-8.3633    c-2.188,1.7422-4.1904,3.7071-5.9502,5.8799c5.3589,6.6084,8.583,15.0225,8.583,24.1885c0,9.1719-3.2241,17.5879-8.583,24.1982    c7.0459,8.6827,17.793,14.2383,29.8467,14.2383c21.2246,0,38.4297-17.2109,38.4297-38.4365    C136.5586,97.8945,130.8711,87.0498,122.0244,80.0107z"/>
		<path fill="#0079C1" d="M74.2324,80.0107c6.563,5.2237,14.8564,8.3633,23.8965,8.3633c9.0395,0,17.3305-3.1396,23.8955-8.3633    c-6.565-5.2187-14.856-8.3642-23.8955-8.3642C89.0888,71.6465,80.7954,74.792,74.2324,80.0107z"/>
		<path fill="#FFFFFF" d="M68.2822,85.8906c-1.7637-2.1728-3.7661-4.1377-5.9536-5.8799    c-6.5654,5.2237-14.856,8.3633-23.8965,8.3633c-9.0396,0-17.333-3.1396-23.896-8.3633C5.687,87.0498,0,97.8945,0,110.0791    c0,21.2256,17.2046,38.4365,38.4321,38.4365c12.0571,0,22.8013-5.5556,29.8501-14.2383    c-5.3652-6.6103-8.5859-15.0263-8.5859-24.1982C59.6963,100.9131,62.917,92.499,68.2822,85.8906z"/>
		<path fill="#0079C1" d="M62.3286,80.0107c-6.5654-5.2187-14.856-8.3642-23.8965-8.3642c-9.0396,0-17.333,3.1455-23.896,8.3642    c6.563,5.2237,14.8564,8.3633,23.896,8.3633C47.4726,88.374,55.7632,85.2344,62.3286,80.0107z"/>
		<path fill="#0079C1" d="M68.2822,85.8906c-5.3652,6.6084-8.5859,15.0225-8.5859,24.1885c0,9.1719,3.2207,17.5879,8.5859,24.1982    c5.3589-6.6103,8.583-15.0263,8.583-24.1982C76.8652,100.9131,73.6411,92.499,68.2822,85.8906z"/>
		<circle fill="#FFFFFF" cx="398.9702" cy="8.9814" r="8.9844"/>
		<path fill="#FFFFFF" d="M504.4585,8.9814c0,4.961-4.0244,8.9844-8.9844,8.9844c-4.9619,0-8.9795-4.0234-8.9795-8.9844    c0-4.9609,4.0176-8.9814,8.9795-8.9814C500.4341,0,504.4585,4.0205,504.4585,8.9814z"/>
		<path fill="#FFFFFF" d="M222.185,49.5898c-1.2055-8.4453-7.3735-13.0029-15.8164-13.0029    c-7.9121,0-19.0346,4.1651-19.0346,25.1992c0,11.5293,5.0957,23.7266,18.3642,23.7266c8.8438,0,15.0112-5.8916,16.4868-15.8135    h15.2813c-2.8208,17.9541-13.9429,27.876-31.7681,27.876c-21.7143,0-33.644-15.4063-33.644-35.7891    c0-20.9023,11.3906-37.2607,34.1801-37.2607c16.0831,0,29.7583,8.0498,31.232,25.0644H222.185z"/>
		<path fill="#FFFFFF" d="M298.7168,60.9873c0-11.9336-6.0293-24.4004-19.7022-24.4004c-13.6763,0-19.7055,12.4668-19.7055,24.4004    c0,12.0537,6.0292,24.5254,19.7055,24.5254C292.6875,85.5127,298.7168,73.041,298.7168,60.9873 M244.0346,60.9873    c0-21.1875,12.729-36.4619,34.98-36.4619c22.2529,0,34.982,15.2744,34.982,36.4619c0,21.3115-12.7291,36.5879-34.982,36.5879    C256.7636,97.5752,244.0346,82.2988,244.0346,60.9873"/>
		<polygon fill="#FFFFFF" points="317.2133,26.4033 333.8315,26.4033 351.3891,79.6211 351.6518,79.6211 368.5444,26.4033     384.3569,26.4033 359.5659,95.6973 342.4106,95.6973   "/>
		<rect x="391.3325" y="26.4033" fill="#FFFFFF" width="15.2764" height="69.3028"/>
		<path fill="#FFFFFF" d="M432.0727,73.4482c0.8086,8.8506,7.5098,12.0645,15.6895,12.0645c5.7588,0,15.8144-1.2031,15.4111-9.1133    c-0.4043-8.0439-11.5264-8.9765-22.6543-11.5322c-11.2558-2.4033-22.251-6.4336-22.251-20.499    c0-15.1455,16.3536-19.834,28.9561-19.834c14.2041,0,27.0713,5.8887,28.9502,21.2978h-15.9531    c-1.335-7.2324-7.3741-9.2324-14.0684-9.2324c-4.4219,0-12.6045,1.0684-12.6045,7.1016c0,7.497,11.2627,8.5674,22.5215,11.1133    c11.1201,2.5449,22.3896,6.58,22.3896,20.2412c0,16.4892-16.6279,22.5195-30.9658,22.5195    c-17.4238,0-30.4316-7.7783-30.6953-24.127H432.0727z"/>
		<rect x="487.8364" y="26.4033" fill="#FFFFFF" width="15.2754" height="69.3028"/>
		<path fill="#FFFFFF" d="M517.0493,26.4033h14.4736v10.1836l0.2637,0.2735c4.5683-7.6377,12.4736-12.335,21.5869-12.335    c15.0117,0,24.5352,8.0381,24.5352,23.5889v47.583h-15.2813V52.1377c-0.2744-10.8535-4.5674-15.5508-13.5459-15.5508    c-10.1914,0-16.7568,8.042-16.7568,18.2383v40.8721h-15.2755V26.4033z"/>
		<path fill="#FFFFFF" d="M584.3286,26.4033h11.5312V5.6279h15.2744v20.7754h13.8107v11.3965h-13.8107V74.792    c0,6.2939,0.5381,9.5176,7.3809,9.5176c2.1367,0,4.2861,0,6.4297-0.5332v11.79c-3.3506,0.2695-6.5596,0.7959-9.916,0.7959    c-15.9541,0-18.8985-6.165-19.169-17.6904V37.7998h-11.5312V26.4033z"/>
		<g>
			<path fill="#FFFFFF" d="M631.8628,1.1563c3.7421,0,6.8808,2.955,6.8808,6.8261c0,3.9444-3.1387,6.8994-6.8808,6.8994     c-3.7608,0-6.918-2.955-6.918-6.8994C624.9448,4.1113,628.102,1.1563,631.8628,1.1563z M631.8628,13.875     c3.1738,0,5.6338-2.5391,5.6338-5.8926c0-3.2851-2.46-5.8135-5.6338-5.8135c-3.2168,0-5.67,2.5284-5.67,5.8135     C626.1928,11.3359,628.646,13.875,631.8628,13.875z M629.1801,4h3.1036c1.915,0,2.8056,0.7559,2.8056,2.293     c0,1.4521-0.9199,2.0527-2.1094,2.1845l2.2911,3.544h-1.336l-2.1845-3.4531h-1.3164v3.4531h-1.254V4z M630.4341,7.5605h1.2988     c1.1074,0,2.1094-0.0546,2.1094-1.3203c0-1.0654-0.9209-1.2304-1.7579-1.2304h-1.6503V7.5605z"/>
		</g>
	</g>
	<g id="covisint-logo-with-tagline-light-tagline">
		<path fill="#FFFFFF" d="M172.645,122.3994h19.2861v1.9795h-8.4839v22.3525h-2.3173v-22.3525h-8.4849V122.3994z"/>
		<path fill="#FFFFFF" d="M190.6816,129.1484h1.9756v4.1231h0.0684c1.0908-2.8301,3.4755-4.4981,6.644-4.3613v2.1464    c-3.8838-0.205-6.543,2.6563-6.543,6.3057v9.3691h-2.145V129.1484z"/>
		<path fill="#FFFFFF" d="M215.6635,146.7314h-1.9755v-3.1699h-0.0669c-1.1265,2.3506-3.4424,3.6807-6.0664,3.6807    c-4.4302,0-6.169-2.5889-6.169-6.6807v-11.4131h2.147v11.4483c0.102,3.1699,1.2959,4.8398,4.7026,4.8398    c3.6812,0,5.2827-3.4756,5.2827-7.0556v-9.2325h2.1455V146.7314z"/>
		<path fill="#FFFFFF" d="M230.2583,134.2939c-0.1031-2.6591-2.146-3.8525-4.6006-3.8525c-1.9072,0-4.1572,0.752-4.1572,3.0352    c0,1.9062,2.1811,2.5898,3.6464,2.9648l2.8628,0.6465c2.4536,0.375,5.0103,1.8047,5.0103,4.873    c0,3.8155-3.7827,5.2813-7.0547,5.2813c-4.0898,0-6.8828-1.9102-7.2236-6.2022h2.146c0.1704,2.8965,2.3173,4.3965,5.1806,4.3965    c2.0098,0,4.8047-0.8867,4.8047-3.3388c0-2.0469-1.9092-2.7286-3.8511-3.2051l-2.7602-0.6143    c-2.7935-0.747-4.9077-1.7031-4.9077-4.6992c0-3.5801,3.5107-4.9414,6.6113-4.9414c3.5103,0,6.3037,1.8398,6.4399,5.6562H230.2583    z"/>
		<path fill="#FFFFFF" d="M239.5371,129.1484h3.5781v1.8057h-3.5781v11.8594c0,1.3945,0.2036,2.2138,1.7368,2.3154    c0.6133,0,1.2275-0.0361,1.8413-0.1016v1.8409c-0.6479,0-1.2612,0.0673-1.9097,0.0673c-2.8613,0-3.8491-0.9541-3.8159-3.9531    v-12.0283h-3.0674v-1.8057h3.0674v-5.2802h2.1475V129.1484z"/>
		<path fill="#FFFFFF" d="M247.4809,138.5195c0.0352,3.1328,1.6704,6.917,5.792,6.917c3.1362,0,4.8399-1.8388,5.5205-4.5h2.1475    c-0.9199,3.9873-3.2378,6.3057-7.668,6.3057c-5.5879,0-7.938-4.294-7.938-9.3027c0-4.6348,2.3501-9.3018,7.938-9.3018    c5.6577,0,7.9068,4.9414,7.7354,9.8818H247.4809z M258.8618,136.7129c-0.1011-3.2363-2.1128-6.2715-5.5889-6.2715    c-3.5088,0-5.4512,3.0674-5.792,6.2715H258.8618z"/>
		<path fill="#FFFFFF" d="M279.3857,146.7314h-1.9775v-3.3398h-0.0674c-0.9204,2.2852-3.7139,3.8506-6.2705,3.8506    c-5.3501,0-7.9043-4.3301-7.9043-9.3027c0-4.9756,2.5542-9.3018,7.9043-9.3018c2.6225,0,5.1806,1.3281,6.1001,3.8516h0.0683    v-10.0899h2.147V146.7314z M271.0703,145.4365c4.5674,0,6.1684-3.8506,6.1684-7.497c0-3.6456-1.601-7.4981-6.1684-7.4981    c-4.0889,0-5.7578,3.8525-5.7578,7.4981C265.3125,141.5859,266.9814,145.4365,271.0703,145.4365z"/>
		<path fill="#FFFFFF" d="M293.5429,122.3994h2.3174v24.332h-2.3174V122.3994z"/>
		<path fill="#FFFFFF" d="M300.4966,129.1484h2.1474v3.0332h0.0703c0.7827-2.1152,3.1348-3.5439,5.6197-3.5439    c4.9438,0,6.4438,2.5879,6.4438,6.7783v11.3154h-2.1489v-10.9726c0-3.0332-0.9868-5.3174-4.4634-5.3174    c-3.4072,0-5.4512,2.5908-5.5215,6.0303v10.2597h-2.1474V129.1484z"/>
		<path fill="#FFFFFF" d="M325.6225,130.9541h-3.4765v15.7773h-2.1455v-15.7773h-3v-1.8057h3v-1.6005    c-0.0372-3.0342,0.8144-5.1485,4.2587-5.1485c0.6143,0,1.1211,0.0361,1.8067,0.1387v1.8408    c-0.582-0.1016-1.0567-0.1738-1.5703-0.1738c-2.3838,0-2.3145,1.5019-2.3496,3.4111v1.5322h3.4765V130.9541z"/>
		<path fill="#FFFFFF" d="M343.4174,137.9395c0,5.0429-2.9345,9.3027-8.3193,9.3027c-5.3808,0-8.3125-4.2598-8.3125-9.3027    c0-5.043,2.9317-9.3018,8.3125-9.3018C340.4829,128.6377,343.4174,132.8965,343.4174,137.9395z M328.9331,137.9395    c0,3.749,2.0429,7.497,6.165,7.497c4.125,0,6.168-3.748,6.168-7.497c0-3.7491-2.043-7.4981-6.168-7.4981    C330.976,130.4414,328.9331,134.1904,328.9331,137.9395z"/>
		<path fill="#FFFFFF" d="M346.6274,129.1484h1.9775v4.1231h0.0694c1.0898-2.8301,3.4765-4.4981,6.6426-4.3613v2.1464    c-3.8819-0.205-6.5401,2.6563-6.5401,6.3057v9.3691h-2.1494V129.1484z"/>
		<path fill="#FFFFFF" d="M357.3686,129.1484h1.9756v2.9629h0.1016c1.1259-2.1123,2.9687-3.4736,5.7597-3.4736    c2.3174,0,4.3965,1.123,5.043,3.4414c1.0576-2.3184,3.2715-3.4414,5.5879-3.4414c3.8506,0,5.8291,2.0088,5.8291,6.166v11.9277    h-2.1484v-11.8261c0-2.8975-1.0918-4.4639-4.1573-4.4639c-3.7138,0-4.7695,3.0674-4.7695,6.3389v9.9511h-2.1455v-11.9277    c0.0332-2.3867-0.9561-4.3623-3.6797-4.3623c-3.7158,0-5.2158,2.7949-5.248,6.4766v9.8134h-2.1485V129.1484z"/>
		<path fill="#FFFFFF" d="M385.5639,134.5303c0.2041-4.1201,3.1006-5.8926,7.1221-5.8926c3.0986,0,6.4736,0.9541,6.4736,5.6562    v9.334c0,0.8203,0.4082,1.2959,1.2637,1.2959c0.2334,0,0.5088-0.0664,0.6807-0.1347v1.8037    c-0.4785,0.1025-0.8194,0.1386-1.3975,0.1386c-2.1807,0-2.5224-1.2285-2.5224-3.0673h-0.0684    c-1.501,2.2822-3.0293,3.5781-6.4063,3.5781c-3.2382,0-5.8945-1.6025-5.8945-5.1445c0-4.9405,4.8047-5.1123,9.4395-5.6563    c1.7705-0.206,2.7607-0.4453,2.7607-2.3867c0-2.8975-2.0791-3.6133-4.6016-3.6133c-2.6572,0-4.6328,1.2295-4.7011,4.0889H385.5639    z M397.0151,137.1211h-0.0684c-0.2763,0.5137-1.2265,0.6816-1.8056,0.7852c-3.6465,0.6445-8.1807,0.6132-8.1807,4.0546    c0,2.1446,1.9102,3.4756,3.919,3.4756c3.2714,0,6.1679-2.081,6.1357-5.5205V137.1211z"/>
		<path fill="#FFFFFF" d="M406.8725,129.1484h3.5762v1.8057h-3.5762v11.8594c0,1.3945,0.2032,2.2138,1.7344,2.3154    c0.6162,0,1.2275-0.0361,1.8418-0.1016v1.8409c-0.6475,0-1.2598,0.0673-1.9082,0.0673c-2.8613,0-3.8496-0.9541-3.8135-3.9531    v-12.0283h-3.0674v-1.8057h3.0674v-5.2802h2.1455V129.1484z"/>
		<path fill="#FFFFFF" d="M413.5893,122.3994h2.1465v3.4444h-2.1465V122.3994z M413.5893,129.1484h2.1465v17.583h-2.1465V129.1484z"/>
		<path fill="#FFFFFF" d="M435.6079,137.9395c0,5.0429-2.9336,9.3027-8.3164,9.3027c-5.3819,0-8.3155-4.2598-8.3155-9.3027    c0-5.043,2.9336-9.3018,8.3155-9.3018C432.6743,128.6377,435.6079,132.8965,435.6079,137.9395z M421.1264,137.9395    c0,3.749,2.044,7.497,6.1651,7.497c4.125,0,6.1679-3.748,6.1679-7.497c0-3.7491-2.0429-7.4981-6.1679-7.4981    C423.1704,130.4414,421.1264,134.1904,421.1264,137.9395z"/>
		<path fill="#FFFFFF" d="M438.7876,129.1484h2.1455v3.0332h0.0683c0.7842-2.1152,3.1348-3.5439,5.6241-3.5439    c4.9384,0,6.4394,2.5879,6.4394,6.7783v11.3154h-2.1484v-10.9726c0-3.0332-0.9883-5.3174-4.4629-5.3174    c-3.4043,0-5.4522,2.5908-5.5205,6.0303v10.2597h-2.1455V129.1484z"/>
		<path fill="#FFFFFF" d="M458.393,146.7314v-3.6142h2.8614v3.6142H458.393z"/>
		<path fill="#FFFFFF" d="M483.6137,122.3994h2.5879l9.544,24.332h-2.4893l-2.9629-7.5664h-11.0742l-2.9326,7.5664h-2.4873    L483.6137,122.3994z M479.935,137.1895h9.5742l-4.7041-12.4707L479.935,137.1895z"/>
		<path fill="#FFFFFF" d="M497.5317,129.1484h2.1455v3.0332h0.0664c0.7832-2.1152,3.1377-3.5439,5.625-3.5439    c4.9405,0,6.4424,2.5879,6.4424,6.7783v11.3154h-2.1523v-10.9726c0-3.0332-0.9873-5.3174-4.4629-5.3174    c-3.4063,0-5.4522,2.5908-5.5186,6.0303v10.2597h-2.1455V129.1484z"/>
		<path fill="#FFFFFF" d="M513.896,129.1484h2.2822l5.7939,14.9903l5.4161-14.9903h2.1494l-7.6309,20.2745    c-1.2295,2.9648-1.9473,3.8164-4.6387,3.8164c-0.8496-0.0332-1.2929-0.0332-1.6339-0.1709v-1.8057    c0.5137,0.1006,0.9893,0.1709,1.4639,0.1709c1.9111,0,2.3496-1.125,3.0664-2.7627l0.75-2.0068L513.896,129.1484z"/>
		<path fill="#FFFFFF" d="M529.8833,129.1484h2.2871l4.498,15.0596h0.0655l4.2968-15.0596h2.4151l4.2978,15.0596h0.0655    l4.498-15.0596h2.2842l-5.6572,17.583h-2.3506l-4.3291-14.788h-0.0674l-4.294,14.788h-2.3515L529.8833,129.1484z"/>
		<path fill="#FFFFFF" d="M556.8921,122.3994h2.1455v9.7822h0.0683c0.7813-2.1152,3.1338-3.5439,5.6211-3.5439    c4.9424,0,6.4424,2.5879,6.4424,6.7783v11.3154h-2.1475v-10.9726c0-3.0332-0.9902-5.3174-4.4677-5.3174    c-3.4034,0-5.4483,2.5908-5.5166,6.0303v10.2597h-2.1455V122.3994z"/>
		<path fill="#FFFFFF" d="M576.4946,138.5195c0.0332,3.1328,1.6699,6.917,5.791,6.917c3.1377,0,4.8369-1.8388,5.5235-4.5h2.1455    c-0.92,3.9873-3.2354,6.3057-7.669,6.3057c-5.5869,0-7.9394-4.294-7.9394-9.3027c0-4.6348,2.3525-9.3018,7.9394-9.3018    c5.6582,0,7.9033,4.9414,7.7344,9.8818H576.4946z M587.8755,136.7129c-0.1026-3.2363-2.1133-6.2715-5.5899-6.2715    c-3.5068,0-5.4531,3.0674-5.791,6.2715H587.8755z"/>
		<path fill="#FFFFFF" d="M592.9262,129.1484h1.9766v4.1231h0.0713c1.0898-2.8301,3.4756-4.4981,6.6426-4.3613v2.1464    c-3.8819-0.205-6.543,2.6563-6.543,6.3057v9.3691h-2.1475V129.1484z"/>
		<path fill="#FFFFFF" d="M604.3159,138.5195c0.0332,3.1328,1.6699,6.917,5.791,6.917c3.1387,0,4.8369-1.8388,5.5215-4.5h2.1484    c-0.9219,3.9873-3.2402,6.3057-7.6699,6.3057c-5.5859,0-7.9404-4.294-7.9404-9.3027c0-4.6348,2.3545-9.3018,7.9404-9.3018    c5.6572,0,7.9033,4.9414,7.7344,9.8818H604.3159z M615.6967,136.7129c-0.1005-3.2363-2.1142-6.2715-5.5898-6.2715    c-3.5098,0-5.4531,3.0674-5.791,6.2715H615.6967z"/>
		<path fill="#FFFFFF" d="M622.0112,146.7314v-3.6142h2.8604v3.6142H622.0112z"/>
	</g>
</g>
</g>
<g class="-covisint-logo-with-tagline">
<g>
	<g>
		<path fill="none" d="M68.2822,74.1347c-1.7637,2.1719-3.7661,4.1309-5.9536,5.877c2.1875,1.7422,4.1899,3.707,5.9536,5.8799    c1.7598-2.1729,3.7622-4.1377,5.9502-5.8799C72.0444,78.2656,70.042,76.3066,68.2822,74.1347z"/>
		<path fill="#009DDC" d="M62.3286,80.0117c2.1875-1.7461,4.1899-3.7051,5.9536-5.877c-5.3652-6.6084-8.5859-15.0244-8.5859-24.1962    c0-9.1661,3.2207-17.5791,8.5859-24.1885c-7.0488-8.6826-17.793-14.2412-29.8501-14.2412C17.2046,11.5088,0,28.7168,0,49.9385    C0,62.124,5.687,72.9678,14.5361,80.0117c6.563-5.2188,14.8564-8.3643,23.896-8.3643    C47.4726,71.6474,55.7632,74.7929,62.3286,80.0117z"/>
		<path fill="#8AC4EB" d="M68.2822,74.1347c1.7598,2.1719,3.7622,4.1309,5.9502,5.877c6.563-5.2188,14.8564-8.3643,23.8965-8.3643    c9.0395,0,17.3305,3.1455,23.8955,8.3643c8.8467-7.0439,14.5342-17.8877,14.5342-30.0732    c0-21.2217-17.2051-38.4297-38.4297-38.4297c-12.0537,0-22.8008,5.5586-29.8467,14.2412    c5.3589,6.6094,8.583,15.0224,8.583,24.1885C76.8652,59.1103,73.6411,67.5263,68.2822,74.1347z"/>
		<path fill="#0079C1" d="M68.2822,74.1347c5.3589-6.6084,8.583-15.0244,8.583-24.1962c0-9.1661-3.2241-17.5791-8.583-24.1885    c-5.3652,6.6094-8.5859,15.0224-8.5859,24.1885C59.6963,59.1103,62.917,67.5263,68.2822,74.1347z"/>
		<path fill="#009DDC" d="M122.0244,80.0117c-6.565,5.2236-14.856,8.3633-23.8955,8.3633c-9.0401,0-17.3335-3.1397-23.8965-8.3633    c-2.188,1.7422-4.1904,3.707-5.9502,5.8799c5.3589,6.6084,8.583,15.0224,8.583,24.1885c0,9.1718-3.2241,17.5878-8.583,24.1982    c7.0459,8.6826,17.793,14.2383,29.8467,14.2383c21.2246,0,38.4297-17.211,38.4297-38.4365    C136.5586,97.8955,130.8711,87.0508,122.0244,80.0117z"/>
		<path fill="#0079C1" d="M74.2324,80.0117c6.563,5.2236,14.8564,8.3633,23.8965,8.3633c9.0395,0,17.3305-3.1397,23.8955-8.3633    c-6.565-5.2188-14.856-8.3643-23.8955-8.3643C89.0888,71.6474,80.7954,74.7929,74.2324,80.0117z"/>
		<path fill="#8AC4EB" d="M68.2822,85.8916c-1.7637-2.1729-3.7661-4.1377-5.9536-5.8799    c-6.5654,5.2236-14.856,8.3633-23.8965,8.3633c-9.0396,0-17.333-3.1397-23.896-8.3633C5.687,87.0508,0,97.8955,0,110.0801    c0,21.2255,17.2046,38.4365,38.4321,38.4365c12.0571,0,22.8013-5.5557,29.8501-14.2383    c-5.3652-6.6104-8.5859-15.0264-8.5859-24.1982C59.6963,100.914,62.917,92.5,68.2822,85.8916z"/>
		<path fill="#0079C1" d="M62.3286,80.0117c-6.5654-5.2188-14.856-8.3643-23.8965-8.3643c-9.0396,0-17.333,3.1455-23.896,8.3643    c6.563,5.2236,14.8564,8.3633,23.896,8.3633C47.4726,88.375,55.7632,85.2353,62.3286,80.0117z"/>
		<path fill="#0079C1" d="M68.2822,85.8916c-5.3652,6.6084-8.5859,15.0224-8.5859,24.1885c0,9.1718,3.2207,17.5878,8.5859,24.1982    c5.3589-6.6104,8.583-15.0264,8.583-24.1982C76.8652,100.914,73.6411,92.5,68.2822,85.8916z"/>
		<circle fill="#009DDC" cx="398.9702" cy="8.9814" r="8.9844"/>
		<path fill="#009DDC" d="M504.4585,8.9814c0,4.961-4.0244,8.9844-8.9844,8.9844c-4.9619,0-8.9795-4.0234-8.9795-8.9844    c0-4.9599,4.0176-8.9814,8.9795-8.9814C500.4341,0,504.4585,4.0215,504.4585,8.9814z"/>
		<path fill="#009DDC" d="M222.185,49.5898c-1.2055-8.4453-7.3735-13.0019-15.8164-13.0019c-7.9121,0-19.0346,4.164-19.0346,25.1992    c0,11.5293,5.0957,23.7266,18.3642,23.7266c8.8438,0,15.0112-5.8917,16.4868-15.8145h15.2813    c-2.8208,17.9551-13.9429,27.877-31.7681,27.877c-21.7143,0-33.644-15.4063-33.644-35.7891    c0-20.9024,11.3906-37.2608,34.1801-37.2608c16.0831,0,29.7583,8.0499,31.232,25.0635H222.185z"/>
		<path fill="#009DDC" d="M298.7168,60.9873c0-11.9326-6.0293-24.3994-19.7022-24.3994c-13.6763,0-19.7055,12.4668-19.7055,24.3994    c0,12.0537,6.0292,24.5264,19.7055,24.5264C292.6875,85.5137,298.7168,73.041,298.7168,60.9873 M244.0346,60.9873    c0-21.1865,12.729-36.461,34.98-36.461c22.2529,0,34.982,15.2745,34.982,36.461c0,21.3125-12.7291,36.5889-34.982,36.5889    C256.7636,97.5762,244.0346,82.2998,244.0346,60.9873"/>
		<polygon fill="#009DDC" points="317.2133,26.4033 333.8315,26.4033 351.3891,79.622 351.6518,79.622 368.5444,26.4033     384.3569,26.4033 359.5659,95.6982 342.4106,95.6982   "/>
		<rect x="391.3325" y="26.4033" fill="#009DDC" width="15.2764" height="69.3037"/>
		<path fill="#009DDC" d="M432.0727,73.4482c0.8086,8.8516,7.5098,12.0655,15.6895,12.0655c5.7588,0,15.8144-1.2032,15.4111-9.1133    c-0.4043-8.045-11.5264-8.9766-22.6543-11.5323c-11.2558-2.4043-22.251-6.4345-22.251-20.5    c0-15.1455,16.3536-19.8339,28.9561-19.8339c14.2041,0,27.0713,5.8896,28.9502,21.2988h-15.9531    c-1.335-7.2334-7.3741-9.2334-14.0684-9.2334c-4.4219,0-12.6045,1.0693-12.6045,7.1016c0,7.497,11.2627,8.5683,22.5215,11.1132    c11.1201,2.545,22.3896,6.5801,22.3896,20.2422c0,16.4893-16.6279,22.5196-30.9658,22.5196    c-17.4238,0-30.4316-7.7784-30.6953-24.128H432.0727z"/>
		<rect x="487.8364" y="26.4033" fill="#009DDC" width="15.2754" height="69.3037"/>
		<path fill="#009DDC" d="M517.0493,26.4033h14.4736v10.1846l0.2637,0.2724c4.5683-7.6377,12.4736-12.334,21.5869-12.334    c15.0117,0,24.5352,8.0381,24.5352,23.5879v47.584h-15.2813V52.1377c-0.2744-10.8526-4.5674-15.5498-13.5459-15.5498    c-10.1914,0-16.7568,8.042-16.7568,18.2383v40.872h-15.2755V26.4033z"/>
		<path fill="#009DDC" d="M584.3286,26.4033h11.5312V5.6279h15.2744v20.7754h13.8107v11.3965h-13.8107v36.9931    c0,6.294,0.5381,9.5176,7.3809,9.5176c2.1367,0,4.2861,0,6.4297-0.5332v11.7901c-3.3506,0.2695-6.5596,0.7959-9.916,0.7959    c-15.9541,0-18.8985-6.1651-19.169-17.6905v-40.873h-11.5312V26.4033z"/>
		<g>
			<path fill="#009DDC" d="M631.8628,1.1572c3.7421,0,6.8808,2.9541,6.8808,6.8262c0,3.9443-3.1387,6.8994-6.8808,6.8994     c-3.7608,0-6.918-2.9551-6.918-6.8994C624.9448,4.1113,628.102,1.1572,631.8628,1.1572z M631.8628,13.875     c3.1738,0,5.6338-2.5381,5.6338-5.8916c0-3.2862-2.46-5.8135-5.6338-5.8135c-3.2168,0-5.67,2.5273-5.67,5.8135     C626.1928,11.3369,628.646,13.875,631.8628,13.875z M629.1801,4h3.1036c1.915,0,2.8056,0.7568,2.8056,2.2939     c0,1.4522-0.9199,2.0518-2.1094,2.1846l2.2911,3.543h-1.336l-2.1845-3.4522h-1.3164v3.4522h-1.254V4z M630.4341,7.5615h1.2988     c1.1074,0,2.1094-0.0557,2.1094-1.3203c0-1.0664-0.9209-1.2305-1.7579-1.2305h-1.6503V7.5615z"/>
		</g>
	</g>
	<g>
		<path fill="#807F83" d="M171.5278,123.124h19.3037v1.9805h-8.4912v22.373h-2.3198v-22.373h-8.4927V123.124z"/>
		<path fill="#807F83" d="M189.5805,129.8789h1.9781v4.1279h0.0683c1.0918-2.834,3.478-4.5029,6.6504-4.3662v2.1484    c-3.8877-0.205-6.5493,2.6592-6.5493,6.3116v9.3769h-2.1475V129.8789z"/>
		<path fill="#807F83" d="M214.5859,147.4775h-1.9775v-3.1719h-0.0669c-1.128,2.3526-3.4458,3.6836-6.0718,3.6836    c-4.4346,0-6.1748-2.5918-6.1748-6.6855v-11.4248h2.1489v11.4599c0.103,3.1719,1.2969,4.8428,4.707,4.8428    c3.6846,0,5.2881-3.4785,5.2881-7.0615v-9.2412h2.147V147.4775z"/>
		<path fill="#807F83" d="M229.1933,135.0283c-0.1025-2.6602-2.1474-3.8555-4.604-3.8555c-1.9092,0-4.1606,0.753-4.1606,3.0391    c0,1.9082,2.1831,2.5918,3.6494,2.9668l2.8652,0.6465c2.4551,0.376,5.0142,1.8086,5.0142,4.8779    c0,3.8203-3.7857,5.2861-7.0606,5.2861c-4.0937,0-6.8891-1.9111-7.2295-6.208h2.147c0.1709,2.8994,2.3194,4.4004,5.1856,4.4004    c2.0117,0,4.8091-0.8867,4.8091-3.3418c0-2.0478-1.9112-2.7304-3.8545-3.206l-2.7627-0.6162    c-2.7959-0.7481-4.9121-1.7051-4.9121-4.7032c0-3.582,3.5136-4.9463,6.6171-4.9463c3.5127,0,6.3096,1.8409,6.4468,5.6602H229.1933    z"/>
		<path fill="#807F83" d="M238.4814,129.8789h3.5811v1.8076h-3.5811v11.8701c0,1.3955,0.2036,2.2158,1.7388,2.3184    c0.6138,0,1.228-0.0352,1.8423-0.1026v1.8428c-0.6485,0-1.2627,0.0684-1.9107,0.0684c-2.8647,0-3.8535-0.9551-3.8208-3.958    v-12.0391h-3.0693v-1.8076h3.0693v-5.2861h2.1504V129.8789z"/>
		<path fill="#807F83" d="M246.4331,139.2578c0.0342,3.1367,1.6709,6.9238,5.7964,6.9238c3.1391,0,4.8447-1.8398,5.5258-4.5039    h2.1485c-0.9204,3.9922-3.2398,6.3115-7.6743,6.3115c-5.5928,0-7.9454-4.2978-7.9454-9.3105c0-4.6397,2.3526-9.3106,7.9454-9.3106    c5.6626,0,7.914,4.9463,7.7426,9.8897H246.4331z M257.8237,137.4502c-0.1011-3.2383-2.1143-6.2774-5.5942-6.2774    c-3.5127,0-5.4561,3.0703-5.7964,6.2774H257.8237z"/>
		<path fill="#807F83" d="M278.3662,147.4775h-1.9795v-3.3408h-0.0669c-0.9219,2.2852-3.7173,3.8525-6.2769,3.8525    c-5.3549,0-7.9111-4.3339-7.9111-9.3105c0-4.9805,2.5562-9.3106,7.9111-9.3106c2.6265,0,5.1856,1.3291,6.106,3.8545h0.0684    V123.124h2.1489V147.4775z M270.0429,146.1816c4.5713,0,6.1744-3.8535,6.1744-7.5029c0-3.6504-1.6031-7.5059-6.1744-7.5059    c-4.0922,0-5.7622,3.8555-5.7622,7.5059C264.2807,142.3281,265.9507,146.1816,270.0429,146.1816z"/>
		<path fill="#807F83" d="M292.5361,123.124h2.3203v24.3535h-2.3203V123.124z"/>
		<path fill="#807F83" d="M299.4975,129.8789h2.1485v3.0361h0.0698c0.7837-2.1162,3.1382-3.5469,5.626-3.5469    c4.9477,0,6.4477,2.5899,6.4477,6.7852v11.3242h-2.1484v-10.9824c0-3.0361-0.9893-5.3223-4.4693-5.3223    c-3.4091,0-5.456,2.5938-5.5258,6.0362v10.2685h-2.1485V129.8789z"/>
		<path fill="#807F83" d="M324.645,131.6865h-3.4795v15.791h-2.1475v-15.791h-3.0019v-1.8076h3.0019v-1.6026    c-0.0351-3.0361,0.8164-5.1523,4.2637-5.1523c0.6143,0,1.1221,0.0361,1.8086,0.1387v1.8418    c-0.583-0.1006-1.0586-0.1719-1.5723-0.1719c-2.3867,0-2.3164,1.501-2.3525,3.4121v1.5342h3.4795V131.6865z"/>
		<path fill="#807F83" d="M342.4555,138.6787c0,5.0469-2.9355,9.3105-8.3242,9.3105c-5.3877,0-8.3213-4.2636-8.3213-9.3105    s2.9336-9.3106,8.3213-9.3106C339.52,129.3681,342.4555,133.6318,342.4555,138.6787z M327.9594,138.6787    c0,3.7519,2.045,7.5029,6.1719,7.5029c4.1279,0,6.1729-3.751,6.1729-7.5029c0-3.7529-2.045-7.5059-6.1729-7.5059    C330.0044,131.1728,327.9594,134.9258,327.9594,138.6787z"/>
		<path fill="#807F83" d="M345.6714,129.8789h1.9775v4.1279h0.0693c1.0918-2.834,3.4805-4.5029,6.6504-4.3662v2.1484    c-3.8867-0.205-6.5478,2.6592-6.5478,6.3116v9.3769h-2.1494V129.8789z"/>
		<path fill="#807F83" d="M356.4204,129.8789h1.9775v2.9658h0.1035c1.125-2.1123,2.9698-3.4766,5.7637-3.4766    c2.3203,0,4.4004,1.1241,5.0469,3.4434c1.0596-2.3193,3.2744-3.4434,5.5937-3.4434c3.8535,0,5.833,2.0108,5.833,6.1719v11.9375    h-2.1484v-11.8359c0-2.8994-1.0918-4.4688-4.1611-4.4688c-3.7168,0-4.7744,3.0703-4.7744,6.3448v9.9599h-2.1475V135.54    c0.0322-2.3887-0.957-4.3672-3.6836-4.3672c-3.7197,0-5.2197,2.7979-5.2529,6.4825v9.8222h-2.1504V129.8789z"/>
		<path fill="#807F83" d="M384.6411,135.2676c0.2051-4.125,3.1055-5.8995,7.1299-5.8995c3.1025,0,6.4795,0.9551,6.4795,5.6602    v9.3437c0,0.8204,0.4091,1.2979,1.2646,1.2979c0.2354,0,0.5088-0.0674,0.6807-0.1357v1.8046    c-0.4776,0.1036-0.8194,0.1387-1.3975,0.1387c-2.1836,0-2.5264-1.2295-2.5264-3.0693h-0.0683    c-1.499,2.2851-3.0332,3.581-6.4102,3.581c-3.2412,0-5.9004-1.6025-5.9004-5.1494c0-4.9443,4.8086-5.1172,9.4473-5.6611    c1.7744-0.2051,2.7627-0.4453,2.7627-2.3887c0-2.9004-2.0801-3.6172-4.6055-3.6172c-2.6601,0-4.6377,1.2305-4.7051,4.0948    H384.6411z M396.103,137.8594h-0.0684c-0.2744,0.5126-1.2285,0.6826-1.8086,0.7851c-3.6474,0.6455-8.1855,0.6133-8.1855,4.0586    c0,2.1465,1.9111,3.4785,3.9228,3.4785c3.2745,0,6.1739-2.081,6.1397-5.5244V137.8594z"/>
		<path fill="#807F83" d="M405.9682,129.8789h3.5821v1.8076h-3.5821v11.8701c0,1.3955,0.2051,2.2158,1.7383,2.3184    c0.6143,0,1.2285-0.0352,1.8438-0.1026v1.8428c-0.6495,0-1.2608,0.0684-1.9112,0.0684c-2.8633,0-3.8515-0.9551-3.8183-3.958    v-12.0391h-3.0684v-1.8076h3.0684v-5.2861h2.1474V129.8789z"/>
		<path fill="#807F83" d="M412.6928,123.124h2.1475v3.4463h-2.1475V123.124z M412.6928,129.8789h2.1475v17.5986h-2.1475V129.8789z"/>
		<path fill="#807F83" d="M434.7309,138.6787c0,5.0469-2.9345,9.3105-8.3242,9.3105c-5.3857,0-8.3223-4.2636-8.3223-9.3105    s2.9366-9.3106,8.3223-9.3106C431.7964,129.3681,434.7309,133.6318,434.7309,138.6787z M420.2358,138.6787    c0,3.7519,2.0459,7.5029,6.1709,7.5029c4.1279,0,6.1748-3.751,6.1748-7.5029c0-3.7529-2.0469-7.5059-6.1748-7.5059    C422.2817,131.1728,420.2358,134.9258,420.2358,138.6787z"/>
		<path fill="#807F83" d="M437.9155,129.8789h2.1475v3.0361h0.0664c0.7851-2.1162,3.1386-3.5469,5.6298-3.5469    c4.9444,0,6.4463,2.5899,6.4463,6.7852v11.3242h-2.1523v-10.9824c0-3.0361-0.9883-5.3223-4.4658-5.3223    c-3.4082,0-5.458,2.5938-5.5244,6.0362v10.2685h-2.1475V129.8789z"/>
		<path fill="#807F83" d="M457.5366,147.4775v-3.6172h2.8642v3.6172H457.5366z"/>
		<path fill="#807F83" d="M482.7807,123.124h2.5928l9.5508,24.3535h-2.4902l-2.9668-7.5722h-11.084l-2.9346,7.5722h-2.4893    L482.7807,123.124z M479.101,137.9277h9.5821l-4.708-12.4824L479.101,137.9277z"/>
		<path fill="#807F83" d="M496.7124,129.8789h2.1474v3.0361h0.0664c0.7852-2.1162,3.1416-3.5469,5.6309-3.5469    c4.9443,0,6.4463,2.5899,6.4463,6.7852v11.3242h-2.1524v-10.9824c0-3.0361-0.9882-5.3223-4.4668-5.3223    c-3.4082,0-5.458,2.5938-5.5244,6.0362v10.2685h-2.1474V129.8789z"/>
		<path fill="#807F83" d="M513.0923,129.8789h2.2841l5.7989,15.0058l5.4228-15.0058h2.1504l-7.6396,20.293    c-1.2295,2.9677-1.9463,3.8193-4.6407,3.8193c-0.8506-0.0332-1.2959-0.0332-1.6357-0.1699v-1.8086    c0.5128,0.1015,0.9883,0.1728,1.4658,0.1728c1.9111,0,2.3525-1.1269,3.0693-2.7656l0.7491-2.0098L513.0923,129.8789z"/>
		<path fill="#807F83" d="M529.0962,129.8789h2.2861l4.5019,15.0732h0.0674l4.2989-15.0732h2.4189l4.2998,15.0732h0.0674    l4.502-15.0732h2.2862l-5.6631,17.5986h-2.3525l-4.3331-14.8027h-0.0673l-4.2969,14.8027h-2.3527L529.0962,129.8789z"/>
		<path fill="#807F83" d="M556.1264,123.124h2.1475v9.791h0.0684c0.7841-2.1162,3.1386-3.5469,5.6279-3.5469    c4.9464,0,6.4464,2.5899,6.4464,6.7852v11.3242h-2.1494v-10.9824c0-3.0361-0.9883-5.3223-4.4688-5.3223    c-3.4082,0-5.456,2.5938-5.5244,6.0362v10.2685h-2.1475V123.124z"/>
		<path fill="#807F83" d="M575.7475,139.2578c0.0342,3.1367,1.6729,6.9238,5.7979,6.9238c3.1387,0,4.8408-1.8398,5.5273-4.5039    h2.1465c-0.9219,3.9922-3.2383,6.3115-7.6738,6.3115c-5.5908,0-7.9473-4.2978-7.9473-9.3105c0-4.6397,2.3565-9.3106,7.9473-9.3106    c5.6611,0,7.9111,4.9463,7.7411,9.8897H575.7475z M587.1401,137.4502c-0.1035-3.2383-2.1162-6.2774-5.5947-6.2774    c-3.5117,0-5.458,3.0703-5.7979,6.2774H587.1401z"/>
		<path fill="#807F83" d="M592.1958,129.8789h1.9775v4.1279h0.0703c1.0908-2.834,3.4795-4.5029,6.6514-4.3662v2.1484    c-3.8887-0.205-6.5498,2.6592-6.5498,6.3116v9.3769h-2.1494V129.8789z"/>
		<path fill="#807F83" d="M603.5952,139.2578c0.0322,3.1367,1.6699,6.9238,5.7969,6.9238c3.1386,0,4.8418-1.8398,5.5253-4.5039    h2.1495c-0.9219,3.9922-3.2403,6.3115-7.6748,6.3115c-5.5918,0-7.9473-4.2978-7.9473-9.3105c0-4.6397,2.3555-9.3106,7.9473-9.3106    c5.6611,0,7.9111,4.9463,7.7412,9.8897H603.5952z M614.9858,137.4502c-0.1016-3.2383-2.1162-6.2774-5.5937-6.2774    c-3.5127,0-5.458,3.0703-5.7969,6.2774H614.9858z"/>
		<path fill="#807F83" d="M621.3061,147.4775v-3.6172h2.8643v3.6172H621.3061z"/>
	</g>
</g>
</g>
<g class="-covisint-logo">
<g>
	<path fill="#009DDC" d="M56.8448,62.4737c1.9946-1.5899,3.8154-3.377,5.4238-5.3614c-4.8897-6.0234-7.8272-13.6963-7.8272-22.0674   c0-8.3584,2.9375-16.0253,7.8272-22.0576C55.8423,5.0674,46.044,0,35.0508,0C15.6929,0,0,15.6963,0,35.0449   c0,11.1153,5.19,21.0079,13.2603,27.4288c5.9849-4.7657,13.5454-7.625,21.7905-7.625   C43.2935,54.8487,50.854,57.708,56.8448,62.4737z"/>
	<path fill="#8AC4EB" d="M62.2686,57.1123c1.6084,1.9844,3.4307,3.7715,5.4307,5.3614c5.9814-4.7657,13.5444-7.625,21.788-7.625   c8.2403,0,15.8091,2.8593,21.7896,7.625c8.0688-6.4209,13.2588-16.3135,13.2588-27.4288C124.5357,15.6963,108.8443,0,89.4873,0   C78.4932,0,68.6905,5.0674,62.2686,12.9873c4.8931,6.0323,7.8306,13.6992,7.8306,22.0576   C70.0992,43.416,67.1617,51.0889,62.2686,57.1123z"/>
	<path fill="#0079C1" d="M62.2686,57.1123c4.8931-6.0234,7.8306-13.6963,7.8306-22.0674c0-8.3584-2.9375-16.0253-7.8306-22.0576   c-4.8897,6.0323-7.8272,13.6992-7.8272,22.0576C54.4414,43.416,57.3789,51.0889,62.2686,57.1123z"/>
	<path fill="#009DDC" d="M111.2769,62.4737c-5.9805,4.7627-13.5493,7.6289-21.7896,7.6289c-8.2436,0-15.8066-2.8662-21.788-7.6289   c-2,1.582-3.8223,3.3769-5.4307,5.3613c4.8931,6.0244,7.8306,13.6992,7.8306,22.0596c0,8.3544-2.9375,16.0341-7.8306,22.0634   c6.4219,7.919,16.2246,12.9776,27.2187,12.9776c19.357,0,35.0484-15.6934,35.0484-35.041   C124.5357,78.7842,119.3457,68.8887,111.2769,62.4737z"/>
	<path fill="#0079C1" d="M67.6993,62.4737c5.9814,4.7627,13.5444,7.6289,21.788,7.6289c8.2403,0,15.8091-2.8662,21.7896-7.6289   c-5.9805-4.7657-13.5493-7.625-21.7896-7.625C81.2437,54.8487,73.6807,57.708,67.6993,62.4737z"/>
	<path fill="#8AC4EB" d="M62.2686,67.835c-1.6084-1.9844-3.4292-3.7793-5.4238-5.3613c-5.9908,4.7627-13.5513,7.6289-21.794,7.6289   c-8.2451,0-15.8056-2.8662-21.7905-7.6289C5.19,68.8887,0,78.7842,0,89.8946c0,19.3476,15.6929,35.041,35.0508,35.041   c10.9932,0,20.7915-5.0586,27.2178-12.9776c-4.8897-6.0293-7.8272-13.709-7.8272-22.0634   C54.4414,81.5342,57.3789,73.8594,62.2686,67.835z"/>
	<path fill="#0079C1" d="M56.8448,62.4737c-5.9908-4.7657-13.5513-7.625-21.794-7.625c-8.2451,0-15.8056,2.8593-21.7905,7.625   c5.9849,4.7627,13.5454,7.6289,21.7905,7.6289C43.2935,70.1026,50.854,67.2364,56.8448,62.4737z"/>
	<path fill="#0079C1" d="M62.2686,67.835c-4.8897,6.0244-7.8272,13.6992-7.8272,22.0596c0,8.3544,2.9375,16.0341,7.8272,22.0634   c4.8931-6.0293,7.8306-13.709,7.8306-22.0634C70.0992,81.5342,67.1617,73.8594,62.2686,67.835z"/>
	<circle fill="#009DDC" cx="397.3326" cy="11.792" r="9.0996"/>
	<circle fill="#009DDC" cx="495.1138" cy="11.792" r="9.1016"/>
	<path fill="#009DDC" d="M218.212,52.9405c-1.2266-8.5577-7.4747-13.1768-16.0259-13.1768c-8.0181,0-19.2866,4.2217-19.2866,25.5322   c0,11.6778,5.163,24.0401,18.6035,24.0401c8.9633,0,15.2133-5.9727,16.709-16.0254h15.4755   c-2.8515,18.1933-14.123,28.247-32.1845,28.247c-21.9986,0-34.086-15.6103-34.086-36.2617   c0-21.1797,11.5391-37.7549,34.6328-37.7549c16.295,0,30.1509,8.1602,31.6377,25.3995H218.212z"/>
	<path fill="#009DDC" d="M295.7544,64.4893c0-12.0977-6.1118-24.7256-19.9658-24.7256c-13.8525,0-19.9663,12.6279-19.9663,24.7256   c0,12.208,6.1138,24.8467,19.9663,24.8467C289.6426,89.336,295.7544,76.6973,295.7544,64.4893 M240.3433,64.4893   c0-21.4678,12.9033-36.9483,35.4453-36.9483c22.5449,0,35.4487,15.4805,35.4487,36.9483c0,21.5889-12.9038,37.0683-35.4487,37.0683   C253.2466,101.5576,240.3433,86.0782,240.3433,64.4893"/>
	<polygon fill="#009DDC" points="314.4922,29.4463 331.3345,29.4463 349.1216,83.3633 349.3853,83.3633 366.5064,29.4463    382.5259,29.4463 357.4048,99.6553 340.0259,99.6553  "/>
	<rect x="389.5943" y="29.4463" fill="#009DDC" width="15.4765" height="70.2158"/>
	<path fill="#009DDC" d="M430.8736,77.1045c0.8164,8.9737,7.6054,12.2315,15.9023,12.2315c5.8262,0,16.0156-1.2237,15.6094-9.2403   c-0.4141-8.1484-11.6816-9.0888-22.9531-11.6787c-11.4102-2.4336-22.545-6.5215-22.545-20.7695   c0-15.3438,16.5665-20.0967,29.3379-20.0967c14.3907,0,27.4297,5.9658,29.336,21.5762h-16.166   c-1.3536-7.3291-7.4688-9.3555-14.2579-9.3555c-4.4765,0-12.7675,1.0899-12.7675,7.1963c0,7.6016,11.414,8.6816,22.8164,11.2666   c11.2715,2.5752,22.6836,6.6611,22.6836,20.499c0,16.709-16.8438,22.8242-31.3731,22.8242   c-17.6523,0-30.832-7.8837-31.1015-24.4531H430.8736z"/>
	<rect x="487.3755" y="29.4463" fill="#009DDC" width="15.4785" height="70.2158"/>
	<path fill="#009DDC" d="M516.9732,29.4463h14.668v10.3174l0.2636,0.2754c4.6309-7.7354,12.6387-12.4981,21.8731-12.4981   c15.2109,0,24.8574,8.1416,24.8574,23.9043v48.21h-15.4824V55.5166c-0.2715-10.9912-4.627-15.7529-13.7227-15.7529   c-10.3222,0-16.9785,8.1504-16.9785,18.4766v41.415h-15.4785V29.4463z"/>
	<path fill="#009DDC" d="M585.147,29.4463h11.6797V8.3907h15.4785v21.0556h13.9903v11.5479h-13.9903v37.4746   c0,6.3799,0.5469,9.6435,7.4746,9.6435c2.1719,0,4.3438,0,6.5157-0.54v11.9502c-3.3907,0.2724-6.6485,0.8037-10.0469,0.8037   c-16.1602,0-19.1485-6.2461-19.4219-17.9287V40.9942H585.147V29.4463z"/>
	<g>
		<path fill="#009DDC" d="M633.3052,3.8633c3.791,0,6.9727,2.9912,6.9727,6.9131c0,3.9971-3.1817,6.9971-6.9727,6.9971    c-3.8125,0-7.0097-3-7.0097-6.9971C626.2955,6.8545,629.4927,3.8633,633.3052,3.8633z M633.3052,16.75    c3.2168,0,5.709-2.5761,5.709-5.9736c0-3.3223-2.4922-5.8897-5.709-5.8897c-3.2539,0-5.7441,2.5674-5.7441,5.8897    C627.5611,14.1739,630.0513,16.75,633.3052,16.75z M630.5904,6.7471h3.1445c1.9356,0,2.8398,0.7656,2.8398,2.3174    c0,1.4726-0.9335,2.0859-2.1328,2.2197l2.3164,3.5869h-1.3476L633.19,11.376h-1.332v3.4951h-1.2676V6.7471z M631.858,10.3526    h1.3183c1.1192,0,2.1328-0.0567,2.1328-1.3379c0-1.0801-0.9297-1.2471-1.7793-1.2471h-1.6718V10.3526z"/>
	</g>
</g>
</g>
<g class="-edit-user">
<g id="edit-user">
	<path d="M23.979,29.805c-5.541,0-9.414-6.667-10.339-9.385c-0.051-0.032-0.106-0.065-0.16-0.099   c-0.359-0.224-0.598-0.372-0.754-0.648c-1.332-2.357-1.685-4.243-1.048-5.605c0.306-0.654,0.769-1.048,1.175-1.283   c-0.002-1.019,0.071-2.968,0.573-4.862c0.021-0.075,2.006-7.073,10.553-7.073S34.511,7.848,34.53,7.919   c0.502,1.896,0.576,3.847,0.574,4.865c0.405,0.235,0.868,0.629,1.174,1.283c0.637,1.363,0.284,3.249-1.048,5.606   c-0.153,0.275-0.393,0.424-0.756,0.65c-0.053,0.033-0.107,0.066-0.158,0.098C33.395,23.136,29.522,29.805,23.979,29.805z    M14.374,18.522c0.049,0.031,0.104,0.065,0.161,0.1c0.469,0.291,0.807,0.501,0.932,0.945c0.502,1.74,3.91,8.237,8.512,8.237   c4.604,0,8.01-6.497,8.512-8.242c0.128-0.441,0.464-0.65,0.929-0.939c0.058-0.036,0.114-0.07,0.163-0.101   c1.234-2.25,1.04-3.253,0.896-3.585c-0.178-0.406-0.55-0.505-0.592-0.515c-0.47-0.112-0.82-0.551-0.794-1.033   c0.001-0.026,0.13-2.596-0.494-4.955c-0.062-0.22-1.64-5.585-8.619-5.585s-8.558,5.365-8.621,5.594   c-0.623,2.35-0.493,4.92-0.492,4.945c0.027,0.502-0.322,0.947-0.817,1.038c-0.019,0.005-0.392,0.104-0.568,0.511   C13.334,15.27,13.14,16.274,14.374,18.522z"/>
	<path d="M21.286,47.19c-11.146,0-18.776-1.907-19.12-1.995c-0.46-0.117-0.774-0.542-0.752-1.017   c0.478-10.023,6.721-13.135,11.375-14.604c3.629-1.146,5.529-3,5.548-3.019c0.393-0.388,1.025-0.386,1.414,0.006   c0.389,0.393,0.387,1.025-0.006,1.415c-0.091,0.09-2.268,2.216-6.354,3.505c-4.549,1.436-9.248,3.989-9.924,11.958   c2.457,0.528,10.305,1.998,20.483,1.712c0.552-0.021,1.013,0.419,1.028,0.972c0.015,0.552-0.42,1.012-0.972,1.027   C23.079,47.178,22.171,47.19,21.286,47.19z"/>
	<path d="M29.207,47.221c-0.262,0-0.518-0.103-0.707-0.293c-0.252-0.251-0.351-0.618-0.26-0.961l1.703-6.47   c0.045-0.171,0.135-0.328,0.26-0.453l8.171-8.172c1.107-1.105,3.033-1.105,4.139-0.001l2.043,2.044   c1.141,1.141,1.141,2.998,0,4.138l-8.172,8.172c-0.125,0.125-0.281,0.215-0.452,0.26l-6.47,1.703   C29.377,47.21,29.292,47.221,29.207,47.221z M31.809,40.268l-1.198,4.55l4.551-1.198l7.98-7.981c0.361-0.361,0.361-0.949,0-1.31   l-2.043-2.043c-0.35-0.349-0.961-0.351-1.311,0.001L31.809,40.268z"/>
	<path d="M35,45c-0.249,0-0.498-0.092-0.691-0.278l-3.666-3.51c-0.399-0.382-0.413-1.015-0.031-1.414   c0.383-0.399,1.018-0.412,1.414-0.031l3.666,3.51c0.399,0.382,0.413,1.015,0.031,1.414C35.526,44.896,35.263,45,35,45z"/>
	<path d="M34.867,31.53c-0.1,0-0.201-0.015-0.301-0.047c-4.086-1.29-6.265-3.416-6.355-3.505   c-0.392-0.389-0.395-1.022-0.006-1.414c0.389-0.393,1.019-0.396,1.412-0.009c0.029,0.029,1.966,1.89,5.551,3.021   c0.526,0.166,0.819,0.728,0.653,1.254C35.687,31.257,35.292,31.53,34.867,31.53z"/>
</g>
</g>
<g class="-edit">
<g id="edit">
	<g>
		<path d="M36,45H11c-0.3413696,0-0.6740112-0.0352783-1-0.090332V12h20c0.5522461,0,1-0.4472656,1-1    s-0.4477539-1-1-1H8.5c-1.9261475,0-3.4932251-1.5648804-3.4989624-3.4897461C5.0067749,4.5736694,6.5826416,3,8.5200195,3H12    h18c0.5522461,0,1-0.4472656,1-1s-0.4477539-1-1-1H12H8.5200195H8.5C5.4672852,1,3,3.4677734,3,6.5    c0,0.003479,0,0.0067749,0,0.0102539s0,0.0067749,0,0.0102539V39c0,4.4111328,3.5888672,8,8,8h25c0.5522461,0,1-0.4472656,1-1    S36.5522461,45,36,45z M5,39V10.7391968c0.8306885,0.6871338,1.8665771,1.1326904,3,1.2354736v32.213562    C6.2095947,43.1488647,5,41.2151489,5,39z"/>
		<path d="M30,4H9C8.4477539,4,8,4.4472656,8,5s0.4477539,1,1,1h21c0.5522461,0,1-0.4472656,1-1S30.5522461,4,30,4    z"/>
		<path d="M30,7H9C8.4477539,7,8,7.4472656,8,8s0.4477539,1,1,1h21c0.5522461,0,1-0.4472656,1-1S30.5522461,7,30,7    z"/>
		<path d="M42.472168,0H37.527832C35.03125,0,33,2.3740234,33,4.8710938V9v0.3427734V35    c0,0.1157227,0.0297241,0.2227783,0.0658569,0.3261719c-0.0917358,0.2585449-0.0856323,0.5499878,0.0562134,0.8095703l6,11    c0.175293,0.3212891,0.512207,0.5214844,0.8779297,0.5214844s0.7026367-0.2001953,0.8779297-0.5214844l6-11    c0.1418457-0.2595825,0.1479492-0.5510254,0.0562134-0.8095703C46.9702759,35.2227783,47,35.1157227,47,35V9.3427734V9    V4.8710938C47,2.3740234,44.96875,0,42.472168,0z M42.4923096,40h-4.9846191l-2.1817627-4h1.7432861    c0.140686,0.382019,0.500061,0.6572266,0.9307861,0.6572266S38.7901001,36.382019,38.9307861,36h2.1384277    c0.140686,0.382019,0.500061,0.6572266,0.9307861,0.6572266S42.7901001,36.382019,42.9307861,36h1.7432861L42.4923096,40z     M45,35h-2V10h2V35z M41,35h-2V10h2V35z M37,35h-2V10h2V35z M37.527832,2h4.9443359C43.8662109,2,45,3.4765625,45,4.8710938V8    H35V4.8710938C35,3.4765625,36.1337891,2,37.527832,2z M40,44.5693359L38.5985718,42h2.8028564L40,44.5693359z"/>
		<path d="M29,19c0.5522461,0,1-0.4472656,1-1s-0.4477539-1-1-1H18c-0.5522461,0-1,0.4472656-1,1v11    c0,0.5527344,0.4477539,1,1,1h11c0.5522461,0,1-0.4472656,1-1s-0.4477539-1-1-1H19v-9H29z"/>
	</g>
</g>
</g>
<g class="-folder-search">
<g id="folder-search">
	<rect x="4" y="44" width="25" height="2"/>
	<path d="M4.613,46H4c-1.654,0-3-1.346-3-3V4c0-0.552,0.448-1,1-1h15.757c1.068,0,2.073,0.416,2.829,1.172L25.414,9   H44c0.552,0,1,0.448,1,1v6h-2v-5H25c-0.265,0-0.52-0.105-0.707-0.293l-5.121-5.121C18.794,5.208,18.292,5,17.757,5H3v38   c0,0.551,0.449,1,1,1h0.613c0.937,0,1.738-0.637,1.949-1.55l5.463-23.675C12.13,18.321,12.534,18,13,18h33   c0.308,0,0.599,0.142,0.788,0.385s0.257,0.559,0.182,0.858l-2,8l-1.94-0.485L44.719,20H13.795L8.511,42.9   C8.09,44.725,6.487,46,4.613,46z"/>
	<path d="M39.358,44.499c-1.958,0-3.8-0.763-5.185-2.148c-1.385-1.384-2.148-3.226-2.148-5.184   s0.763-3.8,2.148-5.184c1.385-1.385,3.226-2.148,5.185-2.148s3.8,0.763,5.185,2.148c2.858,2.858,2.858,7.51,0,10.368   C43.158,43.736,41.317,44.499,39.358,44.499z M39.358,31.835c-1.424,0-2.763,0.555-3.771,1.562   c-1.007,1.007-1.562,2.346-1.562,3.77s0.555,2.763,1.562,3.77c1.007,1.007,2.346,1.562,3.771,1.562s2.763-0.555,3.771-1.562   c2.079-2.079,2.079-5.461,0-7.54C42.122,32.39,40.783,31.835,39.358,31.835z"/>
	<path d="M31.974,45.552c-0.256,0-0.512-0.098-0.707-0.293c-0.391-0.391-0.391-1.023,0-1.414l2.468-2.468   c0.391-0.391,1.023-0.391,1.414,0s0.391,1.023,0,1.414l-2.468,2.468C32.485,45.454,32.229,45.552,31.974,45.552z"/>
</g>
</g>
<g class="-game-2">
<g id="game-2">
	<path d="M24,15c-2.8,0-5-2.2-5-5s2.2-5,5-5s5,2.2,5,5S26.8,15,24,15z M24,7c-1.7,0-3,1.3-3,3s1.3,3,3,3s3-1.3,3-3   S25.7,7,24,7z"/>
	<path d="M10,15c-2.8,0-5-2.2-5-5s2.2-5,5-5s5,2.2,5,5S12.8,15,10,15z M10,7c-1.7,0-3,1.3-3,3s1.3,3,3,3s3-1.3,3-3   S11.7,7,10,7z"/>
	<path d="M38,15c-2.8,0-5-2.2-5-5s2.2-5,5-5s5,2.2,5,5S40.8,15,38,15z M38,7c-1.7,0-3,1.3-3,3s1.3,3,3,3s3-1.3,3-3   S39.7,7,38,7z"/>
	<path d="M24,29c-2.8,0-5-2.2-5-5s2.2-5,5-5s5,2.2,5,5S26.8,29,24,29z M24,21c-1.7,0-3,1.3-3,3s1.3,3,3,3s3-1.3,3-3   S25.7,21,24,21z"/>
	<path d="M10,29c-2.8,0-5-2.2-5-5s2.2-5,5-5s5,2.2,5,5S12.8,29,10,29z M10,21c-1.7,0-3,1.3-3,3s1.3,3,3,3s3-1.3,3-3   S11.7,21,10,21z"/>
	<path d="M38,29c-2.8,0-5-2.2-5-5s2.2-5,5-5s5,2.2,5,5S40.8,29,38,29z M38,21c-1.7,0-3,1.3-3,3s1.3,3,3,3s3-1.3,3-3   S39.7,21,38,21z"/>
	<path d="M24,43c-2.8,0-5-2.2-5-5s2.2-5,5-5s5,2.2,5,5S26.8,43,24,43z M24,35c-1.7,0-3,1.3-3,3s1.3,3,3,3s3-1.3,3-3   S25.7,35,24,35z"/>
	<path d="M10,43c-2.8,0-5-2.2-5-5s2.2-5,5-5s5,2.2,5,5S12.8,43,10,43z M10,35c-1.7,0-3,1.3-3,3s1.3,3,3,3s3-1.3,3-3   S11.7,35,10,35z"/>
	<path d="M38,43c-2.8,0-5-2.2-5-5s2.2-5,5-5s5,2.2,5,5S40.8,43,38,43z M38,35c-1.7,0-3,1.3-3,3s1.3,3,3,3s3-1.3,3-3   S39.7,35,38,35z"/>
	<path d="M38,39H24c-0.6,0-1-0.4-1-1s0.4-1,1-1h13V25H10c-0.6,0-1-0.4-1-1V10c0-0.6,0.4-1,1-1h14c0.6,0,1,0.4,1,1   s-0.4,1-1,1H11v12h27c0.6,0,1,0.4,1,1v14C39,38.6,38.6,39,38,39z"/>
</g>
</g>
<g class="-gift">
<g id="gift">
	<path d="M33,46H3c-0.552,0-1-0.448-1-1V15c0-0.552,0.448-1,1-1h30c0.552,0,1,0.448,1,1v30   C34,45.552,33.552,46,33,46z M4,44h28V16H4V44z"/>
	<path d="M33,46c-0.256,0-0.512-0.098-0.707-0.293c-0.391-0.391-0.391-1.023,0-1.414L44,32.586V4H15.414   L3.707,15.707c-0.391,0.391-1.023,0.391-1.414,0s-0.391-1.023,0-1.414l12-12C14.48,2.105,14.735,2,15,2h30c0.552,0,1,0.448,1,1v30   c0,0.265-0.105,0.52-0.293,0.707l-12,12C33.512,45.902,33.256,46,33,46z"/>
	<path d="M36,23c-0.063,0-0.126-0.006-0.189-0.018c-0.326-0.063-0.6-0.283-0.73-0.588l-3-7   c-0.161-0.376-0.077-0.812,0.212-1.101l11-11c0.286-0.287,0.715-0.373,1.09-0.217C44.756,3.231,45,3.596,45,4v10   c0,0.265-0.105,0.52-0.293,0.707l-8,8C36.518,22.896,36.263,23,36,23z M34.186,15.229l2.151,5.02L43,13.586V6.414L34.186,15.229z"/>
	<path d="M17,46c-0.552,0-1-0.448-1-1V14.5c0-0.265,0.105-0.52,0.293-0.707l11.5-11.5   c0.391-0.391,1.023-0.391,1.414,0s0.391,1.023,0,1.414L18,14.914V45C18,45.552,17.552,46,17,46z"/>
	<path d="M14.654,30.028C14.654,30.028,14.654,30.028,14.654,30.028c-2.169,0-4.576-1.227-5.479-2.792   C8.652,26.33,8.638,25.358,9.134,24.5c0.495-0.856,1.292-1.328,2.246-1.328c2.552,0,5.753,3.47,6.369,4.166   c0.306,0.346,0.335,0.856,0.071,1.235C17.165,29.511,16.041,30.028,14.654,30.028z M11.38,25.172c-0.206,0-0.355,0.054-0.515,0.329   c-0.095,0.164-0.164,0.379,0.042,0.736c0.541,0.938,2.326,1.792,3.746,1.792c0,0,0,0,0,0c0.268,0,0.583-0.029,0.871-0.13   C14.207,26.587,12.4,25.172,11.38,25.172z"/>
	<path d="M23,35c-0.226,0-0.453-0.076-0.64-0.232l-6-5c-0.424-0.354-0.481-0.984-0.128-1.408   c0.354-0.423,0.984-0.482,1.408-0.128l6,5c0.424,0.354,0.481,0.984,0.128,1.408C23.57,34.877,23.286,35,23,35z"/>
	<path d="M19.467,29.816c-1.048,0-1.938-0.354-2.575-1.022c-0.318-0.334-0.367-0.844-0.116-1.231   c0.551-0.854,3.432-5.111,6.085-5.111c0.783,0,1.476,0.348,2.003,1.006c0.67,0.835,0.766,1.916,0.263,2.963   C24.243,28.261,21.651,29.816,19.467,29.816z M19.058,27.781c0.126,0.023,0.263,0.036,0.409,0.036c1.399,0,3.309-1.12,3.857-2.262   c0.247-0.513,0.066-0.738-0.021-0.846c-0.181-0.226-0.32-0.257-0.442-0.257C21.889,24.452,20.216,26.214,19.058,27.781z"/>
	<path d="M12.59,35.942c-0.235,0-0.472-0.083-0.662-0.251c-0.414-0.366-0.452-0.999-0.086-1.412l5.177-5.848   c0.366-0.414,0.999-0.452,1.411-0.086c0.414,0.366,0.452,0.999,0.086,1.412l-5.177,5.848C13.142,35.828,12.866,35.942,12.59,35.942   z"/>
</g>
</g>
<g class="-large-phone">

<g id="large-phone">
	<g>
		<path d="M35,40H13c-0.552,0-1-0.448-1-1V5c0-0.552,0.448-1,1-1h22c0.552,0,1,0.448,1,1v34    C36,39.552,35.552,40,35,40z M14,38h20V6H14V38z"/>
	</g>
	<g>
		<path d="M35,48H13c-2.757,0-5-2.243-5-5V5c0-2.757,2.243-5,5-5h22c2.757,0,5,2.243,5,5v38    C40,45.757,37.757,48,35,48z M13,2c-1.654,0-3,1.346-3,3v38c0,1.654,1.346,3,3,3h22c1.654,0,3-1.346,3-3V5    c0-1.654-1.346-3-3-3H13z"/>
	</g>
	<g>
		<circle cx="24" cy="43" r="2"/>
	</g>
</g>
</g>
<g class="-list">
<g id="list">
	<path d="M41,46H7c-2.8,0-5-2.2-5-5V7c0-2.8,2.2-5,5-5h34c2.8,0,5,2.2,5,5v34C46,43.8,43.8,46,41,46z M7,4   C5.3,4,4,5.3,4,7v34c0,1.7,1.3,3,3,3h34c1.7,0,3-1.3,3-3V7c0-1.7-1.3-3-3-3H7z"/>
	<path d="M45,10H3c-0.6,0-1-0.4-1-1s0.4-1,1-1h42c0.6,0,1,0.4,1,1S45.6,10,45,10z"/>
	<path d="M8,7C7.7,7,7.5,6.9,7.3,6.7C7.1,6.5,7,6.3,7,6s0.1-0.5,0.3-0.7c0.4-0.4,1-0.4,1.4,0C8.9,5.5,9,5.7,9,6   S8.9,6.5,8.7,6.7C8.5,6.9,8.3,7,8,7z"/>
	<path d="M11,7c-0.3,0-0.5-0.1-0.7-0.3C10.1,6.5,10,6.3,10,6s0.1-0.5,0.3-0.7c0.4-0.4,1-0.4,1.4,0   C11.9,5.5,12,5.7,12,6s-0.1,0.5-0.3,0.7C11.5,6.9,11.3,7,11,7z"/>
	<path d="M14,7c-0.3,0-0.5-0.1-0.7-0.3C13.1,6.5,13,6.3,13,6s0.1-0.5,0.3-0.7c0.4-0.4,1-0.4,1.4,0   C14.9,5.5,15,5.7,15,6s-0.1,0.5-0.3,0.7C14.5,6.9,14.3,7,14,7z"/>
	<path d="M10.5,21C8.6,21,7,19.4,7,17.5S8.6,14,10.5,14s3.5,1.6,3.5,3.5S12.4,21,10.5,21z M10.5,16   C9.7,16,9,16.7,9,17.5S9.7,19,10.5,19s1.5-0.7,1.5-1.5S11.3,16,10.5,16z"/>
	<path d="M10.5,30C8.6,30,7,28.4,7,26.5S8.6,23,10.5,23s3.5,1.6,3.5,3.5S12.4,30,10.5,30z M10.5,25   C9.7,25,9,25.7,9,26.5S9.7,28,10.5,28s1.5-0.7,1.5-1.5S11.3,25,10.5,25z"/>
	<path d="M10.5,39C8.6,39,7,37.4,7,35.5S8.6,32,10.5,32s3.5,1.6,3.5,3.5S12.4,39,10.5,39z M10.5,34   C9.7,34,9,34.7,9,35.5S9.7,37,10.5,37s1.5-0.7,1.5-1.5S11.3,34,10.5,34z"/>
	<path d="M39,19H18c-0.6,0-1-0.4-1-1s0.4-1,1-1h21c0.6,0,1,0.4,1,1S39.6,19,39,19z"/>
	<path d="M39,28H18c-0.6,0-1-0.4-1-1s0.4-1,1-1h21c0.6,0,1,0.4,1,1S39.6,28,39,28z"/>
	<path d="M39,37H18c-0.6,0-1-0.4-1-1s0.4-1,1-1h21c0.6,0,1,0.4,1,1S39.6,37,39,37z"/>
</g>
</g>
<g class="-mail-open">
<g id="mail-open">
	<path d="M43,47H5c-1.7,0-3-1.3-3-3V21.3c0-1.1,0.5-2.1,1.2-2.9l4-3.8L8.6,16l-4,3.8C4.2,20.2,4,20.7,4,21.3V44   c0,0.6,0.4,1,1,1h38c0.6,0,1-0.4,1-1V21.3c0-0.5-0.2-1.1-0.6-1.4l-4-3.8l1.4-1.4l4,3.8c0.8,0.8,1.2,1.8,1.2,2.9V44   C46,45.7,44.7,47,43,47z"/>
	<path d="M30.3,7.4l-5-4.7c-0.8-0.7-2-0.7-2.8,0l-5,4.7L16.3,6l5-4.7c1.5-1.5,4-1.5,5.5,0l5,4.7L30.3,7.4z"/>
	<path d="M3.7,46.7l-1.4-1.4l13.4-13.4c0.6-0.6,1.3-0.9,2.1-0.9h13.3c0.8,0,1.6,0.3,2.2,1l12.4,13.4l-1.5,1.4   L31.9,33.3c-0.2-0.2-0.5-0.3-0.7-0.3H17.8c-0.3,0-0.5,0.1-0.7,0.3L3.7,46.7z"/>
	
		<rect x="1.3" y="27" transform="matrix(0.7926 0.6097 -0.6097 0.7926 19.042 1.427599e-002)" width="16.4" height="2"/>
	<rect x="38.5" y="20.6" transform="matrix(0.6726 0.74 -0.74 0.6726 33.6509 -20.0629)" width="2" height="14.9"/>
	<path d="M41,27h-2V9c0-0.6-0.4-1-1-1H10C9.4,8,9,8.4,9,9v18H7V9c0-1.7,1.3-3,3-3h28c1.7,0,3,1.3,3,3V27z"/>
	<path d="M20,15h-6c-0.6,0-1-0.4-1-1s0.4-1,1-1h6c0.6,0,1,0.4,1,1S20.6,15,20,15z"/>
	<path d="M34,19H14c-0.6,0-1-0.4-1-1s0.4-1,1-1h20c0.6,0,1,0.4,1,1S34.6,19,34,19z"/>
	<path d="M34,23H14c-0.6,0-1-0.4-1-1s0.4-1,1-1h20c0.6,0,1,0.4,1,1S34.6,23,34,23z"/>
</g>
</g>
<g class="-male-group">
<g id="male-group">
	<path d="M23.667,30.459c-4.486,0-7.162-5.422-7.703-6.963c-0.231-0.151-0.519-0.364-0.739-0.771   c-0.77-1.423-0.974-2.666-0.605-3.693c0.188-0.524,0.492-0.89,0.77-1.132c0.001-0.76,0.062-2.16,0.422-3.521   c0.494-1.834,2.77-5.293,7.856-5.293c5.086,0,7.362,3.459,7.855,5.289c0.355,1.341,0.42,2.719,0.423,3.487   c0.274,0.226,0.536,0.539,0.71,0.948c0.435,1.019,0.246,2.334-0.562,3.911c-0.228,0.444-0.534,0.677-0.739,0.813   C30.759,25.177,28.095,30.459,23.667,30.459z M16.776,19.346c0.004,0-0.195,0.108-0.285,0.395   c-0.144,0.458,0.031,1.181,0.493,2.034c0.259,0.164,0.602,0.383,0.799,0.858c0.015,0.035,0.027,0.07,0.037,0.106   c0.349,1.211,2.697,5.72,5.847,5.72s5.499-4.509,5.848-5.72c0.123-0.484,0.503-0.726,0.686-0.841   c0.1-0.063,0.101-0.066,0.113-0.089c0.691-1.349,0.59-1.975,0.515-2.182c-0.07-0.192-0.198-0.255-0.223-0.266   c-0.442-0.132-0.694-0.536-0.669-0.997c0.001-0.019,0.09-1.824-0.347-3.475c-0.041-0.146-1.133-3.805-5.923-3.805   c-4.79,0-5.881,3.659-5.925,3.815c-0.434,1.64-0.345,3.445-0.344,3.464C17.42,18.791,17.17,19.185,16.776,19.346   C16.776,19.346,16.776,19.346,16.776,19.346z"/>
	<path d="M36.976,45H11.222c-0.763,0-1.495-0.331-2.061-0.932c-0.638-0.677-0.987-1.619-0.934-2.521   c0.247-4.21,1.295-9.332,7.26-11.59c2.497-0.943,3.841-2.213,3.854-2.226c0.398-0.381,1.032-0.369,1.413,0.027   c0.382,0.396,0.373,1.026-0.022,1.41c-0.065,0.063-1.626,1.559-4.537,2.659c-3.866,1.463-5.652,4.405-5.971,9.836   c-0.021,0.353,0.134,0.758,0.393,1.033C10.723,42.81,10.944,43,11.222,43h25.754c0.285,0,0.513-0.197,0.624-0.314   c0.253-0.269,0.398-0.64,0.378-0.969c-0.334-5.489-2.176-8.577-5.971-10.014c-2.884-1.091-4.527-2.499-4.596-2.559   c-0.417-0.362-0.462-0.993-0.1-1.411c0.36-0.415,0.992-0.461,1.409-0.102c0.036,0.031,1.486,1.252,3.995,2.2   c6.003,2.272,7.018,7.802,7.259,11.764c0.053,0.873-0.29,1.793-0.917,2.46C38.483,44.665,37.745,45,36.976,45z"/>
	<path d="M10,38H4.142c-1.573,0-2.975-1.5-3-3.21c-0.049-3.276-0.116-7.765,5.346-9.833   c1.464-0.554,2.836-1.278,3.765-1.812c-1.566-1.473-2.91-3.637-3.287-4.625c-0.24-0.162-0.52-0.371-0.74-0.779   c-0.77-1.422-0.974-2.665-0.606-3.693c0.188-0.527,0.493-0.895,0.771-1.138c0.001-0.761,0.061-2.165,0.422-3.527   c0.494-1.834,2.77-5.295,7.856-5.295c5.095,0,7.368,3.631,7.858,5.551c0.137,0.535-0.186,1.079-0.721,1.216   c-0.536,0.14-1.08-0.187-1.216-0.722c-0.043-0.16-1.136-4.045-5.921-4.045c-4.79,0-5.881,3.661-5.925,3.816   c-0.434,1.641-0.345,3.451-0.344,3.469c0.022,0.424-0.226,0.817-0.619,0.979l0,0c0.004,0-0.197,0.111-0.288,0.4   c-0.145,0.461,0.031,1.185,0.492,2.038c0.029,0.03,0.062,0.047,0.09,0.065c0.18,0.12,0.516,0.342,0.708,0.809   c0.015,0.035,0.027,0.07,0.037,0.106c0.199,0.691,2.019,3.595,3.704,4.628c0.291,0.179,0.471,0.493,0.477,0.834   c0.006,0.342-0.162,0.662-0.446,0.852c-0.102,0.067-2.535,1.676-5.359,2.744c-3.86,1.461-4.111,4.089-4.053,7.933   C3.15,35.363,3.664,36,4.142,36H10c0.552,0,1,0.447,1,1S10.552,38,10,38z"/>
	<path d="M43.548,38H38c-0.552,0-1-0.447-1-1s0.448-1,1-1h5.548c0.478,0,0.992-0.637,1-1.239   c0.058-3.844-0.193-6.472-4.054-7.933c-2.84-1.074-5.287-2.816-5.39-2.891c-0.29-0.208-0.447-0.555-0.413-0.91   s0.256-0.665,0.582-0.813c1.695-0.771,3.397-3.753,3.597-4.444c0.01-0.036,0.022-0.071,0.037-0.106   c0.193-0.466,0.528-0.688,0.708-0.809c0.029-0.019,0.061-0.035,0.09-0.063c0.462-0.856,0.637-1.581,0.493-2.041   c-0.091-0.292-0.295-0.402-0.319-0.414c-0.354-0.179-0.608-0.569-0.587-0.965c0.001-0.018,0.09-1.828-0.347-3.479   c-0.042-0.146-1.133-3.807-5.923-3.807c-4.759,0-5.721,3.857-5.76,4.021c-0.126,0.534-0.664,0.874-1.197,0.748   c-0.536-0.123-0.873-0.652-0.753-1.189c0.431-1.93,2.597-5.58,7.71-5.58c5.086,0,7.362,3.461,7.855,5.291   c0.361,1.365,0.421,2.771,0.423,3.531c0.278,0.243,0.583,0.61,0.771,1.138c0.367,1.028,0.163,2.271-0.607,3.693   c-0.24,0.444-0.55,0.652-0.738,0.777c-0.351,0.947-1.587,3.176-3.226,4.592c0.924,0.562,2.272,1.307,3.701,1.847   c5.462,2.068,5.395,6.557,5.346,9.833C46.523,36.5,45.122,38,43.548,38z"/>
</g>
</g>
<g class="-report-flag">
<g id="report-flag">
	<path d="M35.5,34.1c-3.9,0-7.4-1.4-10.8-2.8c-5.2-2.1-10.1-4.2-16.3-0.8l-1-1.8c7-3.8,12.6-1.5,18,0.7   c5.2,2.1,10.1,4.2,16.5,1.1V10.7c-6.7,2.9-12.1,0.7-17.3-1.5C19.5,7.1,14.6,5.1,8.4,8.4l-1-1.8c7-3.8,12.6-1.5,18,0.7   c5.4,2.2,10.4,4.3,17,0.9c0.3-0.2,0.7-0.1,1,0C43.8,8.5,44,8.8,44,9.1v22c0,0.4-0.2,0.7-0.5,0.9C40.6,33.5,38,34.1,35.5,34.1z"/>
	<path d="M8,49H5c-0.6,0-1-0.4-1-1V3.5C4,2.1,5.1,1,6.5,1S9,2.1,9,3.5V48C9,48.6,8.6,49,8,49z M6,47h1V3.5   C7,3.2,6.8,3,6.5,3S6,3.2,6,3.5V47z"/>
</g>
</g>
<g class="-search">
<g id="search">
	<path d="M17,32C8.7,32,2,25.3,2,17S8.7,2,17,2s15,6.7,15,15S25.3,32,17,32z M17,4C9.8,4,4,9.8,4,17s5.8,13,13,13   s13-5.8,13-13S24.2,4,17,4z"/>
	<path d="M40.2,43.6c-0.5,0-1-0.2-1.4-0.6L25.1,29.4c-0.4-0.4-0.4-1,0-1.4s1-0.4,1.4,0l13.6,13.6l1.4-1.4L28,26.6   c-0.4-0.4-0.4-1,0-1.4s1-0.4,1.4,0L43,38.8c0.8,0.8,0.8,2,0,2.8L41.6,43C41.2,43.4,40.7,43.6,40.2,43.6z"/>
</g>
</g>
<g class="-setting-roll">
<g id="setting-roll">
	<path d="M25.3,47h-2.7c-1.5,0-2.7-1-3-2.5l-0.4-2.1c-1.8-0.4-3.5-1.2-5-2.1l-1.8,1.2c-1.2,0.8-2.8,0.7-3.8-0.3   l-1.9-1.9c-1-1-1.2-2.6-0.3-3.8l1.2-1.8c-0.9-1.6-1.6-3.3-2.1-5l-2.1-0.4C2,28,1,26.8,1,25.3v-2.7c0-1.5,1-2.7,2.5-3l2.1-0.4   c0.4-1.8,1.2-3.5,2.1-5l-1.2-1.8c-0.8-1.2-0.7-2.8,0.3-3.8l1.9-1.9c1-1,2.7-1.2,3.8-0.3l1.8,1.2c1.6-0.9,3.3-1.6,5-2.1l0.4-2.1   C20,2,21.2,1,22.7,1h2.7c1.5,0,2.7,1,3,2.5l0.4,2.1c1.8,0.4,3.5,1.2,5,2.1l1.8-1.2c1.2-0.8,2.8-0.7,3.8,0.3l1.9,1.9   c1,1,1.2,2.6,0.3,3.8l-1.2,1.8c0.9,1.6,1.6,3.3,2.1,5l2.1,0.4c1.4,0.3,2.5,1.5,2.5,3v2.7c0,1.5-1,2.7-2.5,3l-2.1,0.4   c-0.4,1.8-1.2,3.5-2.1,5l1.2,1.8c0.8,1.2,0.7,2.8-0.3,3.8l-1.9,1.9c-0.6,0.6-1.3,0.9-2.1,0.9l0,0c-0.6,0-1.2-0.2-1.7-0.5l-1.8-1.2   c-1.6,0.9-3.3,1.6-5,2.1l-0.4,2.1C28,46,26.8,47,25.3,47z M14.3,38.1c0.2,0,0.4,0.1,0.5,0.2c1.7,1.1,3.6,1.9,5.6,2.3   c0.4,0.1,0.7,0.4,0.8,0.8l0.5,2.8c0.1,0.5,0.5,0.8,1,0.8h2.7c0.5,0,0.9-0.3,1-0.8l0.5-2.8c0.1-0.4,0.4-0.7,0.8-0.8   c2-0.4,3.9-1.2,5.6-2.3c0.3-0.2,0.8-0.2,1.1,0l2.3,1.6c0.4,0.3,0.9,0.2,1.3-0.1l1.9-1.9c0.3-0.3,0.4-0.9,0.1-1.3l-1.6-2.3   c-0.2-0.3-0.2-0.8,0-1.1c1.1-1.7,1.9-3.6,2.3-5.6c0.1-0.4,0.4-0.7,0.8-0.8l2.8-0.5c0.5-0.1,0.8-0.5,0.8-1v-2.7c0-0.5-0.3-0.9-0.8-1   l-2.8-0.5c-0.4-0.1-0.7-0.4-0.8-0.8c-0.4-2-1.2-3.9-2.3-5.6c-0.2-0.3-0.2-0.8,0-1.1l1.6-2.3c0.3-0.4,0.2-0.9-0.1-1.3l-1.9-1.9   c-0.3-0.3-0.9-0.4-1.3-0.1l-2.3,1.6c-0.3,0.2-0.8,0.2-1.1,0c-1.7-1.1-3.6-1.9-5.6-2.3c-0.4-0.1-0.7-0.4-0.8-0.8l-0.5-2.8   c-0.1-0.5-0.5-0.8-1-0.8h-2.7c-0.5,0-0.9,0.3-1,0.8l-0.5,2.8c-0.1,0.4-0.4,0.7-0.8,0.8c-2,0.4-3.9,1.2-5.6,2.3   c-0.3,0.2-0.8,0.2-1.1,0l-2.3-1.6c-0.4-0.3-0.9-0.2-1.3,0.1l-1.9,1.9c-0.3,0.3-0.4,0.9-0.1,1.3l1.6,2.3c0.2,0.3,0.2,0.8,0,1.1   c-1.1,1.7-1.9,3.6-2.3,5.6c-0.1,0.4-0.4,0.7-0.8,0.8l-2.8,0.5c-0.5,0.1-0.8,0.5-0.8,1v2.7c0,0.5,0.3,0.9,0.8,1l2.8,0.5   c0.4,0.1,0.7,0.4,0.8,0.8c0.4,2,1.2,3.9,2.3,5.6c0.2,0.3,0.2,0.8,0,1.1l-1.6,2.3c-0.3,0.4-0.2,0.9,0.1,1.3l1.9,1.9   c0.3,0.3,0.9,0.4,1.3,0.1l2.3-1.6C13.9,38.2,14.1,38.1,14.3,38.1z"/>
	<path d="M24,33c-5,0-9-4-9-9s4-9,9-9s9,4,9,9S29,33,24,33z M24,17c-3.9,0-7,3.1-7,7s3.1,7,7,7s7-3.1,7-7   S27.9,17,24,17z"/>
</g>
</g>
<g class="-skyscraper">
<g id="skyscraper">
	<g>
		<path d="M46.96,31.001C46.982,30.836,47,30.671,47,30.5c0-1.115-0.413-2.171-1.154-2.99    C45.947,27.181,46,26.841,46,26.5c0-1.051-0.48-2.028-1.264-2.681C44.909,23.402,45,22.955,45,22.5c0-1.93-1.57-3.5-3.5-3.5    c-0.171,0-0.335,0.027-0.5,0.051V5c0-0.459-0.313-0.858-0.758-0.97l-12-3c-0.375-0.096-0.778,0.04-1.023,0.345l-8,10    C19.077,11.553,19,11.772,19,12v5.018c-0.011,0.334-0.013,0.659-0.018,0.987l-6.838-0.994c-0.034-0.005-0.069-0.001-0.103-0.003    C12.026,17.008,12.014,17,12,17c-0.011,0-0.02,0.006-0.031,0.006c-0.119,0.003-0.234,0.025-0.343,0.069    c-0.016,0.007-0.03,0.016-0.046,0.024c-0.089,0.042-0.171,0.098-0.246,0.166c-0.019,0.017-0.039,0.032-0.057,0.051    c-0.01,0.011-0.023,0.018-0.033,0.029l-6,6.931C5.087,24.458,5,24.69,5,24.931V45H3c-0.553,0-1,0.447-1,1s0.447,1,1,1h43    c0.553,0,1-0.447,1-1s-0.447-1-1-1h-4v-4.046C42.166,40.973,42.331,41,42.5,41c2.481,0,4.5-2.019,4.5-4.5    c0-0.903-0.266-1.766-0.76-2.5c0.494-0.734,0.76-1.597,0.76-2.5C47,31.336,46.983,31.176,46.96,31.001z M11,42.334    c-0.363-0.77-0.696-1.579-1-2.411V22c0-0.047-0.02-0.086-0.026-0.131L11,20.683V42.334z M13,19.156l5.984,0.87    c0.005,0.238,0.009,0.478,0.016,0.712V45h-6V19.156z M21,33.042c1.924,6.222,4.737,10.156,6.258,11.958H21V33.042z     M23.936,8.681L25,7.351v30.338c-0.359-0.74-0.714-1.542-1.058-2.403C23.97,35.194,24,35.101,24,35V9    C24,8.887,23.97,8.782,23.936,8.681z M28,3.601V42.69c-0.319-0.43-0.669-0.93-1.038-1.501C26.975,41.125,27,41.067,27,41V5    c0-0.042-0.019-0.078-0.024-0.119L28,3.601z M22,11.101v17.772c-0.529-2.448-0.896-5.186-1-8.223v-8.299L22,11.101z M8,24.148    v8.413c-0.696-3.483-0.967-6.251-1-6.605v-0.653L8,24.148z M7,37.084c0.758,2.762,1.781,5.593,3.145,7.916H7V37.084z M40,45H30    V3.531l9,2.25V20c0,0.017,0.009,0.03,0.009,0.047C38.387,20.679,38,21.545,38,22.5c0,0.179,0.014,0.356,0.041,0.53    C36.327,23.255,35,24.726,35,26.5c0,0.675,0.19,1.318,0.547,1.874C35.187,29.028,35,29.751,35,30.5    c0,0.616,0.126,1.218,0.37,1.777C34.5,33.115,34,34.266,34,35.5c0,2.481,2.019,4.5,4.5,4.5c0.354,0,0.704-0.042,1.047-0.124    c0.142,0.125,0.299,0.228,0.453,0.333V45z M44.966,31.183C44.98,31.287,45,31.392,45,31.5c0,0.675-0.269,1.309-0.755,1.785    c-0.192,0.188-0.301,0.446-0.301,0.715s0.108,0.526,0.301,0.715C44.731,35.191,45,35.825,45,36.5c0,1.379-1.121,2.5-2.5,2.5    c-0.729,0-1.423-0.33-1.905-0.906c-0.194-0.232-0.478-0.358-0.767-0.358c-0.128,0-0.258,0.024-0.381,0.075    C39.143,37.937,38.823,38,38.5,38c-1.379,0-2.5-1.121-2.5-2.5c0-0.863,0.444-1.654,1.189-2.117    c0.234-0.146,0.398-0.384,0.452-0.655c0.055-0.271-0.007-0.554-0.169-0.778C37.164,31.519,37,31.018,37,30.5    c0-0.709,0.308-1.239,0.565-1.559c0.328-0.406,0.288-0.996-0.092-1.354C37.168,27.298,37,26.912,37,26.5    c0-0.827,0.673-1.5,1.5-1.5c0.472,0,0.909,0.223,1.198,0.611c0.188,0.253,0.485,0.402,0.802,0.402h0.001    c0.316,0,0.613-0.15,0.802-0.404c0.027-0.036,0.057-0.069,0.086-0.103c0.221-0.247,0.306-0.588,0.225-0.909    c-0.08-0.322-0.314-0.583-0.626-0.697C40.396,23.685,40,23.121,40,22.5c0-0.827,0.673-1.5,1.5-1.5s1.5,0.673,1.5,1.5    c0,0.462-0.212,0.795-0.389,0.993c-0.222,0.248-0.306,0.588-0.225,0.909c0.08,0.322,0.314,0.583,0.626,0.697    C43.604,25.315,44,25.879,44,26.5c0,0.258-0.071,0.51-0.213,0.75c-0.254,0.432-0.149,0.984,0.245,1.294    C44.647,29.026,45,29.739,45,30.5c0,0.108-0.02,0.213-0.04,0.354C44.945,30.951,44.951,31.085,44.966,31.183z"/>
		<path d="M40.255,34.033c-0.098-0.026-0.269-0.083-0.32-0.179c-0.072-0.134-0.031-0.403,0.008-0.52    c0.184-0.516-0.082-1.084-0.597-1.273c-0.518-0.188-1.093,0.074-1.284,0.593c-0.043,0.116-0.402,1.161,0.098,2.121    c0.213,0.409,0.661,0.948,1.586,1.191C39.831,35.989,39.916,36,40.001,36c0.442,0,0.848-0.297,0.966-0.745    C41.107,34.721,40.789,34.174,40.255,34.033z"/>
		<path d="M41.242,28.03c-0.535-0.138-1.125,0.175-1.26,0.712c-0.134,0.536,0.146,1.063,0.681,1.197    c0.003,0.001,0.213,0.11,0.469,0.557C41.316,30.819,41.653,31,42.001,31c0.168,0,0.339-0.042,0.495-0.132    c0.479-0.274,0.646-0.885,0.372-1.364C42.208,28.349,41.457,28.083,41.242,28.03z"/>
	</g>
</g>
</g>
<g class="-user">
<g id="user">
	<path d="M23.667,29.482c-5.285,0-8.976-6.333-9.868-8.938c-0.044-0.027-0.092-0.056-0.138-0.085   c-0.349-0.216-0.579-0.359-0.733-0.633c-1.275-2.256-1.611-4.064-0.998-5.375c0.29-0.619,0.725-0.998,1.112-1.226   c0-0.978,0.074-2.818,0.547-4.605c0.02-0.072,1.916-6.761,10.079-6.761c8.163,0,10.059,6.689,10.078,6.756   c0.474,1.791,0.548,3.631,0.548,4.61c0.387,0.229,0.822,0.607,1.111,1.226c0.613,1.311,0.277,3.119-0.997,5.375   c-0.156,0.274-0.386,0.417-0.734,0.634c-0.046,0.029-0.094,0.057-0.138,0.085C32.643,23.148,28.95,29.482,23.667,29.482z    M14.573,18.672c0.043,0.027,0.093,0.057,0.143,0.088c0.436,0.271,0.781,0.485,0.907,0.921c0.476,1.653,3.695,7.8,8.044,7.8   c4.348,0,7.568-6.148,8.044-7.799c0.126-0.438,0.471-0.651,0.907-0.922c0.05-0.031,0.099-0.061,0.143-0.088   c1.155-2.107,0.977-3.042,0.843-3.351c-0.158-0.364-0.491-0.454-0.529-0.463c-0.468-0.113-0.819-0.552-0.793-1.033   c0.001-0.024,0.123-2.46-0.469-4.694c-0.058-0.207-1.55-5.272-8.145-5.272c-6.647,0-8.132,5.224-8.146,5.277   c-0.593,2.241-0.468,4.665-0.467,4.689c0.027,0.502-0.323,0.947-0.817,1.038c-0.014,0.004-0.347,0.094-0.505,0.458   C13.597,15.63,13.419,16.565,14.573,18.672z"/>
	<path d="M23.667,45.973c-11.963,0-20.625-1.835-20.71-1.854c-0.478-0.103-0.812-0.537-0.789-1.025   c0.455-9.559,6.409-12.526,10.848-13.926c3.438-1.085,5.237-2.84,5.255-2.858c0.392-0.388,1.026-0.386,1.414,0.007   c0.389,0.392,0.386,1.025-0.007,1.414c-0.086,0.086-2.166,2.115-6.06,3.344c-4.295,1.355-8.731,3.763-9.394,11.253   c2.425,0.446,9.841,1.645,19.443,1.645c9.614,0,17.02-1.198,19.443-1.644c-0.662-7.49-5.098-9.898-9.393-11.253   c-3.896-1.229-5.974-3.258-6.06-3.344c-0.393-0.389-0.396-1.022-0.007-1.414c0.388-0.393,1.019-0.396,1.412-0.009   c0.024,0.023,1.858,1.787,5.257,2.86c4.438,1.4,10.392,4.368,10.847,13.926c0.023,0.488-0.311,0.922-0.789,1.025   C44.291,44.138,35.63,45.973,23.667,45.973z"/>
</g>
</g>
</svg>