<svg xmlns="http://www.w3.org/2000/svg" xmlns:xlink="http://www.w3.org/1999/xlink">
<g class="-audits">
    <!-- Generator: Sketch 3.3.3 (12072) - http://www.bohemiancoding.com/sketch -->
    <title>Untitled 4</title>
    <desc>Created with Sketch.</desc>
    <defs/>
    <g id="Page-1" stroke="none" stroke-width="1" fill="none" fill-rule="evenodd">
        <g id="audits" transform="translate(0.000000, -1.000000)">
            <g id="folder-with-search" transform="translate(0.545633, 0.257692)">
                <path d="M98.6940711,124 C79.4864632,124 63.8608696,108.829727 63.8608696,90.1818182 C63.8608696,71.5339091 79.4864632,56.3636364 98.6940711,56.3636364 C117.901679,56.3636364 133.527273,71.5339091 133.527273,90.1818182 C133.527273,108.829727 117.901679,124 98.6940711,124 L98.6940711,124 Z M98.6940711,62 C82.688215,62 69.6664032,74.6423636 69.6664032,90.1818182 C69.6664032,105.721273 82.688215,118.363636 98.6940711,118.363636 C114.699927,118.363636 127.721739,105.721273 127.721739,90.1818182 C127.721739,74.6423636 114.699927,62 98.6940711,62 L98.6940711,62 Z" id="Fill-1"/>
                <path d="M8.7083004,115.545455 L84.1802372,115.545455 L84.1802372,121.181818 L8.7083004,121.181818 L8.7083004,115.545455 Z" id="Fill-4"/>
                <path d="M10.4876964,121.181818 L8.7083004,121.181818 C3.90712411,121.181818 0,117.388545 0,112.727273 L0,2.81818182 C0,1.26254545 1.30043953,0 2.9027668,0 L48.6416632,0 C51.7447209,0 54.6620016,1.17236364 56.8535905,3.30290909 L70.8681486,16.9090909 L124.818972,16.9090909 C126.4213,16.9090909 127.721739,18.1716364 127.721739,19.7272727 L127.721739,36.6363636 L121.916206,36.6363636 L121.916206,22.5454545 L69.6664032,22.5454545 C68.89717,22.5454545 68.1598672,22.2467273 67.614147,21.7197273 L52.7490783,7.28781818 C51.6518324,6.22254545 50.1917407,5.63636364 48.6416632,5.63636364 L5.8055336,5.63636364 L5.8055336,112.727273 C5.8055336,114.280091 7.10887589,115.545455 8.7083004,115.545455 L10.4876964,115.545455 C13.2075889,115.545455 15.5356079,113.750273 16.1451889,111.177273 L32.003004,44.4568182 C32.3077945,43.1773636 33.4805123,42.2727273 34.8332016,42.2727273 L130.624506,42.2727273 C131.504044,42.2727273 132.337138,42.6616364 132.888664,43.3295455 C133.44019,43.9946364 133.649189,44.8682727 133.457606,45.7024545 L127.652073,71.0660909 L121.985872,69.843 L127.004756,47.9090909 L37.1409012,47.9090909 L21.8026814,112.445455 C20.5806166,117.588636 15.9274814,121.181818 10.4876964,121.181818" id="Fill-5"/>
            </g>
            <g id="search-folder" transform="translate(117.545633, 108.257692)">
                <path d="M27.3340543,31.4200714 C26.4189501,31.4200714 25.5056298,31.0930454 24.8099366,30.4389934 L0.523107789,7.60587016 C-0.174369263,6.95181816 -0.174369263,5.89024144 0.523107789,5.23451237 C1.22058484,4.58046037 2.34974846,4.58046037 3.04544168,5.23451237 L27.3322705,28.0676356 L29.8563882,25.6962778 L5.5695594,2.86315459 C4.87208234,2.20742552 4.87208234,1.14752586 5.5695594,0.491796797 C6.26525262,-0.163932266 7.39441623,-0.163932266 8.09189329,0.491796797 L32.3787221,23.3249201 C33.7701085,24.6330241 33.7701085,26.7612087 32.3787221,28.0676356 L29.8563882,30.4389934 C29.160695,31.0930454 28.2473746,31.4200714 27.3340543,31.4200714" id="Fill-275-Copy"/>
            </g>
        </g>
    </g>
</g>
<g class="-covisint-portal">
    <!-- Generator: Sketch 3.3.3 (12072) - http://www.bohemiancoding.com/sketch -->
    <title>Untitled 4</title>
    <desc>Created with Sketch.</desc>
    <defs/>
    <g id="Page-1" stroke="none" stroke-width="1" fill="none" fill-rule="evenodd">
        <g id="covisint-portal" transform="translate(6.000000, -2.000000)">
            <path d="M16.1363636,6.45454545 C10.7984545,6.45454545 6.45454545,10.7984545 6.45454545,16.1363636 L6.45454545,125.863636 C6.45454545,131.188636 10.7984545,135.545455 16.1363636,135.545455 L125.863636,135.545455 C131.201545,135.545455 135.545455,131.188636 135.545455,125.863636 L135.545455,16.1363636 C135.545455,10.7984545 131.201545,6.45454545 125.863636,6.45454545 L16.1363636,6.45454545 L16.1363636,6.45454545 Z M125.863636,142 L16.1363636,142 C7.23877273,142 0,134.770909 0,125.863636 L0,16.1363636 C0,7.242 7.23877273,0 16.1363636,0 L125.863636,0 C134.761227,0 142,7.242 142,16.1363636 L142,125.863636 C142,134.770909 134.761227,142 125.863636,142 L125.863636,142 Z" id="Fill-56"/>
            <path d="M138.772727,25.8181818 L3.22727273,25.8181818 C1.44581818,25.8181818 0,24.3755909 0,22.5909091 C0,20.8094545 1.44581818,19.3636364 3.22727273,19.3636364 L138.772727,19.3636364 C140.554182,19.3636364 142,20.8094545 142,22.5909091 C142,24.3755909 140.554182,25.8181818 138.772727,25.8181818" id="Fill-57"/>
            <path d="M19.3636364,16.1363636 C18.5245455,16.1363636 17.6854545,15.8136364 17.0722727,15.2004545 C16.4913636,14.5872727 16.1363636,13.7481818 16.1363636,12.9090909 C16.1363636,12.0732273 16.4913636,11.2309091 17.0722727,10.6209545 C18.2986364,9.42363636 20.4286364,9.42363636 21.655,10.6209545 C22.2359091,11.2309091 22.5909091,12.0732273 22.5909091,12.9090909 C22.5909091,13.7481818 22.2359091,14.5872727 21.655,15.2004545 C21.0418182,15.8136364 20.2027273,16.1363636 19.3636364,16.1363636" id="Fill-58"/>
            <path d="M29.0454545,16.1363636 C28.2063636,16.1363636 27.3672727,15.8136364 26.7540909,15.2004545 C26.1731818,14.5872727 25.8181818,13.7481818 25.8181818,12.9090909 C25.8181818,12.0732273 26.1731818,11.2309091 26.7540909,10.6209545 C27.9804545,9.42363636 30.1104545,9.42363636 31.3368182,10.6209545 C31.9177273,11.2309091 32.2727273,12.0732273 32.2727273,12.9090909 C32.2727273,13.7481818 31.9177273,14.5872727 31.3368182,15.2004545 C30.7236364,15.8136364 29.8845455,16.1363636 29.0454545,16.1363636" id="Fill-59"/>
            <path d="M38.7272727,16.1363636 C37.8881818,16.1363636 37.0490909,15.8136364 36.4359091,15.2004545 C35.855,14.5872727 35.5,13.7481818 35.5,12.9090909 C35.5,12.0732273 35.855,11.2309091 36.4359091,10.6209545 C37.6622727,9.42363636 39.7922727,9.42363636 41.0186364,10.6209545 C41.5995455,11.2309091 41.9545455,12.0732273 41.9545455,12.9090909 C41.9545455,13.7481818 41.5995455,14.5872727 41.0186364,15.2004545 C40.4054545,15.8136364 39.5663636,16.1363636 38.7272727,16.1363636" id="Fill-60"/>
            <path d="M27.4318182,45.1818182 C24.7628636,45.1818182 22.5909091,47.3537727 22.5909091,50.0227273 C22.5909091,52.6949091 24.7628636,54.8636364 27.4318182,54.8636364 C30.1007727,54.8636364 32.2727273,52.6949091 32.2727273,50.0227273 C32.2727273,47.3537727 30.1007727,45.1818182 27.4318182,45.1818182 L27.4318182,45.1818182 Z M27.4318182,61.3181818 C21.2031818,61.3181818 16.1363636,56.2513636 16.1363636,50.0227273 C16.1363636,43.7973182 21.2031818,38.7272727 27.4318182,38.7272727 C33.6604545,38.7272727 38.7272727,43.7973182 38.7272727,50.0227273 C38.7272727,56.2513636 33.6604545,61.3181818 27.4318182,61.3181818 L27.4318182,61.3181818 Z" id="Fill-61"/>
            <path d="M27.4318182,74.2272727 C24.7628636,74.2272727 22.5909091,76.3992273 22.5909091,79.0681818 C22.5909091,81.7403636 24.7628636,83.9090909 27.4318182,83.9090909 C30.1007727,83.9090909 32.2727273,81.7403636 32.2727273,79.0681818 C32.2727273,76.3992273 30.1007727,74.2272727 27.4318182,74.2272727 L27.4318182,74.2272727 Z M27.4318182,90.3636364 C21.2031818,90.3636364 16.1363636,85.2968182 16.1363636,79.0681818 C16.1363636,72.8427727 21.2031818,67.7727273 27.4318182,67.7727273 C33.6604545,67.7727273 38.7272727,72.8427727 38.7272727,79.0681818 C38.7272727,85.2968182 33.6604545,90.3636364 27.4318182,90.3636364 L27.4318182,90.3636364 Z" id="Fill-62"/>
            <path d="M27.4318182,103.272727 C24.7628636,103.272727 22.5909091,105.435 22.5909091,108.113636 C22.5909091,110.792273 24.7628636,112.954545 27.4318182,112.954545 C30.1007727,112.954545 32.2727273,110.792273 32.2727273,108.113636 C32.2727273,105.435 30.1007727,103.272727 27.4318182,103.272727 L27.4318182,103.272727 Z M27.4318182,119.409091 C21.2031818,119.409091 16.1363636,114.342273 16.1363636,108.113636 C16.1363636,101.885 21.2031818,96.8181818 27.4318182,96.8181818 C33.6604545,96.8181818 38.7272727,101.885 38.7272727,108.113636 C38.7272727,114.342273 33.6604545,119.409091 27.4318182,119.409091 L27.4318182,119.409091 Z" id="Fill-63"/>
            <path d="M119.409091,54.8636364 L51.6363636,54.8636364 C49.8549091,54.8636364 48.4090909,53.4210455 48.4090909,51.6363636 C48.4090909,49.8549091 49.8549091,48.4090909 51.6363636,48.4090909 L119.409091,48.4090909 C121.190545,48.4090909 122.636364,49.8549091 122.636364,51.6363636 C122.636364,53.4210455 121.190545,54.8636364 119.409091,54.8636364" id="Fill-64"/>
            <path d="M119.409091,83.9090909 L51.6363636,83.9090909 C49.8549091,83.9090909 48.4090909,82.4665 48.4090909,80.6818182 C48.4090909,78.9003636 49.8549091,77.4545455 51.6363636,77.4545455 L119.409091,77.4545455 C121.190545,77.4545455 122.636364,78.9003636 122.636364,80.6818182 C122.636364,82.4665 121.190545,83.9090909 119.409091,83.9090909" id="Fill-65"/>
            <path d="M119.409091,112.954545 L51.6363636,112.954545 C49.8549091,112.954545 48.4090909,111.502273 48.4090909,109.727273 C48.4090909,107.952273 49.8549091,106.5 51.6363636,106.5 L119.409091,106.5 C121.190545,106.5 122.636364,107.952273 122.636364,109.727273 C122.636364,111.502273 121.190545,112.954545 119.409091,112.954545" id="Fill-66"/>
        </g>
    </g>
</g>
</svg>