<?xml version="1.0" encoding="UTF-8" standalone="no"?>
<svg width="48px" height="48px" viewBox="0 0 48 48" version="1.1" xmlns="http://www.w3.org/2000/svg" xmlns:xlink="http://www.w3.org/1999/xlink" xmlns:sketch="http://www.bohemiancoding.com/sketch/ns">
<g id="unlock">
    <path d="M22.783,29.779 C17.27,29.779 13.415,23.147 12.495,20.442 C12.444,20.41 12.39,20.378 12.336,20.344 C11.978,20.121 11.741,19.974 11.585,19.698 C10.259,17.351 9.908,15.474 10.543,14.116 C10.847,13.466 11.307,13.073 11.71,12.839 C11.709,11.825 11.783,9.887 12.281,8.006 C12.301,7.931 14.278,0.966 22.783,0.966 C31.288,0.966 33.265,7.931 33.283,8.002 C33.783,9.887 33.857,11.826 33.855,12.84 C34.258,13.074 34.718,13.466 35.022,14.116 C35.657,15.473 35.306,17.351 33.98,19.697 C33.825,19.973 33.587,20.12 33.228,20.344 C33.175,20.377 33.121,20.41 33.07,20.442 C32.15,23.149 28.297,29.779 22.783,29.779 L22.783,29.779 Z M13.233,18.547 C13.281,18.577 13.336,18.611 13.392,18.646 C13.859,18.936 14.196,19.146 14.322,19.589 C14.821,21.32 18.209,27.78 22.783,27.78 C27.359,27.78 30.745,21.321 31.245,19.585 C31.371,19.145 31.708,18.936 32.173,18.647 C32.229,18.612 32.284,18.579 32.333,18.548 C33.575,16.285 33.364,15.291 33.211,14.965 C33.031,14.581 32.664,14.485 32.66,14.484 C32.166,14.393 31.816,13.948 31.843,13.446 C31.844,13.42 31.973,10.864 31.352,8.519 C31.291,8.301 29.722,2.967 22.784,2.967 C15.793,2.967 14.229,8.467 14.214,8.523 C13.595,10.864 13.723,13.42 13.724,13.445 C13.751,13.947 13.401,14.392 12.907,14.483 C12.888,14.488 12.52,14.587 12.345,14.988 C12.2,15.317 12.007,16.314 13.233,18.547 L13.233,18.547 Z" id="Shape"></path>
    <path d="M29.997,30.094 C29.842,30.094 29.685,30.058 29.538,29.982 C27.509,28.929 26.905,27.902 26.805,27.707 C26.552,27.216 26.746,26.613 27.237,26.361 C27.719,26.113 28.31,26.296 28.57,26.768 C28.601,26.817 29.035,27.469 30.459,28.207 C30.949,28.461 31.141,29.065 30.886,29.555 C30.708,29.897 30.359,30.094 29.997,30.094 L29.997,30.094 Z" id="Shape"></path>
    <path d="M23.304,47.037 C11.801,47.037 1.263,45.123 1.15,45.102 C0.658,45.012 0.309,44.571 0.332,44.071 C0.807,34.098 7.02,31.002 11.651,29.54 C15.225,28.412 17.151,26.555 17.17,26.536 C17.564,26.151 18.197,26.156 18.583,26.548 C18.97,26.941 18.967,27.571 18.576,27.959 C18.486,28.048 16.319,30.164 12.253,31.447 C7.74,32.873 3.078,35.404 2.39,43.285 C5.385,43.776 15.59,45.287 25.973,45 C26.544,44.972 26.985,45.42 27,45.972 C27.016,46.524 26.581,46.984 26.028,46.999 C25.117,47.025 24.208,47.037 23.304,47.037 L23.304,47.037 Z" id="Shape"></path>
    <path d="M41,47 L33,47 C31.346,47 30,45.654 30,44 L30,38 C30,37.448 30.448,37 31,37 L43,37 C43.552,37 44,37.448 44,38 L44,44 C44,45.654 42.654,47 41,47 L41,47 Z M32,39 L32,44 C32,44.551 32.449,45 33,45 L41,45 C41.551,45 42,44.551 42,44 L42,39 L32,39 L32,39 Z" id="Shape"></path>
    <path d="M42.243,38.777 C42.133,38.777 42.021,38.758 41.91,38.72 C41.389,38.536 41.116,37.965 41.299,37.444 C41.872,35.818 41.455,33.981 40.237,32.762 C39.387,31.912 38.257,31.444 37.055,31.444 C35.853,31.444 34.723,31.912 33.873,32.762 C33.482,33.153 32.85,33.153 32.459,32.762 C32.068,32.371 32.068,31.739 32.459,31.348 C33.687,30.12 35.319,29.444 37.055,29.444 C38.791,29.444 40.423,30.12 41.651,31.348 C43.41,33.107 44.013,35.761 43.186,38.109 C43.041,38.52 42.655,38.777 42.243,38.777 L42.243,38.777 Z" id="Shape"></path>
</g>
</svg>