<?xml version="1.0" encoding="utf-8"?>
<!-- Generator: Adobe Illustrator 19.1.0, SVG Export Plug-In . SVG Version: 6.00 Build 0)  -->
<svg version="1.1" id="Layer_1" xmlns="http://www.w3.org/2000/svg" xmlns:xlink="http://www.w3.org/1999/xlink" x="0px" y="0px"
	 viewBox="0 0 612 792" style="enable-background:new 0 0 612 792;" xml:space="preserve">
<g>
	<g id="unlock2">
		<path id="Shape" d="M22.8,29.8c-5.5,0-9.4-6.6-10.3-9.3c-0.1,0-0.1-0.1-0.2-0.1c-0.4-0.2-0.6-0.4-0.8-0.6c-1.3-2.3-1.7-4.2-1-5.6
			c0.1-0.2,0.2-0.3,0.2-0.4c0.6-0.8,0.9-1.7,1-2.7c0.1-0.9,0.2-2,0.5-3c0-0.1,2-7,10.5-7s10.5,7,10.5,7c0.3,1,0.4,2.1,0.5,3
			c0.1,1,0.4,1.9,1,2.7c0.1,0.1,0.2,0.3,0.2,0.4c0.6,1.4,0.3,3.2-1,5.6c-0.2,0.3-0.4,0.4-0.8,0.6c-0.1,0-0.1,0.1-0.2,0.1
			C32.2,23.1,28.3,29.8,22.8,29.8L22.8,29.8z M13.2,18.5c0,0,0.1,0.1,0.2,0.1c0.5,0.3,0.8,0.5,0.9,0.9c0.5,1.7,3.9,8.2,8.5,8.2
			c4.6,0,8-6.5,8.5-8.2c0.1-0.4,0.5-0.6,0.9-0.9c0.1,0,0.1-0.1,0.2-0.1c1.2-2.3,1-3.3,0.9-3.6c-0.2-0.4-0.5-0.5-0.6-0.5
			c-0.5-0.1-0.8-0.5-0.8-1c0,0,0.1-2.6-0.5-4.9c-0.1-0.2-1.8,7.6-8.6,5.4c-6.7-2.1-8.6-5.4-8.6-5.4c-0.6,2.3-0.5,4.9-0.5,4.9
			c0,0.5-0.3,0.9-0.8,1c0,0-0.4,0.1-0.6,0.5C12.2,15.3,12,16.3,13.2,18.5L13.2,18.5z"/>
		<path id="Shape_1_" d="M30,30.1c-0.2,0-0.3,0-0.5-0.1c-2-1.1-2.6-2.1-2.7-2.3c-0.3-0.5-0.1-1.1,0.4-1.3c0.5-0.2,1.1-0.1,1.3,0.4
			c0,0,0.5,0.7,1.9,1.4c0.5,0.3,0.7,0.9,0.4,1.3C30.7,29.9,30.4,30.1,30,30.1L30,30.1z"/>
		<path id="Shape_2_" d="M23.3,47c-11.5,0-22-1.9-22.2-1.9c-0.5-0.1-0.8-0.5-0.8-1C0.8,34.1,7,31,11.7,29.5c3.6-1.1,5.5-3,5.5-3
			c0.4-0.4,1-0.4,1.4,0c0.4,0.4,0.4,1,0,1.4c-0.1,0.1-2.3,2.2-6.3,3.5c-4.5,1.4-9.2,4-9.9,11.8c3,0.5,13.2,2,23.6,1.7
			c0.6,0,1,0.4,1,1c0,0.6-0.4,1-1,1C25.1,47,24.2,47,23.3,47L23.3,47z"/>
		<path id="Shape_3_" d="M41,47h-8c-1.7,0-3-1.3-3-3v-6c0-0.6,0.4-1,1-1h12c0.6,0,1,0.4,1,1v6C44,45.7,42.7,47,41,47L41,47z M32,39
			v5c0,0.6,0.4,1,1,1h8c0.6,0,1-0.4,1-1v-5H32L32,39z"/>
		<path id="Shape_4_" d="M39.4,38.4c-0.1,0-0.2,0-0.3-0.1c-0.5-0.2-0.8-0.8-0.6-1.3c0.6-1.6,0.2-3.5-1.1-4.7c-0.8-0.9-2-1.3-3.2-1.3
			s-2.3,0.5-3.2,1.3c-0.4,0.4-1,0.4-1.4,0c-0.4-0.4-0.4-1,0-1.4c1.2-1.2,2.9-1.9,4.6-1.9s3.4,0.7,4.6,1.9c1.8,1.8,2.4,4.4,1.5,6.8
			C40.2,38.2,39.8,38.4,39.4,38.4L39.4,38.4z"/>
	</g>
</g>
</svg>
