<?xml version="1.0" encoding="utf-8"?>
<!-- Generator: Adobe Illustrator 18.0.0, SVG Export Plug-In . SVG Version: 6.00 Build 0)  -->
<!DOCTYPE svg PUBLIC "-//W3C//DTD SVG 1.1//EN" "http://www.w3.org/Graphics/SVG/1.1/DTD/svg11.dtd">
<svg version="1.1" id="covisint-logo--light" xmlns="http://www.w3.org/2000/svg" xmlns:xlink="http://www.w3.org/1999/xlink"
	 x="0px" y="0px" viewBox="0 0 639.9024 124.8628" enable-background="new 0 0 639.9024 124.8628" xml:space="preserve">
<g id="covisint-logo--light">
	<path fill="#009DDC" d="M56.8111,62.4375c1.9931-1.5898,3.8134-3.375,5.4214-5.3584c-4.8877-6.0195-7.8233-13.6884-7.8233-22.0537
		c0-8.354,2.9356-16.0166,7.8233-22.0449C55.8086,5.0655,46.0166,0,35.0308,0C15.6841,0,0,15.6875,0,35.0254
		c0,11.1075,5.1866,20.9942,13.253,27.4121c5.9804-4.7617,13.5361-7.622,21.7778-7.622
		C43.2681,54.8155,50.8238,57.6758,56.8111,62.4375z"/>
	<path fill="#FFFFFF" d="M62.2325,57.0791c1.6069,1.9834,3.4272,3.7686,5.4262,5.3584c5.9785-4.7617,13.5371-7.622,21.7754-7.622
		c8.2344,0,15.7998,2.8603,21.7783,7.622c8.062-6.4179,13.2495-16.3046,13.2495-27.4121C124.4619,15.6875,108.7808,0,89.4341,0
		C78.4473,0,68.6499,5.0655,62.2325,12.9805c4.8891,6.0283,7.8256,13.6909,7.8256,22.0449
		C70.0581,43.3907,67.1216,51.0596,62.2325,57.0791z"/>
	<path fill="#0079C1" d="M62.2325,57.0791c4.8891-6.0195,7.8256-13.6884,7.8256-22.0537c0-8.354-2.9365-16.0166-7.8256-22.0449
		c-4.8877,6.0283-7.8233,13.6909-7.8233,22.0449C54.4092,43.3907,57.3448,51.0596,62.2325,57.0791z"/>
	<path fill="#009DDC" d="M111.2124,62.4375c-5.9785,4.7593-13.5439,7.6246-21.7783,7.6246c-8.2383,0-15.7969-2.8653-21.7754-7.6246
		c-1.999,1.5796-3.8193,3.3746-5.4262,5.3589c4.8891,6.0196,7.8256,13.6914,7.8256,22.045c0,8.3496-2.9365,16.0234-7.8256,22.0507
		c6.4174,7.9141,16.2148,12.9707,27.2016,12.9707c19.3467,0,35.0278-15.6855,35.0278-35.0214
		C124.4619,78.7378,119.2744,68.8492,111.2124,62.4375z"/>
	<path fill="#0079C1" d="M67.6587,62.4375c5.9785,4.7593,13.5371,7.6246,21.7754,7.6246c8.2344,0,15.7998-2.8653,21.7783-7.6246
		c-5.9785-4.7617-13.5439-7.622-21.7783-7.622C81.1958,54.8155,73.6372,57.6758,67.6587,62.4375z"/>
	<path fill="#FFFFFF" d="M62.2325,67.7964c-1.608-1.9843-3.4283-3.7793-5.4214-5.3589c-5.9873,4.7593-13.543,7.6246-21.7803,7.6246
		c-8.2417,0-15.7974-2.8653-21.7778-7.6246C5.1866,68.8492,0,78.7378,0,89.8414c0,19.3359,15.6841,35.0214,35.0308,35.0214
		c10.9858,0,20.7778-5.0566,27.2017-12.9707c-4.8877-6.0273-7.8233-13.7011-7.8233-22.0507
		C54.4092,81.4878,57.3448,73.816,62.2325,67.7964z"/>
	<path fill="#0079C1" d="M56.8111,62.4375c-5.9873-4.7617-13.543-7.622-21.7803-7.622c-8.2417,0-15.7974,2.8603-21.7778,7.622
		c5.9804,4.7593,13.5361,7.6246,21.7778,7.6246C43.2681,70.0621,50.8238,67.1968,56.8111,62.4375z"/>
	<path fill="#0079C1" d="M62.2325,67.7964c-4.8877,6.0196-7.8233,13.6914-7.8233,22.045c0,8.3496,2.9356,16.0234,7.8233,22.0507
		c4.8891-6.0273,7.8256-13.7011,7.8256-22.0507C70.0581,81.4878,67.1216,73.816,62.2325,67.7964z"/>
	<circle fill="#FFFFFF" cx="397.0996" cy="11.7852" r="9.0947"/>
	<circle fill="#FFFFFF" cx="494.8233" cy="11.7852" r="9.0967"/>
	<path fill="#FFFFFF" d="M218.0825,52.9092c-1.2241-8.5517-7.4692-13.1689-16.0156-13.1689
		c-8.0127,0-19.2759,4.2197-19.2759,25.5171c0,11.6718,5.1597,24.0254,18.5938,24.0254c8.9585,0,15.2036-5.9688,16.6977-16.0157
		h15.4683c-2.8496,18.1836-14.1162,28.2305-32.166,28.2305c-21.9854,0-34.0674-15.6016-34.0674-36.2402
		c0-21.1665,11.5332-37.732,34.6128-37.732c16.2856,0,30.1348,8.1543,31.6206,25.3838H218.0825z"/>
	<path fill="#FFFFFF" d="M295.5821,64.4507c0-12.0893-6.1104-24.7104-19.9546-24.7104c-13.8457,0-19.9541,12.6211-19.9541,24.7104
		c0,12.2012,6.1084,24.8321,19.9541,24.8321C289.4717,89.2828,295.5821,76.6519,295.5821,64.4507 M240.2012,64.4507
		c0-21.4546,12.8975-36.9253,35.4263-36.9253c22.5307,0,35.4277,15.4707,35.4277,36.9253c0,21.5782-12.897,37.0469-35.4277,37.0469
		C253.0987,101.4976,240.2012,86.0289,240.2012,64.4507"/>
	<polygon fill="#FFFFFF" points="314.3072,29.4288 331.1397,29.4288 348.918,83.314 349.1817,83.314 366.291,29.4288 
		382.3018,29.4288 357.1944,99.5972 339.8242,99.5972 	"/>
	<rect x="389.3653" y="29.4288" fill="#FFFFFF" width="15.4687" height="70.1743"/>
	<path fill="#FFFFFF" d="M430.6201,77.0601c0.8155,8.9688,7.6006,12.2227,15.8916,12.2227c5.8252,0,16.0079-1.2207,15.6026-9.2325
		c-0.4121-8.1445-11.6748-9.0839-22.9414-11.6738c-11.4033-2.4316-22.5303-6.5171-22.5303-20.7573
		c0-15.334,16.5557-20.0845,29.3203-20.0845c14.3838,0,27.4141,5.9634,29.3203,21.565h-16.1591
		c-1.3526-7.3252-7.4639-9.3506-14.2481-9.3506c-4.4756,0-12.7607,1.0879-12.7607,7.1904c0,7.5977,11.4082,8.6768,22.8047,11.2598
		c11.2617,2.5752,22.6689,6.6577,22.6689,20.4878c0,16.6992-16.834,22.8105-31.3555,22.8105
		c-17.6416,0-30.8134-7.8789-31.084-24.4375H430.6201z"/>
	<rect x="487.0879" y="29.4288" fill="#FFFFFF" width="15.4717" height="70.1743"/>
	<path fill="#FFFFFF" d="M516.668,29.4288h14.6611v10.3115l0.2637,0.2754c4.627-7.7305,12.6299-12.4903,21.8584-12.4903
		c15.2031,0,24.8457,8.1377,24.8457,23.8897v48.1821h-15.4736V55.4825c-0.2735-10.9825-4.6241-15.7422-13.7158-15.7422
		c-10.3174,0-16.9678,8.1465-16.9678,18.4658v41.3911H516.668V29.4288z"/>
	<path fill="#FFFFFF" d="M584.8018,29.4288h11.6748V8.3868h15.4668v21.042h13.9824v11.542h-13.9824v37.4526
		c0,6.375,0.5508,9.6387,7.4746,9.6387c2.168,0,4.3369,0,6.5078-0.5391v11.9414c-3.3867,0.2734-6.6416,0.8027-10.0371,0.8027
		c-16.1533,0-19.1387-6.2422-19.4121-17.9179V40.9708h-11.6748V29.4288z"/>
	<g>
		<path fill="#FFFFFF" d="M632.9336,3.8614c3.7862,0,6.9688,2.9892,6.9688,6.9092c0,3.9946-3.1826,6.9926-6.9688,6.9926
			c-3.8095,0-7.0078-2.998-7.0078-6.9926C625.9258,6.8506,629.1241,3.8614,632.9336,3.8614z M632.9336,16.7403
			c3.2149,0,5.7051-2.5737,5.7051-5.9697c0-3.3213-2.4902-5.8863-5.7051-5.8863c-3.2529,0-5.7402,2.565-5.7402,5.8863
			C627.1934,14.1666,629.6807,16.7403,632.9336,16.7403z M630.2207,6.7432h3.1436c1.9326,0,2.8369,0.7656,2.8369,2.3164
			c0,1.4712-0.9346,2.085-2.1318,2.2183l2.3154,3.5854h-1.3486l-2.2178-3.4931h-1.332v3.4931h-1.2657V6.7432z M631.4864,10.3472
			h1.3164c1.1211,0,2.1328-0.0571,2.1328-1.3379c0-1.0796-0.9287-1.2451-1.7754-1.2451h-1.6738V10.3472z"/>
	</g>
</g>
</svg>
