<?xml version="1.0" encoding="utf-8"?>
<!-- Generator: Adobe Illustrator 19.1.0, SVG Export Plug-In . SVG Version: 6.00 Build 0)  -->
<svg version="1.1" id="covisint-logo" xmlns="http://www.w3.org/2000/svg" xmlns:xlink="http://www.w3.org/1999/xlink" x="0px"
	 y="0px" viewBox="-243 334.8 124.7 125.2" style="enable-background:new -243 334.8 124.7 125.2;" xml:space="preserve">
<style type="text/css">
	.st0{fill:#009DDC;}
	.st1{fill:#8AC4EB;}
	.st2{fill:#0079C1;}
</style>
<g id="covisint-logo-circles">
	<path fill="#009DDC" d="M-186.1,397.4c2-1.6,3.8-3.4,5.4-5.4c-4.9-6-7.8-13.7-7.8-22.1s2.9-16,7.8-22.1c-6.4-7.9-16.2-13-27.2-13
		c-19.4,0-35.1,15.7-35.1,35c0,11.1,5.2,21,13.3,27.4c6-4.8,13.5-7.6,21.8-7.6C-199.6,389.8-192,392.7-186.1,397.4z"/>
	<path fill="#8AC4EB" d="M-180.6,392.1c1.6,2,3.4,3.8,5.4,5.4c6-4.8,13.5-7.6,21.8-7.6c8.2,0,15.8,2.9,21.8,7.6
		c8.1-6.4,13.3-16.3,13.3-27.4c0-19.3-15.7-35-35-35c-11,0-20.8,5.1-27.2,13c4.9,6,7.8,13.7,7.8,22.1
		C-172.8,378.4-175.7,386.1-180.6,392.1z"/>
	<path fill="#0079C1" d="M-180.6,392.1c4.9-6,7.8-13.7,7.8-22.1s-2.9-16-7.8-22.1c-4.9,6-7.8,13.7-7.8,22.1
		C-188.5,378.4-185.5,386.1-180.6,392.1z"/>
	<path fill="#009DDC" d="M-131.6,397.4c-6,4.8-13.5,7.6-21.8,7.6c-8.2,0-15.8-2.9-21.8-7.6c-2,1.6-3.8,3.4-5.4,5.4
		c4.9,6,7.8,13.7,7.8,22.1s-2.9,16-7.8,22.1c6.4,7.9,16.2,13,27.2,13c19.4,0,35-15.7,35-35C-118.4,413.7-123.6,403.9-131.6,397.4z"
		/>
	<path fill="#0079C1" d="M-175.2,397.4c6,4.8,13.5,7.6,21.8,7.6c8.2,0,15.8-2.9,21.8-7.6c-6-4.8-13.5-7.6-21.8-7.6
		S-169.2,392.7-175.2,397.4z"/>
	<path fill="#8AC4EB" d="M-180.6,402.8c-1.6-2-3.4-3.8-5.4-5.4c-6,4.8-13.6,7.6-21.8,7.6s-15.8-2.9-21.8-7.6
		c-8.1,6.5-13.3,16.3-13.3,27.5c0,19.3,15.7,35,35.1,35c11,0,20.8-5.1,27.2-13c-4.9-6-7.8-13.7-7.8-22.1
		C-188.5,416.5-185.5,408.8-180.6,402.8z"/>
	<path fill="#0079C1" d="M-186.1,397.4c-6-4.8-13.6-7.6-21.8-7.6c-8.2,0-15.8,2.9-21.8,7.6c6,4.8,13.5,7.6,21.8,7.6
		C-199.6,405.1-192,402.2-186.1,397.4z"/>
	<path fill="#0079C1" d="M-180.6,402.8c-4.9,6-7.8,13.7-7.8,22.1s2.9,16,7.8,22.1c4.9-6,7.8-13.7,7.8-22.1S-175.7,408.8-180.6,402.8z"
		/>
</g>
</svg>
