<?xml version="1.0" encoding="UTF-8" standalone="no"?>
<svg width="48px" height="48px" viewBox="0 0 48 48" version="1.1" xmlns="http://www.w3.org/2000/svg" xmlns:xlink="http://www.w3.org/1999/xlink" xmlns:sketch="http://www.bohemiancoding.com/sketch/ns">
    <!-- Generator: Sketch 3.4.3 (16618) - http://www.bohemiancoding.com/sketch -->
    <g id="applications">
        <path d="M6.26086956,21.9130434 L13.5652174,21.9130434 L13.5652174,14.6086957 L6.26086956,14.6086957 L6.26086956,21.9130434 L6.26086956,21.9130434 Z M14.6086957,24 L5.2173913,24 C4.6413913,24 4.17391304,23.5325218 4.17391304,22.9565218 L4.17391304,13.5652174 C4.17391304,12.9892174 4.6413913,12.5217391 5.2173913,12.5217391 L14.6086957,12.5217391 C15.1846957,12.5217391 15.6521739,12.9892174 15.6521739,13.5652174 L15.6521739,22.9565218 C15.6521739,23.5325218 15.1846957,24 14.6086957,24 L14.6086957,24 L14.6086957,24 Z" id="Fill-1"></path>
        <path d="M6.26086956,31.3043478 L13.5652174,31.3043478 L13.5652174,28.173913 L6.26086956,28.173913 L6.26086956,31.3043478 L6.26086956,31.3043478 Z M14.6086957,33.3913044 L5.2173913,33.3913044 C4.6413913,33.3913044 4.17391304,32.923826 4.17391304,32.347826 L4.17391304,27.1304348 C4.17391304,26.5544348 4.6413913,26.0869566 5.2173913,26.0869566 L14.6086957,26.0869566 C15.1846957,26.0869566 15.6521739,26.5544348 15.6521739,27.1304348 L15.6521739,32.347826 C15.6521739,32.923826 15.1846957,33.3913044 14.6086957,33.3913044 L14.6086957,33.3913044 L14.6086957,33.3913044 Z" id="Fill-3"></path>
        <path d="M6.26086956,41.7391304 L13.5652174,41.7391304 L13.5652174,37.5652174 L6.26086956,37.5652174 L6.26086956,41.7391304 L6.26086956,41.7391304 Z M14.6086957,43.826087 L5.2173913,43.826087 C4.6413913,43.826087 4.17391304,43.3586086 4.17391304,42.7826086 L4.17391304,36.5217392 C4.17391304,35.9457392 4.6413913,35.4782608 5.2173913,35.4782608 L14.6086957,35.4782608 C15.1846957,35.4782608 15.6521739,35.9457392 15.6521739,36.5217392 L15.6521739,42.7826086 C15.6521739,43.3586086 15.1846957,43.826087 14.6086957,43.826087 L14.6086957,43.826087 L14.6086957,43.826087 Z" id="Fill-4"></path>
        <path d="M19.826087,21.9130434 L27.1304348,21.9130434 L27.1304348,14.6086957 L19.826087,14.6086957 L19.826087,21.9130434 L19.826087,21.9130434 Z M28.173913,24 L18.7826087,24 C18.2066087,24 17.7391304,23.5325218 17.7391304,22.9565218 L17.7391304,13.5652174 C17.7391304,12.9892174 18.2066087,12.5217391 18.7826087,12.5217391 L28.173913,12.5217391 C28.749913,12.5217391 29.2173914,12.9892174 29.2173914,13.5652174 L29.2173914,22.9565218 C29.2173914,23.5325218 28.749913,24 28.173913,24 L28.173913,24 L28.173913,24 Z" id="Fill-5"></path>
        <path d="M19.826087,33.3913044 L27.1304348,33.3913044 L27.1304348,28.173913 L19.826087,28.173913 L19.826087,33.3913044 L19.826087,33.3913044 Z M28.173913,35.4782608 L18.7826087,35.4782608 C18.2066087,35.4782608 17.7391304,35.0107826 17.7391304,34.4347826 L17.7391304,27.1304348 C17.7391304,26.5544348 18.2066087,26.0869566 18.7826087,26.0869566 L28.173913,26.0869566 C28.749913,26.0869566 29.2173914,26.5544348 29.2173914,27.1304348 L29.2173914,34.4347826 C29.2173914,35.0107826 28.749913,35.4782608 28.173913,35.4782608 L28.173913,35.4782608 L28.173913,35.4782608 Z" id="Fill-6"></path>
        <path d="M19.826087,41.7391304 L27.1304348,41.7391304 L27.1304348,39.652174 L19.826087,39.652174 L19.826087,41.7391304 L19.826087,41.7391304 Z M28.173913,43.826087 L18.7826087,43.826087 C18.2066087,43.826087 17.7391304,43.3586086 17.7391304,42.7826086 L17.7391304,38.6086956 C17.7391304,38.0326956 18.2066087,37.5652174 18.7826087,37.5652174 L28.173913,37.5652174 C28.749913,37.5652174 29.2173914,38.0326956 29.2173914,38.6086956 L29.2173914,42.7826086 C29.2173914,43.3586086 28.749913,43.826087 28.173913,43.826087 L28.173913,43.826087 L28.173913,43.826087 Z" id="Fill-7"></path>
        <path d="M33.3913044,16.6956522 L40.6956522,16.6956522 L40.6956522,14.6086957 L33.3913044,14.6086957 L33.3913044,16.6956522 L33.3913044,16.6956522 Z M41.7391304,18.7826087 L32.347826,18.7826087 C31.771826,18.7826087 31.3043478,18.3151304 31.3043478,17.7391304 L31.3043478,13.5652174 C31.3043478,12.9892174 31.771826,12.5217391 32.347826,12.5217391 L41.7391304,12.5217391 C42.3151304,12.5217391 42.7826086,12.9892174 42.7826086,13.5652174 L42.7826086,17.7391304 C42.7826086,18.3151304 42.3151304,18.7826087 41.7391304,18.7826087 L41.7391304,18.7826087 L41.7391304,18.7826087 Z" id="Fill-8"></path>
        <path d="M33.3913044,32.347826 L40.6956522,32.347826 L40.6956522,22.9565218 L33.3913044,22.9565218 L33.3913044,32.347826 L33.3913044,32.347826 Z M41.7391304,34.4347826 L32.347826,34.4347826 C31.771826,34.4347826 31.3043478,33.9673044 31.3043478,33.3913044 L31.3043478,21.9130434 C31.3043478,21.3370434 31.771826,20.8695652 32.347826,20.8695652 L41.7391304,20.8695652 C42.3151304,20.8695652 42.7826086,21.3370434 42.7826086,21.9130434 L42.7826086,33.3913044 C42.7826086,33.9673044 42.3151304,34.4347826 41.7391304,34.4347826 L41.7391304,34.4347826 L41.7391304,34.4347826 Z" id="Fill-9"></path>
        <path d="M33.3913044,41.7391304 L40.6956522,41.7391304 L40.6956522,38.6086956 L33.3913044,38.6086956 L33.3913044,41.7391304 L33.3913044,41.7391304 Z M41.7391304,43.826087 L32.347826,43.826087 C31.771826,43.826087 31.3043478,43.3586086 31.3043478,42.7826086 L31.3043478,37.5652174 C31.3043478,36.9892174 31.771826,36.5217392 32.347826,36.5217392 L41.7391304,36.5217392 C42.3151304,36.5217392 42.7826086,36.9892174 42.7826086,37.5652174 L42.7826086,42.7826086 C42.7826086,43.3586086 42.3151304,43.826087 41.7391304,43.826087 L41.7391304,43.826087 L41.7391304,43.826087 Z" id="Fill-10"></path>
        <path d="M3.13043478,2.08695652 C2.55547826,2.08695652 2.08695652,2.55547826 2.08695652,3.13043478 L2.08695652,44.8695652 C2.08695652,45.4445218 2.55547826,45.9130434 3.13043478,45.9130434 L44.8695652,45.9130434 C45.4445218,45.9130434 45.9130434,45.4445218 45.9130434,44.8695652 L45.9130434,3.13043478 C45.9130434,2.55547826 45.4445218,2.08695652 44.8695652,2.08695652 L3.13043478,2.08695652 L3.13043478,2.08695652 Z M44.8695652,48 L3.13043478,48 C1.40452174,48 0,46.5954782 0,44.8695652 L0,3.13043478 C0,1.40452174 1.40452174,0 3.13043478,0 L44.8695652,0 C46.5954782,0 48,1.40452174 48,3.13043478 L48,44.8695652 C48,46.5954782 46.5954782,48 44.8695652,48 L44.8695652,48 L44.8695652,48 Z" id="Fill-11"></path>
        <path d="M5.2173913,4.69565218 C4.9293913,4.69565218 4.69565218,4.9293913 4.69565218,5.2173913 C4.69565218,5.5053913 4.9293913,5.73913044 5.2173913,5.73913044 C5.5053913,5.73913044 5.73913044,5.5053913 5.73913044,5.2173913 C5.73913044,4.9293913 5.5053913,4.69565218 5.2173913,4.69565218 M5.2173913,6.7826087 C4.35443478,6.7826087 3.65217392,6.08034782 3.65217392,5.2173913 C3.65217392,4.35443478 4.35443478,3.65217392 5.2173913,3.65217392 C6.08034782,3.65217392 6.7826087,4.35443478 6.7826087,5.2173913 C6.7826087,6.08034782 6.08034782,6.7826087 5.2173913,6.7826087" id="Fill-12"></path>
        <path d="M9.39130434,4.69565218 C9.10330434,4.69565218 8.86956522,4.9293913 8.86956522,5.2173913 C8.86956522,5.5053913 9.10330434,5.73913044 9.39130434,5.73913044 C9.67930434,5.73913044 9.91304348,5.5053913 9.91304348,5.2173913 C9.91304348,4.9293913 9.67930434,4.69565218 9.39130434,4.69565218 M9.39130434,6.7826087 C8.52834782,6.7826087 7.82608696,6.08034782 7.82608696,5.2173913 C7.82608696,4.35443478 8.52834782,3.65217392 9.39130434,3.65217392 C10.2542609,3.65217392 10.9565217,4.35443478 10.9565217,5.2173913 C10.9565217,6.08034782 10.2542609,6.7826087 9.39130434,6.7826087" id="Fill-13"></path>
        <path d="M13.5652174,4.69565218 C13.2772174,4.69565218 13.0434783,4.9293913 13.0434783,5.2173913 C13.0434783,5.5053913 13.2772174,5.73913044 13.5652174,5.73913044 C13.8532174,5.73913044 14.0869565,5.5053913 14.0869565,5.2173913 C14.0869565,4.9293913 13.8532174,4.69565218 13.5652174,4.69565218 M13.5652174,6.7826087 C12.7022609,6.7826087 12,6.08034782 12,5.2173913 C12,4.35443478 12.7022609,3.65217392 13.5652174,3.65217392 C14.4281739,3.65217392 15.1304348,4.35443478 15.1304348,5.2173913 C15.1304348,6.08034782 14.4281739,6.7826087 13.5652174,6.7826087" id="Fill-14"></path>
        <path d="M46.4347826,10.4347826 L0.52173913,10.4347826 L0.52173913,8.34782608 L46.4347826,8.34782608 L46.4347826,10.4347826 L46.4347826,10.4347826 Z" id="Fill-15"></path>
    </g>

</svg>