<svg width="49" height="49" viewBox="0 0 49 49" xmlns="http://www.w3.org/2000/svg">
  <title>
    applications
  </title>
  <g id="applications_v2" transform="translate(1 1)" stroke="currentColor" fill="none" fill-rule="evenodd">
    <rect width="47.00249" height="47.00249" rx="100"/>
    <path d="M11.63256 23.8161c0-1.6336 1.3276-2.95786 2.95785-2.95786 1.6336 0 2.9579 1.3276 2.9579 2.95785 0 1.63352-1.3276 2.9578-2.95785 2.9578-1.63357 0-2.95784-1.3276-2.95784-2.95785zm.30987-9.2257c0-1.63357 1.3276-2.95784 2.95785-2.95784 1.63357 0 2.95785 1.3276 2.95785 2.95785 0 1.6336-1.3276 2.9579-2.95785 2.9579-1.63358 0-2.95785-1.3276-2.95785-2.95785zm8.98623 9.2257c0-1.6336 1.3276-2.95786 2.95785-2.95786 1.6336 0 2.9579 1.3276 2.9579 2.95785 0 1.63352-1.3276 2.9578-2.95785 2.9578-1.63356 0-2.95784-1.3276-2.95784-2.95785zm.30987-9.2257c0-1.63357 1.3276-2.95784 2.95785-2.95784 1.63358 0 2.95785 1.3276 2.95785 2.95785 0 1.6336-1.3276 2.9579-2.95785 2.9579-1.63357 0-2.95785-1.3276-2.95785-2.95785zm8.98623 9.2257c0-1.6336 1.3276-2.95786 2.95785-2.95786 1.6336 0 2.9579 1.3276 2.9579 2.95785 0 1.63352-1.3276 2.9578-2.95785 2.9578-1.63356 0-2.95784-1.3276-2.95784-2.95785zm.30987-9.2257c0-1.63357 1.3276-2.95784 2.95785-2.95784 1.63358 0 2.95786 1.3276 2.95786 2.95785 0 1.6336-1.3276 2.9579-2.95786 2.9579-1.63357 0-2.95785-1.3276-2.95785-2.95785zM11.63256 33.04177c0-1.63357 1.3276-2.95785 2.95785-2.95785 1.6336 0 2.9579 1.3276 2.9579 2.95786 0 1.63358-1.3276 2.95786-2.95785 2.95786-1.63357 0-2.95784-1.3276-2.95784-2.95786zm9.2961 0c0-1.63357 1.3276-2.95785 2.95785-2.95785 1.6336 0 2.9579 1.3276 2.9579 2.95786 0 1.63358-1.3276 2.95786-2.95785 2.95786-1.63356 0-2.95784-1.3276-2.95784-2.95786zm9.60597 0c0-1.63357 1.3276-2.95785 2.95785-2.95785 1.63358 0 2.95786 1.3276 2.95786 2.95786 0 1.63358-1.3276 2.95786-2.95786 2.95786-1.63357 0-2.95785-1.3276-2.95785-2.95786z"/>
  </g>
</svg>