<?xml version="1.0" encoding="utf-8"?>
<!-- Generator: Adobe Illustrator 17.0.0, SVG Export Plug-In . SVG Version: 6.00 Build 0)  -->
<!DOCTYPE svg PUBLIC "-//W3C//DTD SVG 1.1//EN" "http://www.w3.org/Graphics/SVG/1.1/DTD/svg11.dtd">
<svg version="1.1" xmlns="http://www.w3.org/2000/svg" xmlns:xlink="http://www.w3.org/1999/xlink" x="0px" y="0px" width="48px"
	 height="48px" viewBox="0 0 48 48" enable-background="new 0 0 48 48" xml:space="preserve">
<g id="board-edit">
	<path d="M31.207,45.222c-0.262,0-0.518-0.103-0.707-0.293c-0.252-0.251-0.351-0.617-0.26-0.962l1.453-5.521
		c0.045-0.171,0.135-0.327,0.26-0.452l8.133-8.134c0.391-0.391,1.023-0.391,1.414,0l4.067,4.067c0.391,0.391,0.391,1.023,0,1.414
		l-8.134,8.134c-0.125,0.125-0.281,0.215-0.452,0.26l-5.52,1.453C31.378,45.211,31.292,45.222,31.207,45.222z M33.559,39.217
		l-0.948,3.602l3.601-0.948l7.235-7.235l-2.653-2.653L33.559,39.217z"/>
	
		<rect x="32.42" y="39.829" transform="matrix(0.7224 0.6915 -0.6915 0.7224 37.8342 -12.5808)" width="4.33" height="2"/>
	<path d="M32,13H12c-0.313,0-0.609-0.147-0.799-0.397c-0.188-0.251-0.249-0.575-0.163-0.877l2-7
		C13.161,4.296,13.554,4,14,4h4c0-2.206,1.794-4,4-4s4,1.794,4,4h4c0.446,0,0.839,0.296,0.962,0.726l2,7
		c0.086,0.302,0.025,0.626-0.163,0.877C32.609,12.853,32.313,13,32,13z M13.326,11h17.348l-1.428-5H25c-0.553,0-1-0.447-1-1V4
		c0-1.103-0.897-2-2-2s-2,0.897-2,2v1c0,0.553-0.447,1-1,1h-4.246L13.326,11z"/>
	<path d="M29,47H7c-2.206,0-4-1.794-4-4V9c0-2.206,1.794-4,4-4h6v2H7C5.897,7,5,7.897,5,9v34c0,1.103,0.897,2,2,2
		h22V47z"/>
	<path d="M41,25h-2V9c0-1.103-0.897-2-2-2h-6V5h6c2.206,0,4,1.794,4,4V25z"/>
	<path d="M28,43H15c-0.266,0-0.52-0.105-0.707-0.293l-7-7C7.105,35.52,7,35.266,7,35V10.008c0-0.553,0.447-1,1-1h5
		v2H9v23.578L15.414,41H28V43z"/>
	<path d="M37,24h-2V11.008h-4v-2h5c0.553,0,1,0.447,1,1V24z"/>
	<path d="M16,42h-2v-6H8v-2h7c0.553,0,1,0.447,1,1V42z"/>
	<rect x="13" y="19" width="7" height="2"/>
	<rect x="13" y="24" width="17" height="2"/>
	<rect x="13" y="29" width="14" height="2"/>
</g>
</svg>
