<?xml version="1.0" encoding="utf-8"?>
<svg version="1.1" xmlns="http://www.w3.org/2000/svg" xmlns:xlink="http://www.w3.org/1999/xlink" 
	 viewBox="0 0 46.6433 38.7214" enable-background="new 0 0 46.6433 38.7214" xml:space="preserve">
<g id="categories" transform="translate(565.000000, 44.000000)">
	<path class="categories__folder" d="M-522.6078-36.9825c-0.2591-1.1031-1.5289-2.0032-2.8243-2.0032h-15.9045
		c-1.2931,0-3.1043-0.7973-4.0193-1.7725l-1.3911-1.4742c-0.915-0.9753-2.7239-1.7675-4.017-1.7675h-7.5975
		c-1.2954,0-2.4718,1.1207-2.6142,2.4921l-0.6816,7.5365h39.5185L-522.6078-36.9825L-522.6078-36.9825z"/>
	<path class="categories__paper" fill="#FFFFFF" d="M-561.8635-39.742c-0.7003-0.0613-1.3055,0.5373-1.3036,1.2932l0.0294,21.4301
		c-0.0001,0.8731,0.6216,1.5968,1.4344,1.6679l33.988,2.9736c0.8128,0.0711,1.5486-0.5338,1.7023-1.3935l3.7502-21.0994
		c0.1332-0.744-0.359-1.4386-1.0592-1.4999L-561.8635-39.742L-561.8635-39.742z"/>
	<path class="categories__paper" fill="#FFFFFF" d="M-560.7941-35.1322c-0.7002,0.0613-1.1924,0.7559-1.0592,1.4999l3.7502,21.0994
		c0.1516,0.8599,0.8895,1.4646,1.7023,1.3935l33.988-2.9736c0.8129-0.0711,1.4324-0.7946,1.4344-1.6679l0.0294-21.4301
		c0.002-0.7559-0.6033-1.3544-1.3036-1.2932L-560.7941-35.1322L-560.7941-35.1322z"/>
	<path class="categories__folder" d="M-563.6468-32.8571c-0.7983,0-1.4238,0.7371-1.3468,1.592l2.1544,24.2416
		c0.0864,0.9878,0.8613,1.745,1.788,1.745h38.7459c0.9266,0,1.6992-0.7572,1.7879-1.745l2.1544-24.2416
		c0.077-0.8549-0.5485-1.592-1.3468-1.592H-563.6468z"/>
</g>
</svg>
