<?xml version="1.0" encoding="UTF-8" standalone="no"?>
<svg width="48px" height="48px" viewBox="0 0 48 48" version="1.1" xmlns="http://www.w3.org/2000/svg" xmlns:xlink="http://www.w3.org/1999/xlink">
    <title>check_with_border</title>

    <g id="check_with_border" transform="translate(24.000000, 24.000000) rotate(-180.000000) translate(-24.000000, -24.000000) translate(3.000000, 3.000000)">
        <circle id="Oval-75" stroke="currentColor" stroke-width="5" fill="none" cx="21" cy="21" r="21"></circle>
        <path d="M10.0950558,29.1482995 C10.8797539,29.9269189 12.1477323,29.91467 12.9158927,29.1324195 L22.8574,19.0085589 C23.6306071,18.2211692 24.9086272,18.2042444 25.6988477,18.9582657 L29.2389199,22.3361708 C30.035001,23.0957843 31.2981389,23.0756419 32.068633,22.2825187 L32.2051386,22.142004 C32.9718648,21.3527593 32.9479888,20.0936236 32.1467704,19.32481 L25.6498094,13.090615 C24.8508472,12.3239665 23.5702613,12.3460912 22.8005159,13.128871 L9.95537367,26.1915243 C9.18071445,26.9793011 9.18839874,28.2486658 9.9735507,29.0277356 L10.0950558,29.1482995 Z" id="Path" ></path>
    </g>
</svg>