<svg width="48" height="48" viewBox="0 0 48 48" xmlns="http://www.w3.org/2000/svg">
  <title>
    check-with-border
  </title>
  <g id="check-with-border" transform="translate(3 3)" >
    <ellipse fill="none" fill-rule="evenodd" stroke="currentColor" stroke-width="3" cx="20.96574" cy="20.96574" rx="20.96574" ry="20.96574"/>
    <path d="M10.0950558,29.1482995 C10.8797539,29.9269189 12.1477323,29.91467 12.9158927,29.1324195 L22.8574,19.0085589 C23.6306071,18.2211692 24.9086272,18.2042444 25.6988477,18.9582657 L29.2389199,22.3361708 C30.035001,23.0957843 31.2981389,23.0756419 32.068633,22.2825187 L32.2051386,22.142004 C32.9718648,21.3527593 32.9479888,20.0936236 32.1467704,19.32481 L25.6498094,13.090615 C24.8508472,12.3239665 23.5702613,12.3460912 22.8005159,13.128871 L9.95537367,26.1915243 C9.18071445,26.9793011 9.18839874,28.2486658 9.9735507,29.0277356 L10.0950558,29.1482995 Z" id="Path" fill="currentColor" transform="translate(21.071818, 21.128693) scale(-1, -1) translate(-21.071818, -21.128693) "></path>
  </g>
</svg>