<svg width="48" height="48" viewBox="0 0 48 48" xmlns="http://www.w3.org/2000/svg">
  <title>
    X
  </title>
  <g id="close-no-fill" transform="translate(2 2)" fill="none" fill-rule="evenodd">
    <circle stroke="currentColor" stroke-width="3" cx="22" cy="22" r="22"/>
    <path d="M22.5141906 18.7458824l-5.026615-5.026615c-1.0337678-1.0337678-2.7255145-1.0383855-3.766104.002204-1.0384723 1.0384723-1.0415765 2.726732-.0022043 3.766104l5.026615 5.0266152-5.026615 5.026615c-1.0337677 1.0337678-1.0383854 2.7255145.0022042 3.766104 1.0384722 1.0384723 2.7267318 1.0415765 3.766104.0022043l5.026615-5.0266153 5.0266152 5.026615c1.0337677 1.0337678 2.7255144 1.0383855 3.766104-.002204 1.0384722-1.0384723 1.0415764-2.726732.0022042-3.766104l-5.0266153-5.0266152 5.026615-5.026615c1.0337678-1.0337678 1.0383855-2.7255145-.002204-3.766104-1.0384723-1.0384723-2.726732-1.0415765-3.766104-.0022043l-5.0266152 5.026615z" fill="currentColor"/>
  </g>
</svg>