<svg width="50" height="50" viewBox="0 0 50 50" xmlns="http://www.w3.org/2000/svg">
  <title>
    Close
  </title>
  <g id="close-no-fill" transform="translate(1 1)" fill="none" fill-rule="evenodd">
    <circle stroke="currentColor" cx="24" cy="24" r="24"/>
    <path d="M24.56 20.45l-5.483-5.484c-1.127-1.127-2.973-1.132-4.108.003-1.134 1.132-1.137 2.973-.004 4.107l5.484 5.484-5.484 5.485c-1.127 1.127-1.132 2.973.003 4.108 1.132 1.133 2.973 1.136 4.107.002l5.484-5.483 5.485 5.483c1.127 1.128 2.973 1.133 4.108-.002 1.133-1.133 1.136-2.975.002-4.108l-5.483-5.484 5.483-5.483c1.128-1.127 1.133-2.973-.002-4.108-1.133-1.134-2.975-1.137-4.108-.004L24.56 20.45z" fill="currentColor"/>
  </g>
</svg>