<?xml version="1.0" encoding="utf-8"?>
<svg width="50" height="50" viewBox="0 0 50 50" xmlns="http://www.w3.org/2000/svg">
  <title>
    Close
  </title>
  <g id="close" transform="translate(2 2)" >
    <circle class="close__outline" fill="currentColor" cx="23" cy="23" r="23"/>
    <path fill="FFFFFF" d="M23 19.06l-5.255-5.255c-1.08-1.08-2.85-1.085-3.937.003-1.086 1.085-1.09 2.85-.003 3.937L19.06 23l-5.255 5.255c-1.08 1.08-1.085 2.85.003 3.937 1.085 1.086 2.85 1.09 3.937.003L23 26.94l5.255 5.255c1.08 1.08 2.85 1.085 3.937-.003 1.086-1.085 1.09-2.85.003-3.937L26.94 23l5.255-5.255c1.08-1.08 1.085-2.85-.003-3.937-1.085-1.086-2.85-1.09-3.937-.003L23 19.06z"/>
  </g>
</svg>