<?xml version="1.0" encoding="UTF-8" standalone="no"?>
<!DOCTYPE svg PUBLIC "-//W3C//DTD SVG 1.1//EN" "http://www.w3.org/Graphics/SVG/1.1/DTD/svg11.dtd">
<svg width="48px" height="48px" viewBox="0 0 48 48" version="1.1" xmlns="http://www.w3.org/2000/svg" xmlns:xlink="http://www.w3.org/1999/xlink" xmlns:sketch="http://www.bohemiancoding.com/sketch/ns">
    <!-- Generator: Sketch 3.4.3 (16618) - http://www.bohemiancoding.com/sketch -->

    <g id="New-Division">
        <g id="division" transform="translate(0.105138, 0.453626)">
            <path d="M36.2486891,32.2207888 L36.2486891,25.6384794 C36.2486891,23.8239561 34.9364669,22.3473247 33.323974,22.3473247 L9.92625351,22.3473247 C8.31376058,22.3473247 7.00153843,23.8239561 7.00153843,25.6384794 L7.00153843,32.2207888 L5.05172838,32.2207888 L5.05172838,25.6384794 C5.05172838,22.6139082 7.23844035,20.1532216 9.92625351,20.1532216 L33.323974,20.1532216 C36.0117872,20.1532216 38.1984991,22.6139082 38.1984991,25.6384794 L38.1984991,32.2207888 L36.2486891,32.2207888 Z" id="Fill-1"></path>
            <path d="M20.6502087,12.4738607 L22.6000188,12.4738607 L22.6000188,32.2207888 L20.6502087,32.2207888 L20.6502087,12.4738607 L20.6502087,12.4738607 Z" id="Fill-2"></path>
            <path d="M25.5247338,13.5709123 L17.7254937,13.5709123 C16.1130008,13.5709123 14.8007786,12.0942809 14.8007786,10.2797576 L14.8007786,3.6974482 C14.8007786,1.88292492 16.1130008,0.406293523 17.7254937,0.406293523 L25.5247338,0.406293523 C27.1372267,0.406293523 28.4494489,1.88292492 28.4494489,3.6974482 L28.4494489,10.2797576 C28.4494489,12.0942809 27.1372267,13.5709123 25.5247338,13.5709123 L25.5247338,13.5709123 L25.5247338,13.5709123 Z M17.7254937,2.60039664 C17.1873461,2.60039664 16.7505886,3.0929728 16.7505886,3.6974482 L16.7505886,10.2797576 C16.7505886,10.884233 17.1873461,11.3768091 17.7254937,11.3768091 L25.5247338,11.3768091 C26.0628814,11.3768091 26.4996389,10.884233 26.4996389,10.2797576 L26.4996389,3.6974482 C26.4996389,3.0929728 26.0628814,2.60039664 25.5247338,2.60039664 L17.7254937,2.60039664 L17.7254937,2.60039664 L17.7254937,2.60039664 Z" id="Fill-3"></path>
            <path d="M24.5498288,43.1913044 L18.7003987,43.1913044 C17.0879058,43.1913044 15.7756836,41.714673 15.7756836,39.9001497 L15.7756836,34.4148919 C15.7756836,32.6003686 17.0879058,31.1237372 18.7003987,31.1237372 L24.5498288,31.1237372 C26.1623217,31.1237372 27.4745439,32.6003686 27.4745439,34.4148919 L27.4745439,39.9001497 C27.4745439,41.714673 26.1623217,43.1913044 24.5498288,43.1913044 L24.5498288,43.1913044 L24.5498288,43.1913044 Z M18.7003987,33.3178403 C18.1622511,33.3178403 17.7254937,33.8104165 17.7254937,34.4148919 L17.7254937,39.9001497 C17.7254937,40.5046251 18.1622511,40.9972013 18.7003987,40.9972013 L24.5498288,40.9972013 C25.0879764,40.9972013 25.5247338,40.5046251 25.5247338,39.9001497 L25.5247338,34.4148919 C25.5247338,33.8104165 25.0879764,33.3178403 24.5498288,33.3178403 L18.7003987,33.3178403 L18.7003987,33.3178403 L18.7003987,33.3178403 Z" id="Fill-4"></path>
            <path d="M40.1483092,43.1913044 L34.298879,43.1913044 C32.6863861,43.1913044 31.374164,41.714673 31.374164,39.9001497 L31.374164,34.4148919 C31.374164,32.6003686 32.6863861,31.1237372 34.298879,31.1237372 L40.1483092,31.1237372 C41.760802,31.1237372 43.0730243,32.6003686 43.0730243,34.4148919 L43.0730243,39.9001497 C43.0730243,41.714673 41.760802,43.1913044 40.1483092,43.1913044 L40.1483092,43.1913044 L40.1483092,43.1913044 Z M34.298879,33.3178403 C33.7607314,33.3178403 33.323974,33.8104165 33.323974,34.4148919 L33.323974,39.9001497 C33.323974,40.5046251 33.7607314,40.9972013 34.298879,40.9972013 L40.1483092,40.9972013 C40.6864567,40.9972013 41.1232142,40.5046251 41.1232142,39.9001497 L41.1232142,34.4148919 C41.1232142,33.8104165 40.6864567,33.3178403 40.1483092,33.3178403 L34.298879,33.3178403 L34.298879,33.3178403 L34.298879,33.3178403 Z" id="Fill-5"></path>
            <path d="M8.95134844,43.1913044 L3.10191834,43.1913044 C1.48942543,43.1913044 0.177203274,41.714673 0.177203274,39.9001497 L0.177203274,34.4148919 C0.177203274,32.6003686 1.48942543,31.1237372 3.10191834,31.1237372 L8.95134844,31.1237372 C10.5638414,31.1237372 11.8760635,32.6003686 11.8760635,34.4148919 L11.8760635,39.9001497 C11.8760635,41.714673 10.5638414,43.1913044 8.95134844,43.1913044 L8.95134844,43.1913044 L8.95134844,43.1913044 Z M3.10191834,33.3178403 C2.56377077,33.3178403 2.12701332,33.8104165 2.12701332,34.4148919 L2.12701332,39.9001497 C2.12701332,40.5046251 2.56377077,40.9972013 3.10191834,40.9972013 L8.95134844,40.9972013 C9.48949602,40.9972013 9.92625351,40.5046251 9.92625351,39.9001497 L9.92625351,34.4148919 C9.92625351,33.8104165 9.48949602,33.3178403 8.95134844,33.3178403 L3.10191834,33.3178403 L3.10191834,33.3178403 L3.10191834,33.3178403 Z" id="Fill-6"></path>
        </g>
    </g>
           
</svg>