<?xml version="1.0" encoding="utf-8"?>
<!-- Generator: Adobe Illustrator 17.0.0, SVG Export Plug-In . SVG Version: 6.00 Build 0)  -->
<!DOCTYPE svg PUBLIC "-//W3C//DTD SVG 1.1//EN" "http://www.w3.org/Graphics/SVG/1.1/DTD/svg11.dtd">
<svg version="1.1" xmlns="http://www.w3.org/2000/svg" xmlns:xlink="http://www.w3.org/1999/xlink" x="0px" y="0px" width="48px"
	 height="48px" viewBox="0 0 48 48" enable-background="new 0 0 48 48" xml:space="preserve">
<g id="edit-user">
	<path d="M23.979,29.805c-5.541,0-9.414-6.667-10.339-9.385c-0.051-0.032-0.106-0.065-0.16-0.099
		c-0.359-0.224-0.598-0.372-0.754-0.648c-1.332-2.357-1.685-4.243-1.048-5.605c0.306-0.654,0.769-1.048,1.175-1.283
		c-0.002-1.019,0.071-2.968,0.573-4.862c0.021-0.075,2.006-7.073,10.553-7.073S34.511,7.848,34.53,7.919
		c0.502,1.896,0.576,3.847,0.574,4.865c0.405,0.235,0.868,0.629,1.174,1.283c0.637,1.363,0.284,3.249-1.048,5.606
		c-0.153,0.275-0.393,0.424-0.756,0.65c-0.053,0.033-0.107,0.066-0.158,0.098C33.395,23.136,29.522,29.805,23.979,29.805z
		 M14.374,18.522c0.049,0.031,0.104,0.065,0.161,0.1c0.469,0.291,0.807,0.501,0.932,0.945c0.502,1.74,3.91,8.237,8.512,8.237
		c4.604,0,8.01-6.497,8.512-8.242c0.128-0.441,0.464-0.65,0.929-0.939c0.058-0.036,0.114-0.07,0.163-0.101
		c1.234-2.25,1.04-3.253,0.896-3.585c-0.178-0.406-0.55-0.505-0.592-0.515c-0.47-0.112-0.82-0.551-0.794-1.033
		c0.001-0.026,0.13-2.596-0.494-4.955c-0.062-0.22-1.64-5.585-8.619-5.585s-8.558,5.365-8.621,5.594
		c-0.623,2.35-0.493,4.92-0.492,4.945c0.027,0.502-0.322,0.947-0.817,1.038c-0.019,0.005-0.392,0.104-0.568,0.511
		C13.334,15.27,13.14,16.274,14.374,18.522z"/>
	<path d="M21.286,47.19c-11.146,0-18.776-1.907-19.12-1.995c-0.46-0.117-0.774-0.542-0.752-1.017
		c0.478-10.023,6.721-13.135,11.375-14.604c3.629-1.146,5.529-3,5.548-3.019c0.393-0.388,1.025-0.386,1.414,0.006
		c0.389,0.393,0.387,1.025-0.006,1.415c-0.091,0.09-2.268,2.216-6.354,3.505c-4.549,1.436-9.248,3.989-9.924,11.958
		c2.457,0.528,10.305,1.998,20.483,1.712c0.552-0.021,1.013,0.419,1.028,0.972c0.015,0.552-0.42,1.012-0.972,1.027
		C23.079,47.178,22.171,47.19,21.286,47.19z"/>
	<path d="M29.207,47.221c-0.262,0-0.518-0.103-0.707-0.293c-0.252-0.251-0.351-0.618-0.26-0.961l1.703-6.47
		c0.045-0.171,0.135-0.328,0.26-0.453l8.171-8.172c1.107-1.105,3.033-1.105,4.139-0.001l2.043,2.044
		c1.141,1.141,1.141,2.998,0,4.138l-8.172,8.172c-0.125,0.125-0.281,0.215-0.452,0.26l-6.47,1.703
		C29.377,47.21,29.292,47.221,29.207,47.221z M31.809,40.268l-1.198,4.55l4.551-1.198l7.98-7.981c0.361-0.361,0.361-0.949,0-1.31
		l-2.043-2.043c-0.35-0.349-0.961-0.351-1.311,0.001L31.809,40.268z"/>
	<path d="M35,45c-0.249,0-0.498-0.092-0.691-0.278l-3.666-3.51c-0.399-0.382-0.413-1.015-0.031-1.414
		c0.383-0.399,1.018-0.412,1.414-0.031l3.666,3.51c0.399,0.382,0.413,1.015,0.031,1.414C35.526,44.896,35.263,45,35,45z"/>
	<path d="M34.867,31.53c-0.1,0-0.201-0.015-0.301-0.047c-4.086-1.29-6.265-3.416-6.355-3.505
		c-0.392-0.389-0.395-1.022-0.006-1.414c0.389-0.393,1.019-0.396,1.412-0.009c0.029,0.029,1.966,1.89,5.551,3.021
		c0.526,0.166,0.819,0.728,0.653,1.254C35.687,31.257,35.292,31.53,34.867,31.53z"/>
</g>
</svg>
