<svg xmlns="http://www.w3.org/2000/svg" width="40" height="33" viewBox="0 0 40 33" xml:space="preserve">
  <title>
    Folder Icon
  </title>
  <g id="folder">
    <path fill="#373837" d="M36.8239 5.6026c-.2222-.8807-1.311-1.5993-2.422-1.5993H20.7627c-1.1089 0-2.6622-.6365-3.4468-1.4152l-1.193-1.177C15.3381.6325 13.7869 0 12.678 0H6.1626C5.0517 0 4.0428.8947 3.9207 1.9896l-.5845 6.017h33.89l-.4023-2.404zm2.0156 4.4057H1.1604c-.6846 0-1.221.5885-1.155 1.271l1.8475 19.354c.0741.7887.7386 1.3932 1.5333 1.3932h33.2274c.7947 0 1.4572-.6045 1.5333-1.3932l1.8475-19.354c.0661-.6826-.4703-1.271-1.1549-1.271z"/>
  </g>
</svg>