<?xml version="1.0" encoding="utf-8"?>
<!-- Generator: Adobe Illustrator 17.0.0, SVG Export Plug-In . SVG Version: 6.00 Build 0)  -->
<!DOCTYPE svg PUBLIC "-//W3C//DTD SVG 1.1//EN" "http://www.w3.org/Graphics/SVG/1.1/DTD/svg11.dtd">
<svg version="1.1" xmlns="http://www.w3.org/2000/svg" xmlns:xlink="http://www.w3.org/1999/xlink" x="0px" y="0px" width="48px"
	 height="48px" viewBox="0 0 48 48" enable-background="new 0 0 48 48" xml:space="preserve">
<g id="gift">
	<path d="M33,46H3c-0.552,0-1-0.448-1-1V15c0-0.552,0.448-1,1-1h30c0.552,0,1,0.448,1,1v30
		C34,45.552,33.552,46,33,46z M4,44h28V16H4V44z"/>
	<path d="M33,46c-0.256,0-0.512-0.098-0.707-0.293c-0.391-0.391-0.391-1.023,0-1.414L44,32.586V4H15.414
		L3.707,15.707c-0.391,0.391-1.023,0.391-1.414,0s-0.391-1.023,0-1.414l12-12C14.48,2.105,14.735,2,15,2h30c0.552,0,1,0.448,1,1v30
		c0,0.265-0.105,0.52-0.293,0.707l-12,12C33.512,45.902,33.256,46,33,46z"/>
	<path d="M36,23c-0.063,0-0.126-0.006-0.189-0.018c-0.326-0.063-0.6-0.283-0.73-0.588l-3-7
		c-0.161-0.376-0.077-0.812,0.212-1.101l11-11c0.286-0.287,0.715-0.373,1.09-0.217C44.756,3.231,45,3.596,45,4v10
		c0,0.265-0.105,0.52-0.293,0.707l-8,8C36.518,22.896,36.263,23,36,23z M34.186,15.229l2.151,5.02L43,13.586V6.414L34.186,15.229z"
		/>
	<path d="M17,46c-0.552,0-1-0.448-1-1V14.5c0-0.265,0.105-0.52,0.293-0.707l11.5-11.5
		c0.391-0.391,1.023-0.391,1.414,0s0.391,1.023,0,1.414L18,14.914V45C18,45.552,17.552,46,17,46z"/>
	<path d="M14.654,30.028C14.654,30.028,14.654,30.028,14.654,30.028c-2.169,0-4.576-1.227-5.479-2.792
		C8.652,26.33,8.638,25.358,9.134,24.5c0.495-0.856,1.292-1.328,2.246-1.328c2.552,0,5.753,3.47,6.369,4.166
		c0.306,0.346,0.335,0.856,0.071,1.235C17.165,29.511,16.041,30.028,14.654,30.028z M11.38,25.172c-0.206,0-0.355,0.054-0.515,0.329
		c-0.095,0.164-0.164,0.379,0.042,0.736c0.541,0.938,2.326,1.792,3.746,1.792c0,0,0,0,0,0c0.268,0,0.583-0.029,0.871-0.13
		C14.207,26.587,12.4,25.172,11.38,25.172z"/>
	<path d="M23,35c-0.226,0-0.453-0.076-0.64-0.232l-6-5c-0.424-0.354-0.481-0.984-0.128-1.408
		c0.354-0.423,0.984-0.482,1.408-0.128l6,5c0.424,0.354,0.481,0.984,0.128,1.408C23.57,34.877,23.286,35,23,35z"/>
	<path d="M19.467,29.816c-1.048,0-1.938-0.354-2.575-1.022c-0.318-0.334-0.367-0.844-0.116-1.231
		c0.551-0.854,3.432-5.111,6.085-5.111c0.783,0,1.476,0.348,2.003,1.006c0.67,0.835,0.766,1.916,0.263,2.963
		C24.243,28.261,21.651,29.816,19.467,29.816z M19.058,27.781c0.126,0.023,0.263,0.036,0.409,0.036c1.399,0,3.309-1.12,3.857-2.262
		c0.247-0.513,0.066-0.738-0.021-0.846c-0.181-0.226-0.32-0.257-0.442-0.257C21.889,24.452,20.216,26.214,19.058,27.781z"/>
	<path d="M12.59,35.942c-0.235,0-0.472-0.083-0.662-0.251c-0.414-0.366-0.452-0.999-0.086-1.412l5.177-5.848
		c0.366-0.414,0.999-0.452,1.411-0.086c0.414,0.366,0.452,0.999,0.086,1.412l-5.177,5.848C13.142,35.828,12.866,35.942,12.59,35.942
		z"/>
</g>
</svg>
