<svg width="49" height="49" viewBox="0 0 49 49" xmlns="http://www.w3.org/2000/svg">
  <title>
    help icon
  </title>
  <g id="help" transform="translate(1 1)" fill="none" fill-rule="evenodd">
    <ellipse stroke="currentColor" cx="23.41463" cy="23.85158" rx="23.41463" ry="23.41463"/>
    <path d="M18.0059 13.33654C19.34386 11.91232 21.1805 11.2 23.51587 11.2c2.16036 0 3.8902.6092 5.18914 1.82762 1.2994 1.21882 1.9493 2.77573 1.9493 4.67113 0 1.14816-.2354 2.07943-.707 2.79462-.4707.71478-1.4365 1.7656-2.8965 3.15202-1.0619 1.0072-1.7532 1.86-2.0737 2.5588-.3204.6983-.4806 1.7302-.4806 3.0949h-2.892c0-1.5491.1841-2.7971.553-3.7448.3681-.9481 1.1876-2.0334 2.4578-3.2576l1.326-1.2837c.3977-.3681.72018-.7526.9674-1.1539.4503-.7037.675-1.4349.675-2.1933 0-1.0615-.3233-1.9821-.9703-2.7622-.6466-.7797-1.7167-1.16997-3.2095-1.16997-1.84693 0-3.1237.67165-3.8319 2.01453-.39804.74727-.6248 1.8252-.67985 3.2334H16c-.00082-2.33865.66795-4.2209 2.0059-5.6451zm3.53365 18.65986h3.23335v3.3796h-3.23335v-3.3796z" fill="currentColor"/>
  </g>
</svg>