<svg width="48" height="48" viewBox="0 0 48 48" xmlns="http://www.w3.org/2000/svg" xmlns:xlink="http://www.w3.org/1999/xlink">
  <title>
    Invite
  </title>
  <defs>
    <ellipse id="path-1" cx="20" cy="19.672" rx="20" ry="19.672"/>
    <filter x="-50%" y="-50%" width="200%" height="200%" filterUnits="objectBoundingBox" id="filter-2">
      <feOffset dy="3" in="SourceAlpha" result="shadowOffsetOuter1"/>
      <feGaussianBlur stdDeviation="2" in="shadowOffsetOuter1" result="shadowBlurOuter1"/>
      <feColorMatrix values="0 0 0 0 0 0 0 0 0 0 0 0 0 0 0 0 0 0 0.27 0" in="shadowBlurOuter1"/>
    </filter>
  </defs>
  <g id="Page-1" fill="none" fill-rule="evenodd">
    <g id="invite">
      <g id="Oval-73" fill="currentColor" transform="translate(4 1)">
        <use filter="url(#filter-2)" xlink:href="#path-1"/>
        <use xlink:href="#path-1"/>
      </g>
      <path d="M13.736 13.242c.008-.02.018-.04.028-.06.012-.02.023-.038.038-.055.016-.02.034-.035.055-.05.037-.03.044-.03.05-.035.022-.01.045-.017.07-.023.02-.008.044-.013.066-.015L33.36 13c.046.008.068.012.09.018.025.008.047.014.07.025.033.015.04.026.05.034.02.016.04.03.055.05.015.017.027.036.037.055.01.02.022.038.03.06.006.023.01.047.013.07.002.015.01 14.44.01 14.44 0 .196-.16.355-.355.355H14.068c-.196 0-.354-.158-.354-.354v-14.4c.01-.064.015-.088.022-.11zm.684 13.404c.893-1.324 2.94-4.09 5.772-6.305-2.778-1.87-4.796-4.42-5.772-5.81v12.116zM33.007 14.53c-.977 1.39-2.993 3.94-5.77 5.81 2.827 2.21 4.875 4.972 5.77 6.3V14.53zm-9.292 6.812c4.594-1.587 7.947-6.084 8.995-7.634H14.717c1.048 1.55 4.402 6.047 8.998 7.634zm2.893-.6c-.864.526-1.793.98-2.78 1.31h-.003c-.036.013-.072.02-.11.02-.037 0-.073-.007-.108-.02h-.003c-.987-.33-1.915-.782-2.778-1.31-3.12 2.38-5.35 5.576-6.055 6.658h17.89c-.706-1.082-2.934-4.28-6.052-6.657z" id="Shape" fill="#FFF"/>
    </g>
  </g>
</svg>