<?xml version="1.0" encoding="utf-8"?>
<!-- Generator: Adobe Illustrator 17.0.0, SVG Export Plug-In . SVG Version: 6.00 Build 0)  -->
<!DOCTYPE svg PUBLIC "-//W3C//DTD SVG 1.1//EN" "http://www.w3.org/Graphics/SVG/1.1/DTD/svg11.dtd" [
	<!ENTITY ns_extend "http://ns.adobe.com/Extensibility/1.0/">
	<!ENTITY ns_ai "http://ns.adobe.com/AdobeIllustrator/10.0/">
	<!ENTITY ns_graphs "http://ns.adobe.com/Graphs/1.0/">
	<!ENTITY ns_vars "http://ns.adobe.com/Variables/1.0/">
	<!ENTITY ns_imrep "http://ns.adobe.com/ImageReplacement/1.0/">
	<!ENTITY ns_sfw "http://ns.adobe.com/SaveForWeb/1.0/">
	<!ENTITY ns_custom "http://ns.adobe.com/GenericCustomNamespace/1.0/">
	<!ENTITY ns_adobe_xpath "http://ns.adobe.com/XPath/1.0/">
]>
<svg version="1.1" xmlns:x="&ns_extend;" xmlns:i="&ns_ai;" xmlns:graph="&ns_graphs;"
	 xmlns="http://www.w3.org/2000/svg" xmlns:xlink="http://www.w3.org/1999/xlink" x="0px" y="0px" width="48px" height="48px"
	 viewBox="0 0 48 48" enable-background="new 0 0 48 48" xml:space="preserve">

<g id="large-phone">
	<g>
		<path d="M35,40H13c-0.552,0-1-0.448-1-1V5c0-0.552,0.448-1,1-1h22c0.552,0,1,0.448,1,1v34
			C36,39.552,35.552,40,35,40z M14,38h20V6H14V38z"/>
	</g>
	<g>
		<path d="M35,48H13c-2.757,0-5-2.243-5-5V5c0-2.757,2.243-5,5-5h22c2.757,0,5,2.243,5,5v38
			C40,45.757,37.757,48,35,48z M13,2c-1.654,0-3,1.346-3,3v38c0,1.654,1.346,3,3,3h22c1.654,0,3-1.346,3-3V5
			c0-1.654-1.346-3-3-3H13z"/>
	</g>
	<g>
		<circle cx="24" cy="43" r="2"/>
	</g>
</g>
</svg>
