<svg width="34" height="48" viewBox="0 0 34 48" xmlns="http://www.w3.org/2000/svg">
  <title>
    launch
  </title>
  <g id="launch">
    <path d="M29.93781 16.628166h-5.07756c-.725365 0-1.318846.626165-1.318846 1.391478s.59348 1.391478 1.318847 1.391478h5.07756c.725366 0 1.318847.626166 1.318847 1.39148v22.333225c0 .765313-.59348 1.391478-1.318846 1.391478H3.95654c-.725367 0-1.318848-.626165-1.318848-1.391478V20.8026c0-.765313.59348-1.391478 1.318847-1.391478h5.077554c.725366 0 1.318847-.626165 1.318847-1.391478s-.59348-1.391478-1.318846-1.391478H3.95654C1.78044 16.628166 0 18.50666 0 20.8026v22.333227c0 2.29594 1.780442 4.174435 3.95654 4.174435h25.915326c2.176096 0 3.95654-1.878496 3.95654-4.174435V20.8026c.06594-2.29594-1.7145-4.174434-3.890598-4.174434zM18.26602 31.169114V16.489018c0-4.45273 3.429-8.001 7.583365-8.001h3.494943l-3.16523 3.339548c-.52754.55659-.52754 1.391478 0 1.94807.263768.278295.59348.417443.92319.417443.329713 0 .659424-.13915.923194-.417447l5.40727-5.70506c.527537-.556592.527537-1.39148 0-1.94807L28.02548.417443c-.52754-.55659-1.318847-.55659-1.846385 0-.52754.55659-.52754 1.39148 0 1.94807l3.16523 3.339548h-3.494942c-5.341327 0-9.69352 4.313586-10.221058 9.809925 0 .139148-.065942.208722-.065942.34787v15.30626c.065942.765314.659423 1.39148 1.38479 1.39148.725364 0 1.318845-.626166 1.318845-1.39148z" fill="currentColor" fill-rule="evenodd"/>
  </g>
</svg>