<?xml version="1.0" encoding="utf-8"?>
<!-- Generator: Adobe Illustrator 17.0.0, SVG Export Plug-In . SVG Version: 6.00 Build 0)  -->
<!DOCTYPE svg PUBLIC "-//W3C//DTD SVG 1.1//EN" "http://www.w3.org/Graphics/SVG/1.1/DTD/svg11.dtd">
<svg version="1.1" xmlns="http://www.w3.org/2000/svg" xmlns:xlink="http://www.w3.org/1999/xlink" x="0px" y="0px" width="48px"
	 height="48px" viewBox="0 0 48 48" enable-background="new 0 0 48 48" xml:space="preserve">
<g id="list">
	<path d="M41,46H7c-2.8,0-5-2.2-5-5V7c0-2.8,2.2-5,5-5h34c2.8,0,5,2.2,5,5v34C46,43.8,43.8,46,41,46z M7,4
		C5.3,4,4,5.3,4,7v34c0,1.7,1.3,3,3,3h34c1.7,0,3-1.3,3-3V7c0-1.7-1.3-3-3-3H7z"/>
	<path d="M45,10H3c-0.6,0-1-0.4-1-1s0.4-1,1-1h42c0.6,0,1,0.4,1,1S45.6,10,45,10z"/>
	<path d="M8,7C7.7,7,7.5,6.9,7.3,6.7C7.1,6.5,7,6.3,7,6s0.1-0.5,0.3-0.7c0.4-0.4,1-0.4,1.4,0C8.9,5.5,9,5.7,9,6
		S8.9,6.5,8.7,6.7C8.5,6.9,8.3,7,8,7z"/>
	<path d="M11,7c-0.3,0-0.5-0.1-0.7-0.3C10.1,6.5,10,6.3,10,6s0.1-0.5,0.3-0.7c0.4-0.4,1-0.4,1.4,0
		C11.9,5.5,12,5.7,12,6s-0.1,0.5-0.3,0.7C11.5,6.9,11.3,7,11,7z"/>
	<path d="M14,7c-0.3,0-0.5-0.1-0.7-0.3C13.1,6.5,13,6.3,13,6s0.1-0.5,0.3-0.7c0.4-0.4,1-0.4,1.4,0
		C14.9,5.5,15,5.7,15,6s-0.1,0.5-0.3,0.7C14.5,6.9,14.3,7,14,7z"/>
	<path d="M10.5,21C8.6,21,7,19.4,7,17.5S8.6,14,10.5,14s3.5,1.6,3.5,3.5S12.4,21,10.5,21z M10.5,16
		C9.7,16,9,16.7,9,17.5S9.7,19,10.5,19s1.5-0.7,1.5-1.5S11.3,16,10.5,16z"/>
	<path d="M10.5,30C8.6,30,7,28.4,7,26.5S8.6,23,10.5,23s3.5,1.6,3.5,3.5S12.4,30,10.5,30z M10.5,25
		C9.7,25,9,25.7,9,26.5S9.7,28,10.5,28s1.5-0.7,1.5-1.5S11.3,25,10.5,25z"/>
	<path d="M10.5,39C8.6,39,7,37.4,7,35.5S8.6,32,10.5,32s3.5,1.6,3.5,3.5S12.4,39,10.5,39z M10.5,34
		C9.7,34,9,34.7,9,35.5S9.7,37,10.5,37s1.5-0.7,1.5-1.5S11.3,34,10.5,34z"/>
	<path d="M39,19H18c-0.6,0-1-0.4-1-1s0.4-1,1-1h21c0.6,0,1,0.4,1,1S39.6,19,39,19z"/>
	<path d="M39,28H18c-0.6,0-1-0.4-1-1s0.4-1,1-1h21c0.6,0,1,0.4,1,1S39.6,28,39,28z"/>
	<path d="M39,37H18c-0.6,0-1-0.4-1-1s0.4-1,1-1h21c0.6,0,1,0.4,1,1S39.6,37,39,37z"/>
</g>
</svg>
