<?xml version="1.0" encoding="UTF-8" standalone="no"?>
<svg width="48px" height="48px" viewBox="0 0 48 48" version="1.1" xmlns="http://www.w3.org/2000/svg" xmlns:xlink="http://www.w3.org/1999/xlink" xmlns:sketch="http://www.bohemiancoding.com/sketch/ns">
    <!-- Generator: Sketch 3.4.3 (16618) - http://www.bohemiancoding.com/sketch -->
    <g id="login">
        <path d="M3.13043478,2.08695652 C2.55547826,2.08695652 2.08695652,2.55547826 2.08695652,3.13043478 L2.08695652,44.8695652 C2.08695652,45.4445217 2.55547826,45.9130435 3.13043478,45.9130435 L44.8695652,45.9130435 C45.4445217,45.9130435 45.9130435,45.4445217 45.9130435,44.8695652 L45.9130435,3.13043478 C45.9130435,2.55547826 45.4445217,2.08695652 44.8695652,2.08695652 L3.13043478,2.08695652 Z M44.8695652,48 L3.13043478,48 C1.40452174,48 0,46.5954783 0,44.8695652 L0,3.13043478 C0,1.40452174 1.40452174,0 3.13043478,0 L44.8695652,0 C46.5954783,0 48,1.40452174 48,3.13043478 L48,44.8695652 C48,46.5954783 46.5954783,48 44.8695652,48 L44.8695652,48 Z" id="Fill-1"></path>
        <path d="M5.2173913,4.69565217 C4.9293913,4.69565217 4.69565217,4.9293913 4.69565217,5.2173913 C4.69565217,5.5053913 4.9293913,5.73913043 5.2173913,5.73913043 C5.5053913,5.73913043 5.73913043,5.5053913 5.73913043,5.2173913 C5.73913043,4.9293913 5.5053913,4.69565217 5.2173913,4.69565217 M5.2173913,6.7826087 C4.35443478,6.7826087 3.65217391,6.08034783 3.65217391,5.2173913 C3.65217391,4.35443478 4.35443478,3.65217391 5.2173913,3.65217391 C6.08034783,3.65217391 6.7826087,4.35443478 6.7826087,5.2173913 C6.7826087,6.08034783 6.08034783,6.7826087 5.2173913,6.7826087" id="Fill-3"></path>
        <path d="M9.39130435,4.69565217 C9.10330435,4.69565217 8.86956522,4.9293913 8.86956522,5.2173913 C8.86956522,5.5053913 9.10330435,5.73913043 9.39130435,5.73913043 C9.67930435,5.73913043 9.91304348,5.5053913 9.91304348,5.2173913 C9.91304348,4.9293913 9.67930435,4.69565217 9.39130435,4.69565217 M9.39130435,6.7826087 C8.52834783,6.7826087 7.82608696,6.08034783 7.82608696,5.2173913 C7.82608696,4.35443478 8.52834783,3.65217391 9.39130435,3.65217391 C10.2542609,3.65217391 10.9565217,4.35443478 10.9565217,5.2173913 C10.9565217,6.08034783 10.2542609,6.7826087 9.39130435,6.7826087" id="Fill-5"></path>
        <path d="M13.5652174,4.69565217 C13.2772174,4.69565217 13.0434783,4.9293913 13.0434783,5.2173913 C13.0434783,5.5053913 13.2772174,5.73913043 13.5652174,5.73913043 C13.8532174,5.73913043 14.0869565,5.5053913 14.0869565,5.2173913 C14.0869565,4.9293913 13.8532174,4.69565217 13.5652174,4.69565217 M13.5652174,6.7826087 C12.7022609,6.7826087 12,6.08034783 12,5.2173913 C12,4.35443478 12.7022609,3.65217391 13.5652174,3.65217391 C14.4281739,3.65217391 15.1304348,4.35443478 15.1304348,5.2173913 C15.1304348,6.08034783 14.4281739,6.7826087 13.5652174,6.7826087" id="Fill-7"></path>
        <path d="M46.4347826,10.4347826 L0.52173913,10.4347826 L0.52173913,8.34782609 L46.4347826,8.34782609 L46.4347826,10.4347826 Z" id="Fill-9"></path>
        <path d="M13.5652174,27.1304348 C12.4142609,27.1304348 11.4782609,26.1944348 11.4782609,25.0434783 L11.4782609,22.9565217 C11.4782609,21.8055652 12.4142609,20.8695652 13.5652174,20.8695652 L34.4347826,20.8695652 C35.5857391,20.8695652 36.5217391,21.8055652 36.5217391,22.9565217 L36.5217391,25.0434783 C36.5217391,26.1944348 35.5857391,27.1304348 34.4347826,27.1304348 L13.5652174,27.1304348 Z M13.5652174,22.9565217 L13.5652174,25.0434783 L34.4358261,25.0434783 L34.4347826,22.9565217 L13.5652174,22.9565217 Z" id="Fill-11"></path>
        <path d="M21.9130435,31.3043478 L15.6521739,31.3043478 C15.0761739,31.3043478 14.6086957,30.8368696 14.6086957,30.2608696 C14.6086957,29.6848696 15.0761739,29.2173913 15.6521739,29.2173913 L21.9130435,29.2173913 C22.4890435,29.2173913 22.9565217,29.6848696 22.9565217,30.2608696 C22.9565217,30.8368696 22.4890435,31.3043478 21.9130435,31.3043478" id="Fill-12"></path>
        <path d="M32.3478261,31.3043478 L26.0869565,31.3043478 C25.5109565,31.3043478 25.0434783,30.8368696 25.0434783,30.2608696 C25.0434783,29.6848696 25.5109565,29.2173913 26.0869565,29.2173913 L32.3478261,29.2173913 C32.9238261,29.2173913 33.3913043,29.6848696 33.3913043,30.2608696 C33.3913043,30.8368696 32.9238261,31.3043478 32.3478261,31.3043478" id="Fill-13"></path>
        <path d="M28.6956522,26.0869565 L28.6956522,21.9130435 C28.6956522,21.3370435 29.1631304,20.8695652 29.7391304,20.8695652 C30.3151304,20.8695652 30.7826087,21.3370435 30.7826087,21.9130435 L30.7826087,26.0869565 C30.7826087,26.6629565 30.3151304,27.1304348 29.7391304,27.1304348 C29.1631304,27.1304348 28.6956522,26.6629565 28.6956522,26.0869565 Z" id="Fill-14"></path>
    </g>
</svg>