<?xml version="1.0" encoding="utf-8"?>
<!-- Generator: Adobe Illustrator 17.0.0, SVG Export Plug-In . SVG Version: 6.00 Build 0)  -->
<!DOCTYPE svg PUBLIC "-//W3C//DTD SVG 1.1//EN" "http://www.w3.org/Graphics/SVG/1.1/DTD/svg11.dtd">
<svg version="1.1" xmlns="http://www.w3.org/2000/svg" xmlns:xlink="http://www.w3.org/1999/xlink" x="0px" y="0px" width="48px"
	 height="48px" viewBox="0 0 48 48" enable-background="new 0 0 48 48" xml:space="preserve">
<g id="mail-open">
	<path d="M43,47H5c-1.7,0-3-1.3-3-3V21.3c0-1.1,0.5-2.1,1.2-2.9l4-3.8L8.6,16l-4,3.8C4.2,20.2,4,20.7,4,21.3V44
		c0,0.6,0.4,1,1,1h38c0.6,0,1-0.4,1-1V21.3c0-0.5-0.2-1.1-0.6-1.4l-4-3.8l1.4-1.4l4,3.8c0.8,0.8,1.2,1.8,1.2,2.9V44
		C46,45.7,44.7,47,43,47z"/>
	<path d="M30.3,7.4l-5-4.7c-0.8-0.7-2-0.7-2.8,0l-5,4.7L16.3,6l5-4.7c1.5-1.5,4-1.5,5.5,0l5,4.7L30.3,7.4z"/>
	<path d="M3.7,46.7l-1.4-1.4l13.4-13.4c0.6-0.6,1.3-0.9,2.1-0.9h13.3c0.8,0,1.6,0.3,2.2,1l12.4,13.4l-1.5,1.4
		L31.9,33.3c-0.2-0.2-0.5-0.3-0.7-0.3H17.8c-0.3,0-0.5,0.1-0.7,0.3L3.7,46.7z"/>
	
		<rect x="1.3" y="27" transform="matrix(0.7926 0.6097 -0.6097 0.7926 19.042 1.427599e-002)" width="16.4" height="2"/>
	<rect x="38.5" y="20.6" transform="matrix(0.6726 0.74 -0.74 0.6726 33.6509 -20.0629)" width="2" height="14.9"/>
	<path d="M41,27h-2V9c0-0.6-0.4-1-1-1H10C9.4,8,9,8.4,9,9v18H7V9c0-1.7,1.3-3,3-3h28c1.7,0,3,1.3,3,3V27z"/>
	<path d="M20,15h-6c-0.6,0-1-0.4-1-1s0.4-1,1-1h6c0.6,0,1,0.4,1,1S20.6,15,20,15z"/>
	<path d="M34,19H14c-0.6,0-1-0.4-1-1s0.4-1,1-1h20c0.6,0,1,0.4,1,1S34.6,19,34,19z"/>
	<path d="M34,23H14c-0.6,0-1-0.4-1-1s0.4-1,1-1h20c0.6,0,1,0.4,1,1S34.6,23,34,23z"/>
</g>
</svg>
