<?xml version="1.0" encoding="UTF-8" standalone="no"?>
<svg width="46px" height="46px" viewBox="0 0 46 46" version="1.1" xmlns="http://www.w3.org/2000/svg" xmlns:xlink="http://www.w3.org/1999/xlink">
    <!-- Generator: Sketch 39.1 (31720) - http://www.bohemiancoding.com/sketch -->
    <title>new-with-shadow</title>
    <desc>Created with Sketch.</desc>
    <defs>
        <ellipse id="path-1" cx="20" cy="19.6721311" rx="20" ry="19.6721311"></ellipse>
        <filter x="-50%" y="-50%" width="200%" height="200%" filterUnits="objectBoundingBox" id="filter-2">
            <feOffset dx="0" dy="2" in="SourceAlpha" result="shadowOffsetOuter1"></feOffset>
            <feGaussianBlur stdDeviation="1.5" in="shadowOffsetOuter1" result="shadowBlurOuter1"></feGaussianBlur>
            <feColorMatrix values="0 0 0 0 0   0 0 0 0 0   0 0 0 0 0  0 0 0 0.15 0" type="matrix" in="shadowBlurOuter1"></feColorMatrix>
        </filter>
    </defs>
    <g id="new-with-shadow" stroke="none" stroke-width="1" fill="none" fill-rule="evenodd">
        <g id="New-2" transform="translate(3.000000, 1.000000)">
            <g id="Oval-73">
                <use fill="black" fill-opacity="1" filter="url(#filter-2)" xlink:href="#path-1"></use>
                <use fill="currentColor" fill-rule="evenodd" xlink:href="#path-1"></use>
            </g>
            <path d="M22.1371429,17.5349883 L22.1371429,11.8697421 C22.1371429,10.7562937 21.2419442,9.86229506 20.1376608,9.86229506 L19.8623392,9.86229506 C18.7484919,9.86229506 17.8628571,10.7610597 17.8628571,11.8697421 L17.8628571,17.5349883 L12.197611,17.5349883 C11.0841625,17.5349883 10.1901639,18.4301869 10.1901639,19.5344704 L10.1901639,19.8097919 C10.1901639,20.9236392 11.0889286,21.809274 12.197611,21.809274 L17.8628571,21.809274 L17.8628571,27.4745202 C17.8628571,28.5879686 18.7580558,29.4819672 19.8623392,29.4819672 L20.1376608,29.4819672 C21.2515081,29.4819672 22.1371429,28.5832026 22.1371429,27.4745202 L22.1371429,21.809274 L27.802389,21.809274 C28.9158375,21.809274 29.8098361,20.9140754 29.8098361,19.8097919 L29.8098361,19.5344704 C29.8098361,18.4206231 28.9110714,17.5349883 27.802389,17.5349883 L22.1371429,17.5349883 Z" id="Rectangle-352" fill="#FFFFFF" fill-rule="evenodd"></path>
        </g>
    </g>
</svg>