<?xml version="1.0" encoding="UTF-8" standalone="no"?>
<svg width="48px" height="48px" viewBox="0 0 48 48" version="1.1" xmlns="http://www.w3.org/2000/svg" xmlns:xlink="http://www.w3.org/1999/xlink" xmlns:sketch="http://www.bohemiancoding.com/sketch/ns">
    <!-- Generator: Sketch 3.4.3 (16618) - http://www.bohemiancoding.com/sketch -->
    <title>not-authorized</title>
    <desc>icon to display when attempting to access areas without authorization.</desc>
    <g id="not-authorized">
        <g>
            <g id="Clip-3"></g>
            <g transform="translate(0.000000, 0.546512)">
                <g id="path-1"></g>
                <path d="M3.77770698,45.1005149 L3.13681517,45.1005149 C1.40651183,45.1005149 0.000313650153,43.6946928 0.000313650153,41.9671818 L0.000313650153,1.23384837 C0.000313650153,0.657315038 0.467652377,0.189403928 1.04581416,0.189403928 L17.5208111,0.189403928 C18.6217232,0.189403928 19.6996342,0.635381706 20.4774866,1.41349282 L25.525163,6.45607059 L44.9568354,6.45607059 C45.5339517,6.45607059 46.0023359,6.92398171 46.0023359,7.50051503 L46.0023359,13.7671817 L43.9113349,13.7671817 L43.9113349,8.5449595 L25.0923258,8.5449595 C24.8142227,8.5449595 24.5486655,8.43424837 24.3531569,8.23893725 L18.9991488,2.89033725 C18.6091772,2.5007595 18.0707444,2.27829281 17.5208111,2.27829281 L2.09131466,2.27829281 L2.09131466,41.9671818 C2.09131466,42.5426706 2.55969889,43.0116262 3.13681517,43.0116262 L3.77770698,43.0116262 C4.75629545,43.0116262 5.59478685,42.3452706 5.81538747,41.3927371 L11.5269567,16.665515 C11.6367343,16.1913372 12.0591165,15.8560706 12.5463197,15.8560706 L47.0478364,15.8560706 C47.3688052,15.8560706 47.6730457,16.0043817 47.8716907,16.2581817 C48.0692904,16.5109372 48.1403845,16.8420262 48.0609264,17.154315 L45.9699253,25.5098706 L43.9427,25.0022706 L45.7075046,17.9449595 L13.3785381,17.9449595 L7.85306796,41.8616928 C7.41291222,43.7688484 5.73592943,45.1005149 3.77770698,45.1005149" id="Fill-2" ></path>
            </g>
        </g>
        <g id="Group-7" transform="translate(0.000000, 0.546512)">
            <g id="Clip-6"></g>
            <g>
                <g id="path-3"></g>
                <path d="M38.2128344,30.254364 C36.3257059,30.254364 34.5525372,30.9886084 33.219524,32.3213196 C31.8844199,33.6529862 31.1504786,35.4254084 31.1504786,37.3095862 C31.1504786,39.193764 31.8844199,40.9651418 33.219524,42.2978528 C34.5535827,43.630564 36.3257059,44.3648084 38.2128344,44.3648084 C40.0989173,44.3648084 41.872086,43.630564 43.2061447,42.2978528 C45.959993,39.5478306 45.959993,35.0713418 43.2061447,32.3213196 C41.872086,30.9886084 40.0989173,30.254364 38.2128344,30.254364 M38.2128344,46.4536971 C35.7674088,46.4536971 33.4693987,45.5022084 31.7411863,43.7746971 C30.0108829,42.0482306 29.058432,39.7525418 29.0594775,37.3095862 C29.0594775,34.8666306 30.0108829,32.5709418 31.7411863,30.8434306 C33.4693987,29.116964 35.7674088,28.1654749 38.2128344,28.1654749 C40.6572145,28.1654749 42.9552245,29.116964 44.6844824,30.8434306 C48.2538212,34.409164 48.2538212,40.2100084 44.6844824,43.7746971 C42.9552245,45.5022084 40.6572145,46.4536971 38.2128344,46.4536971" id="Fill-5" ></path>
            </g>
        </g>
        <path d="M32.479937,44.6275444 C32.2122889,44.6275444 31.9446406,44.5251888 31.740768,44.3215222 C31.3319773,43.9131444 31.3319773,43.2530556 31.740768,42.8446778 L43.2067721,31.3902556 C43.6145173,30.9829222 44.2763191,30.9829222 44.6851098,31.3902556 C45.092855,31.7986334 45.092855,32.4597666 44.6851098,32.8671 L33.2191057,44.3215222 C33.0152331,44.5251888 32.747585,44.6275444 32.479937,44.6275444" id="Fill-8" ></path>
        <path d="M29.2740142,45.6474444 L3.13650152,45.6474444 L3.13650152,43.5585556 L29.2740142,43.5585556 L29.2740142,45.6474444 L29.2740142,45.6474444 Z" id="Fill-1" ></path>
    </g>
</svg>