<svg width="48" height="39" viewBox="0 0 48 39" xmlns="http://www.w3.org/2000/svg">
  <title>
    Shape
  </title>
  <g id="organization">
    <path d="M10.6747 19.86817l-3.20873.00242c-.132 0-2.59434-.0505-4.00786 1.9959-.6335.9055-1.3607 3.1344-2.0519 6.2712-.072.3338-.3648.5572-.6935.5572-.0504 0-.1032-.0049-.1536-.0192-.384-.0841-.6264-.4636-.5424-.8455.7512-3.4155 1.5168-5.6948 2.2704-6.7781 1.8672-2.6949 5.0735-2.6036 5.2007-2.6036h3.1055c.0912-.0168 4.0631-.4107 5.94468 2.76452.2016.33864.0912.7734-.24956.97514-.3384.20175-.7704.08885-.9744-.2522-1.40155-2.37547-4.60786-2.07284-4.6391-2.068zM9.10274 17.841c1.66074 0 3.2855-.58123 4.56708-1.63567.3024-.24978.34796-.69654.09838-1.0016-.24717-.30263-.69598-.34824-1.00078-.09846-1.04395.85988-2.31115 1.31383-3.66468 1.31383-3.1967 0-5.79583-2.6012-5.79583-5.79808 0-3.19687 2.5992-5.8005 5.7959-5.8005 1.3536 0 2.6208.45155 3.6623 1.31142.3024.24737.7512.20417 1.0008-.10087.2472-.30264.204-.7494-.0984-.99918-1.2815-1.0521-2.9015-1.6333-4.5646-1.6333-3.979 0-7.2141 3.2377-7.2141 7.2199s3.2351 7.2224 7.2142 7.2224h-.0001zm38.8813 9.99172c-.75598-3.42025-1.52156-5.69962-2.27276-6.77805-1.86716-2.69248-5.06388-2.6084-5.17186-2.60362l-3.05753.0024c-.1512-.0192-3.8231-.3843-5.7863 2.40188-.2256.31943-.1488.76378.168.98957.324.2258.7655.1489.9935-.1681 1.4735-2.09442 4.4446-1.811 4.5478-1.8014h3.1559c.024-.0192 2.5535-.06722 3.9815 1.99595.444.6341 1.1591 2.24336 2.0495 6.27124.0744.3338.36955.5572.69355.5572.0504 0 .1032-.0049.1536-.0192.38877-.0889.6264-.4684.5448-.8479l.00003-.0001zM38.89787 16.4191c-1.35117 0-2.61832-.45153-3.66232-1.3114-.3024-.2498-.75115-.20418-1.00078.09845-.24958.30505-.204.75176.0984 1.0016 1.28397 1.05202 2.90632 1.63567 4.56465 1.63567 3.97907 0 7.219-3.24012 7.219-7.2224 0-3.98227-3.23993-7.21998-7.219-7.21998-1.66316 0-3.28073.57887-4.56466 1.63326-.3024.24978-.34797.69654-.0984.99918.2496.30505.6984.34825 1.0008.10088 1.02957-.84545 2.33034-1.31142 3.6623-1.31142 3.19672 0 5.79343 2.6012 5.79343 5.79808 0 3.19687-2.5967 5.79808-5.7935 5.79808zm-4.67747 8.50978c-2.5679-4.2825-7.95336-3.7493-8.10933-3.7253h-4.3895c-.192-.00483-4.52868-.11768-7.0774 3.54753-1.41116 2.032-3.4871 9.8093-4.21906 13.047-.0863.3843.1537.7638.5376.8503.3816.0889.7632-.1537.8496-.5356.7656-3.401 2.7912-10.8132 3.9983-12.5449 2.0976-3.0167 5.8318-2.9326 5.8871-2.9375l4.4879-.0048c.0504-.0096 4.7495-.4587 6.835 3.0672.0168.0241.0336.0505.0552.0745 1.2791 1.6188 3.4223 8.894 4.2119 12.3479.0745.3291.3672.55.6912.55.0504 0 .108-.0048.1584-.0192.384-.0841.624-.4684.5352-.8503-.62153-2.7045-2.8175-10.7363-4.45182-12.8668l-.00003.0001zM14.12824 9.88123C14.12824 4.4314 18.5609 0 24.00154 0c5.44784 0 9.8757 4.4338 9.8757 9.88123 0 5.45225-4.43027 9.88365-9.8757 9.88365-5.44307 0-9.8733-4.4338-9.8733-9.88365zm1.4231 0c0 4.66444 3.7919 8.46175 8.45018 8.46175 4.6607 0 8.45496-3.79736 8.45496-8.46175 0-4.66202-3.7943-8.45697-8.45495-8.45697-4.65826-.0024-8.45016 3.79495-8.45016 8.45697z" fill="currentColor" fill-rule="evenodd"/>
  </g>
</svg>