<?xml version="1.0" encoding="utf-8"?>
<!-- Generator: Adobe Illustrator 17.0.0, SVG Export Plug-In . SVG Version: 6.00 Build 0)  -->
<!DOCTYPE svg PUBLIC "-//W3C//DTD SVG 1.1//EN" "http://www.w3.org/Graphics/SVG/1.1/DTD/svg11.dtd">
<svg version="1.1" xmlns="http://www.w3.org/2000/svg" xmlns:xlink="http://www.w3.org/1999/xlink" x="0px" y="0px" width="48px"
	 height="48px" viewBox="0 0 48 48" enable-background="new 0 0 48 48" xml:space="preserve">
<g id="report-flag">
	<path d="M35.5,34.1c-3.9,0-7.4-1.4-10.8-2.8c-5.2-2.1-10.1-4.2-16.3-0.8l-1-1.8c7-3.8,12.6-1.5,18,0.7
		c5.2,2.1,10.1,4.2,16.5,1.1V10.7c-6.7,2.9-12.1,0.7-17.3-1.5C19.5,7.1,14.6,5.1,8.4,8.4l-1-1.8c7-3.8,12.6-1.5,18,0.7
		c5.4,2.2,10.4,4.3,17,0.9c0.3-0.2,0.7-0.1,1,0C43.8,8.5,44,8.8,44,9.1v22c0,0.4-0.2,0.7-0.5,0.9C40.6,33.5,38,34.1,35.5,34.1z"/>
	<path d="M8,49H5c-0.6,0-1-0.4-1-1V3.5C4,2.1,5.1,1,6.5,1S9,2.1,9,3.5V48C9,48.6,8.6,49,8,49z M6,47h1V3.5
		C7,3.2,6.8,3,6.5,3S6,3.2,6,3.5V47z"/>
</g>
</svg>
