<?xml version="1.0" encoding="UTF-8" standalone="no"?>
<svg width="42px" height="48px" viewBox="4 0 42 48" version="1.1" xmlns="http://www.w3.org/2000/svg" xmlns:xlink="http://www.w3.org/1999/xlink" xmlns:sketch="http://www.bohemiancoding.com/sketch/ns">
    <!-- Generator: Sketch 3.4.3 (16618) - http://www.bohemiancoding.com/sketch -->
    <g id="review">
        <path d="M38.0539721,47.4685723 L3.08545719,47.4685723 C1.3843418,47.4685723 0,46.0796006 0,44.3727958 L0,3.09577646 C0,1.3889717 1.3843418,0 3.08545719,0 L27.7691148,0 C28.0262362,0 28.2741014,0.0970009956 28.4643711,0.271396402 L40.8062001,11.6225768 C41.0180681,11.8176107 41.1394294,12.0941667 41.1394294,12.3831058 L41.1394294,44.3727958 C41.1394294,46.0796006 39.7550875,47.4685723 38.0539721,47.4685723 L38.0539721,47.4685723 L38.0539721,47.4685723 Z M3.08545719,2.06385098 C2.51876157,2.06385098 2.05697146,2.52615358 2.05697146,3.09577646 L2.05697146,44.3727958 C2.05697146,44.9424187 2.51876157,45.4047214 3.08545719,45.4047214 L38.0539721,45.4047214 C38.6206678,45.4047214 39.0824578,44.9424187 39.0824578,44.3727958 L39.0824578,12.8361211 L27.3690339,2.06385098 L3.08545719,2.06385098 L3.08545719,2.06385098 L3.08545719,2.06385098 Z" id="Fill-1"></path>
        <path d="M40.1109437,13.4150313 L29.8260862,13.4150313 C28.1249709,13.4150313 26.7406291,12.0260596 26.7406291,10.3192549 L26.7406291,1.03192549 C26.7406291,0.461270691 27.2013907,0 27.7691148,0 C28.3368389,0 28.7976005,0.461270691 28.7976005,1.03192549 L28.7976005,10.3192549 C28.7976005,10.8888777 29.2593907,11.3511803 29.8260862,11.3511803 L40.1109437,11.3511803 C40.6786678,11.3511803 41.1394294,11.812451 41.1394294,12.3831058 C41.1394294,12.9537606 40.6786678,13.4150313 40.1109437,13.4150313" id="Fill-2"></path>
        <path d="M17.7979457,33.2341922 C17.5367102,33.2341922 17.2744464,33.2238729 17.0101256,33.2052982 C11.0706204,32.7749854 6.58745112,27.5771767 7.01632968,21.6167751 C7.44109428,15.7162251 12.579409,11.1602741 18.5662245,11.5905871 C21.4428991,11.8000679 24.0665662,13.1199006 25.9538374,15.3075827 C27.8411088,17.4962966 28.7667459,20.2917828 28.5589918,23.1780783 C28.1537685,28.8165192 23.4258195,33.2341922 17.7979457,33.2341922 L17.7979457,33.2341922 L17.7979457,33.2341922 Z M17.777376,13.6255441 C13.2222126,13.6255441 9.39727416,17.201166 9.06815871,21.7664043 C8.72053054,26.590656 12.3500567,30.7988481 17.1582274,31.1476389 C21.9890249,31.4850785 26.1636485,27.8062641 26.5071627,23.0284491 C26.674806,20.6932018 25.9260684,18.4301892 24.398767,16.6583731 C22.8704373,14.8865571 20.7466142,13.8185142 18.4170941,13.6492784 C18.2031691,13.6337995 17.9902725,13.6255441 17.777376,13.6255441 L17.777376,13.6255441 L17.777376,13.6255441 Z" id="Fill-3"></path>
        <path d="M23.9441763,23.8756599 C23.9194927,23.8756599 23.8937806,23.8746281 23.8680684,23.8725641 C23.3024013,23.832319 22.8766082,23.3369949 22.9167192,22.7694358 C23.0154538,21.3938791 22.5752619,20.0637273 21.6773938,19.0225143 C20.7784973,17.9792378 19.5288871,17.351827 18.1589441,17.2517302 C17.5922484,17.2114851 17.1654269,16.7161609 17.2065663,16.14757 C17.2477058,15.580011 17.7321225,15.137315 18.3060177,15.1940709 C20.225172,15.3313169 21.9735977,16.2125813 23.2324642,17.6706921 C24.4913307,19.1298346 25.1073938,20.9934921 24.9685481,22.918033 C24.9294657,23.4608259 24.4779605,23.8756599 23.9441763,23.8756599" id="Fill-4"></path>
        <path d="M33.2828268,42.54216 C32.4908928,42.54216 31.7041013,42.20988 31.1466621,41.5638948 L21.8769201,31.6646335 C21.4881525,31.2487675 21.5087222,30.5955588 21.9221734,30.2065227 C22.3366533,29.816455 22.9876846,29.8350297 23.3764522,30.2508957 L32.6749918,40.1831784 C32.978395,40.534033 33.4638403,40.5701505 33.7836994,40.2915305 C33.9379723,40.1573803 34.0315644,39.9706018 34.0459632,39.7652486 C34.0613906,39.5609273 33.9955675,39.3617657 33.8618643,39.2069769 L24.9592918,29.5966548 C24.5725812,29.178725 24.5962363,28.5265481 25.0117445,28.1385442 C25.4272527,27.7505402 26.0782843,27.7742745 26.4649949,28.1911723 L35.3922511,37.8293565 C35.9095795,38.4278731 36.1523021,39.1595083 36.0977923,39.9148778 C36.0432826,40.6692153 35.6997684,41.3575095 35.1289587,41.8528339 C34.5962031,42.3151365 33.9379723,42.54216 33.2828268,42.54216" id="Fill-5"></path>
    </g>

</svg>