<svg width="41" height="48" viewBox="0 0 41 48" xmlns="http://www.w3.org/2000/svg">
  <title>
    roles
  </title>
  <g id="roles" fill="currentColor" fill-rule="evenodd">
    <path d="M20.9965 11.39876V1.95368l1.37252 1.3725.80947-.80946L20.83094.16765c-.22354-.22353-.58593-.22353-.80947 0L17.6724 2.51672l.80948.80947 1.37252-1.37252V11.398l1.1421.00076zM19.9278 35.7561v9.44508l-1.3725-1.3725-.80948.80946 2.34906 2.34906c.1114.1114.25787.16785.40436.16785.14648 0 .29296-.05493.40435-.16785l2.3483-2.34906-.81024-.80947-1.3725 1.3725V35.7561H19.9278zM40.1369 11.42284l-3.2211-.8194-.28152 1.1093 1.88215.47837-8.11988 4.82555.58517.9834 8.1191-4.82552-.47835 1.88062 1.10854.2823.8194-3.21958c.03815-.14725.01526-.3029-.06256-.43335-.07706-.1297-.2037-.2243-.35095-.26168zM9.8884 29.394l-8.11912 4.8248.47836-1.88216-1.10854-.28152-.81863 3.22033c-.07858.3044.10758.61797.4135.6958l3.21958.81938.28152-1.11007-1.88062-.47835 8.1191-4.82477-.58516-.98342zM4.2343 11.8222l-.2815-1.10932-3.21958.8194c-.30594.07857-.4921.38985-.4135.69578l.81862 3.21957 1.10854-.28228-.47836-1.88063 8.1191 4.82554.5844-.98342-8.1191-4.82553 1.8814-.4791zM38.6217 32.63304l.47837 1.8814-8.1191-4.82478-.58442.9834 8.1191 4.8248-1.88137.47835.28152 1.11007 3.22033-.8194c.14724-.03737.27237-.13274.35095-.2632.07858-.13046.1007-.2861.06256-.43258l-.8194-3.22034-1.10853.28228zM20.5 14.10487c-5.39697 0-9.7884 4.39067-9.7884 9.7884 0 5.3985 4.39143 9.78842 9.7884 9.78842s9.7884-4.38992 9.7884-9.78842c.00077-5.39774-4.39066-9.7884-9.7884-9.7884zm0 18.43242c-4.76603 0-8.644-3.87723-8.644-8.64402 0-4.76603 3.87797-8.644 8.644-8.644 4.76603 0 8.644 3.87797 8.644 8.644.00077 4.76603-3.8772 8.644-8.644 8.644z"/>
  </g>
</svg>