<?xml version="1.0" encoding="utf-8"?>
<!-- Generator: Adobe Illustrator 17.0.0, SVG Export Plug-In . SVG Version: 6.00 Build 0)  -->
<!DOCTYPE svg PUBLIC "-//W3C//DTD SVG 1.1//EN" "http://www.w3.org/Graphics/SVG/1.1/DTD/svg11.dtd" [
	<!ENTITY ns_extend "http://ns.adobe.com/Extensibility/1.0/">
	<!ENTITY ns_ai "http://ns.adobe.com/AdobeIllustrator/10.0/">
	<!ENTITY ns_graphs "http://ns.adobe.com/Graphs/1.0/">
	<!ENTITY ns_vars "http://ns.adobe.com/Variables/1.0/">
	<!ENTITY ns_imrep "http://ns.adobe.com/ImageReplacement/1.0/">
	<!ENTITY ns_sfw "http://ns.adobe.com/SaveForWeb/1.0/">
	<!ENTITY ns_custom "http://ns.adobe.com/GenericCustomNamespace/1.0/">
	<!ENTITY ns_adobe_xpath "http://ns.adobe.com/XPath/1.0/">
]>
<svg version="1.1" xmlns:x="&ns_extend;" xmlns:i="&ns_ai;" xmlns:graph="&ns_graphs;"
	 xmlns="http://www.w3.org/2000/svg" xmlns:xlink="http://www.w3.org/1999/xlink" x="0px" y="0px" width="48px" height="48px"
	 viewBox="0 0 48 48" enable-background="new 0 0 48 48" xml:space="preserve">
<g id="skyscraper">
	<g>
		<path d="M46.96,31.001C46.982,30.836,47,30.671,47,30.5c0-1.115-0.413-2.171-1.154-2.99
			C45.947,27.181,46,26.841,46,26.5c0-1.051-0.48-2.028-1.264-2.681C44.909,23.402,45,22.955,45,22.5c0-1.93-1.57-3.5-3.5-3.5
			c-0.171,0-0.335,0.027-0.5,0.051V5c0-0.459-0.313-0.858-0.758-0.97l-12-3c-0.375-0.096-0.778,0.04-1.023,0.345l-8,10
			C19.077,11.553,19,11.772,19,12v5.018c-0.011,0.334-0.013,0.659-0.018,0.987l-6.838-0.994c-0.034-0.005-0.069-0.001-0.103-0.003
			C12.026,17.008,12.014,17,12,17c-0.011,0-0.02,0.006-0.031,0.006c-0.119,0.003-0.234,0.025-0.343,0.069
			c-0.016,0.007-0.03,0.016-0.046,0.024c-0.089,0.042-0.171,0.098-0.246,0.166c-0.019,0.017-0.039,0.032-0.057,0.051
			c-0.01,0.011-0.023,0.018-0.033,0.029l-6,6.931C5.087,24.458,5,24.69,5,24.931V45H3c-0.553,0-1,0.447-1,1s0.447,1,1,1h43
			c0.553,0,1-0.447,1-1s-0.447-1-1-1h-4v-4.046C42.166,40.973,42.331,41,42.5,41c2.481,0,4.5-2.019,4.5-4.5
			c0-0.903-0.266-1.766-0.76-2.5c0.494-0.734,0.76-1.597,0.76-2.5C47,31.336,46.983,31.176,46.96,31.001z M11,42.334
			c-0.363-0.77-0.696-1.579-1-2.411V22c0-0.047-0.02-0.086-0.026-0.131L11,20.683V42.334z M13,19.156l5.984,0.87
			c0.005,0.238,0.009,0.478,0.016,0.712V45h-6V19.156z M21,33.042c1.924,6.222,4.737,10.156,6.258,11.958H21V33.042z
			 M23.936,8.681L25,7.351v30.338c-0.359-0.74-0.714-1.542-1.058-2.403C23.97,35.194,24,35.101,24,35V9
			C24,8.887,23.97,8.782,23.936,8.681z M28,3.601V42.69c-0.319-0.43-0.669-0.93-1.038-1.501C26.975,41.125,27,41.067,27,41V5
			c0-0.042-0.019-0.078-0.024-0.119L28,3.601z M22,11.101v17.772c-0.529-2.448-0.896-5.186-1-8.223v-8.299L22,11.101z M8,24.148
			v8.413c-0.696-3.483-0.967-6.251-1-6.605v-0.653L8,24.148z M7,37.084c0.758,2.762,1.781,5.593,3.145,7.916H7V37.084z M40,45H30
			V3.531l9,2.25V20c0,0.017,0.009,0.03,0.009,0.047C38.387,20.679,38,21.545,38,22.5c0,0.179,0.014,0.356,0.041,0.53
			C36.327,23.255,35,24.726,35,26.5c0,0.675,0.19,1.318,0.547,1.874C35.187,29.028,35,29.751,35,30.5
			c0,0.616,0.126,1.218,0.37,1.777C34.5,33.115,34,34.266,34,35.5c0,2.481,2.019,4.5,4.5,4.5c0.354,0,0.704-0.042,1.047-0.124
			c0.142,0.125,0.299,0.228,0.453,0.333V45z M44.966,31.183C44.98,31.287,45,31.392,45,31.5c0,0.675-0.269,1.309-0.755,1.785
			c-0.192,0.188-0.301,0.446-0.301,0.715s0.108,0.526,0.301,0.715C44.731,35.191,45,35.825,45,36.5c0,1.379-1.121,2.5-2.5,2.5
			c-0.729,0-1.423-0.33-1.905-0.906c-0.194-0.232-0.478-0.358-0.767-0.358c-0.128,0-0.258,0.024-0.381,0.075
			C39.143,37.937,38.823,38,38.5,38c-1.379,0-2.5-1.121-2.5-2.5c0-0.863,0.444-1.654,1.189-2.117
			c0.234-0.146,0.398-0.384,0.452-0.655c0.055-0.271-0.007-0.554-0.169-0.778C37.164,31.519,37,31.018,37,30.5
			c0-0.709,0.308-1.239,0.565-1.559c0.328-0.406,0.288-0.996-0.092-1.354C37.168,27.298,37,26.912,37,26.5
			c0-0.827,0.673-1.5,1.5-1.5c0.472,0,0.909,0.223,1.198,0.611c0.188,0.253,0.485,0.402,0.802,0.402h0.001
			c0.316,0,0.613-0.15,0.802-0.404c0.027-0.036,0.057-0.069,0.086-0.103c0.221-0.247,0.306-0.588,0.225-0.909
			c-0.08-0.322-0.314-0.583-0.626-0.697C40.396,23.685,40,23.121,40,22.5c0-0.827,0.673-1.5,1.5-1.5s1.5,0.673,1.5,1.5
			c0,0.462-0.212,0.795-0.389,0.993c-0.222,0.248-0.306,0.588-0.225,0.909c0.08,0.322,0.314,0.583,0.626,0.697
			C43.604,25.315,44,25.879,44,26.5c0,0.258-0.071,0.51-0.213,0.75c-0.254,0.432-0.149,0.984,0.245,1.294
			C44.647,29.026,45,29.739,45,30.5c0,0.108-0.02,0.213-0.04,0.354C44.945,30.951,44.951,31.085,44.966,31.183z"/>
		<path d="M40.255,34.033c-0.098-0.026-0.269-0.083-0.32-0.179c-0.072-0.134-0.031-0.403,0.008-0.52
			c0.184-0.516-0.082-1.084-0.597-1.273c-0.518-0.188-1.093,0.074-1.284,0.593c-0.043,0.116-0.402,1.161,0.098,2.121
			c0.213,0.409,0.661,0.948,1.586,1.191C39.831,35.989,39.916,36,40.001,36c0.442,0,0.848-0.297,0.966-0.745
			C41.107,34.721,40.789,34.174,40.255,34.033z"/>
		<path d="M41.242,28.03c-0.535-0.138-1.125,0.175-1.26,0.712c-0.134,0.536,0.146,1.063,0.681,1.197
			c0.003,0.001,0.213,0.11,0.469,0.557C41.316,30.819,41.653,31,42.001,31c0.168,0,0.339-0.042,0.495-0.132
			c0.479-0.274,0.646-0.885,0.372-1.364C42.208,28.349,41.457,28.083,41.242,28.03z"/>
	</g>
</g>
</svg>
