<?xml version="1.0" encoding="UTF-8" standalone="no"?>
<svg width="48px" height="48px" viewBox="0 0 48 48" version="1.1" xmlns="http://www.w3.org/2000/svg" xmlns:xlink="http://www.w3.org/1999/xlink" xmlns:sketch="http://www.bohemiancoding.com/sketch/ns">
    <!-- Generator: Sketch 3.4.3 (16618) - http://www.bohemiancoding.com/sketch -->
    <title>status-pending</title>
    <desc>icon for pending status results</desc>
    <g id="status-pending">
        <path d="M44.8695652,48 L3.1304348,48 C1.40452174,48 0,46.5954784 0,44.8695652 L0,3.1304348 C0,1.40452174 1.40452174,0 3.1304348,0 L44.8695652,0 C46.5954784,0 48,1.40452174 48,3.1304348 L48,44.8695652 C48,46.5954784 46.5954784,48 44.8695652,48 L44.8695652,48 Z M3.1304348,2.08695652 C2.55443478,2.08695652 2.08695652,2.55547826 2.08695652,3.1304348 L2.08695652,44.8695652 C2.08695652,45.4445216 2.55443478,45.9130436 3.1304348,45.9130436 L44.8695652,45.9130436 C45.4455652,45.9130436 45.9130436,45.4445216 45.9130436,44.8695652 L45.9130436,3.1304348 C45.9130436,2.55547826 45.4455652,2.08695652 44.8695652,2.08695652 L3.1304348,2.08695652 L3.1304348,2.08695652 Z" id="Fill-1"></path>
        <path d="M5.21739132,6.78260868 C4.3544348,6.78260868 3.65217392,6.08034784 3.65217392,5.21739132 C3.65217392,4.3544348 4.3544348,3.65217392 5.21739132,3.65217392 C6.08034784,3.65217392 6.78260868,4.3544348 6.78260868,5.21739132 C6.78260868,6.08034784 6.08034784,6.78260868 5.21739132,6.78260868 L5.21739132,6.78260868 Z M5.21739132,4.69565216 C4.9304348,4.69565216 4.69565216,4.92939132 4.69565216,5.21739132 C4.69565216,5.50539132 4.9304348,5.73913044 5.21739132,5.73913044 C5.50434784,5.73913044 5.73913044,5.50539132 5.73913044,5.21739132 C5.73913044,4.92939132 5.50434784,4.69565216 5.21739132,4.69565216 L5.21739132,4.69565216 Z" id="Fill-3"></path>
        <path d="M9.39130436,6.78260868 C8.52834784,6.78260868 7.82608696,6.08034784 7.82608696,5.21739132 C7.82608696,4.3544348 8.52834784,3.65217392 9.39130436,3.65217392 C10.2542609,3.65217392 10.9565217,4.3544348 10.9565217,5.21739132 C10.9565217,6.08034784 10.2542609,6.78260868 9.39130436,6.78260868 L9.39130436,6.78260868 Z M9.39130436,4.69565216 C9.10434784,4.69565216 8.8695652,4.92939132 8.8695652,5.21739132 C8.8695652,5.50539132 9.10434784,5.73913044 9.39130436,5.73913044 C9.67826088,5.73913044 9.91304348,5.50539132 9.91304348,5.21739132 C9.91304348,4.92939132 9.67826088,4.69565216 9.39130436,4.69565216 L9.39130436,4.69565216 Z" id="Fill-5"></path>
        <path d="M13.5652174,6.78260868 C12.7022609,6.78260868 12,6.08034784 12,5.21739132 C12,4.3544348 12.7022609,3.65217392 13.5652174,3.65217392 C14.4281739,3.65217392 15.1304348,4.3544348 15.1304348,5.21739132 C15.1304348,6.08034784 14.4281739,6.78260868 13.5652174,6.78260868 L13.5652174,6.78260868 Z M13.5652174,4.69565216 C13.2782609,4.69565216 13.0434783,4.92939132 13.0434783,5.21739132 C13.0434783,5.50539132 13.2782609,5.73913044 13.5652174,5.73913044 C13.8521739,5.73913044 14.0869565,5.50539132 14.0869565,5.21739132 C14.0869565,4.92939132 13.8521739,4.69565216 13.5652174,4.69565216 L13.5652174,4.69565216 Z" id="Fill-7"></path>
        <path d="M46.9565216,10.4347826 L1.04347826,10.4347826 L1.04347826,8.34782608 L46.9565216,8.34782608 L46.9565216,10.4347826 L46.9565216,10.4347826 L46.9565216,10.4347826 Z" id="Fill-9"></path>
        <path d="M24,36.5217392 C19.7206956,36.5217392 15.984,33.6250436 14.9144348,29.4782608 C14.7704348,28.92 15.1064348,28.3502609 15.6646956,28.2073044 C16.2229565,28.0643478 16.7916522,28.3982609 16.9356522,28.9565216 C17.7673044,32.1819132 20.6723478,34.4347827 24,34.4347827 C27.3266087,34.4347827 30.2326956,32.1819132 31.0633044,28.9565216 C31.208348,28.3982609 31.7780868,28.0643478 32.3353044,28.2073044 C32.8925216,28.3502609 33.2295652,28.92 33.0855652,29.4782608 C32.016,33.6250436 28.2793044,36.5217392 24,36.5217392" id="Fill-11"></path>
        <path d="M32.0737044,26.0869565 C31.6093564,26.0869565 31.1857044,25.7749565 31.0636173,25.3043478 C30.2319652,22.0789565 27.3269217,19.826087 24.000313,19.826087 C20.6726609,19.826087 17.7676174,22.0789565 16.9359652,25.3043478 C16.7909217,25.8626087 16.2222261,26.1965217 15.6639652,26.0535652 C15.1067478,25.9106087 14.7707478,25.3408696 14.9147478,24.7826087 C15.984313,20.6358261 19.7210087,17.7391304 24.000313,17.7391304 C28.2785739,17.7391304 32.0152696,20.6358261 33.0858784,24.7826087 C33.2288348,25.3408696 32.8928348,25.9106087 32.3356173,26.0535652 C32.2479652,26.0765217 32.1603132,26.0869565 32.0737044,26.0869565" id="Fill-12"></path>
        <path d="M32.3488696,26.0869565 C32.2653912,26.0869565 32.179826,26.0775652 32.0953044,26.0556522 L27.9213913,25.0121739 C27.362087,24.8723478 27.0208696,24.3067826 27.1617391,23.7464348 C27.3005217,23.1881739 27.8681739,22.8448696 28.4264348,22.9878261 L31.588174,23.7777391 L32.3791304,20.616 C32.5179132,20.0577391 33.0855652,19.7154783 33.643826,19.8573913 C34.2031304,19.9972174 34.5433044,20.5627826 34.4034784,21.1231304 L33.36,25.2970435 C33.2410436,25.7707826 32.816348,26.0869565 32.3488696,26.0869565" id="Fill-13"></path>
        <path d="M14.6097391,34.4347827 C14.5262609,34.4347827 14.4406956,34.4253912 14.3561739,34.4034784 C13.7968696,34.263652 13.4556522,33.6980868 13.5965217,33.1377392 L14.64,28.963826 C14.7787826,28.4055652 15.3464348,28.0622609 15.9046956,28.2052174 L20.0786087,29.2486956 C20.637913,29.3885216 20.978087,29.9540868 20.8382609,30.5144348 C20.6984348,31.0726956 20.1297391,31.4128696 19.5735652,31.2730436 L16.4107826,30.4831304 L15.6208696,33.6448696 C15.501913,34.1186088 15.0772174,34.4347827 14.6097391,34.4347827" id="Fill-14"></path>
    </g>

</svg>