<?xml version="1.0" encoding="UTF-8" standalone="no"?>
<svg width="48px" height="48px" viewBox="0 0 48 48" version="1.1" xmlns="http://www.w3.org/2000/svg" xmlns:xlink="http://www.w3.org/1999/xlink" xmlns:sketch="http://www.bohemiancoding.com/sketch/ns">
    <!-- Generator: Sketch 3.4.3 (16618) - http://www.bohemiancoding.com/sketch -->
    <title>success</title>
    <desc>icon for successful form submissions</desc>>
    <g id="success">
        <path d="M5.45454545,2.18181818 C3.65018182,2.18181818 2.18181818,3.65018182 2.18181818,5.45454545 L2.18181818,42.5454545 C2.18181818,44.3498182 3.65018182,45.8181818 5.45454545,45.8181818 L42.5454545,45.8181818 C44.3498182,45.8181818 45.8181818,44.3498182 45.8181818,42.5454545 L45.8181818,5.45454545 C45.8181818,3.65018182 44.3498182,2.18181818 42.5454545,2.18181818 L5.45454545,2.18181818 L5.45454545,2.18181818 Z M42.5454545,48 L5.45454545,48 C2.44690909,48 0,45.5530909 0,42.5454545 L0,5.45454545 C0,2.44690909 2.44690909,0 5.45454545,0 L42.5454545,0 C45.5530909,0 48,2.44690909 48,5.45454545 L48,42.5454545 C48,45.5530909 45.5530909,48 42.5454545,48 L42.5454545,48 L42.5454545,48 Z" id="Fill-1"></path>
        <path d="M46.9090909,8.72727273 L1.09090909,8.72727273 C0.488727273,8.72727273 0,8.23963636 0,7.63636364 C0,7.03309091 0.488727273,6.54545455 1.09090909,6.54545455 L46.9090909,6.54545455 C47.5112727,6.54545455 48,7.03309091 48,7.63636364 C48,8.23963636 47.5112727,8.72727273 46.9090909,8.72727273" id="Fill-3"></path>
        <path d="M6.54545455,5.45454545 C6.26181818,5.45454545 5.97818182,5.33454545 5.77090909,5.13818182 C5.57454545,4.93090909 5.45454545,4.64727273 5.45454545,4.36363636 C5.45454545,4.08 5.57454545,3.79527273 5.77090909,3.58909091 C6.17454545,3.18545455 6.90545455,3.18545455 7.32,3.58909091 C7.51636364,3.79527273 7.63636364,4.08 7.63636364,4.36363636 C7.63636364,4.64727273 7.51636364,4.93090909 7.32,5.13818182 C7.11272727,5.34436364 6.82909091,5.45454545 6.54545455,5.45454545" id="Fill-5"></path>
        <path d="M9.81818182,5.45454545 C9.53454545,5.45454545 9.25090909,5.33454545 9.04363636,5.13818182 C8.84727273,4.93090909 8.72727273,4.64727273 8.72727273,4.36363636 C8.72727273,4.08 8.84727273,3.79527273 9.04363636,3.58909091 C9.44727273,3.18545455 10.1781818,3.18545455 10.5927273,3.58909091 C10.7890909,3.79527273 10.9090909,4.08 10.9090909,4.36363636 C10.9090909,4.64727273 10.7890909,4.93090909 10.5927273,5.13818182 C10.3854545,5.34436364 10.1018182,5.45454545 9.81818182,5.45454545" id="Fill-7"></path>
        <path d="M13.0909091,5.45454545 C12.8072727,5.45454545 12.5236364,5.34436364 12.3163636,5.13818182 C12.12,4.93090909 12,4.64727273 12,4.36363636 C12,4.08 12.12,3.79527273 12.3163636,3.58909091 C12.7309091,3.18545455 13.4509091,3.18545455 13.8654545,3.58909091 C14.0618182,3.79527273 14.1818182,4.08 14.1818182,4.36363636 C14.1818182,4.64727273 14.0618182,4.93090909 13.8654545,5.13818182 C13.6581818,5.34436364 13.3745455,5.45454545 13.0909091,5.45454545" id="Fill-9"></path>
        <path d="M16.3636364,34.9090909 C16.0832727,34.9090909 15.804,34.8010909 15.5923636,34.5894545 L10.1378182,29.1349091 C9.71127273,28.7083636 9.71127273,28.0189091 10.1378182,27.5923636 C10.5643636,27.1658182 11.2538182,27.1658182 11.6803636,27.5923636 L16.4301818,32.3432727 L35.3018182,16.6156364 C35.7643636,16.2316364 36.4527273,16.2927273 36.8378182,16.7552727 C37.224,17.2189091 37.1607273,17.9072727 36.6981818,18.2934545 L17.0618182,34.6570909 C16.8589091,34.8261818 16.6112727,34.9090909 16.3636364,34.9090909" id="Fill-11"></path>
    </g>
</svg>