<?xml version="1.0" encoding="utf-8"?>
<!-- Generator: Adobe Illustrator 17.0.0, SVG Export Plug-In . SVG Version: 6.00 Build 0)  -->
<!DOCTYPE svg PUBLIC "-//W3C//DTD SVG 1.1//EN" "http://www.w3.org/Graphics/SVG/1.1/DTD/svg11.dtd">
<svg version="1.1" xmlns="http://www.w3.org/2000/svg" xmlns:xlink="http://www.w3.org/1999/xlink" x="0px" y="0px" width="48px"
	 height="48px" viewBox="0 0 48 48" enable-background="new 0 0 48 48" xml:space="preserve">
<g id="ask-file">
	<path d="M24,38c-1.654,0-3-1.346-3-3s1.346-3,3-3s3,1.346,3,3S25.654,38,24,38z M24,34c-0.551,0-1,0.448-1,1
		s0.449,1,1,1s1-0.448,1-1S24.551,34,24,34z"/>
	<path d="M23.833,29.5c-0.552,0-1-0.447-1-1v-0.663c0-2.53,1.236-4.886,3.227-6.147
		c1.234-0.783,1.96-2.122,1.939-3.583c-0.03-2.195-1.911-4.075-4.106-4.105c-1.109,0.012-2.185,0.41-2.985,1.198
		c-0.801,0.789-1.242,1.844-1.242,2.968c0,0.553-0.448,1-1,1s-1-0.447-1-1c0-1.664,0.653-3.224,1.837-4.392
		s2.758-1.787,4.417-1.774c3.306,0.046,6.033,2.772,6.079,6.078c0.03,2.16-1.042,4.142-2.869,5.3
		c-1.417,0.898-2.297,2.606-2.297,4.458V28.5C24.833,29.053,24.386,29.5,23.833,29.5z"/>
	<path d="M40,47H8c-1.654,0-3-1.346-3-3V4c0-1.654,1.346-3,3-3h25c0.284,0,0.554,0.12,0.743,0.331l9,10
		C42.909,11.515,43,11.753,43,12v32C43,45.654,41.654,47,40,47z M8,3C7.449,3,7,3.448,7,4v40c0,0.552,0.449,1,1,1h32
		c0.551,0,1-0.448,1-1V12.384L32.555,3H8z"/>
	<path d="M42,13h-9c-0.552,0-1-0.447-1-1V3h2v8h8V13z"/>
</g>
</svg>
