<?xml version="1.0" encoding="UTF-8" standalone="no"?>
<svg version="1.1" xmlns="http://www.w3.org/2000/svg" xmlns:xlink="http://www.w3.org/1999/xlink" xmlns:sketch="http://www.bohemiancoding.com/sketch/ns">
    <!-- Generator: Sketch 3.3.3 (12072) - http://www.bohemiancoding.com/sketch -->
    <title>Untitled 4</title>
    <desc>Created with Sketch.</desc>
    <defs></defs>
    <g id="Page-1" stroke="none" stroke-width="1" fill="none" fill-rule="evenodd">
        <g id="audits" transform="translate(0.000000, -1.000000)">
            <g id="folder-with-search" transform="translate(0.545633, 0.257692)">
                <path d="M98.6940711,124 C79.4864632,124 63.8608696,108.829727 63.8608696,90.1818182 C63.8608696,71.5339091 79.4864632,56.3636364 98.6940711,56.3636364 C117.901679,56.3636364 133.527273,71.5339091 133.527273,90.1818182 C133.527273,108.829727 117.901679,124 98.6940711,124 L98.6940711,124 Z M98.6940711,62 C82.688215,62 69.6664032,74.6423636 69.6664032,90.1818182 C69.6664032,105.721273 82.688215,118.363636 98.6940711,118.363636 C114.699927,118.363636 127.721739,105.721273 127.721739,90.1818182 C127.721739,74.6423636 114.699927,62 98.6940711,62 L98.6940711,62 Z" id="Fill-1"></path>
                <path d="M8.7083004,115.545455 L84.1802372,115.545455 L84.1802372,121.181818 L8.7083004,121.181818 L8.7083004,115.545455 Z" id="Fill-4"></path>
                <path d="M10.4876964,121.181818 L8.7083004,121.181818 C3.90712411,121.181818 0,117.388545 0,112.727273 L0,2.81818182 C0,1.26254545 1.30043953,0 2.9027668,0 L48.6416632,0 C51.7447209,0 54.6620016,1.17236364 56.8535905,3.30290909 L70.8681486,16.9090909 L124.818972,16.9090909 C126.4213,16.9090909 127.721739,18.1716364 127.721739,19.7272727 L127.721739,36.6363636 L121.916206,36.6363636 L121.916206,22.5454545 L69.6664032,22.5454545 C68.89717,22.5454545 68.1598672,22.2467273 67.614147,21.7197273 L52.7490783,7.28781818 C51.6518324,6.22254545 50.1917407,5.63636364 48.6416632,5.63636364 L5.8055336,5.63636364 L5.8055336,112.727273 C5.8055336,114.280091 7.10887589,115.545455 8.7083004,115.545455 L10.4876964,115.545455 C13.2075889,115.545455 15.5356079,113.750273 16.1451889,111.177273 L32.003004,44.4568182 C32.3077945,43.1773636 33.4805123,42.2727273 34.8332016,42.2727273 L130.624506,42.2727273 C131.504044,42.2727273 132.337138,42.6616364 132.888664,43.3295455 C133.44019,43.9946364 133.649189,44.8682727 133.457606,45.7024545 L127.652073,71.0660909 L121.985872,69.843 L127.004756,47.9090909 L37.1409012,47.9090909 L21.8026814,112.445455 C20.5806166,117.588636 15.9274814,121.181818 10.4876964,121.181818" id="Fill-5"></path>
            </g>
            <g id="search-folder" transform="translate(117.545633, 108.257692)">
                <path d="M27.3340543,31.4200714 C26.4189501,31.4200714 25.5056298,31.0930454 24.8099366,30.4389934 L0.523107789,7.60587016 C-0.174369263,6.95181816 -0.174369263,5.89024144 0.523107789,5.23451237 C1.22058484,4.58046037 2.34974846,4.58046037 3.04544168,5.23451237 L27.3322705,28.0676356 L29.8563882,25.6962778 L5.5695594,2.86315459 C4.87208234,2.20742552 4.87208234,1.14752586 5.5695594,0.491796797 C6.26525262,-0.163932266 7.39441623,-0.163932266 8.09189329,0.491796797 L32.3787221,23.3249201 C33.7701085,24.6330241 33.7701085,26.7612087 32.3787221,28.0676356 L29.8563882,30.4389934 C29.160695,31.0930454 28.2473746,31.4200714 27.3340543,31.4200714" id="Fill-275-Copy"></path>
            </g>
        </g>
    </g>
</svg>