<?xml version="1.0" encoding="utf-8"?>
<!-- Generator: Adobe Illustrator 18.0.0, SVG Export Plug-In . SVG Version: 6.00 Build 0)  -->
<!DOCTYPE svg PUBLIC "-//W3C//DTD SVG 1.1//EN" "http://www.w3.org/Graphics/SVG/1.1/DTD/svg11.dtd">
<svg version="1.1" id="covisint-logo-with-tagline" xmlns="http://www.w3.org/2000/svg" xmlns:xlink="http://www.w3.org/1999/xlink"
	 x="0px" y="0px" viewBox="0 0 638.7436 153.9912" enable-background="new 0 0 638.7436 153.9912" xml:space="preserve">
<g>
	<g>
		<path fill="none" d="M68.2822,74.1347c-1.7637,2.1719-3.7661,4.1309-5.9536,5.877c2.1875,1.7422,4.1899,3.707,5.9536,5.8799
			c1.7598-2.1729,3.7622-4.1377,5.9502-5.8799C72.0444,78.2656,70.042,76.3066,68.2822,74.1347z"/>
		<path fill="#009DDC" d="M62.3286,80.0117c2.1875-1.7461,4.1899-3.7051,5.9536-5.877c-5.3652-6.6084-8.5859-15.0244-8.5859-24.1962
			c0-9.1661,3.2207-17.5791,8.5859-24.1885c-7.0488-8.6826-17.793-14.2412-29.8501-14.2412C17.2046,11.5088,0,28.7168,0,49.9385
			C0,62.124,5.687,72.9678,14.5361,80.0117c6.563-5.2188,14.8564-8.3643,23.896-8.3643
			C47.4726,71.6474,55.7632,74.7929,62.3286,80.0117z"/>
		<path fill="#8AC4EB" d="M68.2822,74.1347c1.7598,2.1719,3.7622,4.1309,5.9502,5.877c6.563-5.2188,14.8564-8.3643,23.8965-8.3643
			c9.0395,0,17.3305,3.1455,23.8955,8.3643c8.8467-7.0439,14.5342-17.8877,14.5342-30.0732
			c0-21.2217-17.2051-38.4297-38.4297-38.4297c-12.0537,0-22.8008,5.5586-29.8467,14.2412
			c5.3589,6.6094,8.583,15.0224,8.583,24.1885C76.8652,59.1103,73.6411,67.5263,68.2822,74.1347z"/>
		<path fill="#0079C1" d="M68.2822,74.1347c5.3589-6.6084,8.583-15.0244,8.583-24.1962c0-9.1661-3.2241-17.5791-8.583-24.1885
			c-5.3652,6.6094-8.5859,15.0224-8.5859,24.1885C59.6963,59.1103,62.917,67.5263,68.2822,74.1347z"/>
		<path fill="#009DDC" d="M122.0244,80.0117c-6.565,5.2236-14.856,8.3633-23.8955,8.3633c-9.0401,0-17.3335-3.1397-23.8965-8.3633
			c-2.188,1.7422-4.1904,3.707-5.9502,5.8799c5.3589,6.6084,8.583,15.0224,8.583,24.1885c0,9.1718-3.2241,17.5878-8.583,24.1982
			c7.0459,8.6826,17.793,14.2383,29.8467,14.2383c21.2246,0,38.4297-17.211,38.4297-38.4365
			C136.5586,97.8955,130.8711,87.0508,122.0244,80.0117z"/>
		<path fill="#0079C1" d="M74.2324,80.0117c6.563,5.2236,14.8564,8.3633,23.8965,8.3633c9.0395,0,17.3305-3.1397,23.8955-8.3633
			c-6.565-5.2188-14.856-8.3643-23.8955-8.3643C89.0888,71.6474,80.7954,74.7929,74.2324,80.0117z"/>
		<path fill="#8AC4EB" d="M68.2822,85.8916c-1.7637-2.1729-3.7661-4.1377-5.9536-5.8799
			c-6.5654,5.2236-14.856,8.3633-23.8965,8.3633c-9.0396,0-17.333-3.1397-23.896-8.3633C5.687,87.0508,0,97.8955,0,110.0801
			c0,21.2255,17.2046,38.4365,38.4321,38.4365c12.0571,0,22.8013-5.5557,29.8501-14.2383
			c-5.3652-6.6104-8.5859-15.0264-8.5859-24.1982C59.6963,100.914,62.917,92.5,68.2822,85.8916z"/>
		<path fill="#0079C1" d="M62.3286,80.0117c-6.5654-5.2188-14.856-8.3643-23.8965-8.3643c-9.0396,0-17.333,3.1455-23.896,8.3643
			c6.563,5.2236,14.8564,8.3633,23.896,8.3633C47.4726,88.375,55.7632,85.2353,62.3286,80.0117z"/>
		<path fill="#0079C1" d="M68.2822,85.8916c-5.3652,6.6084-8.5859,15.0224-8.5859,24.1885c0,9.1718,3.2207,17.5878,8.5859,24.1982
			c5.3589-6.6104,8.583-15.0264,8.583-24.1982C76.8652,100.914,73.6411,92.5,68.2822,85.8916z"/>
		<circle fill="#009DDC" cx="398.9702" cy="8.9814" r="8.9844"/>
		<path fill="#009DDC" d="M504.4585,8.9814c0,4.961-4.0244,8.9844-8.9844,8.9844c-4.9619,0-8.9795-4.0234-8.9795-8.9844
			c0-4.9599,4.0176-8.9814,8.9795-8.9814C500.4341,0,504.4585,4.0215,504.4585,8.9814z"/>
		<path fill="#009DDC" d="M222.185,49.5898c-1.2055-8.4453-7.3735-13.0019-15.8164-13.0019c-7.9121,0-19.0346,4.164-19.0346,25.1992
			c0,11.5293,5.0957,23.7266,18.3642,23.7266c8.8438,0,15.0112-5.8917,16.4868-15.8145h15.2813
			c-2.8208,17.9551-13.9429,27.877-31.7681,27.877c-21.7143,0-33.644-15.4063-33.644-35.7891
			c0-20.9024,11.3906-37.2608,34.1801-37.2608c16.0831,0,29.7583,8.0499,31.232,25.0635H222.185z"/>
		<path fill="#009DDC" d="M298.7168,60.9873c0-11.9326-6.0293-24.3994-19.7022-24.3994c-13.6763,0-19.7055,12.4668-19.7055,24.3994
			c0,12.0537,6.0292,24.5264,19.7055,24.5264C292.6875,85.5137,298.7168,73.041,298.7168,60.9873 M244.0346,60.9873
			c0-21.1865,12.729-36.461,34.98-36.461c22.2529,0,34.982,15.2745,34.982,36.461c0,21.3125-12.7291,36.5889-34.982,36.5889
			C256.7636,97.5762,244.0346,82.2998,244.0346,60.9873"/>
		<polygon fill="#009DDC" points="317.2133,26.4033 333.8315,26.4033 351.3891,79.622 351.6518,79.622 368.5444,26.4033 
			384.3569,26.4033 359.5659,95.6982 342.4106,95.6982 		"/>
		<rect x="391.3325" y="26.4033" fill="#009DDC" width="15.2764" height="69.3037"/>
		<path fill="#009DDC" d="M432.0727,73.4482c0.8086,8.8516,7.5098,12.0655,15.6895,12.0655c5.7588,0,15.8144-1.2032,15.4111-9.1133
			c-0.4043-8.045-11.5264-8.9766-22.6543-11.5323c-11.2558-2.4043-22.251-6.4345-22.251-20.5
			c0-15.1455,16.3536-19.8339,28.9561-19.8339c14.2041,0,27.0713,5.8896,28.9502,21.2988h-15.9531
			c-1.335-7.2334-7.3741-9.2334-14.0684-9.2334c-4.4219,0-12.6045,1.0693-12.6045,7.1016c0,7.497,11.2627,8.5683,22.5215,11.1132
			c11.1201,2.545,22.3896,6.5801,22.3896,20.2422c0,16.4893-16.6279,22.5196-30.9658,22.5196
			c-17.4238,0-30.4316-7.7784-30.6953-24.128H432.0727z"/>
		<rect x="487.8364" y="26.4033" fill="#009DDC" width="15.2754" height="69.3037"/>
		<path fill="#009DDC" d="M517.0493,26.4033h14.4736v10.1846l0.2637,0.2724c4.5683-7.6377,12.4736-12.334,21.5869-12.334
			c15.0117,0,24.5352,8.0381,24.5352,23.5879v47.584h-15.2813V52.1377c-0.2744-10.8526-4.5674-15.5498-13.5459-15.5498
			c-10.1914,0-16.7568,8.042-16.7568,18.2383v40.872h-15.2755V26.4033z"/>
		<path fill="#009DDC" d="M584.3286,26.4033h11.5312V5.6279h15.2744v20.7754h13.8107v11.3965h-13.8107v36.9931
			c0,6.294,0.5381,9.5176,7.3809,9.5176c2.1367,0,4.2861,0,6.4297-0.5332v11.7901c-3.3506,0.2695-6.5596,0.7959-9.916,0.7959
			c-15.9541,0-18.8985-6.1651-19.169-17.6905v-40.873h-11.5312V26.4033z"/>
		<g>
			<path fill="#009DDC" d="M631.8628,1.1572c3.7421,0,6.8808,2.9541,6.8808,6.8262c0,3.9443-3.1387,6.8994-6.8808,6.8994
				c-3.7608,0-6.918-2.9551-6.918-6.8994C624.9448,4.1113,628.102,1.1572,631.8628,1.1572z M631.8628,13.875
				c3.1738,0,5.6338-2.5381,5.6338-5.8916c0-3.2862-2.46-5.8135-5.6338-5.8135c-3.2168,0-5.67,2.5273-5.67,5.8135
				C626.1928,11.3369,628.646,13.875,631.8628,13.875z M629.1801,4h3.1036c1.915,0,2.8056,0.7568,2.8056,2.2939
				c0,1.4522-0.9199,2.0518-2.1094,2.1846l2.2911,3.543h-1.336l-2.1845-3.4522h-1.3164v3.4522h-1.254V4z M630.4341,7.5615h1.2988
				c1.1074,0,2.1094-0.0557,2.1094-1.3203c0-1.0664-0.9209-1.2305-1.7579-1.2305h-1.6503V7.5615z"/>
		</g>
	</g>
	<g>
		<path fill="#807F83" d="M171.5278,123.124h19.3037v1.9805h-8.4912v22.373h-2.3198v-22.373h-8.4927V123.124z"/>
		<path fill="#807F83" d="M189.5805,129.8789h1.9781v4.1279h0.0683c1.0918-2.834,3.478-4.5029,6.6504-4.3662v2.1484
			c-3.8877-0.205-6.5493,2.6592-6.5493,6.3116v9.3769h-2.1475V129.8789z"/>
		<path fill="#807F83" d="M214.5859,147.4775h-1.9775v-3.1719h-0.0669c-1.128,2.3526-3.4458,3.6836-6.0718,3.6836
			c-4.4346,0-6.1748-2.5918-6.1748-6.6855v-11.4248h2.1489v11.4599c0.103,3.1719,1.2969,4.8428,4.707,4.8428
			c3.6846,0,5.2881-3.4785,5.2881-7.0615v-9.2412h2.147V147.4775z"/>
		<path fill="#807F83" d="M229.1933,135.0283c-0.1025-2.6602-2.1474-3.8555-4.604-3.8555c-1.9092,0-4.1606,0.753-4.1606,3.0391
			c0,1.9082,2.1831,2.5918,3.6494,2.9668l2.8652,0.6465c2.4551,0.376,5.0142,1.8086,5.0142,4.8779
			c0,3.8203-3.7857,5.2861-7.0606,5.2861c-4.0937,0-6.8891-1.9111-7.2295-6.208h2.147c0.1709,2.8994,2.3194,4.4004,5.1856,4.4004
			c2.0117,0,4.8091-0.8867,4.8091-3.3418c0-2.0478-1.9112-2.7304-3.8545-3.206l-2.7627-0.6162
			c-2.7959-0.7481-4.9121-1.7051-4.9121-4.7032c0-3.582,3.5136-4.9463,6.6171-4.9463c3.5127,0,6.3096,1.8409,6.4468,5.6602H229.1933
			z"/>
		<path fill="#807F83" d="M238.4814,129.8789h3.5811v1.8076h-3.5811v11.8701c0,1.3955,0.2036,2.2158,1.7388,2.3184
			c0.6138,0,1.228-0.0352,1.8423-0.1026v1.8428c-0.6485,0-1.2627,0.0684-1.9107,0.0684c-2.8647,0-3.8535-0.9551-3.8208-3.958
			v-12.0391h-3.0693v-1.8076h3.0693v-5.2861h2.1504V129.8789z"/>
		<path fill="#807F83" d="M246.4331,139.2578c0.0342,3.1367,1.6709,6.9238,5.7964,6.9238c3.1391,0,4.8447-1.8398,5.5258-4.5039
			h2.1485c-0.9204,3.9922-3.2398,6.3115-7.6743,6.3115c-5.5928,0-7.9454-4.2978-7.9454-9.3105c0-4.6397,2.3526-9.3106,7.9454-9.3106
			c5.6626,0,7.914,4.9463,7.7426,9.8897H246.4331z M257.8237,137.4502c-0.1011-3.2383-2.1143-6.2774-5.5942-6.2774
			c-3.5127,0-5.4561,3.0703-5.7964,6.2774H257.8237z"/>
		<path fill="#807F83" d="M278.3662,147.4775h-1.9795v-3.3408h-0.0669c-0.9219,2.2852-3.7173,3.8525-6.2769,3.8525
			c-5.3549,0-7.9111-4.3339-7.9111-9.3105c0-4.9805,2.5562-9.3106,7.9111-9.3106c2.6265,0,5.1856,1.3291,6.106,3.8545h0.0684
			V123.124h2.1489V147.4775z M270.0429,146.1816c4.5713,0,6.1744-3.8535,6.1744-7.5029c0-3.6504-1.6031-7.5059-6.1744-7.5059
			c-4.0922,0-5.7622,3.8555-5.7622,7.5059C264.2807,142.3281,265.9507,146.1816,270.0429,146.1816z"/>
		<path fill="#807F83" d="M292.5361,123.124h2.3203v24.3535h-2.3203V123.124z"/>
		<path fill="#807F83" d="M299.4975,129.8789h2.1485v3.0361h0.0698c0.7837-2.1162,3.1382-3.5469,5.626-3.5469
			c4.9477,0,6.4477,2.5899,6.4477,6.7852v11.3242h-2.1484v-10.9824c0-3.0361-0.9893-5.3223-4.4693-5.3223
			c-3.4091,0-5.456,2.5938-5.5258,6.0362v10.2685h-2.1485V129.8789z"/>
		<path fill="#807F83" d="M324.645,131.6865h-3.4795v15.791h-2.1475v-15.791h-3.0019v-1.8076h3.0019v-1.6026
			c-0.0351-3.0361,0.8164-5.1523,4.2637-5.1523c0.6143,0,1.1221,0.0361,1.8086,0.1387v1.8418
			c-0.583-0.1006-1.0586-0.1719-1.5723-0.1719c-2.3867,0-2.3164,1.501-2.3525,3.4121v1.5342h3.4795V131.6865z"/>
		<path fill="#807F83" d="M342.4555,138.6787c0,5.0469-2.9355,9.3105-8.3242,9.3105c-5.3877,0-8.3213-4.2636-8.3213-9.3105
			s2.9336-9.3106,8.3213-9.3106C339.52,129.3681,342.4555,133.6318,342.4555,138.6787z M327.9594,138.6787
			c0,3.7519,2.045,7.5029,6.1719,7.5029c4.1279,0,6.1729-3.751,6.1729-7.5029c0-3.7529-2.045-7.5059-6.1729-7.5059
			C330.0044,131.1728,327.9594,134.9258,327.9594,138.6787z"/>
		<path fill="#807F83" d="M345.6714,129.8789h1.9775v4.1279h0.0693c1.0918-2.834,3.4805-4.5029,6.6504-4.3662v2.1484
			c-3.8867-0.205-6.5478,2.6592-6.5478,6.3116v9.3769h-2.1494V129.8789z"/>
		<path fill="#807F83" d="M356.4204,129.8789h1.9775v2.9658h0.1035c1.125-2.1123,2.9698-3.4766,5.7637-3.4766
			c2.3203,0,4.4004,1.1241,5.0469,3.4434c1.0596-2.3193,3.2744-3.4434,5.5937-3.4434c3.8535,0,5.833,2.0108,5.833,6.1719v11.9375
			h-2.1484v-11.8359c0-2.8994-1.0918-4.4688-4.1611-4.4688c-3.7168,0-4.7744,3.0703-4.7744,6.3448v9.9599h-2.1475V135.54
			c0.0322-2.3887-0.957-4.3672-3.6836-4.3672c-3.7197,0-5.2197,2.7979-5.2529,6.4825v9.8222h-2.1504V129.8789z"/>
		<path fill="#807F83" d="M384.6411,135.2676c0.2051-4.125,3.1055-5.8995,7.1299-5.8995c3.1025,0,6.4795,0.9551,6.4795,5.6602
			v9.3437c0,0.8204,0.4091,1.2979,1.2646,1.2979c0.2354,0,0.5088-0.0674,0.6807-0.1357v1.8046
			c-0.4776,0.1036-0.8194,0.1387-1.3975,0.1387c-2.1836,0-2.5264-1.2295-2.5264-3.0693h-0.0683
			c-1.499,2.2851-3.0332,3.581-6.4102,3.581c-3.2412,0-5.9004-1.6025-5.9004-5.1494c0-4.9443,4.8086-5.1172,9.4473-5.6611
			c1.7744-0.2051,2.7627-0.4453,2.7627-2.3887c0-2.9004-2.0801-3.6172-4.6055-3.6172c-2.6601,0-4.6377,1.2305-4.7051,4.0948
			H384.6411z M396.103,137.8594h-0.0684c-0.2744,0.5126-1.2285,0.6826-1.8086,0.7851c-3.6474,0.6455-8.1855,0.6133-8.1855,4.0586
			c0,2.1465,1.9111,3.4785,3.9228,3.4785c3.2745,0,6.1739-2.081,6.1397-5.5244V137.8594z"/>
		<path fill="#807F83" d="M405.9682,129.8789h3.5821v1.8076h-3.5821v11.8701c0,1.3955,0.2051,2.2158,1.7383,2.3184
			c0.6143,0,1.2285-0.0352,1.8438-0.1026v1.8428c-0.6495,0-1.2608,0.0684-1.9112,0.0684c-2.8633,0-3.8515-0.9551-3.8183-3.958
			v-12.0391h-3.0684v-1.8076h3.0684v-5.2861h2.1474V129.8789z"/>
		<path fill="#807F83" d="M412.6928,123.124h2.1475v3.4463h-2.1475V123.124z M412.6928,129.8789h2.1475v17.5986h-2.1475V129.8789z"
			/>
		<path fill="#807F83" d="M434.7309,138.6787c0,5.0469-2.9345,9.3105-8.3242,9.3105c-5.3857,0-8.3223-4.2636-8.3223-9.3105
			s2.9366-9.3106,8.3223-9.3106C431.7964,129.3681,434.7309,133.6318,434.7309,138.6787z M420.2358,138.6787
			c0,3.7519,2.0459,7.5029,6.1709,7.5029c4.1279,0,6.1748-3.751,6.1748-7.5029c0-3.7529-2.0469-7.5059-6.1748-7.5059
			C422.2817,131.1728,420.2358,134.9258,420.2358,138.6787z"/>
		<path fill="#807F83" d="M437.9155,129.8789h2.1475v3.0361h0.0664c0.7851-2.1162,3.1386-3.5469,5.6298-3.5469
			c4.9444,0,6.4463,2.5899,6.4463,6.7852v11.3242h-2.1523v-10.9824c0-3.0361-0.9883-5.3223-4.4658-5.3223
			c-3.4082,0-5.458,2.5938-5.5244,6.0362v10.2685h-2.1475V129.8789z"/>
		<path fill="#807F83" d="M457.5366,147.4775v-3.6172h2.8642v3.6172H457.5366z"/>
		<path fill="#807F83" d="M482.7807,123.124h2.5928l9.5508,24.3535h-2.4902l-2.9668-7.5722h-11.084l-2.9346,7.5722h-2.4893
			L482.7807,123.124z M479.101,137.9277h9.5821l-4.708-12.4824L479.101,137.9277z"/>
		<path fill="#807F83" d="M496.7124,129.8789h2.1474v3.0361h0.0664c0.7852-2.1162,3.1416-3.5469,5.6309-3.5469
			c4.9443,0,6.4463,2.5899,6.4463,6.7852v11.3242h-2.1524v-10.9824c0-3.0361-0.9882-5.3223-4.4668-5.3223
			c-3.4082,0-5.458,2.5938-5.5244,6.0362v10.2685h-2.1474V129.8789z"/>
		<path fill="#807F83" d="M513.0923,129.8789h2.2841l5.7989,15.0058l5.4228-15.0058h2.1504l-7.6396,20.293
			c-1.2295,2.9677-1.9463,3.8193-4.6407,3.8193c-0.8506-0.0332-1.2959-0.0332-1.6357-0.1699v-1.8086
			c0.5128,0.1015,0.9883,0.1728,1.4658,0.1728c1.9111,0,2.3525-1.1269,3.0693-2.7656l0.7491-2.0098L513.0923,129.8789z"/>
		<path fill="#807F83" d="M529.0962,129.8789h2.2861l4.5019,15.0732h0.0674l4.2989-15.0732h2.4189l4.2998,15.0732h0.0674
			l4.502-15.0732h2.2862l-5.6631,17.5986h-2.3525l-4.3331-14.8027h-0.0673l-4.2969,14.8027h-2.3527L529.0962,129.8789z"/>
		<path fill="#807F83" d="M556.1264,123.124h2.1475v9.791h0.0684c0.7841-2.1162,3.1386-3.5469,5.6279-3.5469
			c4.9464,0,6.4464,2.5899,6.4464,6.7852v11.3242h-2.1494v-10.9824c0-3.0361-0.9883-5.3223-4.4688-5.3223
			c-3.4082,0-5.456,2.5938-5.5244,6.0362v10.2685h-2.1475V123.124z"/>
		<path fill="#807F83" d="M575.7475,139.2578c0.0342,3.1367,1.6729,6.9238,5.7979,6.9238c3.1387,0,4.8408-1.8398,5.5273-4.5039
			h2.1465c-0.9219,3.9922-3.2383,6.3115-7.6738,6.3115c-5.5908,0-7.9473-4.2978-7.9473-9.3105c0-4.6397,2.3565-9.3106,7.9473-9.3106
			c5.6611,0,7.9111,4.9463,7.7411,9.8897H575.7475z M587.1401,137.4502c-0.1035-3.2383-2.1162-6.2774-5.5947-6.2774
			c-3.5117,0-5.458,3.0703-5.7979,6.2774H587.1401z"/>
		<path fill="#807F83" d="M592.1958,129.8789h1.9775v4.1279h0.0703c1.0908-2.834,3.4795-4.5029,6.6514-4.3662v2.1484
			c-3.8887-0.205-6.5498,2.6592-6.5498,6.3116v9.3769h-2.1494V129.8789z"/>
		<path fill="#807F83" d="M603.5952,139.2578c0.0322,3.1367,1.6699,6.9238,5.7969,6.9238c3.1386,0,4.8418-1.8398,5.5253-4.5039
			h2.1495c-0.9219,3.9922-3.2403,6.3115-7.6748,6.3115c-5.5918,0-7.9473-4.2978-7.9473-9.3105c0-4.6397,2.3555-9.3106,7.9473-9.3106
			c5.6611,0,7.9111,4.9463,7.7412,9.8897H603.5952z M614.9858,137.4502c-0.1016-3.2383-2.1162-6.2774-5.5937-6.2774
			c-3.5127,0-5.458,3.0703-5.7969,6.2774H614.9858z"/>
		<path fill="#807F83" d="M621.3061,147.4775v-3.6172h2.8643v3.6172H621.3061z"/>
	</g>
</g>
</svg>
