<?xml version="1.0" encoding="UTF-8" standalone="no"?>
<svg width="152px" height="141px" viewBox="0 0 152 141" version="1.1" xmlns="http://www.w3.org/2000/svg" xmlns:xlink="http://www.w3.org/1999/xlink" xmlns:sketch="http://www.bohemiancoding.com/sketch/ns">
    <!-- Generator: Sketch 3.3.3 (12072) - http://www.bohemiancoding.com/sketch -->
    <title>Untitled 4</title>
    <desc>Created with Sketch.</desc>
    <defs></defs>
    <g id="Page-1" stroke="none" stroke-width="1" fill="none" fill-rule="evenodd">
        <g id="covisint-portal" transform="translate(6.000000, -2.000000)">
            <path d="M16.1363636,6.45454545 C10.7984545,6.45454545 6.45454545,10.7984545 6.45454545,16.1363636 L6.45454545,125.863636 C6.45454545,131.188636 10.7984545,135.545455 16.1363636,135.545455 L125.863636,135.545455 C131.201545,135.545455 135.545455,131.188636 135.545455,125.863636 L135.545455,16.1363636 C135.545455,10.7984545 131.201545,6.45454545 125.863636,6.45454545 L16.1363636,6.45454545 L16.1363636,6.45454545 Z M125.863636,142 L16.1363636,142 C7.23877273,142 0,134.770909 0,125.863636 L0,16.1363636 C0,7.242 7.23877273,0 16.1363636,0 L125.863636,0 C134.761227,0 142,7.242 142,16.1363636 L142,125.863636 C142,134.770909 134.761227,142 125.863636,142 L125.863636,142 Z" id="Fill-56"></path>
            <path d="M138.772727,25.8181818 L3.22727273,25.8181818 C1.44581818,25.8181818 0,24.3755909 0,22.5909091 C0,20.8094545 1.44581818,19.3636364 3.22727273,19.3636364 L138.772727,19.3636364 C140.554182,19.3636364 142,20.8094545 142,22.5909091 C142,24.3755909 140.554182,25.8181818 138.772727,25.8181818" id="Fill-57"></path>
            <path d="M19.3636364,16.1363636 C18.5245455,16.1363636 17.6854545,15.8136364 17.0722727,15.2004545 C16.4913636,14.5872727 16.1363636,13.7481818 16.1363636,12.9090909 C16.1363636,12.0732273 16.4913636,11.2309091 17.0722727,10.6209545 C18.2986364,9.42363636 20.4286364,9.42363636 21.655,10.6209545 C22.2359091,11.2309091 22.5909091,12.0732273 22.5909091,12.9090909 C22.5909091,13.7481818 22.2359091,14.5872727 21.655,15.2004545 C21.0418182,15.8136364 20.2027273,16.1363636 19.3636364,16.1363636" id="Fill-58"></path>
            <path d="M29.0454545,16.1363636 C28.2063636,16.1363636 27.3672727,15.8136364 26.7540909,15.2004545 C26.1731818,14.5872727 25.8181818,13.7481818 25.8181818,12.9090909 C25.8181818,12.0732273 26.1731818,11.2309091 26.7540909,10.6209545 C27.9804545,9.42363636 30.1104545,9.42363636 31.3368182,10.6209545 C31.9177273,11.2309091 32.2727273,12.0732273 32.2727273,12.9090909 C32.2727273,13.7481818 31.9177273,14.5872727 31.3368182,15.2004545 C30.7236364,15.8136364 29.8845455,16.1363636 29.0454545,16.1363636" id="Fill-59"></path>
            <path d="M38.7272727,16.1363636 C37.8881818,16.1363636 37.0490909,15.8136364 36.4359091,15.2004545 C35.855,14.5872727 35.5,13.7481818 35.5,12.9090909 C35.5,12.0732273 35.855,11.2309091 36.4359091,10.6209545 C37.6622727,9.42363636 39.7922727,9.42363636 41.0186364,10.6209545 C41.5995455,11.2309091 41.9545455,12.0732273 41.9545455,12.9090909 C41.9545455,13.7481818 41.5995455,14.5872727 41.0186364,15.2004545 C40.4054545,15.8136364 39.5663636,16.1363636 38.7272727,16.1363636" id="Fill-60"></path>
            <path d="M27.4318182,45.1818182 C24.7628636,45.1818182 22.5909091,47.3537727 22.5909091,50.0227273 C22.5909091,52.6949091 24.7628636,54.8636364 27.4318182,54.8636364 C30.1007727,54.8636364 32.2727273,52.6949091 32.2727273,50.0227273 C32.2727273,47.3537727 30.1007727,45.1818182 27.4318182,45.1818182 L27.4318182,45.1818182 Z M27.4318182,61.3181818 C21.2031818,61.3181818 16.1363636,56.2513636 16.1363636,50.0227273 C16.1363636,43.7973182 21.2031818,38.7272727 27.4318182,38.7272727 C33.6604545,38.7272727 38.7272727,43.7973182 38.7272727,50.0227273 C38.7272727,56.2513636 33.6604545,61.3181818 27.4318182,61.3181818 L27.4318182,61.3181818 Z" id="Fill-61"></path>
            <path d="M27.4318182,74.2272727 C24.7628636,74.2272727 22.5909091,76.3992273 22.5909091,79.0681818 C22.5909091,81.7403636 24.7628636,83.9090909 27.4318182,83.9090909 C30.1007727,83.9090909 32.2727273,81.7403636 32.2727273,79.0681818 C32.2727273,76.3992273 30.1007727,74.2272727 27.4318182,74.2272727 L27.4318182,74.2272727 Z M27.4318182,90.3636364 C21.2031818,90.3636364 16.1363636,85.2968182 16.1363636,79.0681818 C16.1363636,72.8427727 21.2031818,67.7727273 27.4318182,67.7727273 C33.6604545,67.7727273 38.7272727,72.8427727 38.7272727,79.0681818 C38.7272727,85.2968182 33.6604545,90.3636364 27.4318182,90.3636364 L27.4318182,90.3636364 Z" id="Fill-62"></path>
            <path d="M27.4318182,103.272727 C24.7628636,103.272727 22.5909091,105.435 22.5909091,108.113636 C22.5909091,110.792273 24.7628636,112.954545 27.4318182,112.954545 C30.1007727,112.954545 32.2727273,110.792273 32.2727273,108.113636 C32.2727273,105.435 30.1007727,103.272727 27.4318182,103.272727 L27.4318182,103.272727 Z M27.4318182,119.409091 C21.2031818,119.409091 16.1363636,114.342273 16.1363636,108.113636 C16.1363636,101.885 21.2031818,96.8181818 27.4318182,96.8181818 C33.6604545,96.8181818 38.7272727,101.885 38.7272727,108.113636 C38.7272727,114.342273 33.6604545,119.409091 27.4318182,119.409091 L27.4318182,119.409091 Z" id="Fill-63"></path>
            <path d="M119.409091,54.8636364 L51.6363636,54.8636364 C49.8549091,54.8636364 48.4090909,53.4210455 48.4090909,51.6363636 C48.4090909,49.8549091 49.8549091,48.4090909 51.6363636,48.4090909 L119.409091,48.4090909 C121.190545,48.4090909 122.636364,49.8549091 122.636364,51.6363636 C122.636364,53.4210455 121.190545,54.8636364 119.409091,54.8636364" id="Fill-64"></path>
            <path d="M119.409091,83.9090909 L51.6363636,83.9090909 C49.8549091,83.9090909 48.4090909,82.4665 48.4090909,80.6818182 C48.4090909,78.9003636 49.8549091,77.4545455 51.6363636,77.4545455 L119.409091,77.4545455 C121.190545,77.4545455 122.636364,78.9003636 122.636364,80.6818182 C122.636364,82.4665 121.190545,83.9090909 119.409091,83.9090909" id="Fill-65"></path>
            <path d="M119.409091,112.954545 L51.6363636,112.954545 C49.8549091,112.954545 48.4090909,111.502273 48.4090909,109.727273 C48.4090909,107.952273 49.8549091,106.5 51.6363636,106.5 L119.409091,106.5 C121.190545,106.5 122.636364,107.952273 122.636364,109.727273 C122.636364,111.502273 121.190545,112.954545 119.409091,112.954545" id="Fill-66"></path>
        </g>
    </g>
</svg>