<?xml version="1.0" encoding="utf-8"?>
<!-- Generator: Adobe Illustrator 18.0.0, SVG Export Plug-In . SVG Version: 6.00 Build 0)  -->
<!DOCTYPE svg PUBLIC "-//W3C//DTD SVG 1.1//EN" "http://www.w3.org/Graphics/SVG/1.1/DTD/svg11.dtd">
<svg version="1.1" id="covisint-logo-with-tagline--light"
	 xmlns="http://www.w3.org/2000/svg" xmlns:xlink="http://www.w3.org/1999/xlink" x="0px" y="0px" viewBox="0 0 638.7436 153.2393"
	 enable-background="new 0 0 638.7436 153.2393" xml:space="preserve">
<g>
	<g>
		<path fill="none" d="M68.2822,74.1338c-1.7637,2.1719-3.7661,4.1309-5.9536,5.8769c2.1875,1.7422,4.1899,3.7071,5.9536,5.8799
			c1.7598-2.1728,3.7622-4.1377,5.9502-5.8799C72.0444,78.2647,70.042,76.3057,68.2822,74.1338z"/>
		<path fill="#009DDC" d="M62.3286,80.0107c2.1875-1.746,4.1899-3.705,5.9536-5.8769c-5.3652-6.6074-8.5859-15.0234-8.5859-24.1953
			c0-9.166,3.2207-17.5791,8.5859-24.1895c-7.0488-8.6826-17.793-14.2402-29.8501-14.2402C17.2046,11.5088,0,28.7158,0,49.9385
			C0,62.123,5.687,72.9678,14.5361,80.0107c6.563-5.2187,14.8564-8.3642,23.896-8.3642
			C47.4726,71.6465,55.7632,74.792,62.3286,80.0107z"/>
		<path fill="#FFFFFF" d="M68.2822,74.1338c1.7598,2.1719,3.7622,4.1309,5.9502,5.8769c6.563-5.2187,14.8564-8.3642,23.8965-8.3642
			c9.0395,0,17.3305,3.1455,23.8955,8.3642c8.8467-7.0429,14.5342-17.8877,14.5342-30.0722
			c0-21.2227-17.2051-38.4297-38.4297-38.4297c-12.0537,0-22.8008,5.5576-29.8467,14.2402
			c5.3589,6.6104,8.583,15.0235,8.583,24.1895C76.8652,59.1104,73.6411,67.5264,68.2822,74.1338z"/>
		<path fill="#0079C1" d="M68.2822,74.1338c5.3589-6.6074,8.583-15.0234,8.583-24.1953c0-9.166-3.2241-17.5791-8.583-24.1895
			c-5.3652,6.6104-8.5859,15.0235-8.5859,24.1895C59.6963,59.1104,62.917,67.5264,68.2822,74.1338z"/>
		<path fill="#009DDC" d="M122.0244,80.0107c-6.565,5.2237-14.856,8.3633-23.8955,8.3633c-9.0401,0-17.3335-3.1396-23.8965-8.3633
			c-2.188,1.7422-4.1904,3.7071-5.9502,5.8799c5.3589,6.6084,8.583,15.0225,8.583,24.1885c0,9.1719-3.2241,17.5879-8.583,24.1982
			c7.0459,8.6827,17.793,14.2383,29.8467,14.2383c21.2246,0,38.4297-17.2109,38.4297-38.4365
			C136.5586,97.8945,130.8711,87.0498,122.0244,80.0107z"/>
		<path fill="#0079C1" d="M74.2324,80.0107c6.563,5.2237,14.8564,8.3633,23.8965,8.3633c9.0395,0,17.3305-3.1396,23.8955-8.3633
			c-6.565-5.2187-14.856-8.3642-23.8955-8.3642C89.0888,71.6465,80.7954,74.792,74.2324,80.0107z"/>
		<path fill="#FFFFFF" d="M68.2822,85.8906c-1.7637-2.1728-3.7661-4.1377-5.9536-5.8799
			c-6.5654,5.2237-14.856,8.3633-23.8965,8.3633c-9.0396,0-17.333-3.1396-23.896-8.3633C5.687,87.0498,0,97.8945,0,110.0791
			c0,21.2256,17.2046,38.4365,38.4321,38.4365c12.0571,0,22.8013-5.5556,29.8501-14.2383
			c-5.3652-6.6103-8.5859-15.0263-8.5859-24.1982C59.6963,100.9131,62.917,92.499,68.2822,85.8906z"/>
		<path fill="#0079C1" d="M62.3286,80.0107c-6.5654-5.2187-14.856-8.3642-23.8965-8.3642c-9.0396,0-17.333,3.1455-23.896,8.3642
			c6.563,5.2237,14.8564,8.3633,23.896,8.3633C47.4726,88.374,55.7632,85.2344,62.3286,80.0107z"/>
		<path fill="#0079C1" d="M68.2822,85.8906c-5.3652,6.6084-8.5859,15.0225-8.5859,24.1885c0,9.1719,3.2207,17.5879,8.5859,24.1982
			c5.3589-6.6103,8.583-15.0263,8.583-24.1982C76.8652,100.9131,73.6411,92.499,68.2822,85.8906z"/>
		<circle fill="#FFFFFF" cx="398.9702" cy="8.9814" r="8.9844"/>
		<path fill="#FFFFFF" d="M504.4585,8.9814c0,4.961-4.0244,8.9844-8.9844,8.9844c-4.9619,0-8.9795-4.0234-8.9795-8.9844
			c0-4.9609,4.0176-8.9814,8.9795-8.9814C500.4341,0,504.4585,4.0205,504.4585,8.9814z"/>
		<path fill="#FFFFFF" d="M222.185,49.5898c-1.2055-8.4453-7.3735-13.0029-15.8164-13.0029
			c-7.9121,0-19.0346,4.1651-19.0346,25.1992c0,11.5293,5.0957,23.7266,18.3642,23.7266c8.8438,0,15.0112-5.8916,16.4868-15.8135
			h15.2813c-2.8208,17.9541-13.9429,27.876-31.7681,27.876c-21.7143,0-33.644-15.4063-33.644-35.7891
			c0-20.9023,11.3906-37.2607,34.1801-37.2607c16.0831,0,29.7583,8.0498,31.232,25.0644H222.185z"/>
		<path fill="#FFFFFF" d="M298.7168,60.9873c0-11.9336-6.0293-24.4004-19.7022-24.4004c-13.6763,0-19.7055,12.4668-19.7055,24.4004
			c0,12.0537,6.0292,24.5254,19.7055,24.5254C292.6875,85.5127,298.7168,73.041,298.7168,60.9873 M244.0346,60.9873
			c0-21.1875,12.729-36.4619,34.98-36.4619c22.2529,0,34.982,15.2744,34.982,36.4619c0,21.3115-12.7291,36.5879-34.982,36.5879
			C256.7636,97.5752,244.0346,82.2988,244.0346,60.9873"/>
		<polygon fill="#FFFFFF" points="317.2133,26.4033 333.8315,26.4033 351.3891,79.6211 351.6518,79.6211 368.5444,26.4033 
			384.3569,26.4033 359.5659,95.6973 342.4106,95.6973 		"/>
		<rect x="391.3325" y="26.4033" fill="#FFFFFF" width="15.2764" height="69.3028"/>
		<path fill="#FFFFFF" d="M432.0727,73.4482c0.8086,8.8506,7.5098,12.0645,15.6895,12.0645c5.7588,0,15.8144-1.2031,15.4111-9.1133
			c-0.4043-8.0439-11.5264-8.9765-22.6543-11.5322c-11.2558-2.4033-22.251-6.4336-22.251-20.499
			c0-15.1455,16.3536-19.834,28.9561-19.834c14.2041,0,27.0713,5.8887,28.9502,21.2978h-15.9531
			c-1.335-7.2324-7.3741-9.2324-14.0684-9.2324c-4.4219,0-12.6045,1.0684-12.6045,7.1016c0,7.497,11.2627,8.5674,22.5215,11.1133
			c11.1201,2.5449,22.3896,6.58,22.3896,20.2412c0,16.4892-16.6279,22.5195-30.9658,22.5195
			c-17.4238,0-30.4316-7.7783-30.6953-24.127H432.0727z"/>
		<rect x="487.8364" y="26.4033" fill="#FFFFFF" width="15.2754" height="69.3028"/>
		<path fill="#FFFFFF" d="M517.0493,26.4033h14.4736v10.1836l0.2637,0.2735c4.5683-7.6377,12.4736-12.335,21.5869-12.335
			c15.0117,0,24.5352,8.0381,24.5352,23.5889v47.583h-15.2813V52.1377c-0.2744-10.8535-4.5674-15.5508-13.5459-15.5508
			c-10.1914,0-16.7568,8.042-16.7568,18.2383v40.8721h-15.2755V26.4033z"/>
		<path fill="#FFFFFF" d="M584.3286,26.4033h11.5312V5.6279h15.2744v20.7754h13.8107v11.3965h-13.8107V74.792
			c0,6.2939,0.5381,9.5176,7.3809,9.5176c2.1367,0,4.2861,0,6.4297-0.5332v11.79c-3.3506,0.2695-6.5596,0.7959-9.916,0.7959
			c-15.9541,0-18.8985-6.165-19.169-17.6904V37.7998h-11.5312V26.4033z"/>
		<g>
			<path fill="#FFFFFF" d="M631.8628,1.1563c3.7421,0,6.8808,2.955,6.8808,6.8261c0,3.9444-3.1387,6.8994-6.8808,6.8994
				c-3.7608,0-6.918-2.955-6.918-6.8994C624.9448,4.1113,628.102,1.1563,631.8628,1.1563z M631.8628,13.875
				c3.1738,0,5.6338-2.5391,5.6338-5.8926c0-3.2851-2.46-5.8135-5.6338-5.8135c-3.2168,0-5.67,2.5284-5.67,5.8135
				C626.1928,11.3359,628.646,13.875,631.8628,13.875z M629.1801,4h3.1036c1.915,0,2.8056,0.7559,2.8056,2.293
				c0,1.4521-0.9199,2.0527-2.1094,2.1845l2.2911,3.544h-1.336l-2.1845-3.4531h-1.3164v3.4531h-1.254V4z M630.4341,7.5605h1.2988
				c1.1074,0,2.1094-0.0546,2.1094-1.3203c0-1.0654-0.9209-1.2304-1.7579-1.2304h-1.6503V7.5605z"/>
		</g>
	</g>
	<g id="covisint-logo-with-tagline-light-tagline">
		<path fill="#FFFFFF" d="M172.645,122.3994h19.2861v1.9795h-8.4839v22.3525h-2.3173v-22.3525h-8.4849V122.3994z"/>
		<path fill="#FFFFFF" d="M190.6816,129.1484h1.9756v4.1231h0.0684c1.0908-2.8301,3.4755-4.4981,6.644-4.3613v2.1464
			c-3.8838-0.205-6.543,2.6563-6.543,6.3057v9.3691h-2.145V129.1484z"/>
		<path fill="#FFFFFF" d="M215.6635,146.7314h-1.9755v-3.1699h-0.0669c-1.1265,2.3506-3.4424,3.6807-6.0664,3.6807
			c-4.4302,0-6.169-2.5889-6.169-6.6807v-11.4131h2.147v11.4483c0.102,3.1699,1.2959,4.8398,4.7026,4.8398
			c3.6812,0,5.2827-3.4756,5.2827-7.0556v-9.2325h2.1455V146.7314z"/>
		<path fill="#FFFFFF" d="M230.2583,134.2939c-0.1031-2.6591-2.146-3.8525-4.6006-3.8525c-1.9072,0-4.1572,0.752-4.1572,3.0352
			c0,1.9062,2.1811,2.5898,3.6464,2.9648l2.8628,0.6465c2.4536,0.375,5.0103,1.8047,5.0103,4.873
			c0,3.8155-3.7827,5.2813-7.0547,5.2813c-4.0898,0-6.8828-1.9102-7.2236-6.2022h2.146c0.1704,2.8965,2.3173,4.3965,5.1806,4.3965
			c2.0098,0,4.8047-0.8867,4.8047-3.3388c0-2.0469-1.9092-2.7286-3.8511-3.2051l-2.7602-0.6143
			c-2.7935-0.747-4.9077-1.7031-4.9077-4.6992c0-3.5801,3.5107-4.9414,6.6113-4.9414c3.5103,0,6.3037,1.8398,6.4399,5.6562H230.2583
			z"/>
		<path fill="#FFFFFF" d="M239.5371,129.1484h3.5781v1.8057h-3.5781v11.8594c0,1.3945,0.2036,2.2138,1.7368,2.3154
			c0.6133,0,1.2275-0.0361,1.8413-0.1016v1.8409c-0.6479,0-1.2612,0.0673-1.9097,0.0673c-2.8613,0-3.8491-0.9541-3.8159-3.9531
			v-12.0283h-3.0674v-1.8057h3.0674v-5.2802h2.1475V129.1484z"/>
		<path fill="#FFFFFF" d="M247.4809,138.5195c0.0352,3.1328,1.6704,6.917,5.792,6.917c3.1362,0,4.8399-1.8388,5.5205-4.5h2.1475
			c-0.9199,3.9873-3.2378,6.3057-7.668,6.3057c-5.5879,0-7.938-4.294-7.938-9.3027c0-4.6348,2.3501-9.3018,7.938-9.3018
			c5.6577,0,7.9068,4.9414,7.7354,9.8818H247.4809z M258.8618,136.7129c-0.1011-3.2363-2.1128-6.2715-5.5889-6.2715
			c-3.5088,0-5.4512,3.0674-5.792,6.2715H258.8618z"/>
		<path fill="#FFFFFF" d="M279.3857,146.7314h-1.9775v-3.3398h-0.0674c-0.9204,2.2852-3.7139,3.8506-6.2705,3.8506
			c-5.3501,0-7.9043-4.3301-7.9043-9.3027c0-4.9756,2.5542-9.3018,7.9043-9.3018c2.6225,0,5.1806,1.3281,6.1001,3.8516h0.0683
			v-10.0899h2.147V146.7314z M271.0703,145.4365c4.5674,0,6.1684-3.8506,6.1684-7.497c0-3.6456-1.601-7.4981-6.1684-7.4981
			c-4.0889,0-5.7578,3.8525-5.7578,7.4981C265.3125,141.5859,266.9814,145.4365,271.0703,145.4365z"/>
		<path fill="#FFFFFF" d="M293.5429,122.3994h2.3174v24.332h-2.3174V122.3994z"/>
		<path fill="#FFFFFF" d="M300.4966,129.1484h2.1474v3.0332h0.0703c0.7827-2.1152,3.1348-3.5439,5.6197-3.5439
			c4.9438,0,6.4438,2.5879,6.4438,6.7783v11.3154h-2.1489v-10.9726c0-3.0332-0.9868-5.3174-4.4634-5.3174
			c-3.4072,0-5.4512,2.5908-5.5215,6.0303v10.2597h-2.1474V129.1484z"/>
		<path fill="#FFFFFF" d="M325.6225,130.9541h-3.4765v15.7773h-2.1455v-15.7773h-3v-1.8057h3v-1.6005
			c-0.0372-3.0342,0.8144-5.1485,4.2587-5.1485c0.6143,0,1.1211,0.0361,1.8067,0.1387v1.8408
			c-0.582-0.1016-1.0567-0.1738-1.5703-0.1738c-2.3838,0-2.3145,1.5019-2.3496,3.4111v1.5322h3.4765V130.9541z"/>
		<path fill="#FFFFFF" d="M343.4174,137.9395c0,5.0429-2.9345,9.3027-8.3193,9.3027c-5.3808,0-8.3125-4.2598-8.3125-9.3027
			c0-5.043,2.9317-9.3018,8.3125-9.3018C340.4829,128.6377,343.4174,132.8965,343.4174,137.9395z M328.9331,137.9395
			c0,3.749,2.0429,7.497,6.165,7.497c4.125,0,6.168-3.748,6.168-7.497c0-3.7491-2.043-7.4981-6.168-7.4981
			C330.976,130.4414,328.9331,134.1904,328.9331,137.9395z"/>
		<path fill="#FFFFFF" d="M346.6274,129.1484h1.9775v4.1231h0.0694c1.0898-2.8301,3.4765-4.4981,6.6426-4.3613v2.1464
			c-3.8819-0.205-6.5401,2.6563-6.5401,6.3057v9.3691h-2.1494V129.1484z"/>
		<path fill="#FFFFFF" d="M357.3686,129.1484h1.9756v2.9629h0.1016c1.1259-2.1123,2.9687-3.4736,5.7597-3.4736
			c2.3174,0,4.3965,1.123,5.043,3.4414c1.0576-2.3184,3.2715-3.4414,5.5879-3.4414c3.8506,0,5.8291,2.0088,5.8291,6.166v11.9277
			h-2.1484v-11.8261c0-2.8975-1.0918-4.4639-4.1573-4.4639c-3.7138,0-4.7695,3.0674-4.7695,6.3389v9.9511h-2.1455v-11.9277
			c0.0332-2.3867-0.9561-4.3623-3.6797-4.3623c-3.7158,0-5.2158,2.7949-5.248,6.4766v9.8134h-2.1485V129.1484z"/>
		<path fill="#FFFFFF" d="M385.5639,134.5303c0.2041-4.1201,3.1006-5.8926,7.1221-5.8926c3.0986,0,6.4736,0.9541,6.4736,5.6562
			v9.334c0,0.8203,0.4082,1.2959,1.2637,1.2959c0.2334,0,0.5088-0.0664,0.6807-0.1347v1.8037
			c-0.4785,0.1025-0.8194,0.1386-1.3975,0.1386c-2.1807,0-2.5224-1.2285-2.5224-3.0673h-0.0684
			c-1.501,2.2822-3.0293,3.5781-6.4063,3.5781c-3.2382,0-5.8945-1.6025-5.8945-5.1445c0-4.9405,4.8047-5.1123,9.4395-5.6563
			c1.7705-0.206,2.7607-0.4453,2.7607-2.3867c0-2.8975-2.0791-3.6133-4.6016-3.6133c-2.6572,0-4.6328,1.2295-4.7011,4.0889H385.5639
			z M397.0151,137.1211h-0.0684c-0.2763,0.5137-1.2265,0.6816-1.8056,0.7852c-3.6465,0.6445-8.1807,0.6132-8.1807,4.0546
			c0,2.1446,1.9102,3.4756,3.919,3.4756c3.2714,0,6.1679-2.081,6.1357-5.5205V137.1211z"/>
		<path fill="#FFFFFF" d="M406.8725,129.1484h3.5762v1.8057h-3.5762v11.8594c0,1.3945,0.2032,2.2138,1.7344,2.3154
			c0.6162,0,1.2275-0.0361,1.8418-0.1016v1.8409c-0.6475,0-1.2598,0.0673-1.9082,0.0673c-2.8613,0-3.8496-0.9541-3.8135-3.9531
			v-12.0283h-3.0674v-1.8057h3.0674v-5.2802h2.1455V129.1484z"/>
		<path fill="#FFFFFF" d="M413.5893,122.3994h2.1465v3.4444h-2.1465V122.3994z M413.5893,129.1484h2.1465v17.583h-2.1465V129.1484z"
			/>
		<path fill="#FFFFFF" d="M435.6079,137.9395c0,5.0429-2.9336,9.3027-8.3164,9.3027c-5.3819,0-8.3155-4.2598-8.3155-9.3027
			c0-5.043,2.9336-9.3018,8.3155-9.3018C432.6743,128.6377,435.6079,132.8965,435.6079,137.9395z M421.1264,137.9395
			c0,3.749,2.044,7.497,6.1651,7.497c4.125,0,6.1679-3.748,6.1679-7.497c0-3.7491-2.0429-7.4981-6.1679-7.4981
			C423.1704,130.4414,421.1264,134.1904,421.1264,137.9395z"/>
		<path fill="#FFFFFF" d="M438.7876,129.1484h2.1455v3.0332h0.0683c0.7842-2.1152,3.1348-3.5439,5.6241-3.5439
			c4.9384,0,6.4394,2.5879,6.4394,6.7783v11.3154h-2.1484v-10.9726c0-3.0332-0.9883-5.3174-4.4629-5.3174
			c-3.4043,0-5.4522,2.5908-5.5205,6.0303v10.2597h-2.1455V129.1484z"/>
		<path fill="#FFFFFF" d="M458.393,146.7314v-3.6142h2.8614v3.6142H458.393z"/>
		<path fill="#FFFFFF" d="M483.6137,122.3994h2.5879l9.544,24.332h-2.4893l-2.9629-7.5664h-11.0742l-2.9326,7.5664h-2.4873
			L483.6137,122.3994z M479.935,137.1895h9.5742l-4.7041-12.4707L479.935,137.1895z"/>
		<path fill="#FFFFFF" d="M497.5317,129.1484h2.1455v3.0332h0.0664c0.7832-2.1152,3.1377-3.5439,5.625-3.5439
			c4.9405,0,6.4424,2.5879,6.4424,6.7783v11.3154h-2.1523v-10.9726c0-3.0332-0.9873-5.3174-4.4629-5.3174
			c-3.4063,0-5.4522,2.5908-5.5186,6.0303v10.2597h-2.1455V129.1484z"/>
		<path fill="#FFFFFF" d="M513.896,129.1484h2.2822l5.7939,14.9903l5.4161-14.9903h2.1494l-7.6309,20.2745
			c-1.2295,2.9648-1.9473,3.8164-4.6387,3.8164c-0.8496-0.0332-1.2929-0.0332-1.6339-0.1709v-1.8057
			c0.5137,0.1006,0.9893,0.1709,1.4639,0.1709c1.9111,0,2.3496-1.125,3.0664-2.7627l0.75-2.0068L513.896,129.1484z"/>
		<path fill="#FFFFFF" d="M529.8833,129.1484h2.2871l4.498,15.0596h0.0655l4.2968-15.0596h2.4151l4.2978,15.0596h0.0655
			l4.498-15.0596h2.2842l-5.6572,17.583h-2.3506l-4.3291-14.788h-0.0674l-4.294,14.788h-2.3515L529.8833,129.1484z"/>
		<path fill="#FFFFFF" d="M556.8921,122.3994h2.1455v9.7822h0.0683c0.7813-2.1152,3.1338-3.5439,5.6211-3.5439
			c4.9424,0,6.4424,2.5879,6.4424,6.7783v11.3154h-2.1475v-10.9726c0-3.0332-0.9902-5.3174-4.4677-5.3174
			c-3.4034,0-5.4483,2.5908-5.5166,6.0303v10.2597h-2.1455V122.3994z"/>
		<path fill="#FFFFFF" d="M576.4946,138.5195c0.0332,3.1328,1.6699,6.917,5.791,6.917c3.1377,0,4.8369-1.8388,5.5235-4.5h2.1455
			c-0.92,3.9873-3.2354,6.3057-7.669,6.3057c-5.5869,0-7.9394-4.294-7.9394-9.3027c0-4.6348,2.3525-9.3018,7.9394-9.3018
			c5.6582,0,7.9033,4.9414,7.7344,9.8818H576.4946z M587.8755,136.7129c-0.1026-3.2363-2.1133-6.2715-5.5899-6.2715
			c-3.5068,0-5.4531,3.0674-5.791,6.2715H587.8755z"/>
		<path fill="#FFFFFF" d="M592.9262,129.1484h1.9766v4.1231h0.0713c1.0898-2.8301,3.4756-4.4981,6.6426-4.3613v2.1464
			c-3.8819-0.205-6.543,2.6563-6.543,6.3057v9.3691h-2.1475V129.1484z"/>
		<path fill="#FFFFFF" d="M604.3159,138.5195c0.0332,3.1328,1.6699,6.917,5.791,6.917c3.1387,0,4.8369-1.8388,5.5215-4.5h2.1484
			c-0.9219,3.9873-3.2402,6.3057-7.6699,6.3057c-5.5859,0-7.9404-4.294-7.9404-9.3027c0-4.6348,2.3545-9.3018,7.9404-9.3018
			c5.6572,0,7.9033,4.9414,7.7344,9.8818H604.3159z M615.6967,136.7129c-0.1005-3.2363-2.1142-6.2715-5.5898-6.2715
			c-3.5098,0-5.4531,3.0674-5.791,6.2715H615.6967z"/>
		<path fill="#FFFFFF" d="M622.0112,146.7314v-3.6142h2.8604v3.6142H622.0112z"/>
	</g>
</g>
</svg>
