<?xml version="1.0" encoding="utf-8"?>
<!-- Generator: Adobe Illustrator 18.0.0, SVG Export Plug-In . SVG Version: 6.00 Build 0)  -->
<!DOCTYPE svg PUBLIC "-//W3C//DTD SVG 1.1//EN" "http://www.w3.org/Graphics/SVG/1.1/DTD/svg11.dtd">
<svg version="1.1" id="covisint-logo" xmlns="http://www.w3.org/2000/svg" xmlns:xlink="http://www.w3.org/1999/xlink" x="0px"
	 y="0px" viewBox="0 0 640.2779 124.9356" enable-background="new 0 0 640.2779 124.9356" xml:space="preserve">
<g id="covisint-logo">
	<path fill="#009DDC" d="M56.8448,62.4737c1.9946-1.5899,3.8154-3.377,5.4238-5.3614c-4.8897-6.0234-7.8272-13.6963-7.8272-22.0674
		c0-8.3584,2.9375-16.0253,7.8272-22.0576C55.8423,5.0674,46.044,0,35.0508,0C15.6929,0,0,15.6963,0,35.0449
		c0,11.1153,5.19,21.0079,13.2603,27.4288c5.9849-4.7657,13.5454-7.625,21.7905-7.625
		C43.2935,54.8487,50.854,57.708,56.8448,62.4737z"/>
	<path fill="#8AC4EB" d="M62.2686,57.1123c1.6084,1.9844,3.4307,3.7715,5.4307,5.3614c5.9814-4.7657,13.5444-7.625,21.788-7.625
		c8.2403,0,15.8091,2.8593,21.7896,7.625c8.0688-6.4209,13.2588-16.3135,13.2588-27.4288C124.5357,15.6963,108.8443,0,89.4873,0
		C78.4932,0,68.6905,5.0674,62.2686,12.9873c4.8931,6.0323,7.8306,13.6992,7.8306,22.0576
		C70.0992,43.416,67.1617,51.0889,62.2686,57.1123z"/>
	<path fill="#0079C1" d="M62.2686,57.1123c4.8931-6.0234,7.8306-13.6963,7.8306-22.0674c0-8.3584-2.9375-16.0253-7.8306-22.0576
		c-4.8897,6.0323-7.8272,13.6992-7.8272,22.0576C54.4414,43.416,57.3789,51.0889,62.2686,57.1123z"/>
	<path fill="#009DDC" d="M111.2769,62.4737c-5.9805,4.7627-13.5493,7.6289-21.7896,7.6289c-8.2436,0-15.8066-2.8662-21.788-7.6289
		c-2,1.582-3.8223,3.3769-5.4307,5.3613c4.8931,6.0244,7.8306,13.6992,7.8306,22.0596c0,8.3544-2.9375,16.0341-7.8306,22.0634
		c6.4219,7.919,16.2246,12.9776,27.2187,12.9776c19.357,0,35.0484-15.6934,35.0484-35.041
		C124.5357,78.7842,119.3457,68.8887,111.2769,62.4737z"/>
	<path fill="#0079C1" d="M67.6993,62.4737c5.9814,4.7627,13.5444,7.6289,21.788,7.6289c8.2403,0,15.8091-2.8662,21.7896-7.6289
		c-5.9805-4.7657-13.5493-7.625-21.7896-7.625C81.2437,54.8487,73.6807,57.708,67.6993,62.4737z"/>
	<path fill="#8AC4EB" d="M62.2686,67.835c-1.6084-1.9844-3.4292-3.7793-5.4238-5.3613c-5.9908,4.7627-13.5513,7.6289-21.794,7.6289
		c-8.2451,0-15.8056-2.8662-21.7905-7.6289C5.19,68.8887,0,78.7842,0,89.8946c0,19.3476,15.6929,35.041,35.0508,35.041
		c10.9932,0,20.7915-5.0586,27.2178-12.9776c-4.8897-6.0293-7.8272-13.709-7.8272-22.0634
		C54.4414,81.5342,57.3789,73.8594,62.2686,67.835z"/>
	<path fill="#0079C1" d="M56.8448,62.4737c-5.9908-4.7657-13.5513-7.625-21.794-7.625c-8.2451,0-15.8056,2.8593-21.7905,7.625
		c5.9849,4.7627,13.5454,7.6289,21.7905,7.6289C43.2935,70.1026,50.854,67.2364,56.8448,62.4737z"/>
	<path fill="#0079C1" d="M62.2686,67.835c-4.8897,6.0244-7.8272,13.6992-7.8272,22.0596c0,8.3544,2.9375,16.0341,7.8272,22.0634
		c4.8931-6.0293,7.8306-13.709,7.8306-22.0634C70.0992,81.5342,67.1617,73.8594,62.2686,67.835z"/>
	<circle fill="#009DDC" cx="397.3326" cy="11.792" r="9.0996"/>
	<circle fill="#009DDC" cx="495.1138" cy="11.792" r="9.1016"/>
	<path fill="#009DDC" d="M218.212,52.9405c-1.2266-8.5577-7.4747-13.1768-16.0259-13.1768c-8.0181,0-19.2866,4.2217-19.2866,25.5322
		c0,11.6778,5.163,24.0401,18.6035,24.0401c8.9633,0,15.2133-5.9727,16.709-16.0254h15.4755
		c-2.8515,18.1933-14.123,28.247-32.1845,28.247c-21.9986,0-34.086-15.6103-34.086-36.2617
		c0-21.1797,11.5391-37.7549,34.6328-37.7549c16.295,0,30.1509,8.1602,31.6377,25.3995H218.212z"/>
	<path fill="#009DDC" d="M295.7544,64.4893c0-12.0977-6.1118-24.7256-19.9658-24.7256c-13.8525,0-19.9663,12.6279-19.9663,24.7256
		c0,12.208,6.1138,24.8467,19.9663,24.8467C289.6426,89.336,295.7544,76.6973,295.7544,64.4893 M240.3433,64.4893
		c0-21.4678,12.9033-36.9483,35.4453-36.9483c22.5449,0,35.4487,15.4805,35.4487,36.9483c0,21.5889-12.9038,37.0683-35.4487,37.0683
		C253.2466,101.5576,240.3433,86.0782,240.3433,64.4893"/>
	<polygon fill="#009DDC" points="314.4922,29.4463 331.3345,29.4463 349.1216,83.3633 349.3853,83.3633 366.5064,29.4463 
		382.5259,29.4463 357.4048,99.6553 340.0259,99.6553 	"/>
	<rect x="389.5943" y="29.4463" fill="#009DDC" width="15.4765" height="70.2158"/>
	<path fill="#009DDC" d="M430.8736,77.1045c0.8164,8.9737,7.6054,12.2315,15.9023,12.2315c5.8262,0,16.0156-1.2237,15.6094-9.2403
		c-0.4141-8.1484-11.6816-9.0888-22.9531-11.6787c-11.4102-2.4336-22.545-6.5215-22.545-20.7695
		c0-15.3438,16.5665-20.0967,29.3379-20.0967c14.3907,0,27.4297,5.9658,29.336,21.5762h-16.166
		c-1.3536-7.3291-7.4688-9.3555-14.2579-9.3555c-4.4765,0-12.7675,1.0899-12.7675,7.1963c0,7.6016,11.414,8.6816,22.8164,11.2666
		c11.2715,2.5752,22.6836,6.6611,22.6836,20.499c0,16.709-16.8438,22.8242-31.3731,22.8242
		c-17.6523,0-30.832-7.8837-31.1015-24.4531H430.8736z"/>
	<rect x="487.3755" y="29.4463" fill="#009DDC" width="15.4785" height="70.2158"/>
	<path fill="#009DDC" d="M516.9732,29.4463h14.668v10.3174l0.2636,0.2754c4.6309-7.7354,12.6387-12.4981,21.8731-12.4981
		c15.2109,0,24.8574,8.1416,24.8574,23.9043v48.21h-15.4824V55.5166c-0.2715-10.9912-4.627-15.7529-13.7227-15.7529
		c-10.3222,0-16.9785,8.1504-16.9785,18.4766v41.415h-15.4785V29.4463z"/>
	<path fill="#009DDC" d="M585.147,29.4463h11.6797V8.3907h15.4785v21.0556h13.9903v11.5479h-13.9903v37.4746
		c0,6.3799,0.5469,9.6435,7.4746,9.6435c2.1719,0,4.3438,0,6.5157-0.54v11.9502c-3.3907,0.2724-6.6485,0.8037-10.0469,0.8037
		c-16.1602,0-19.1485-6.2461-19.4219-17.9287V40.9942H585.147V29.4463z"/>
	<g>
		<path fill="#009DDC" d="M633.3052,3.8633c3.791,0,6.9727,2.9912,6.9727,6.9131c0,3.9971-3.1817,6.9971-6.9727,6.9971
			c-3.8125,0-7.0097-3-7.0097-6.9971C626.2955,6.8545,629.4927,3.8633,633.3052,3.8633z M633.3052,16.75
			c3.2168,0,5.709-2.5761,5.709-5.9736c0-3.3223-2.4922-5.8897-5.709-5.8897c-3.2539,0-5.7441,2.5674-5.7441,5.8897
			C627.5611,14.1739,630.0513,16.75,633.3052,16.75z M630.5904,6.7471h3.1445c1.9356,0,2.8398,0.7656,2.8398,2.3174
			c0,1.4726-0.9335,2.0859-2.1328,2.2197l2.3164,3.5869h-1.3476L633.19,11.376h-1.332v3.4951h-1.2676V6.7471z M631.858,10.3526
			h1.3183c1.1192,0,2.1328-0.0567,2.1328-1.3379c0-1.0801-0.9297-1.2471-1.7793-1.2471h-1.6718V10.3526z"/>
	</g>
</g>
</svg>
