<?xml version="1.0" encoding="utf-8"?>
<!-- Generator: Adobe Illustrator 17.0.0, SVG Export Plug-In . SVG Version: 6.00 Build 0)  -->
<!DOCTYPE svg PUBLIC "-//W3C//DTD SVG 1.1//EN" "http://www.w3.org/Graphics/SVG/1.1/DTD/svg11.dtd" [
	<!ENTITY ns_extend "http://ns.adobe.com/Extensibility/1.0/">
	<!ENTITY ns_ai "http://ns.adobe.com/AdobeIllustrator/10.0/">
	<!ENTITY ns_graphs "http://ns.adobe.com/Graphs/1.0/">
	<!ENTITY ns_vars "http://ns.adobe.com/Variables/1.0/">
	<!ENTITY ns_imrep "http://ns.adobe.com/ImageReplacement/1.0/">
	<!ENTITY ns_sfw "http://ns.adobe.com/SaveForWeb/1.0/">
	<!ENTITY ns_custom "http://ns.adobe.com/GenericCustomNamespace/1.0/">
	<!ENTITY ns_adobe_xpath "http://ns.adobe.com/XPath/1.0/">
]>
<svg version="1.1" xmlns:x="&ns_extend;" xmlns:i="&ns_ai;" xmlns:graph="&ns_graphs;"
	 xmlns="http://www.w3.org/2000/svg" xmlns:xlink="http://www.w3.org/1999/xlink" x="0px" y="0px" width="48px" height="48px"
	 viewBox="0 0 48 48" enable-background="new 0 0 48 48" xml:space="preserve">
<g id="edit">
	<g>
		<path d="M36,45H11c-0.3413696,0-0.6740112-0.0352783-1-0.090332V12h20c0.5522461,0,1-0.4472656,1-1
			s-0.4477539-1-1-1H8.5c-1.9261475,0-3.4932251-1.5648804-3.4989624-3.4897461C5.0067749,4.5736694,6.5826416,3,8.5200195,3H12
			h18c0.5522461,0,1-0.4472656,1-1s-0.4477539-1-1-1H12H8.5200195H8.5C5.4672852,1,3,3.4677734,3,6.5
			c0,0.003479,0,0.0067749,0,0.0102539s0,0.0067749,0,0.0102539V39c0,4.4111328,3.5888672,8,8,8h25c0.5522461,0,1-0.4472656,1-1
			S36.5522461,45,36,45z M5,39V10.7391968c0.8306885,0.6871338,1.8665771,1.1326904,3,1.2354736v32.213562
			C6.2095947,43.1488647,5,41.2151489,5,39z"/>
		<path d="M30,4H9C8.4477539,4,8,4.4472656,8,5s0.4477539,1,1,1h21c0.5522461,0,1-0.4472656,1-1S30.5522461,4,30,4
			z"/>
		<path d="M30,7H9C8.4477539,7,8,7.4472656,8,8s0.4477539,1,1,1h21c0.5522461,0,1-0.4472656,1-1S30.5522461,7,30,7
			z"/>
		<path d="M42.472168,0H37.527832C35.03125,0,33,2.3740234,33,4.8710938V9v0.3427734V35
			c0,0.1157227,0.0297241,0.2227783,0.0658569,0.3261719c-0.0917358,0.2585449-0.0856323,0.5499878,0.0562134,0.8095703l6,11
			c0.175293,0.3212891,0.512207,0.5214844,0.8779297,0.5214844s0.7026367-0.2001953,0.8779297-0.5214844l6-11
			c0.1418457-0.2595825,0.1479492-0.5510254,0.0562134-0.8095703C46.9702759,35.2227783,47,35.1157227,47,35V9.3427734V9
			V4.8710938C47,2.3740234,44.96875,0,42.472168,0z M42.4923096,40h-4.9846191l-2.1817627-4h1.7432861
			c0.140686,0.382019,0.500061,0.6572266,0.9307861,0.6572266S38.7901001,36.382019,38.9307861,36h2.1384277
			c0.140686,0.382019,0.500061,0.6572266,0.9307861,0.6572266S42.7901001,36.382019,42.9307861,36h1.7432861L42.4923096,40z
			 M45,35h-2V10h2V35z M41,35h-2V10h2V35z M37,35h-2V10h2V35z M37.527832,2h4.9443359C43.8662109,2,45,3.4765625,45,4.8710938V8
			H35V4.8710938C35,3.4765625,36.1337891,2,37.527832,2z M40,44.5693359L38.5985718,42h2.8028564L40,44.5693359z"/>
		<path d="M29,19c0.5522461,0,1-0.4472656,1-1s-0.4477539-1-1-1H18c-0.5522461,0-1,0.4472656-1,1v11
			c0,0.5527344,0.4477539,1,1,1h11c0.5522461,0,1-0.4472656,1-1s-0.4477539-1-1-1H19v-9H29z"/>
	</g>
</g>
</svg>
