<?xml version="1.0" encoding="utf-8"?>
<!-- Generator: Adobe Illustrator 17.0.0, SVG Export Plug-In . SVG Version: 6.00 Build 0)  -->
<!DOCTYPE svg PUBLIC "-//W3C//DTD SVG 1.1//EN" "http://www.w3.org/Graphics/SVG/1.1/DTD/svg11.dtd">
<svg version="1.1" xmlns="http://www.w3.org/2000/svg" xmlns:xlink="http://www.w3.org/1999/xlink" x="0px" y="0px" width="48px"
	 height="48px" viewBox="0 0 48 48" enable-background="new 0 0 48 48" xml:space="preserve">
<g id="folder-search">
	<rect x="4" y="44" width="25" height="2"/>
	<path d="M4.613,46H4c-1.654,0-3-1.346-3-3V4c0-0.552,0.448-1,1-1h15.757c1.068,0,2.073,0.416,2.829,1.172L25.414,9
		H44c0.552,0,1,0.448,1,1v6h-2v-5H25c-0.265,0-0.52-0.105-0.707-0.293l-5.121-5.121C18.794,5.208,18.292,5,17.757,5H3v38
		c0,0.551,0.449,1,1,1h0.613c0.937,0,1.738-0.637,1.949-1.55l5.463-23.675C12.13,18.321,12.534,18,13,18h33
		c0.308,0,0.599,0.142,0.788,0.385s0.257,0.559,0.182,0.858l-2,8l-1.94-0.485L44.719,20H13.795L8.511,42.9
		C8.09,44.725,6.487,46,4.613,46z"/>
	<path d="M39.358,44.499c-1.958,0-3.8-0.763-5.185-2.148c-1.385-1.384-2.148-3.226-2.148-5.184
		s0.763-3.8,2.148-5.184c1.385-1.385,3.226-2.148,5.185-2.148s3.8,0.763,5.185,2.148c2.858,2.858,2.858,7.51,0,10.368
		C43.158,43.736,41.317,44.499,39.358,44.499z M39.358,31.835c-1.424,0-2.763,0.555-3.771,1.562
		c-1.007,1.007-1.562,2.346-1.562,3.77s0.555,2.763,1.562,3.77c1.007,1.007,2.346,1.562,3.771,1.562s2.763-0.555,3.771-1.562
		c2.079-2.079,2.079-5.461,0-7.54C42.122,32.39,40.783,31.835,39.358,31.835z"/>
	<path d="M31.974,45.552c-0.256,0-0.512-0.098-0.707-0.293c-0.391-0.391-0.391-1.023,0-1.414l2.468-2.468
		c0.391-0.391,1.023-0.391,1.414,0s0.391,1.023,0,1.414l-2.468,2.468C32.485,45.454,32.229,45.552,31.974,45.552z"/>
</g>
</svg>
