<?xml version="1.0" encoding="utf-8"?>
<!-- Generator: Adobe Illustrator 17.0.0, SVG Export Plug-In . SVG Version: 6.00 Build 0)  -->
<!DOCTYPE svg PUBLIC "-//W3C//DTD SVG 1.1//EN" "http://www.w3.org/Graphics/SVG/1.1/DTD/svg11.dtd">
<svg version="1.1" xmlns="http://www.w3.org/2000/svg" xmlns:xlink="http://www.w3.org/1999/xlink" x="0px" y="0px" width="48px"
	 height="48px" viewBox="0 0 48 48" enable-background="new 0 0 48 48" xml:space="preserve">
<g id="game-2">
	<path d="M24,15c-2.8,0-5-2.2-5-5s2.2-5,5-5s5,2.2,5,5S26.8,15,24,15z M24,7c-1.7,0-3,1.3-3,3s1.3,3,3,3s3-1.3,3-3
		S25.7,7,24,7z"/>
	<path d="M10,15c-2.8,0-5-2.2-5-5s2.2-5,5-5s5,2.2,5,5S12.8,15,10,15z M10,7c-1.7,0-3,1.3-3,3s1.3,3,3,3s3-1.3,3-3
		S11.7,7,10,7z"/>
	<path d="M38,15c-2.8,0-5-2.2-5-5s2.2-5,5-5s5,2.2,5,5S40.8,15,38,15z M38,7c-1.7,0-3,1.3-3,3s1.3,3,3,3s3-1.3,3-3
		S39.7,7,38,7z"/>
	<path d="M24,29c-2.8,0-5-2.2-5-5s2.2-5,5-5s5,2.2,5,5S26.8,29,24,29z M24,21c-1.7,0-3,1.3-3,3s1.3,3,3,3s3-1.3,3-3
		S25.7,21,24,21z"/>
	<path d="M10,29c-2.8,0-5-2.2-5-5s2.2-5,5-5s5,2.2,5,5S12.8,29,10,29z M10,21c-1.7,0-3,1.3-3,3s1.3,3,3,3s3-1.3,3-3
		S11.7,21,10,21z"/>
	<path d="M38,29c-2.8,0-5-2.2-5-5s2.2-5,5-5s5,2.2,5,5S40.8,29,38,29z M38,21c-1.7,0-3,1.3-3,3s1.3,3,3,3s3-1.3,3-3
		S39.7,21,38,21z"/>
	<path d="M24,43c-2.8,0-5-2.2-5-5s2.2-5,5-5s5,2.2,5,5S26.8,43,24,43z M24,35c-1.7,0-3,1.3-3,3s1.3,3,3,3s3-1.3,3-3
		S25.7,35,24,35z"/>
	<path d="M10,43c-2.8,0-5-2.2-5-5s2.2-5,5-5s5,2.2,5,5S12.8,43,10,43z M10,35c-1.7,0-3,1.3-3,3s1.3,3,3,3s3-1.3,3-3
		S11.7,35,10,35z"/>
	<path d="M38,43c-2.8,0-5-2.2-5-5s2.2-5,5-5s5,2.2,5,5S40.8,43,38,43z M38,35c-1.7,0-3,1.3-3,3s1.3,3,3,3s3-1.3,3-3
		S39.7,35,38,35z"/>
	<path d="M38,39H24c-0.6,0-1-0.4-1-1s0.4-1,1-1h13V25H10c-0.6,0-1-0.4-1-1V10c0-0.6,0.4-1,1-1h14c0.6,0,1,0.4,1,1
		s-0.4,1-1,1H11v12h27c0.6,0,1,0.4,1,1v14C39,38.6,38.6,39,38,39z"/>
</g>
</svg>
