<?xml version="1.0" encoding="utf-8"?>
<!-- Generator: Adobe Illustrator 19.1.0, SVG Export Plug-In . SVG Version: 6.00 Build 0)  -->
<svg version="1.1" id="Layer_1" xmlns="http://www.w3.org/2000/svg" xmlns:xlink="http://www.w3.org/1999/xlink" x="0px" y="0px"
	 viewBox="-281 373 48 48" style="enable-background:new -281 373 48 48;" xml:space="preserve">
<g id="help">
	<path d="M-257,405c-1.7,0-3,1.3-3,3s1.3,3,3,3c1.7,0,3-1.3,3-3S-255.3,405-257,405z M-257,409c-0.6,0-1-0.4-1-1s0.4-1,1-1
		s1,0.4,1,1S-256.4,409-257,409z"/>
	<path d="M-257.1,385c-1.7,0-3.2,0.6-4.4,1.8c-1.2,1.2-1.8,2.7-1.8,4.4c0,0.6,0.4,1,1,1c0.6,0,1-0.4,1-1c0-1.1,0.4-2.2,1.2-3
		c0.8-0.8,1.9-1.2,3-1.2c2.2,0,4.1,1.9,4.1,4.1c0,1.5-0.7,2.8-1.9,3.6c-2,1.3-3.2,3.6-3.2,6.1v0.7c0,0.6,0.4,1,1,1s1-0.4,1-1v-0.7
		c0-1.9,0.9-3.6,2.3-4.5c1.8-1.2,2.9-3.1,2.9-5.3C-251,387.8-253.8,385-257.1,385z"/>
	<path d="M-238.3,384.3l-9-10c-0.1-0.2-0.4-0.3-0.7-0.3h-25c-1.7,0-3,1.3-3,3v40c0,1.7,1.3,3,3,3h32c1.7,0,3-1.3,3-3v-32
		C-238,384.8-238.1,384.5-238.3,384.3z M-247,377.6l5.8,6.4h-5.8V377.6z M-240,417c0,0.6-0.4,1-1,1h-32c-0.6,0-1-0.4-1-1v-40
		c0-0.6,0.4-1,1-1h24v9c0,0.6,0.4,1,1,1h8V417z"/>
</g>
</svg>
