<?xml version="1.0" encoding="utf-8"?>
<!-- Generator: Adobe Illustrator 19.1.0, SVG Export Plug-In . SVG Version: 6.00 Build 0)  -->
<svg version="1.1" id="Layer_1" xmlns="http://www.w3.org/2000/svg" xmlns:xlink="http://www.w3.org/1999/xlink" x="0px" y="0px"
	 viewBox="8 -8 48 48" style="enable-background:new 8 -8 48 48;" xml:space="preserve">
<g id="help">
	<path d="M32,24c-1.7,0-3,1.3-3,3s1.3,3,3,3s3-1.3,3-3S33.7,24,32,24z M32,28c-0.6,0-1-0.4-1-1s0.4-1,1-1s1,0.4,1,1
		S32.6,28,32,28z"/>
	<path d="M31.9,4c-1.7,0-3.2,0.6-4.4,1.8s-1.8,2.7-1.8,4.4c0,0.6,0.4,1,1,1s1-0.4,1-1c0-1.1,0.4-2.2,1.2-3
		c0.8-0.8,1.9-1.2,3-1.2c2.2,0,4.1,1.9,4.1,4.1c0,1.5-0.7,2.8-1.9,3.6c-2,1.3-3.2,3.6-3.2,6.1v0.7c0,0.6,0.4,1,1,1c0.6,0,1-0.4,1-1
		v-0.7c0-1.9,0.9-3.6,2.3-4.5c1.8-1.2,2.9-3.1,2.9-5.3C38,6.8,35.2,4,31.9,4z"/>
	<path d="M50.7,3.3l-9-10C41.6-6.9,41.3-7,41-7H16c-1.7,0-3,1.3-3,3v40c0,1.7,1.3,3,3,3h32c1.7,0,3-1.3,3-3V4
		C51,3.8,50.9,3.5,50.7,3.3z M42-3.4L47.8,3H42V-3.4z M49,36c0,0.6-0.4,1-1,1H16c-0.6,0-1-0.4-1-1V-4c0-0.6,0.4-1,1-1h24v9
		c0,0.6,0.4,1,1,1h8V36z"/>
</g>
</svg>
