<?xml version="1.0" encoding="utf-8"?>
<!-- Generator: Adobe Illustrator 19.1.0, SVG Export Plug-In . SVG Version: 6.00 Build 0)  -->
<svg version="1.1" id="Layer_1" xmlns="http://www.w3.org/2000/svg" xmlns:xlink="http://www.w3.org/1999/xlink" x="0px" y="0px"
	 viewBox="-281 373 48 48" style="enable-background:new -281 373 48 48;" xml:space="preserve">
<g id="hierarchy">
	<path d="M-243,388c2.8,0,5-2.2,5-5s-2.2-5-5-5c-2.8,0-5,2.2-5,5S-245.8,388-243,388z M-243,380c1.7,0,3,1.3,3,3s-1.3,3-3,3
		c-1.7,0-3-1.3-3-3S-244.7,380-243,380z"/>
	<path d="M-238,397c0-2.8-2.2-5-5-5c-2.5,0-4.4,1.7-4.9,4h-4.2c-0.5-2.3-2.4-4-4.9-4s-4.4,1.7-4.9,4h-4.2c-0.4-2-1.9-3.5-3.9-3.9
		v-4.2c2-0.4,3.5-1.9,3.9-3.9h4.2c0.5,2.3,2.4,4,4.9,4c2.8,0,5-2.2,5-5s-2.2-5-5-5c-2.5,0-4.4,1.7-4.9,4h-4.2c-0.5-2.3-2.4-4-4.9-4
		c-2.8,0-5,2.2-5,5c0,2.5,1.7,4.4,4,4.9v4.2c-2.3,0.5-4,2.4-4,4.9c0,2.8,2.2,5,5,5c2.5,0,4.4-1.7,4.9-4h4.2c0.5,2.3,2.4,4,4.9,4
		s4.4-1.7,4.9-4h4.2c0.4,2,1.9,3.5,3.9,3.9v4.2c-2,0.4-3.5,1.9-3.9,3.9h-4.2c-0.5-2.3-2.4-4-4.9-4c-2.8,0-5,2.2-5,5s2.2,5,5,5
		c2.5,0,4.4-1.7,4.9-4h4.2c0.5,2.3,2.4,4,4.9,4c2.8,0,5-2.2,5-5c0-2.5-1.7-4.4-4-4.9v-4.2C-239.7,401.4-238,399.5-238,397z
		 M-243,394c1.7,0,3,1.3,3,3c0,1.3-0.8,2.4-2,2.8V397c0-0.6-0.4-1-1-1h-2.8C-245.4,394.8-244.3,394-243,394z M-257,394
		c1.3,0,2.4,0.8,2.8,2h-5.7C-259.4,394.8-258.3,394-257,394z M-268.2,396h-1.8v-1.8C-269.1,394.5-268.5,395.1-268.2,396z
		 M-270,385.8V384h1.8C-268.5,384.9-269.1,385.5-270,385.8z M-257,380c1.7,0,3,1.3,3,3s-1.3,3-3,3c-1.3,0-2.4-0.8-2.8-2h2.8
		c0.6,0,1-0.4,1-1s-0.4-1-1-1h-2.8C-259.4,380.8-258.3,380-257,380z M-274,383c0-1.7,1.3-3,3-3c1.3,0,2.4,0.8,2.8,2h-2.8
		c-0.6,0-1,0.4-1,1v2.8C-273.2,385.4-274,384.3-274,383z M-271,400c-1.7,0-3-1.3-3-3c0-1.3,0.8-2.4,2-2.8v2.8c0,0.6,0.4,1,1,1h2.8
		C-268.6,399.2-269.7,400-271,400z M-257,400c-1.3,0-2.4-0.8-2.8-2h5.7C-254.6,399.2-255.7,400-257,400z M-245.8,398h1.8v1.8
		C-244.9,399.5-245.5,398.9-245.8,398z M-244,408.2v1.8h-1.8C-245.5,409.1-244.9,408.5-244,408.2z M-257,414c-1.7,0-3-1.3-3-3
		s1.3-3,3-3c1.3,0,2.4,0.8,2.8,2h-2.8c-0.6,0-1,0.4-1,1s0.4,1,1,1h2.8C-254.6,413.2-255.7,414-257,414z M-240,411c0,1.7-1.3,3-3,3
		c-1.3,0-2.4-0.8-2.8-2h2.8c0.6,0,1-0.4,1-1v-2.8C-240.8,408.6-240,409.7-240,411z"/>
	<path d="M-271,406c-2.8,0-5,2.2-5,5s2.2,5,5,5c2.8,0,5-2.2,5-5S-268.2,406-271,406z M-271,414c-1.7,0-3-1.3-3-3s1.3-3,3-3
		s3,1.3,3,3S-269.3,414-271,414z"/>
</g>
</svg>
