<?xml version="1.0" encoding="utf-8"?>
<!-- Generator: Adobe Illustrator 19.1.0, SVG Export Plug-In . SVG Version: 6.00 Build 0)  -->
<svg version="1.1" id="Layer_1" xmlns="http://www.w3.org/2000/svg" xmlns:xlink="http://www.w3.org/1999/xlink" x="0px" y="0px"
	 viewBox="8 -8 48 48" style="enable-background:new 8 -8 48 48;" xml:space="preserve">

<g id="hierarchy">
	<path d="M46,7c2.8,0,5-2.2,5-5s-2.2-5-5-5s-5,2.2-5,5S43.2,7,46,7z M46-1c1.7,0,3,1.3,3,3s-1.3,3-3,3s-3-1.3-3-3
		S44.3-1,46-1z"/>
	<path d="M51,16c0-2.8-2.2-5-5-5c-2.5,0-4.4,1.7-4.9,4h-4.2c-0.5-2.3-2.4-4-4.9-4s-4.4,1.7-4.9,4h-4.2
		c-0.4-2-1.9-3.5-3.9-3.9V6.9C21,6.5,22.5,5,22.9,3h4.2c0.5,2.3,2.4,4,4.9,4c2.8,0,5-2.2,5-5s-2.2-5-5-5c-2.5,0-4.4,1.7-4.9,4h-4.2
		c-0.5-2.3-2.4-4-4.9-4c-2.8,0-5,2.2-5,5c0,2.5,1.7,4.4,4,4.9v4.2c-2.3,0.5-4,2.4-4,4.9c0,2.8,2.2,5,5,5c2.5,0,4.4-1.7,4.9-4h4.2
		c0.5,2.3,2.4,4,4.9,4s4.4-1.7,4.9-4h4.2c0.4,2,1.9,3.5,3.9,3.9v4.2c-2,0.4-3.5,1.9-3.9,3.9h-4.2c-0.5-2.3-2.4-4-4.9-4
		c-2.8,0-5,2.2-5,5s2.2,5,5,5c2.5,0,4.4-1.7,4.9-4h4.2c0.5,2.3,2.4,4,4.9,4c2.8,0,5-2.2,5-5c0-2.5-1.7-4.4-4-4.9v-4.2
		C49.3,20.4,51,18.5,51,16z M46,13c1.7,0,3,1.3,3,3c0,1.3-0.8,2.4-2,2.8V16c0-0.6-0.4-1-1-1h-2.8C43.6,13.8,44.7,13,46,13z M32,13
		c1.3,0,2.4,0.8,2.8,2h-5.7C29.6,13.8,30.7,13,32,13z M20.8,15H19v-1.8C19.9,13.5,20.5,14.1,20.8,15z M19,4.8V3h1.8
		C20.5,3.9,19.9,4.5,19,4.8z M32-1c1.7,0,3,1.3,3,3s-1.3,3-3,3c-1.3,0-2.4-0.8-2.8-2H32c0.6,0,1-0.4,1-1s-0.4-1-1-1h-2.8
		C29.6-0.2,30.7-1,32-1z M15,2c0-1.7,1.3-3,3-3c1.3,0,2.4,0.8,2.8,2H18c-0.6,0-1,0.4-1,1v2.8C15.8,4.4,15,3.3,15,2z M18,19
		c-1.7,0-3-1.3-3-3c0-1.3,0.8-2.4,2-2.8V16c0,0.6,0.4,1,1,1h2.8C20.4,18.2,19.3,19,18,19z M32,19c-1.3,0-2.4-0.8-2.8-2h5.7
		C34.4,18.2,33.3,19,32,19z M43.2,17H45v1.8C44.1,18.5,43.5,17.9,43.2,17z M45,27.2V29h-1.8C43.5,28.1,44.1,27.5,45,27.2z M32,33
		c-1.7,0-3-1.3-3-3s1.3-3,3-3c1.3,0,2.4,0.8,2.8,2H32c-0.6,0-1,0.4-1,1s0.4,1,1,1h2.8C34.4,32.2,33.3,33,32,33z M49,30
		c0,1.7-1.3,3-3,3c-1.3,0-2.4-0.8-2.8-2H46c0.6,0,1-0.4,1-1v-2.8C48.2,27.6,49,28.7,49,30z"/>
	<path d="M18,25c-2.8,0-5,2.2-5,5s2.2,5,5,5s5-2.2,5-5S20.8,25,18,25z M18,33c-1.7,0-3-1.3-3-3s1.3-3,3-3s3,1.3,3,3
		S19.7,33,18,33z"/>
</g>
</svg>
