<?xml version="1.0" encoding="utf-8"?>
<!-- Generator: Adobe Illustrator 19.1.0, SVG Export Plug-In . SVG Version: 6.00 Build 0)  -->
<svg version="1.1" id="Layer_1" xmlns="http://www.w3.org/2000/svg" xmlns:xlink="http://www.w3.org/1999/xlink" x="0px" y="0px"
	 viewBox="8 -8 48 48" style="enable-background:new 8 -8 48 48;" xml:space="preserve">
<style type="text/css">
	.st0{fill:none;}
</style>
<g id="manage">
	<path class="st0" d="M52.6,11.7l-2.1-0.4c-0.5-1.7-1.2-3.4-2.1-5l1.2-1.8c0.9-1.2,0.7-2.8-0.3-3.8l-1.9-1.9c-1-1-2.6-1.1-3.8-0.3
		l-1.8,1.2c-1.5-0.9-3.2-1.7-5-2.1l-0.4-2.1C36.1-6,34.9-7,33.4-7h-2.7c-1.5,0-2.7,1-3,2.4l-0.4,2.1c-1.7,0.5-3.4,1.2-5,2.1
		l-1.8-1.2c-1.1-0.9-2.8-0.7-3.8,0.3l-1.9,1.9c-1,1-1.1,2.6-0.3,3.8l1.2,1.8c-0.9,1.5-1.7,3.2-2.1,5l-2.1,0.4C10,11.9,9,13.1,9,14.6
		v2.7c0,1.5,1,2.7,2.4,3l2.1,0.4c0.5,1.7,1.2,3.4,2.1,5l-1.2,1.8c-0.9,1.2-0.7,2.8,0.3,3.8l1.9,1.9c1,1,2.6,1.1,3.8,0.3l1.8-1.2
		c1.5,0.9,3.2,1.7,5,2.1l0.4,2.1c0.3,1.5,1.5,2.5,3,2.5h2.7c1.5,0,2.7-1,3.1-2.3l0.4-2.1c1.7-0.5,3.4-1.2,5-2.1l1.8,1.2
		c0.5,0.3,1.1,0.5,1.7,0.5c0.8,0,1.5-0.3,2.1-0.9l1.9-1.9c1-1,1.1-2.6,0.3-3.8l-1.2-1.8c0.9-1.5,1.7-3.2,2.1-5l2.1-0.4
		c1.5-0.3,2.5-1.5,2.5-3v-2.7C55.1,13.2,54,12,52.6,11.7z M53.1,17.3c0,0.5-0.3,0.9-0.8,1l-2.8,0.5c-0.4,0.1-0.7,0.4-0.8,0.8
		c-0.4,2-1.2,3.9-2.3,5.6c-0.2,0.3-0.2,0.8,0,1.1l1.6,2.3c0.3,0.4,0.2,1-0.1,1.3L46,31.8c-0.4,0.3-0.9,0.4-1.3,0.1l-2.3-1.6
		c-0.3-0.2-0.8-0.2-1.1,0c-1.7,1.1-3.6,1.9-5.6,2.3c-0.4,0.1-0.7,0.4-0.8,0.8l-0.5,2.8c-0.1,0.5-0.5,0.8-1,0.8h-2.7
		c-0.5,0-0.9-0.3-1-0.8l-0.5-2.8c-0.1-0.4-0.4-0.7-0.8-0.8c-2-0.4-3.9-1.2-5.6-2.3c-0.1-0.1-0.3-0.2-0.5-0.2s-0.4,0.1-0.6,0.2
		l-2.3,1.6c-0.4,0.3-1,0.2-1.3-0.1l-1.9-1.9c-0.3-0.4-0.4-0.9-0.1-1.3l1.6-2.3c0.2-0.3,0.2-0.8,0-1.1c-1.1-1.7-1.9-3.6-2.3-5.6
		c-0.1-0.4-0.4-0.7-0.8-0.8l-2.8-0.5c-0.5-0.1-0.8-0.5-0.8-1v-2.7c0-0.5,0.3-0.9,0.8-1l2.8-0.5c0.4-0.1,0.7-0.4,0.8-0.8
		c0.4-2,1.2-3.9,2.3-5.6c0.2-0.3,0.2-0.8,0-1.1l-1.6-2.3c-0.3-0.4-0.2-1,0.1-1.3l1.9-1.9C18.5-0.2,19-0.3,19.4,0l2.3,1.6
		c0.3,0.2,0.8,0.2,1.1,0c1.7-1.1,3.6-1.9,5.6-2.3c0.4-0.1,0.7-0.4,0.8-0.8l0.5-2.8c0.1-0.5,0.5-0.8,1-0.8h2.7c0.5,0,0.9,0.3,1,0.8
		l0.5,2.8c0.1,0.4,0.4,0.7,0.8,0.8c2,0.4,3.9,1.2,5.6,2.3c0.3,0.2,0.8,0.2,1.1,0L44.7,0c0.4-0.3,1-0.2,1.3,0.1L47.9,2
		c0.3,0.4,0.4,0.9,0.1,1.3l-1.6,2.3c-0.2,0.3-0.2,0.8,0,1.1c1.1,1.7,1.9,3.6,2.3,5.6c0.1,0.4,0.4,0.7,0.8,0.8l2.8,0.5
		c0.5,0.1,0.8,0.5,0.8,1V17.3z"/>
	<path class="st0" d="M32,7c-5,0-9,4-9,9s4,9,9,9s9-4,9-9S37,7,32,7z M32,23c-3.9,0-7-3.1-7-7s3.1-7,7-7s7,3.1,7,7S35.9,23,32,23z"
		/>
</g>
</svg>
