<?xml version="1.0" encoding="utf-8"?>
<!-- Generator: Adobe Illustrator 19.1.0, SVG Export Plug-In . SVG Version: 6.00 Build 0)  -->
<svg version="1.1" id="large_phone" xmlns="http://www.w3.org/2000/svg" xmlns:xlink="http://www.w3.org/1999/xlink" x="0px"
	 y="0px" viewBox="0 0 48 48" style="enable-background:new 0 0 48 48;" xml:space="preserve">
<g id="mobile-_x3D_activation">
	<path d="M35,4H13c-0.6,0-1,0.4-1,1v34c0,0.6,0.4,1,1,1h22c0.6,0,1-0.4,1-1V5C36,4.4,35.6,4,35,4z M34,38H14V6h20V38z"
		/>
	<path d="M35,0H13c-2.8,0-5,2.2-5,5v38c0,2.8,2.2,5,5,5h22c2.8,0,5-2.2,5-5V5C40,2.2,37.8,0,35,0z M38,43
		c0,1.7-1.3,3-3,3H13c-1.7,0-3-1.3-3-3V5c0-1.7,1.3-3,3-3h22c1.7,0,3,1.3,3,3V43z"/>
	<circle cx="24" cy="43" r="2"/>
</g>
</svg>
