<?xml version="1.0" encoding="utf-8"?>
<!-- Generator: Adobe Illustrator 19.1.0, SVG Export Plug-In . SVG Version: 6.00 Build 0)  -->
<svg version="1.1" id="Layer_1" xmlns="http://www.w3.org/2000/svg" xmlns:xlink="http://www.w3.org/1999/xlink" x="0px" y="0px"
	 viewBox="-281 373 48 48" style="enable-background:new -281 373 48 48;" xml:space="preserve">
<g id="more-user-actions">
	<path d="M-256.4,418.1c-10.2,0.3-18-1.2-20.5-1.7c0.7-8,5.4-10.5,9.9-12c3.3-1,5.3-2.6,6-3.2c1.3,0.9,2.9,1.6,4.5,1.6
		c1.7,0,3.2-0.6,4.5-1.5c0.7,0.6,2.8,2.2,6,3.2c0.1,0,0.2,0,0.3,0c0.4,0,0.8-0.3,1-0.7c0.2-0.5-0.1-1.1-0.7-1.3
		c-2.6-0.8-4.3-2-5.1-2.6c2.2-2.2,3.7-5,4.2-6.5c0.1,0,0.1-0.1,0.2-0.1c0.4-0.2,0.6-0.4,0.8-0.7c1.3-2.4,1.7-4.2,1-5.6
		c-0.3-0.7-0.8-1-1.2-1.3c0-1-0.1-3-0.6-4.9c0-0.1-2-7.1-10.6-7.1c-8.6,0-10.5,7-10.6,7.1c-0.5,1.9-0.6,3.8-0.6,4.9
		c-0.1,0.2-0.5,0.6-0.8,1.3c-0.6,1.4-0.3,3.2,1,5.6c0.2,0.3,0.4,0.4,0.8,0.6c0.1,0,0.1,0.1,0.2,0.1c0.5,1.6,2,4.4,4.2,6.5
		c-0.8,0.6-2.5,1.8-5.1,2.6c-4.7,1.5-10.9,4.7-11.4,14.7c0,0.5,0.3,0.9,0.8,1c0.3,0.1,8,2,19.1,2c0.9,0,1.8,0,2.7,0c0.6,0,1-0.5,1-1
		C-255.4,418.5-255.9,418-256.4,418.1z M-264.9,392.5c-0.1-0.4-0.5-0.7-0.9-0.9c-0.1,0-0.1-0.1-0.2-0.1c-1.2-2.2-1-3.3-0.9-3.6
		c0.2-0.5,0.5-0.6,0.5-0.6c0.5-0.1,0.8-0.5,0.8-1c0,0-0.1-2.6,0.5-4.9c0.1-0.3,1.7-5.7,8.7-5.7s8.6,5.4,8.6,5.6
		c0.6,2.4,0.5,4.9,0.5,5c0,0.5,0.3,0.9,0.8,1c0,0,0.4,0.1,0.6,0.5c0.1,0.3,0.3,1.3-0.9,3.6c0,0-0.1,0.1-0.2,0.1
		c-0.5,0.3-0.8,0.5-0.9,0.9c-0.5,1.7-3.9,8.2-8.5,8.2C-261,400.8-264.4,394.2-264.9,392.5z"/>
	<path d="M-235.8,405.9l-2-2c-1.1-1.1-3-1.1-4.1,0l-8.3,8.1c-0.1,0.1-0.2,0.3-0.3,0.5l-1.7,6.5c-0.1,0.3,0,0.7,0.3,1
		c0.2,0.2,0.4,0.3,0.7,0.3c0.1,0,0.2,0,0.3,0l6.5-1.7c0.2,0,0.3-0.1,0.5-0.3l8.2-8.2C-234.7,408.9-234.7,407-235.8,405.9z
		 M-249,414.9l2.2,2.1l-3,0.8L-249,414.9z M-237.3,408.5l-7.5,7.5l-3.4-3.3l7.6-7.6c0.3-0.4,1-0.3,1.3,0l2,2
		C-236.9,407.6-236.9,408.2-237.3,408.5z"/>
</g>
</svg>
