<?xml version="1.0" encoding="utf-8"?>
<!-- Generator: Adobe Illustrator 19.1.0, SVG Export Plug-In . SVG Version: 6.00 Build 0)  -->
<svg version="1.1" id="Layer_1" xmlns="http://www.w3.org/2000/svg" xmlns:xlink="http://www.w3.org/1999/xlink" x="0px" y="0px"
	 viewBox="8 -8 48 48" style="enable-background:new 8 -8 48 48;" xml:space="preserve">

<g id="more-user-actions">
	<path d="M32,37.2c-10.2,0.3-18-1.2-20.5-1.7c0.7-8,5.4-10.5,9.9-12c3.3-1,5.3-2.6,6-3.2c1.3,0.9,2.9,1.6,4.5,1.6
		c1.7,0,3.2-0.6,4.5-1.5c0.7,0.6,2.8,2.2,6,3.2c0.1,0,0.2,0,0.3,0c0.4,0,0.8-0.3,1-0.7c0.2-0.5-0.1-1.1-0.7-1.3
		c-2.6-0.8-4.3-2-5.1-2.6c2.2-2.2,3.7-5,4.2-6.5c0.1,0,0.1-0.1,0.2-0.1c0.4-0.2,0.6-0.4,0.8-0.7c1.3-2.4,1.7-4.2,1-5.6
		c-0.3-0.7-0.8-1-1.2-1.3c0-1-0.1-3-0.6-4.9c0-0.1-2-7.1-10.6-7.1s-10.5,7-10.6,7.1c-0.5,1.9-0.6,3.8-0.6,4.9
		C20.4,5,20,5.4,19.7,6.1c-0.6,1.4-0.3,3.2,1,5.6c0.2,0.3,0.4,0.4,0.8,0.6c0.1,0,0.1,0.1,0.2,0.1c0.5,1.6,2,4.4,4.2,6.5
		c-0.8,0.6-2.5,1.8-5.1,2.6C16.1,23,9.9,26.2,9.4,36.2c0,0.5,0.3,0.9,0.8,1c0.3,0.1,8,2,19.1,2c0.9,0,1.8,0,2.7,0c0.6,0,1-0.5,1-1
		C33,37.6,32.5,37.1,32,37.2z M23.5,11.6c-0.1-0.4-0.5-0.7-0.9-0.9c-0.1,0-0.1-0.1-0.2-0.1c-1.2-2.2-1-3.3-0.9-3.6
		C21.7,6.5,22,6.4,22,6.4c0.5-0.1,0.8-0.5,0.8-1c0,0-0.1-2.6,0.5-4.9C23.4,0.2,25-5.2,32-5.2s8.6,5.4,8.6,5.6c0.6,2.4,0.5,4.9,0.5,5
		c0,0.5,0.3,0.9,0.8,1c0,0,0.4,0.1,0.6,0.5c0.1,0.3,0.3,1.3-0.9,3.6c0,0-0.1,0.1-0.2,0.1c-0.5,0.3-0.8,0.5-0.9,0.9
		c-0.5,1.7-3.9,8.2-8.5,8.2C27.4,19.8,24,13.3,23.5,11.6z"/>
	<path d="M52.6,24.9l-2-2c-1.1-1.1-3-1.1-4.1,0L38.2,31c-0.1,0.1-0.2,0.3-0.3,0.5L36.2,38c-0.1,0.3,0,0.7,0.3,1
		c0.2,0.2,0.4,0.3,0.7,0.3c0.1,0,0.2,0,0.3,0l6.5-1.7c0.2,0,0.3-0.1,0.5-0.3l8.2-8.2C53.7,27.9,53.7,26.1,52.6,24.9z M39.4,33.9
		l2.2,2.1l-3,0.8L39.4,33.9z M51.1,27.6l-7.5,7.5l-3.4-3.3l7.6-7.6c0.3-0.4,1-0.3,1.3,0l2,2C51.5,26.7,51.5,27.3,51.1,27.6z"/>
</g>
</svg>
