<?xml version="1.0" encoding="utf-8"?>
<!-- Generator: Adobe Illustrator 19.1.0, SVG Export Plug-In . SVG Version: 6.00 Build 0)  -->
<svg version="1.1" id="Layer_1" xmlns="http://www.w3.org/2000/svg" xmlns:xlink="http://www.w3.org/1999/xlink" x="0px" y="0px"
	 viewBox="-281 373 48 48" style="enable-background:new -281 373 48 48;" xml:space="preserve">
<g id="my-profile">
	<path d="M-246.3,402.3c-2.4-0.8-4-1.9-4.8-2.4c2.1-2,3.5-4.7,4-6.2l0.1-0.1c0.3-0.2,0.6-0.4,0.7-0.6c1.3-2.3,1.6-4.1,1-5.4
		c-0.3-0.6-0.7-1-1.1-1.2c0-1-0.1-2.8-0.5-4.6c0-0.1-1.9-6.8-10.1-6.8c-8.2,0-10.1,6.7-10.1,6.8c-0.4,1.7-0.5,3.5-0.5,4.5
		c-0.4,0.2-0.8,0.6-1.1,1.2c-0.6,1.3-0.3,3.1,1,5.4c0.2,0.3,0.4,0.4,0.7,0.6l0.1,0.1c0.5,1.5,1.9,4.1,4,6.2
		c-0.7,0.6-2.3,1.7-4.8,2.4c-4.4,1.4-10.4,4.4-10.8,13.9c0,0.5,0.3,0.9,0.8,1c0.1,0,8.7,1.9,20.7,1.9s20.6-1.8,20.7-1.9
		c0.5-0.1,0.8-0.5,0.8-1C-235.9,406.6-241.8,403.7-246.3,402.3z M-265,392.8c-0.1-0.4-0.5-0.6-0.9-0.9l-0.1-0.1
		c-1.2-2.1-1-3-0.8-3.4c0.2-0.4,0.5-0.5,0.5-0.5c0.5-0.1,0.8-0.5,0.8-1c0,0-0.1-2.4,0.5-4.7c0-0.1,1.5-5.3,8.1-5.3
		c6.6,0,8.1,5.1,8.1,5.3c0.6,2.2,0.5,4.7,0.5,4.7c0,0.5,0.3,0.9,0.8,1c0,0,0.4,0.1,0.5,0.5c0.1,0.3,0.3,1.2-0.8,3.4l-0.1,0.1
		c-0.4,0.3-0.8,0.5-0.9,0.9c-0.5,1.7-3.7,7.8-8,7.8C-261.3,400.6-264.5,394.4-265,392.8z M-256.9,417.1c-9.6,0-17-1.2-19.4-1.6
		c0.7-7.5,5.1-9.9,9.4-11.3c3.1-1,5-2.4,5.7-3.1c1.3,0.9,2.7,1.5,4.3,1.5c1.6,0,3-0.6,4.3-1.5c0.7,0.6,2.6,2.1,5.7,3.1
		c4.3,1.4,8.7,3.8,9.4,11.3C-239.9,415.9-247.3,417.1-256.9,417.1z"/>
</g>
</svg>
