<?xml version="1.0" encoding="utf-8"?>
<!-- Generator: Adobe Illustrator 19.1.0, SVG Export Plug-In . SVG Version: 6.00 Build 0)  -->
<svg version="1.1" id="skyscraper" xmlns="http://www.w3.org/2000/svg" xmlns:xlink="http://www.w3.org/1999/xlink" x="0px" y="0px"
	 viewBox="0 0 48 48" style="enable-background:new 0 0 48 48;" xml:space="preserve">

<g id="organization">
	<path d="M47,31c0-0.2,0-0.3,0-0.5c0-1.1-0.4-2.2-1.2-3c0.1-0.3,0.2-0.7,0.2-1c0-1.1-0.5-2-1.3-2.7
		c0.2-0.4,0.3-0.9,0.3-1.3c0-1.9-1.6-3.5-3.5-3.5c-0.2,0-0.3,0-0.5,0.1V5c0-0.5-0.3-0.9-0.8-1l-12-3c-0.4-0.1-0.8,0-1,0.3l-8,10
		C19.1,11.6,19,11.8,19,12v5c0,0.3,0,0.7,0,1l-6.8-1c0,0-0.1,0-0.1,0c0,0,0,0,0,0c0,0,0,0,0,0c-0.1,0-0.2,0-0.3,0.1c0,0,0,0,0,0
		c-0.1,0-0.2,0.1-0.2,0.2c0,0,0,0-0.1,0.1c0,0,0,0,0,0l-6,6.9C5.1,24.5,5,24.7,5,24.9V45H3c-0.6,0-1,0.4-1,1s0.4,1,1,1h43
		c0.6,0,1-0.4,1-1s-0.4-1-1-1h-4v-4c0.2,0,0.3,0,0.5,0c2.5,0,4.5-2,4.5-4.5c0-0.9-0.3-1.8-0.8-2.5c0.5-0.7,0.8-1.6,0.8-2.5
		C47,31.3,47,31.2,47,31z M7,25.3l1-1.2v8.4c-0.7-3.5-1-6.3-1-6.6V25.3z M7,45v-7.9c0.8,2.8,1.8,5.6,3.1,7.9H7z M11,42.3
		c-0.4-0.8-0.7-1.6-1-2.4V22c0,0,0-0.1,0-0.1l1-1.2V42.3z M19,45h-6V19.2l6,0.9c0,0.2,0,0.5,0,0.7V45z M25,7.4v30.3
		c-0.4-0.7-0.7-1.5-1.1-2.4c0-0.1,0.1-0.2,0.1-0.3V9c0-0.1,0-0.2-0.1-0.3L25,7.4z M21,12.4l1-1.2v17.8c-0.5-2.4-0.9-5.2-1-8.2V12.4z
		 M21,45V33c1.9,6.2,4.7,10.2,6.3,12H21z M28,42.7c-0.3-0.4-0.7-0.9-1-1.5c0-0.1,0-0.1,0-0.2V5c0,0,0-0.1,0-0.1l1-1.3V42.7z M40,45
		H30V3.5l9,2.3V20c0,0,0,0,0,0c-0.6,0.6-1,1.5-1,2.5c0,0.2,0,0.4,0,0.5c-1.7,0.2-3,1.7-3,3.5c0,0.7,0.2,1.3,0.5,1.9
		C35.2,29,35,29.8,35,30.5c0,0.6,0.1,1.2,0.4,1.8c-0.9,0.8-1.4,2-1.4,3.2c0,2.5,2,4.5,4.5,4.5c0.4,0,0.7,0,1-0.1
		c0.1,0.1,0.3,0.2,0.5,0.3V45z M45,31.2c0,0.1,0,0.2,0,0.3c0,0.7-0.3,1.3-0.8,1.8c-0.2,0.2-0.3,0.4-0.3,0.7s0.1,0.5,0.3,0.7
		c0.5,0.5,0.8,1.1,0.8,1.8c0,1.4-1.1,2.5-2.5,2.5c-0.7,0-1.4-0.3-1.9-0.9c-0.2-0.2-0.5-0.4-0.8-0.4c-0.1,0-0.3,0-0.4,0.1
		c-0.3,0.1-0.6,0.2-0.9,0.2c-1.4,0-2.5-1.1-2.5-2.5c0-0.9,0.4-1.7,1.2-2.1c0.2-0.1,0.4-0.4,0.5-0.7c0.1-0.3,0-0.6-0.2-0.8
		C37.2,31.5,37,31,37,30.5c0-0.7,0.3-1.2,0.6-1.6c0.3-0.4,0.3-1-0.1-1.4c-0.3-0.3-0.5-0.7-0.5-1.1c0-0.8,0.7-1.5,1.5-1.5
		c0.5,0,0.9,0.2,1.2,0.6c0.2,0.3,0.5,0.4,0.8,0.4h0c0.3,0,0.6-0.2,0.8-0.4c0,0,0.1-0.1,0.1-0.1c0.2-0.2,0.3-0.6,0.2-0.9
		c-0.1-0.3-0.3-0.6-0.6-0.7c-0.6-0.2-1-0.8-1-1.4c0-0.8,0.7-1.5,1.5-1.5s1.5,0.7,1.5,1.5c0,0.5-0.2,0.8-0.4,1
		c-0.2,0.2-0.3,0.6-0.2,0.9c0.1,0.3,0.3,0.6,0.6,0.7c0.6,0.2,1,0.8,1,1.4c0,0.3-0.1,0.5-0.2,0.8c-0.3,0.4-0.1,1,0.2,1.3
		c0.6,0.5,1,1.2,1,2c0,0.1,0,0.2,0,0.4C44.9,31,45,31.1,45,31.2z"/>
	<path d="M40.3,34c-0.1,0-0.3-0.1-0.3-0.2c-0.1-0.1,0-0.4,0-0.5c0.2-0.5-0.1-1.1-0.6-1.3c-0.5-0.2-1.1,0.1-1.3,0.6
		c0,0.1-0.4,1.2,0.1,2.1c0.2,0.4,0.7,0.9,1.6,1.2c0.1,0,0.2,0,0.3,0c0.4,0,0.8-0.3,1-0.7C41.1,34.7,40.8,34.2,40.3,34z"/>
	<path d="M41.2,28c-0.5-0.1-1.1,0.2-1.3,0.7c-0.1,0.5,0.1,1.1,0.7,1.2c0,0,0.2,0.1,0.5,0.6c0.2,0.3,0.5,0.5,0.9,0.5
		c0.2,0,0.3,0,0.5-0.1c0.5-0.3,0.6-0.9,0.4-1.4C42.2,28.3,41.5,28.1,41.2,28z"/>
</g>
</svg>
