<?xml version="1.0" encoding="utf-8"?>
<!-- Generator: Adobe Illustrator 19.1.0, SVG Export Plug-In . SVG Version: 6.00 Build 0)  -->
<svg version="1.1" id="Layer_1" xmlns="http://www.w3.org/2000/svg" xmlns:xlink="http://www.w3.org/1999/xlink" x="0px" y="0px"
	 viewBox="8 -8 48 48" style="enable-background:new 8 -8 48 48;" xml:space="preserve">
<g id="reports">
	<path d="M53.6,25.9l-4.1-4.1c-0.4-0.4-1-0.4-1.4,0L40,30c-0.1,0.1-0.2,0.3-0.3,0.5L38.2,36c-0.1,0.3,0,0.7,0.3,1
		c0.2,0.2,0.4,0.3,0.7,0.3c0.1,0,0.2,0,0.3,0l5.5-1.5c0.2,0,0.3-0.1,0.5-0.3l8.1-8.1C54,27,54,26.3,53.6,25.9z M41.1,32.8l1.5,1.5
		l-2,0.5L41.1,32.8z M44.7,33.4l-2.7-2.6l6.8-6.8l2.7,2.7L44.7,33.4z"/>
	<path d="M13,35V1c0-1.1,0.9-2,2-2h5.4l-0.6,2H16c-0.6,0-1,0.4-1,1v25c0,0.3,0.1,0.5,0.3,0.7l7,7
		c0.2,0.2,0.4,0.3,0.7,0.3h13v-2H24v-6c0-0.6-0.4-1-1-1h-6V3h2.2L19,3.7C19,4,19,4.4,19.2,4.6C19.4,4.9,19.7,5,20,5h20
		c0.3,0,0.6-0.1,0.8-0.4C41,4.4,41,4,41,3.7L40.8,3H43v13h2V2c0-0.6-0.4-1-1-1h-3.8l-0.6-2H45c1.1,0,2,0.9,2,2v16h2V1
		c0-2.2-1.8-4-4-4h-6L39-3.3C38.8-3.7,38.4-4,38-4h-4c0-2.2-1.8-4-4-4s-4,1.8-4,4h-4c-0.4,0-0.8,0.3-1,0.7L21-3h-6c-2.2,0-4,1.8-4,4
		v34c0,2.2,1.8,4,4,4h22v-2H15C13.9,37,13,36.1,13,35z M22,31.6L18.4,28H22V31.6z M22.8-2H27c0.6,0,1-0.4,1-1v-1c0-1.1,0.9-2,2-2
		s2,0.9,2,2v1c0,0.6,0.4,1,1,1h4.2l1.4,5H21.3L22.8-2z"/>
	<rect x="21" y="11" width="7" height="2"/>
	<rect x="21" y="16" width="17" height="2"/>
	<rect x="21" y="21" width="14" height="2"/>
</g>
</svg>
