<?xml version="1.0" encoding="utf-8"?>
<!-- Generator: Adobe Illustrator 19.1.0, SVG Export Plug-In . SVG Version: 6.00 Build 0)  -->
<svg version="1.1" id="Layer_1" xmlns="http://www.w3.org/2000/svg" xmlns:xlink="http://www.w3.org/1999/xlink" x="0px" y="0px"
	 viewBox="-281 373 48 48" style="enable-background:new -281 373 48 48;" xml:space="preserve">
<g id="reports">
	<path d="M-235.9,407.4l-4.1-4.1c-0.4-0.4-1-0.4-1.4,0l-8.1,8.2c-0.1,0.1-0.2,0.3-0.3,0.5l-1.5,5.5c-0.1,0.3,0,0.7,0.3,1
		c0.2,0.2,0.4,0.3,0.7,0.3c0.1,0,0.2,0,0.3,0l5.5-1.5c0.2,0,0.3-0.1,0.5-0.3l8.1-8.1C-235.4,408.5-235.4,407.8-235.9,407.4z
		 M-248.4,414.3l1.5,1.5l-2,0.5L-248.4,414.3z M-244.8,414.9l-2.7-2.6l6.8-6.8l2.7,2.7L-244.8,414.9z"/>
	<path d="M-276.5,416.5v-34c0-1.1,0.9-2,2-2h5.4l-0.6,2h-3.8c-0.6,0-1,0.4-1,1v25c0,0.3,0.1,0.5,0.3,0.7l7,7
		c0.2,0.2,0.4,0.3,0.7,0.3h13v-2h-12v-6c0-0.6-0.4-1-1-1h-6v-23h2.2l-0.2,0.7c0,0.3,0,0.7,0.2,0.9c0.2,0.3,0.5,0.4,0.8,0.4h20
		c0.3,0,0.6-0.1,0.8-0.4c0.2-0.2,0.2-0.6,0.2-0.9l-0.2-0.7h2.2v13h2v-14c0-0.6-0.4-1-1-1h-3.8l-0.6-2h5.4c1.1,0,2,0.9,2,2v16h2v-16
		c0-2.2-1.8-4-4-4h-6v-0.3c-0.2-0.4-0.6-0.7-1-0.7h-4c0-2.2-1.8-4-4-4c-2.2,0-4,1.8-4,4h-4c-0.4,0-0.8,0.3-1,0.7v0.3h-6
		c-2.2,0-4,1.8-4,4v34c0,2.2,1.8,4,4,4h22v-2h-22C-275.5,418.5-276.5,417.6-276.5,416.5z M-267.5,413.1l-3.6-3.6h3.6V413.1z
		 M-266.6,379.5h4.2c0.6,0,1-0.4,1-1v-1c0-1.1,0.9-2,2-2c1.1,0,2,0.9,2,2v1c0,0.6,0.4,1,1,1h4.2l1.4,5h-17.3L-266.6,379.5z"/>
	<rect x="-268.5" y="392.5" width="7" height="2"/>
	<rect x="-268.5" y="397.5" width="17" height="2"/>
	<rect x="-268.5" y="402.5" width="14" height="2"/>
</g>
</svg>
