<?xml version="1.0" encoding="utf-8"?>
<!-- Generator: Adobe Illustrator 19.1.0, SVG Export Plug-In . SVG Version: 6.00 Build 0)  -->
<svg version="1.1" id="Layer_1" xmlns="http://www.w3.org/2000/svg" xmlns:xlink="http://www.w3.org/1999/xlink" x="0px" y="0px"
	 viewBox="8 -8 48 48" style="enable-background:new 8 -8 48 48;" xml:space="preserve">

<g id="requests">
	<path d="M51.4,0.2c-0.3-0.1-0.7-0.2-1,0c-6.6,3.4-11.6,1.3-17-0.9c-5-2-10.1-4.1-16.4-1.5v-2.3C17-5.9,15.9-7,14.5-7
		S12-5.9,12-4.5V40c0,0.6,0.4,1,1,1h3c0.6,0,1-0.4,1-1V22.2c5.9-2.9,10.7-0.9,15.7,1.1c3.4,1.4,6.9,2.8,10.8,2.8
		c2.5,0,5.1-0.6,8-2.1c0.3-0.2,0.5-0.5,0.5-0.9v-22C52,0.8,51.8,0.5,51.4,0.2z M15,39h-1V-4.5C14-4.8,14.2-5,14.5-5S15-4.8,15-4.5
		V39z M49.9,22.5c-6.4,3.1-11.3,1-16.5-1.1c-5-2-10.1-4.1-16.4-1.5V0.1c5.9-2.9,10.7-0.9,15.6,1.1c5.2,2.2,10.6,4.4,17.3,1.5V22.5z"
		/>
</g>
</svg>
