<?xml version="1.0" encoding="utf-8"?>
<!-- Generator: Adobe Illustrator 19.1.0, SVG Export Plug-In . SVG Version: 6.00 Build 0)  -->
<svg version="1.1" id="Layer_1" xmlns="http://www.w3.org/2000/svg" xmlns:xlink="http://www.w3.org/1999/xlink" x="0px" y="0px"
	 viewBox="8 -8 48 48" style="enable-background:new 8 -8 48 48;" xml:space="preserve">

<g id="roles-and-services">
	<path d="M49.2,17c-1.4-0.5-2.8-1.3-3.7-1.8c1.6-1.4,2.9-3.6,3.2-4.6c0.2-0.1,0.5-0.3,0.7-0.8c0.8-1.4,1-2.7,0.6-3.7
		c-0.2-0.5-0.5-0.9-0.8-1.1c0-0.8-0.1-2.2-0.4-3.5c-0.5-1.8-2.8-5.3-7.9-5.3c-4.8,0-7,3.2-7.6,5.2c-0.5-0.1-1.1-0.2-1.8-0.2
		c-0.5,0-0.9,0-1.3,0.1c-0.7-2-3-5.1-7.7-5.1c-5.1,0-7.4,3.5-7.9,5.3c-0.4,1.4-0.4,2.8-0.4,3.5c-0.3,0.2-0.6,0.6-0.8,1.1
		c-0.4,1-0.2,2.3,0.6,3.7c0.2,0.4,0.5,0.6,0.7,0.8c0.4,1,1.7,3.2,3.3,4.6c-0.9,0.5-2.3,1.3-3.8,1.8C9,19,9.1,23.5,9.1,26.8
		c0,1.7,1.4,3.2,3,3.2h4.5c-0.3,1.2-0.4,2.4-0.5,3.5c-0.1,0.9,0.3,1.8,0.9,2.5c0.6,0.6,1.3,0.9,2.1,0.9H45c0.8,0,1.5-0.3,2.1-0.9
		c0.6-0.7,1-1.6,0.9-2.5c-0.1-1.1-0.2-2.3-0.5-3.6h4.1c1.6,0,3-1.5,3-3.2C54.6,23.5,54.7,19,49.2,17z M37.6,6.9
		c0.4,1.7,0.3,3.5,0.3,3.5c0,0.5,0.2,0.9,0.7,1c0,0,0.2,0.1,0.2,0.3c0.1,0.2,0.2,0.8-0.5,2.2c0,0,0,0-0.1,0.1
		c-0.2,0.1-0.6,0.4-0.7,0.8c-0.3,1.2-2.7,5.7-5.8,5.7c-3.1,0-5.5-4.5-5.8-5.7c0,0,0-0.1,0-0.1c-0.2-0.5-0.5-0.7-0.8-0.9
		c-0.5-0.9-0.6-1.6-0.5-2c0.1-0.3,0.3-0.4,0.3-0.4c0.4-0.2,0.6-0.6,0.6-1c0,0-0.1-1.8,0.3-3.5c0-0.2,1.1-3.8,5.9-3.8
		C36.5,3.1,37.5,6.7,37.6,6.9z M12.1,28c-0.5,0-1-0.6-1-1.2c-0.1-3.8,0.2-6.5,4.1-7.9c2.8-1.1,5.3-2.7,5.4-2.7
		c0.3-0.2,0.5-0.5,0.4-0.9c0-0.3-0.2-0.7-0.5-0.8c-1.7-1-3.5-3.9-3.7-4.6c0,0,0-0.1,0-0.1c-0.2-0.5-0.5-0.7-0.7-0.8
		c0,0-0.1,0-0.1-0.1c-0.5-0.9-0.6-1.6-0.5-2c0.1-0.3,0.3-0.4,0.3-0.4c0.4-0.2,0.6-0.6,0.6-1c0,0-0.1-1.8,0.3-3.5
		c0-0.2,1.1-3.8,5.9-3.8c3.8,0,5.3,2.5,5.7,3.6c-2.8,1.1-4.2,3.4-4.6,4.7c-0.4,1.4-0.4,2.8-0.4,3.5c-0.3,0.2-0.6,0.6-0.8,1.1
		c-0.4,1-0.2,2.3,0.6,3.7c0.2,0.4,0.5,0.6,0.7,0.8c0.3,0.9,1.3,3,2.9,4.6c-0.6,0.5-1.7,1.2-3.4,1.8c-3.4,1.3-5.2,3.6-6.2,6H12.1z
		 M45.6,34.7C45.5,34.8,45.3,35,45,35H19.2c-0.3,0-0.5-0.2-0.6-0.3c-0.3-0.3-0.4-0.7-0.4-1c0.3-5.4,2.1-8.4,6-9.8
		c2.2-0.8,3.6-1.9,4.2-2.4c0.9,0.6,2,1,3.2,1c1.4,0,2.7-0.6,3.7-1.3c0,0,0,0,0,0c0.1,0.1,1.7,1.5,4.6,2.6c2.5,0.9,4.1,2.6,5,5.1
		c0,0.1,0,0.1,0,0.2c0,0.3,0.1,0.6,0.3,0.7c0.3,1.2,0.5,2.5,0.6,4C46,34,45.9,34.4,45.6,34.7z M52.5,26.8c0,0.6-0.5,1.2-1,1.2h-4.7
		c-1-2.5-2.8-4.9-6.2-6.2c-2.1-0.8-3.5-1.8-3.9-2.1c1.4-1.6,2.2-3.4,2.5-4.2c0.2-0.1,0.5-0.4,0.7-0.8c0.8-1.6,1-2.9,0.6-3.9
		c-0.2-0.4-0.4-0.7-0.7-0.9c0-0.8-0.1-2.1-0.4-3.5c-0.4-1.3-1.6-3.4-4.2-4.6C35.7,0.9,37-1.9,41-1.9c4.8,0,5.9,3.7,5.9,3.8
		c0.4,1.7,0.3,3.5,0.3,3.5c0,0.4,0.2,0.8,0.6,1c0,0,0.2,0.1,0.3,0.4c0.1,0.5,0,1.2-0.5,2c0,0-0.1,0-0.1,0.1
		c-0.2,0.1-0.5,0.3-0.7,0.8c0,0,0,0.1,0,0.1c-0.2,0.7-1.9,3.7-3.6,4.4c-0.3,0.1-0.5,0.5-0.6,0.8c0,0.4,0.1,0.7,0.4,0.9
		c0.1,0.1,2.5,1.8,5.4,2.9C52.4,20.3,52.6,22.9,52.5,26.8z"/>
</g>
</svg>
