<?xml version="1.0" encoding="utf-8"?>
<!-- Generator: Adobe Illustrator 19.1.0, SVG Export Plug-In . SVG Version: 6.00 Build 0)  -->
<svg version="1.1" id="Layer_1" xmlns="http://www.w3.org/2000/svg" xmlns:xlink="http://www.w3.org/1999/xlink" x="0px" y="0px"
	 viewBox="-281 373 48 48" style="enable-background:new -281 373 48 48;" xml:space="preserve">
<g id="roles-and-services">
	<path d="M-239.6,397.5c-1.4-0.5-2.8-1.3-3.7-1.8c1.6-1.4,2.9-3.6,3.2-4.6c0.2-0.1,0.5-0.3,0.7-0.8c0.8-1.4,1-2.7,0.6-3.7
		c-0.2-0.5-0.5-0.9-0.8-1.1c0-0.8-0.1-2.2-0.4-3.5c-0.5-1.8-2.8-5.3-7.9-5.3c-4.8,0-7,3.2-7.6,5.2c-0.5-0.1-1.1-0.2-1.8-0.2
		c-0.5,0-0.9,0-1.3,0.1c-0.7-2-3-5.1-7.7-5.1c-5.1,0-7.4,3.5-7.9,5.3c-0.4,1.4-0.4,2.8-0.4,3.5c-0.3,0.2-0.6,0.6-0.8,1.1
		c-0.4,1-0.2,2.3,0.6,3.7c0.2,0.4,0.5,0.6,0.7,0.8c0.4,1,1.7,3.2,3.3,4.6c-0.9,0.5-2.3,1.3-3.8,1.8c-5.2,2-5.1,6.5-5.1,9.8
		c0,1.7,1.4,3.2,3,3.2h4.5c-0.3,1.2-0.4,2.4-0.5,3.5c-0.1,0.9,0.3,1.8,0.9,2.5c0.6,0.6,1.3,0.9,2.1,0.9h25.9c0.8,0,1.5-0.3,2.1-0.9
		c0.6-0.7,1-1.6,0.9-2.5c-0.1-1.1-0.2-2.3-0.5-3.6h4.1c1.6,0,3-1.5,3-3.2C-234.2,404-234.1,399.5-239.6,397.5z M-251.2,387.4
		c0.4,1.7,0.3,3.5,0.3,3.5c0,0.5,0.2,0.9,0.7,1c0,0,0.2,0.1,0.2,0.3c0.1,0.2,0.2,0.8-0.5,2.2c0,0,0,0-0.1,0.1
		c-0.2,0.1-0.6,0.4-0.7,0.8c-0.3,1.2-2.7,5.7-5.8,5.7s-5.5-4.5-5.8-5.7v-0.1c-0.2-0.5-0.5-0.7-0.8-0.9c-0.5-0.9-0.6-1.6-0.5-2
		c0.1-0.3,0.3-0.4,0.3-0.4c0.4-0.2,0.6-0.6,0.6-1c0,0-0.1-1.8,0.3-3.5c0-0.2,1.1-3.8,5.9-3.8C-252.3,383.5-251.3,387.1-251.2,387.4z
		 M-276.8,408.5c-0.5,0-1-0.6-1-1.2c-0.1-3.8,0.2-6.5,4.1-7.9c2.8-1.1,5.3-2.7,5.4-2.7c0.3-0.2,0.5-0.5,0.4-0.9
		c0-0.3-0.2-0.7-0.5-0.8c-1.7-1-3.5-3.9-3.7-4.6v-0.1c-0.2-0.5-0.5-0.7-0.7-0.8c0,0-0.1,0-0.1-0.1c-0.5-0.9-0.6-1.6-0.5-2
		c0.1-0.3,0.3-0.4,0.3-0.4c0.4-0.2,0.6-0.6,0.6-1c0,0-0.1-1.8,0.3-3.5c0-0.2,1.1-3.8,5.9-3.8c3.8,0,5.3,2.5,5.7,3.6
		c-2.8,1.1-4.2,3.4-4.6,4.7c-0.4,1.4-0.4,2.8-0.4,3.5c-0.3,0.2-0.6,0.6-0.8,1.1c-0.4,1-0.2,2.3,0.6,3.7c0.2,0.4,0.5,0.6,0.7,0.8
		c0.3,0.9,1.3,3,2.9,4.6c-0.6,0.5-1.7,1.2-3.4,1.8c-3.4,1.3-5.2,3.6-6.2,6C-271.8,408.5-276.8,408.5-276.8,408.5z M-243.2,415.1
		c-0.1,0.1-0.3,0.3-0.6,0.3h-25.8c-0.3,0-0.5-0.2-0.6-0.3c-0.3-0.3-0.4-0.7-0.4-1c0.3-5.4,2.1-8.4,6-9.8c2.2-0.8,3.6-1.9,4.2-2.4
		c0.9,0.6,2,1,3.2,1c1.4,0,2.7-0.6,3.7-1.3l0,0c0.1,0.1,1.7,1.5,4.6,2.6c2.5,0.9,4.1,2.6,5,5.1c0,0.1,0,0.1,0,0.2
		c0,0.3,0.1,0.6,0.3,0.7c0.3,1.2,0.5,2.5,0.6,4C-242.8,414.5-242.9,414.9-243.2,415.1z M-236.3,407.2c0,0.6-0.5,1.2-1,1.2h-4.7
		c-1-2.5-2.8-4.9-6.2-6.2c-2.1-0.8-3.5-1.8-3.9-2.1c1.4-1.6,2.2-3.4,2.5-4.2c0.2-0.1,0.5-0.4,0.7-0.8c0.8-1.6,1-2.9,0.6-3.9
		c-0.2-0.4-0.4-0.7-0.7-0.9c0-0.8-0.1-2.1-0.4-3.5c-0.4-1.3-1.6-3.4-4.2-4.6c0.5-0.9,1.8-3.7,5.8-3.7c4.8,0,5.9,3.7,5.9,3.8
		c0.4,1.7,0.3,3.5,0.3,3.5c0,0.4,0.2,0.8,0.6,1c0,0,0.2,0.1,0.3,0.4c0.1,0.5,0,1.2-0.5,2c0,0-0.1,0-0.1,0.1
		c-0.2,0.1-0.5,0.3-0.7,0.8v0.1c-0.2,0.7-1.9,3.7-3.6,4.4c-0.3,0.1-0.5,0.5-0.6,0.8c0,0.4,0.1,0.7,0.4,0.9c0.1,0.1,2.5,1.8,5.4,2.9
		C-236.4,400.8-236.2,403.4-236.3,407.2z"/>
</g>
</svg>
