<?xml version="1.0" encoding="utf-8"?>
<!-- Generator: Adobe Illustrator 17.0.0, SVG Export Plug-In . SVG Version: 6.00 Build 0)  -->
<!DOCTYPE svg PUBLIC "-//W3C//DTD SVG 1.1//EN" "http://www.w3.org/Graphics/SVG/1.1/DTD/svg11.dtd">
<svg version="1.1" xmlns="http://www.w3.org/2000/svg" xmlns:xlink="http://www.w3.org/1999/xlink" x="0px" y="0px" width="48px"
	 height="48px" viewBox="0 0 48 48" enable-background="new 0 0 48 48" xml:space="preserve">
<g id="search">
	<path d="M17,32C8.7,32,2,25.3,2,17S8.7,2,17,2s15,6.7,15,15S25.3,32,17,32z M17,4C9.8,4,4,9.8,4,17s5.8,13,13,13
		s13-5.8,13-13S24.2,4,17,4z"/>
	<path d="M40.2,43.6c-0.5,0-1-0.2-1.4-0.6L25.1,29.4c-0.4-0.4-0.4-1,0-1.4s1-0.4,1.4,0l13.6,13.6l1.4-1.4L28,26.6
		c-0.4-0.4-0.4-1,0-1.4s1-0.4,1.4,0L43,38.8c0.8,0.8,0.8,2,0,2.8L41.6,43C41.2,43.4,40.7,43.6,40.2,43.6z"/>
</g>
</svg>
