<?xml version="1.0" encoding="utf-8"?>
<!-- Generator: Adobe Illustrator 19.1.0, SVG Export Plug-In . SVG Version: 6.00 Build 0)  -->
<svg version="1.1" id="Layer_1" xmlns="http://www.w3.org/2000/svg" xmlns:xlink="http://www.w3.org/1999/xlink" x="0px" y="0px"
	 viewBox="8 -8 48 48" style="enable-background:new 8 -8 48 48;" xml:space="preserve">

<g id="service-package">
	<path d="M53-6H36.5c0,0,0,0,0,0H23c-0.3,0-0.5,0.1-0.7,0.3l-12,12c-0.1,0.1-0.2,0.2-0.2,0.3C10,6.7,10,6.9,10,7v30
		c0,0.6,0.4,1,1,1h30c0.1,0,0.3,0,0.4-0.1c0.1-0.1,0.2-0.1,0.3-0.2l12-12c0.2-0.2,0.3-0.4,0.3-0.7V-5C54-5.6,53.6-6,53-6z M40.6,6
		H26.9l10-10h13.7L40.6,6z M51-1.6v7.2l-6.7,6.7l-2.2-5L51-1.6z M27.1,19.8c1.2-1.6,2.8-3.3,3.8-3.3c0.1,0,0.3,0,0.4,0.3
		c0.1,0.1,0.3,0.3,0,0.8c-0.5,1.1-2.5,2.3-3.9,2.3C27.3,19.8,27.2,19.8,27.1,19.8z M30.4,26.8c0.2,0.2,0.4,0.2,0.6,0.2
		c0.3,0,0.6-0.1,0.8-0.4c0.4-0.4,0.3-1.1-0.1-1.4l-4.1-3.4c2.2,0,4.7-1.6,5.6-3.4c0.5-1,0.4-2.1-0.3-3c-0.5-0.7-1.2-1-2-1
		c-1.8,0-3.6,1.9-4.9,3.4V8h14v28H26V23.1L30.4,26.8z M23.4-4h10.7l-9.8,9.8c-0.1,0.1-0.1,0.1-0.1,0.2H13.4L23.4-4z M12,8h12v9.6
		c-1.3-1.2-3.1-2.4-4.6-2.4c-1,0-1.8,0.5-2.2,1.3c-0.5,0.9-0.5,1.8,0,2.7c0.9,1.6,3.3,2.8,5.5,2.8c0.4,0,0.7,0,1.1-0.1l-3.9,4.4
		c-0.4,0.4-0.3,1,0.1,1.4c0.2,0.2,0.4,0.3,0.7,0.3c0.3,0,0.6-0.1,0.7-0.3l2.7-3V36H12V8z M23.5,19.9C23.2,20,22.9,20,22.7,20
		c-1.4,0-3.2-0.9-3.7-1.8c-0.2-0.4-0.1-0.6,0-0.7c0.2-0.3,0.3-0.3,0.5-0.3C20.4,17.2,22.2,18.6,23.5,19.9z M42,34.6V11.9l1.1,2.5
		c0.1,0.3,0.4,0.5,0.7,0.6c0.1,0,0.1,0,0.2,0c0.3,0,0.5-0.1,0.7-0.3L52,7.4v17.2L42,34.6z"/>
</g>
</svg>
