<?xml version="1.0" encoding="utf-8"?>
<!-- Generator: Adobe Illustrator 19.1.0, SVG Export Plug-In . SVG Version: 6.00 Build 0)  -->
<svg version="1.1" id="Layer_1" xmlns="http://www.w3.org/2000/svg" xmlns:xlink="http://www.w3.org/1999/xlink" x="0px" y="0px"
	 viewBox="-281 373 48 48" style="enable-background:new -281 373 48 48;" xml:space="preserve">
<g id="service-package">
	<path d="M-236,375h-16.5l0,0H-266c-0.3,0-0.5,0.1-0.7,0.3l-12,12c-0.1,0.1-0.2,0.2-0.2,0.3c-0.1,0.1-0.1,0.3-0.1,0.4v30
		c0,0.6,0.4,1,1,1h30c0.1,0,0.3,0,0.4-0.1c0.1-0.1,0.2-0.1,0.3-0.2l12-12c0.2-0.2,0.3-0.4,0.3-0.7v-30C-235,375.4-235.4,375-236,375
		z M-248.4,387h-13.7l10-10h13.7L-248.4,387z M-238,379.4v7.2l-6.7,6.7l-2.2-5L-238,379.4z M-261.9,400.8c1.2-1.6,2.8-3.3,3.8-3.3
		c0.1,0,0.3,0,0.4,0.3c0.1,0.1,0.3,0.3,0,0.8c-0.5,1.1-2.5,2.3-3.9,2.3C-261.7,400.8-261.8,400.8-261.9,400.8z M-258.6,407.8
		c0.2,0.2,0.4,0.2,0.6,0.2c0.3,0,0.6-0.1,0.8-0.4c0.4-0.4,0.3-1.1-0.1-1.4l-4.1-3.4c2.2,0,4.7-1.6,5.6-3.4c0.5-1,0.4-2.1-0.3-3
		c-0.5-0.7-1.2-1-2-1c-1.8,0-3.6,1.9-4.9,3.4V389h14v28h-14v-12.9L-258.6,407.8z M-265.6,377h10.7l-9.8,9.8
		c-0.1,0.1-0.1,0.1-0.1,0.2h-10.8L-265.6,377z M-277,389h12v9.6c-1.3-1.2-3.1-2.4-4.6-2.4c-1,0-1.8,0.5-2.2,1.3
		c-0.5,0.9-0.5,1.8,0,2.7c0.9,1.6,3.3,2.8,5.5,2.8c0.4,0,0.7,0,1.1-0.1l-3.9,4.4c-0.4,0.4-0.3,1,0.1,1.4c0.2,0.2,0.4,0.3,0.7,0.3
		c0.3,0,0.6-0.1,0.7-0.3l2.7-3V417H-277V389z M-265.5,400.9c-0.3,0.1-0.6,0.1-0.8,0.1c-1.4,0-3.2-0.9-3.7-1.8
		c-0.2-0.4-0.1-0.6,0-0.7c0.2-0.3,0.3-0.3,0.5-0.3C-268.6,398.2-266.8,399.6-265.5,400.9z M-247,415.6v-22.7l1.1,2.5
		c0.1,0.3,0.4,0.5,0.7,0.6c0.1,0,0.1,0,0.2,0c0.3,0,0.5-0.1,0.7-0.3l7.3-7.3v17.2L-247,415.6z"/>
</g>
</svg>
