<?xml version="1.0" encoding="utf-8"?>
<!-- Generator: Adobe Illustrator 19.1.0, SVG Export Plug-In . SVG Version: 6.00 Build 0)  -->
<svg version="1.1" id="Layer_1" xmlns="http://www.w3.org/2000/svg" xmlns:xlink="http://www.w3.org/1999/xlink" x="0px" y="0px"
	 viewBox="-281 373 48 48" style="enable-background:new -281 373 48 48;" xml:space="preserve">
<g id="view">
	<path d="M-236.8,413l-13.5-13.5c1.6-2.4,2.5-5.2,2.5-8.3c0-8.3-6.7-15-15-15c-8.3,0-15,6.7-15,15c0,8.3,6.7,15,15,15
		c3,0,5.9-0.9,8.2-2.5l13.6,13.5c0.4,0.4,0.9,0.6,1.4,0.6s1-0.2,1.4-0.6l1.4-1.4C-236,415-236,413.8-236.8,413z M-275.8,391.2
		c0-7.2,5.8-13,13-13c7.2,0,13,5.8,13,13c0,7.2-5.8,13-13,13C-270,404.2-275.8,398.4-275.8,391.2z M-239.7,415.8l-13.3-13.3
		c0.5-0.4,1-0.9,1.5-1.4l13.2,13.3L-239.7,415.8z"/>
</g>
</svg>
