<?xml version="1.0" encoding="utf-8"?>
<!-- Generator: Adobe Illustrator 19.1.0, SVG Export Plug-In . SVG Version: 6.00 Build 0)  -->
<svg version="1.1" id="Layer_1" xmlns="http://www.w3.org/2000/svg" xmlns:xlink="http://www.w3.org/1999/xlink" x="0px" y="0px"
	 viewBox="8 -8 48 48" style="enable-background:new 8 -8 48 48;" xml:space="preserve">

<g id="view">
	<path d="M51,30.8L37.5,17.3C39.1,14.9,40,12.1,40,9c0-8.3-6.7-15-15-15S10,0.7,10,9s6.7,15,15,15c3,0,5.9-0.9,8.2-2.5
		L46.8,35c0.4,0.4,0.9,0.6,1.4,0.6s1-0.2,1.4-0.6l1.4-1.4C51.8,32.8,51.8,31.6,51,30.8z M12,9c0-7.2,5.8-13,13-13S38,1.8,38,9
		s-5.8,13-13,13S12,16.2,12,9z M48.1,33.6L34.8,20.3c0.5-0.4,1-0.9,1.5-1.4l13.2,13.3L48.1,33.6z"/>
</g>
</svg>
