<svg xmlns="http://www.w3.org/2000/svg" xmlns:xlink="http://www.w3.org/1999/xlink">
<g class="-applications">
    <!-- Generator: Sketch 3.4.3 (16618) - http://www.bohemiancoding.com/sketch -->
    <g id="applications">
        <path d="M6.26086956,21.9130434 L13.5652174,21.9130434 L13.5652174,14.6086957 L6.26086956,14.6086957 L6.26086956,21.9130434 L6.26086956,21.9130434 Z M14.6086957,24 L5.2173913,24 C4.6413913,24 4.17391304,23.5325218 4.17391304,22.9565218 L4.17391304,13.5652174 C4.17391304,12.9892174 4.6413913,12.5217391 5.2173913,12.5217391 L14.6086957,12.5217391 C15.1846957,12.5217391 15.6521739,12.9892174 15.6521739,13.5652174 L15.6521739,22.9565218 C15.6521739,23.5325218 15.1846957,24 14.6086957,24 L14.6086957,24 L14.6086957,24 Z" id="Fill-1"/>
        <path d="M6.26086956,31.3043478 L13.5652174,31.3043478 L13.5652174,28.173913 L6.26086956,28.173913 L6.26086956,31.3043478 L6.26086956,31.3043478 Z M14.6086957,33.3913044 L5.2173913,33.3913044 C4.6413913,33.3913044 4.17391304,32.923826 4.17391304,32.347826 L4.17391304,27.1304348 C4.17391304,26.5544348 4.6413913,26.0869566 5.2173913,26.0869566 L14.6086957,26.0869566 C15.1846957,26.0869566 15.6521739,26.5544348 15.6521739,27.1304348 L15.6521739,32.347826 C15.6521739,32.923826 15.1846957,33.3913044 14.6086957,33.3913044 L14.6086957,33.3913044 L14.6086957,33.3913044 Z" id="Fill-3"/>
        <path d="M6.26086956,41.7391304 L13.5652174,41.7391304 L13.5652174,37.5652174 L6.26086956,37.5652174 L6.26086956,41.7391304 L6.26086956,41.7391304 Z M14.6086957,43.826087 L5.2173913,43.826087 C4.6413913,43.826087 4.17391304,43.3586086 4.17391304,42.7826086 L4.17391304,36.5217392 C4.17391304,35.9457392 4.6413913,35.4782608 5.2173913,35.4782608 L14.6086957,35.4782608 C15.1846957,35.4782608 15.6521739,35.9457392 15.6521739,36.5217392 L15.6521739,42.7826086 C15.6521739,43.3586086 15.1846957,43.826087 14.6086957,43.826087 L14.6086957,43.826087 L14.6086957,43.826087 Z" id="Fill-4"/>
        <path d="M19.826087,21.9130434 L27.1304348,21.9130434 L27.1304348,14.6086957 L19.826087,14.6086957 L19.826087,21.9130434 L19.826087,21.9130434 Z M28.173913,24 L18.7826087,24 C18.2066087,24 17.7391304,23.5325218 17.7391304,22.9565218 L17.7391304,13.5652174 C17.7391304,12.9892174 18.2066087,12.5217391 18.7826087,12.5217391 L28.173913,12.5217391 C28.749913,12.5217391 29.2173914,12.9892174 29.2173914,13.5652174 L29.2173914,22.9565218 C29.2173914,23.5325218 28.749913,24 28.173913,24 L28.173913,24 L28.173913,24 Z" id="Fill-5"/>
        <path d="M19.826087,33.3913044 L27.1304348,33.3913044 L27.1304348,28.173913 L19.826087,28.173913 L19.826087,33.3913044 L19.826087,33.3913044 Z M28.173913,35.4782608 L18.7826087,35.4782608 C18.2066087,35.4782608 17.7391304,35.0107826 17.7391304,34.4347826 L17.7391304,27.1304348 C17.7391304,26.5544348 18.2066087,26.0869566 18.7826087,26.0869566 L28.173913,26.0869566 C28.749913,26.0869566 29.2173914,26.5544348 29.2173914,27.1304348 L29.2173914,34.4347826 C29.2173914,35.0107826 28.749913,35.4782608 28.173913,35.4782608 L28.173913,35.4782608 L28.173913,35.4782608 Z" id="Fill-6"/>
        <path d="M19.826087,41.7391304 L27.1304348,41.7391304 L27.1304348,39.652174 L19.826087,39.652174 L19.826087,41.7391304 L19.826087,41.7391304 Z M28.173913,43.826087 L18.7826087,43.826087 C18.2066087,43.826087 17.7391304,43.3586086 17.7391304,42.7826086 L17.7391304,38.6086956 C17.7391304,38.0326956 18.2066087,37.5652174 18.7826087,37.5652174 L28.173913,37.5652174 C28.749913,37.5652174 29.2173914,38.0326956 29.2173914,38.6086956 L29.2173914,42.7826086 C29.2173914,43.3586086 28.749913,43.826087 28.173913,43.826087 L28.173913,43.826087 L28.173913,43.826087 Z" id="Fill-7"/>
        <path d="M33.3913044,16.6956522 L40.6956522,16.6956522 L40.6956522,14.6086957 L33.3913044,14.6086957 L33.3913044,16.6956522 L33.3913044,16.6956522 Z M41.7391304,18.7826087 L32.347826,18.7826087 C31.771826,18.7826087 31.3043478,18.3151304 31.3043478,17.7391304 L31.3043478,13.5652174 C31.3043478,12.9892174 31.771826,12.5217391 32.347826,12.5217391 L41.7391304,12.5217391 C42.3151304,12.5217391 42.7826086,12.9892174 42.7826086,13.5652174 L42.7826086,17.7391304 C42.7826086,18.3151304 42.3151304,18.7826087 41.7391304,18.7826087 L41.7391304,18.7826087 L41.7391304,18.7826087 Z" id="Fill-8"/>
        <path d="M33.3913044,32.347826 L40.6956522,32.347826 L40.6956522,22.9565218 L33.3913044,22.9565218 L33.3913044,32.347826 L33.3913044,32.347826 Z M41.7391304,34.4347826 L32.347826,34.4347826 C31.771826,34.4347826 31.3043478,33.9673044 31.3043478,33.3913044 L31.3043478,21.9130434 C31.3043478,21.3370434 31.771826,20.8695652 32.347826,20.8695652 L41.7391304,20.8695652 C42.3151304,20.8695652 42.7826086,21.3370434 42.7826086,21.9130434 L42.7826086,33.3913044 C42.7826086,33.9673044 42.3151304,34.4347826 41.7391304,34.4347826 L41.7391304,34.4347826 L41.7391304,34.4347826 Z" id="Fill-9"/>
        <path d="M33.3913044,41.7391304 L40.6956522,41.7391304 L40.6956522,38.6086956 L33.3913044,38.6086956 L33.3913044,41.7391304 L33.3913044,41.7391304 Z M41.7391304,43.826087 L32.347826,43.826087 C31.771826,43.826087 31.3043478,43.3586086 31.3043478,42.7826086 L31.3043478,37.5652174 C31.3043478,36.9892174 31.771826,36.5217392 32.347826,36.5217392 L41.7391304,36.5217392 C42.3151304,36.5217392 42.7826086,36.9892174 42.7826086,37.5652174 L42.7826086,42.7826086 C42.7826086,43.3586086 42.3151304,43.826087 41.7391304,43.826087 L41.7391304,43.826087 L41.7391304,43.826087 Z" id="Fill-10"/>
        <path d="M3.13043478,2.08695652 C2.55547826,2.08695652 2.08695652,2.55547826 2.08695652,3.13043478 L2.08695652,44.8695652 C2.08695652,45.4445218 2.55547826,45.9130434 3.13043478,45.9130434 L44.8695652,45.9130434 C45.4445218,45.9130434 45.9130434,45.4445218 45.9130434,44.8695652 L45.9130434,3.13043478 C45.9130434,2.55547826 45.4445218,2.08695652 44.8695652,2.08695652 L3.13043478,2.08695652 L3.13043478,2.08695652 Z M44.8695652,48 L3.13043478,48 C1.40452174,48 0,46.5954782 0,44.8695652 L0,3.13043478 C0,1.40452174 1.40452174,0 3.13043478,0 L44.8695652,0 C46.5954782,0 48,1.40452174 48,3.13043478 L48,44.8695652 C48,46.5954782 46.5954782,48 44.8695652,48 L44.8695652,48 L44.8695652,48 Z" id="Fill-11"/>
        <path d="M5.2173913,4.69565218 C4.9293913,4.69565218 4.69565218,4.9293913 4.69565218,5.2173913 C4.69565218,5.5053913 4.9293913,5.73913044 5.2173913,5.73913044 C5.5053913,5.73913044 5.73913044,5.5053913 5.73913044,5.2173913 C5.73913044,4.9293913 5.5053913,4.69565218 5.2173913,4.69565218 M5.2173913,6.7826087 C4.35443478,6.7826087 3.65217392,6.08034782 3.65217392,5.2173913 C3.65217392,4.35443478 4.35443478,3.65217392 5.2173913,3.65217392 C6.08034782,3.65217392 6.7826087,4.35443478 6.7826087,5.2173913 C6.7826087,6.08034782 6.08034782,6.7826087 5.2173913,6.7826087" id="Fill-12"/>
        <path d="M9.39130434,4.69565218 C9.10330434,4.69565218 8.86956522,4.9293913 8.86956522,5.2173913 C8.86956522,5.5053913 9.10330434,5.73913044 9.39130434,5.73913044 C9.67930434,5.73913044 9.91304348,5.5053913 9.91304348,5.2173913 C9.91304348,4.9293913 9.67930434,4.69565218 9.39130434,4.69565218 M9.39130434,6.7826087 C8.52834782,6.7826087 7.82608696,6.08034782 7.82608696,5.2173913 C7.82608696,4.35443478 8.52834782,3.65217392 9.39130434,3.65217392 C10.2542609,3.65217392 10.9565217,4.35443478 10.9565217,5.2173913 C10.9565217,6.08034782 10.2542609,6.7826087 9.39130434,6.7826087" id="Fill-13"/>
        <path d="M13.5652174,4.69565218 C13.2772174,4.69565218 13.0434783,4.9293913 13.0434783,5.2173913 C13.0434783,5.5053913 13.2772174,5.73913044 13.5652174,5.73913044 C13.8532174,5.73913044 14.0869565,5.5053913 14.0869565,5.2173913 C14.0869565,4.9293913 13.8532174,4.69565218 13.5652174,4.69565218 M13.5652174,6.7826087 C12.7022609,6.7826087 12,6.08034782 12,5.2173913 C12,4.35443478 12.7022609,3.65217392 13.5652174,3.65217392 C14.4281739,3.65217392 15.1304348,4.35443478 15.1304348,5.2173913 C15.1304348,6.08034782 14.4281739,6.7826087 13.5652174,6.7826087" id="Fill-14"/>
        <path d="M46.4347826,10.4347826 L0.52173913,10.4347826 L0.52173913,8.34782608 L46.4347826,8.34782608 L46.4347826,10.4347826 L46.4347826,10.4347826 Z" id="Fill-15"/>
    </g>

</g>
<g class="-applications_v2">
  <title>
    applications
  </title>
  <g id="applications_v2" transform="translate(1 1)" stroke="currentColor" fill="none" fill-rule="evenodd">
    <rect width="47.00249" height="47.00249" rx="100"/>
    <path d="M11.63256 23.8161c0-1.6336 1.3276-2.95786 2.95785-2.95786 1.6336 0 2.9579 1.3276 2.9579 2.95785 0 1.63352-1.3276 2.9578-2.95785 2.9578-1.63357 0-2.95784-1.3276-2.95784-2.95785zm.30987-9.2257c0-1.63357 1.3276-2.95784 2.95785-2.95784 1.63357 0 2.95785 1.3276 2.95785 2.95785 0 1.6336-1.3276 2.9579-2.95785 2.9579-1.63358 0-2.95785-1.3276-2.95785-2.95785zm8.98623 9.2257c0-1.6336 1.3276-2.95786 2.95785-2.95786 1.6336 0 2.9579 1.3276 2.9579 2.95785 0 1.63352-1.3276 2.9578-2.95785 2.9578-1.63356 0-2.95784-1.3276-2.95784-2.95785zm.30987-9.2257c0-1.63357 1.3276-2.95784 2.95785-2.95784 1.63358 0 2.95785 1.3276 2.95785 2.95785 0 1.6336-1.3276 2.9579-2.95785 2.9579-1.63357 0-2.95785-1.3276-2.95785-2.95785zm8.98623 9.2257c0-1.6336 1.3276-2.95786 2.95785-2.95786 1.6336 0 2.9579 1.3276 2.9579 2.95785 0 1.63352-1.3276 2.9578-2.95785 2.9578-1.63356 0-2.95784-1.3276-2.95784-2.95785zm.30987-9.2257c0-1.63357 1.3276-2.95784 2.95785-2.95784 1.63358 0 2.95786 1.3276 2.95786 2.95785 0 1.6336-1.3276 2.9579-2.95786 2.9579-1.63357 0-2.95785-1.3276-2.95785-2.95785zM11.63256 33.04177c0-1.63357 1.3276-2.95785 2.95785-2.95785 1.6336 0 2.9579 1.3276 2.9579 2.95786 0 1.63358-1.3276 2.95786-2.95785 2.95786-1.63357 0-2.95784-1.3276-2.95784-2.95786zm9.2961 0c0-1.63357 1.3276-2.95785 2.95785-2.95785 1.6336 0 2.9579 1.3276 2.9579 2.95786 0 1.63358-1.3276 2.95786-2.95785 2.95786-1.63356 0-2.95784-1.3276-2.95784-2.95786zm9.60597 0c0-1.63357 1.3276-2.95785 2.95785-2.95785 1.63358 0 2.95786 1.3276 2.95786 2.95786 0 1.63358-1.3276 2.95786-2.95786 2.95786-1.63357 0-2.95785-1.3276-2.95785-2.95786z"/>
  </g>
</g>
<g class="-ask-file">
<g id="ask-file">
	<path d="M24,38c-1.654,0-3-1.346-3-3s1.346-3,3-3s3,1.346,3,3S25.654,38,24,38z M24,34c-0.551,0-1,0.448-1,1   s0.449,1,1,1s1-0.448,1-1S24.551,34,24,34z"/>
	<path d="M23.833,29.5c-0.552,0-1-0.447-1-1v-0.663c0-2.53,1.236-4.886,3.227-6.147   c1.234-0.783,1.96-2.122,1.939-3.583c-0.03-2.195-1.911-4.075-4.106-4.105c-1.109,0.012-2.185,0.41-2.985,1.198   c-0.801,0.789-1.242,1.844-1.242,2.968c0,0.553-0.448,1-1,1s-1-0.447-1-1c0-1.664,0.653-3.224,1.837-4.392   s2.758-1.787,4.417-1.774c3.306,0.046,6.033,2.772,6.079,6.078c0.03,2.16-1.042,4.142-2.869,5.3   c-1.417,0.898-2.297,2.606-2.297,4.458V28.5C24.833,29.053,24.386,29.5,23.833,29.5z"/>
	<path d="M40,47H8c-1.654,0-3-1.346-3-3V4c0-1.654,1.346-3,3-3h25c0.284,0,0.554,0.12,0.743,0.331l9,10   C42.909,11.515,43,11.753,43,12v32C43,45.654,41.654,47,40,47z M8,3C7.449,3,7,3.448,7,4v40c0,0.552,0.449,1,1,1h32   c0.551,0,1-0.448,1-1V12.384L32.555,3H8z"/>
	<path d="M42,13h-9c-0.552,0-1-0.447-1-1V3h2v8h8V13z"/>
</g>
</g>
<g class="-board-edit">
<g id="board-edit">
	<path d="M31.207,45.222c-0.262,0-0.518-0.103-0.707-0.293c-0.252-0.251-0.351-0.617-0.26-0.962l1.453-5.521   c0.045-0.171,0.135-0.327,0.26-0.452l8.133-8.134c0.391-0.391,1.023-0.391,1.414,0l4.067,4.067c0.391,0.391,0.391,1.023,0,1.414   l-8.134,8.134c-0.125,0.125-0.281,0.215-0.452,0.26l-5.52,1.453C31.378,45.211,31.292,45.222,31.207,45.222z M33.559,39.217   l-0.948,3.602l3.601-0.948l7.235-7.235l-2.653-2.653L33.559,39.217z"/>
	
		<rect x="32.42" y="39.829" transform="matrix(0.7224 0.6915 -0.6915 0.7224 37.8342 -12.5808)" width="4.33" height="2"/>
	<path d="M32,13H12c-0.313,0-0.609-0.147-0.799-0.397c-0.188-0.251-0.249-0.575-0.163-0.877l2-7   C13.161,4.296,13.554,4,14,4h4c0-2.206,1.794-4,4-4s4,1.794,4,4h4c0.446,0,0.839,0.296,0.962,0.726l2,7   c0.086,0.302,0.025,0.626-0.163,0.877C32.609,12.853,32.313,13,32,13z M13.326,11h17.348l-1.428-5H25c-0.553,0-1-0.447-1-1V4   c0-1.103-0.897-2-2-2s-2,0.897-2,2v1c0,0.553-0.447,1-1,1h-4.246L13.326,11z"/>
	<path d="M29,47H7c-2.206,0-4-1.794-4-4V9c0-2.206,1.794-4,4-4h6v2H7C5.897,7,5,7.897,5,9v34c0,1.103,0.897,2,2,2   h22V47z"/>
	<path d="M41,25h-2V9c0-1.103-0.897-2-2-2h-6V5h6c2.206,0,4,1.794,4,4V25z"/>
	<path d="M28,43H15c-0.266,0-0.52-0.105-0.707-0.293l-7-7C7.105,35.52,7,35.266,7,35V10.008c0-0.553,0.447-1,1-1h5   v2H9v23.578L15.414,41H28V43z"/>
	<path d="M37,24h-2V11.008h-4v-2h5c0.553,0,1,0.447,1,1V24z"/>
	<path d="M16,42h-2v-6H8v-2h7c0.553,0,1,0.447,1,1V42z"/>
	<rect x="13" y="19" width="7" height="2"/>
	<rect x="13" y="24" width="17" height="2"/>
	<rect x="13" y="29" width="14" height="2"/>
</g>
</g>
<g class="-categories">
<g id="categories" transform="translate(565.000000, 44.000000)">
	<path class="categories__folder" d="M-522.6078-36.9825c-0.2591-1.1031-1.5289-2.0032-2.8243-2.0032h-15.9045   c-1.2931,0-3.1043-0.7973-4.0193-1.7725l-1.3911-1.4742c-0.915-0.9753-2.7239-1.7675-4.017-1.7675h-7.5975   c-1.2954,0-2.4718,1.1207-2.6142,2.4921l-0.6816,7.5365h39.5185L-522.6078-36.9825L-522.6078-36.9825z"/>
	<path class="categories__paper" fill="#FFFFFF" d="M-561.8635-39.742c-0.7003-0.0613-1.3055,0.5373-1.3036,1.2932l0.0294,21.4301   c-0.0001,0.8731,0.6216,1.5968,1.4344,1.6679l33.988,2.9736c0.8128,0.0711,1.5486-0.5338,1.7023-1.3935l3.7502-21.0994   c0.1332-0.744-0.359-1.4386-1.0592-1.4999L-561.8635-39.742L-561.8635-39.742z"/>
	<path class="categories__paper" fill="#FFFFFF" d="M-560.7941-35.1322c-0.7002,0.0613-1.1924,0.7559-1.0592,1.4999l3.7502,21.0994   c0.1516,0.8599,0.8895,1.4646,1.7023,1.3935l33.988-2.9736c0.8129-0.0711,1.4324-0.7946,1.4344-1.6679l0.0294-21.4301   c0.002-0.7559-0.6033-1.3544-1.3036-1.2932L-560.7941-35.1322L-560.7941-35.1322z"/>
	<path class="categories__folder" d="M-563.6468-32.8571c-0.7983,0-1.4238,0.7371-1.3468,1.592l2.1544,24.2416   c0.0864,0.9878,0.8613,1.745,1.788,1.745h38.7459c0.9266,0,1.6992-0.7572,1.7879-1.745l2.1544-24.2416   c0.077-0.8549-0.5485-1.592-1.3468-1.592H-563.6468z"/>
</g>
</g>
<g class="-check-with-border">
  <title>
    check-with-border
  </title>
  <g id="check-with-border" transform="translate(3 3)">
    <ellipse fill="none" fill-rule="evenodd" stroke="currentColor" stroke-width="3" cx="20.96574" cy="20.96574" rx="20.96574" ry="20.96574"/>
    <path d="M10.0950558,29.1482995 C10.8797539,29.9269189 12.1477323,29.91467 12.9158927,29.1324195 L22.8574,19.0085589 C23.6306071,18.2211692 24.9086272,18.2042444 25.6988477,18.9582657 L29.2389199,22.3361708 C30.035001,23.0957843 31.2981389,23.0756419 32.068633,22.2825187 L32.2051386,22.142004 C32.9718648,21.3527593 32.9479888,20.0936236 32.1467704,19.32481 L25.6498094,13.090615 C24.8508472,12.3239665 23.5702613,12.3460912 22.8005159,13.128871 L9.95537367,26.1915243 C9.18071445,26.9793011 9.18839874,28.2486658 9.9735507,29.0277356 L10.0950558,29.1482995 Z" id="Path" fill="currentColor" transform="translate(21.071818, 21.128693) scale(-1, -1) translate(-21.071818, -21.128693) "/>
  </g>
</g>
<g class="-check">
    <!-- Generator: Sketch 3.8.3 (29802) - http://www.bohemiancoding.com/sketch -->
    <title>check</title>
    <desc>Created with Sketch.</desc>
    <defs/>
    <g id="check" stroke="none" stroke-width="1" fill="none" fill-rule="evenodd">
        <path d="M0.824056194,14.5726523 C1.60584855,15.3483885 2.86333934,15.3420834 3.63455864,14.5567179 L11.8587648,6.18165837 C12.62917,5.39712184 13.9014742,5.37922301 14.6979727,6.13923477 L17.3615817,8.68082663 C18.1592277,9.44193325 19.4283055,9.41819274 20.1974828,8.62642494 L19.932337,8.89935798 C20.700916,8.10820614 20.673432,6.84262122 19.8821394,6.08333201 L14.6486407,1.06149931 C13.8523384,0.297402956 12.5724404,0.323089801 11.8099641,1.09847731 L1.07504371,12.0151757 C0.303588289,12.7996944 0.31135936,14.063927 1.09376039,14.8402672 L0.824056194,14.5726523 Z" id="check" fill="#417683" transform="translate(10.500000, 7.826229) rotate(-180.000000) translate(-10.500000, -7.826229) "/>
    </g>
</g>
<g class="-close-no-fill">
  <title>
    X
  </title>
  <g id="close-no-fill" transform="translate(2 2)" fill="none" fill-rule="evenodd">
    <circle stroke="currentColor" stroke-width="3" cx="22" cy="22" r="22"/>
    <path d="M22.5141906 18.7458824l-5.026615-5.026615c-1.0337678-1.0337678-2.7255145-1.0383855-3.766104.002204-1.0384723 1.0384723-1.0415765 2.726732-.0022043 3.766104l5.026615 5.0266152-5.026615 5.026615c-1.0337677 1.0337678-1.0383854 2.7255145.0022042 3.766104 1.0384722 1.0384723 2.7267318 1.0415765 3.766104.0022043l5.026615-5.0266153 5.0266152 5.026615c1.0337677 1.0337678 2.7255144 1.0383855 3.766104-.002204 1.0384722-1.0384723 1.0415764-2.726732.0022042-3.766104l-5.0266153-5.0266152 5.026615-5.026615c1.0337678-1.0337678 1.0383855-2.7255145-.002204-3.766104-1.0384723-1.0384723-2.726732-1.0415765-3.766104-.0022043l-5.0266152 5.026615z" fill="currentColor"/>
  </g>
</g>
<g class="-close-with-shadow">
  <title>
    Invite
  </title>
  <g id="close-with-shadow" fill="none" fill-rule="evenodd">
    <g id="Close">
      <g id="Oval-73" transform="translate(3 1)">
        <use fill="#000" filter="url(#filter-2)" xlink:href="#path-1"/>
        <use fill="currentColor" xlink:href="#path-1"/>
      </g>
      <path d="M26.022 20.672l4.006-4.006c.788-.787.787-2.052.006-2.833l-.195-.195c-.788-.787-2.05-.778-2.834.006L23 17.65l-4.006-4.006c-.787-.788-2.052-.787-2.833-.006l-.194.195c-.788.787-.778 2.05.006 2.833l4.006 4.006-4.006 4.006c-.788.787-.787 2.053-.006 2.833l.195.196c.788.788 2.05.778 2.834-.006L23 23.695l4.006 4.005c.787.788 2.052.787 2.833.006l.194-.195c.788-.786.778-2.048-.006-2.832l-4.006-4.006z" fill="#fff"/>
    </g>
  </g>
</g>
<g class="-close">
  <title>
    Close
  </title>
  <g id="close" transform="translate(2 2)">
    <circle class="close__outline" fill="currentColor" cx="23" cy="23" r="23"/>
    <path fill="FFFFFF" d="M23 19.06l-5.255-5.255c-1.08-1.08-2.85-1.085-3.937.003-1.086 1.085-1.09 2.85-.003 3.937L19.06 23l-5.255 5.255c-1.08 1.08-1.085 2.85.003 3.937 1.085 1.086 2.85 1.09 3.937.003L23 26.94l5.255 5.255c1.08 1.08 2.85 1.085 3.937-.003 1.086-1.085 1.09-2.85.003-3.937L26.94 23l5.255-5.255c1.08-1.08 1.085-2.85-.003-3.937-1.085-1.086-2.85-1.09-3.937-.003L23 19.06z"/>
  </g>
</g>
<g class="-division">
    <!-- Generator: Sketch 3.4.3 (16618) - http://www.bohemiancoding.com/sketch -->

    <g id="New-Division">
        <g id="division" transform="translate(0.105138, 0.453626)">
            <path d="M36.2486891,32.2207888 L36.2486891,25.6384794 C36.2486891,23.8239561 34.9364669,22.3473247 33.323974,22.3473247 L9.92625351,22.3473247 C8.31376058,22.3473247 7.00153843,23.8239561 7.00153843,25.6384794 L7.00153843,32.2207888 L5.05172838,32.2207888 L5.05172838,25.6384794 C5.05172838,22.6139082 7.23844035,20.1532216 9.92625351,20.1532216 L33.323974,20.1532216 C36.0117872,20.1532216 38.1984991,22.6139082 38.1984991,25.6384794 L38.1984991,32.2207888 L36.2486891,32.2207888 Z" id="Fill-1"/>
            <path d="M20.6502087,12.4738607 L22.6000188,12.4738607 L22.6000188,32.2207888 L20.6502087,32.2207888 L20.6502087,12.4738607 L20.6502087,12.4738607 Z" id="Fill-2"/>
            <path d="M25.5247338,13.5709123 L17.7254937,13.5709123 C16.1130008,13.5709123 14.8007786,12.0942809 14.8007786,10.2797576 L14.8007786,3.6974482 C14.8007786,1.88292492 16.1130008,0.406293523 17.7254937,0.406293523 L25.5247338,0.406293523 C27.1372267,0.406293523 28.4494489,1.88292492 28.4494489,3.6974482 L28.4494489,10.2797576 C28.4494489,12.0942809 27.1372267,13.5709123 25.5247338,13.5709123 L25.5247338,13.5709123 L25.5247338,13.5709123 Z M17.7254937,2.60039664 C17.1873461,2.60039664 16.7505886,3.0929728 16.7505886,3.6974482 L16.7505886,10.2797576 C16.7505886,10.884233 17.1873461,11.3768091 17.7254937,11.3768091 L25.5247338,11.3768091 C26.0628814,11.3768091 26.4996389,10.884233 26.4996389,10.2797576 L26.4996389,3.6974482 C26.4996389,3.0929728 26.0628814,2.60039664 25.5247338,2.60039664 L17.7254937,2.60039664 L17.7254937,2.60039664 L17.7254937,2.60039664 Z" id="Fill-3"/>
            <path d="M24.5498288,43.1913044 L18.7003987,43.1913044 C17.0879058,43.1913044 15.7756836,41.714673 15.7756836,39.9001497 L15.7756836,34.4148919 C15.7756836,32.6003686 17.0879058,31.1237372 18.7003987,31.1237372 L24.5498288,31.1237372 C26.1623217,31.1237372 27.4745439,32.6003686 27.4745439,34.4148919 L27.4745439,39.9001497 C27.4745439,41.714673 26.1623217,43.1913044 24.5498288,43.1913044 L24.5498288,43.1913044 L24.5498288,43.1913044 Z M18.7003987,33.3178403 C18.1622511,33.3178403 17.7254937,33.8104165 17.7254937,34.4148919 L17.7254937,39.9001497 C17.7254937,40.5046251 18.1622511,40.9972013 18.7003987,40.9972013 L24.5498288,40.9972013 C25.0879764,40.9972013 25.5247338,40.5046251 25.5247338,39.9001497 L25.5247338,34.4148919 C25.5247338,33.8104165 25.0879764,33.3178403 24.5498288,33.3178403 L18.7003987,33.3178403 L18.7003987,33.3178403 L18.7003987,33.3178403 Z" id="Fill-4"/>
            <path d="M40.1483092,43.1913044 L34.298879,43.1913044 C32.6863861,43.1913044 31.374164,41.714673 31.374164,39.9001497 L31.374164,34.4148919 C31.374164,32.6003686 32.6863861,31.1237372 34.298879,31.1237372 L40.1483092,31.1237372 C41.760802,31.1237372 43.0730243,32.6003686 43.0730243,34.4148919 L43.0730243,39.9001497 C43.0730243,41.714673 41.760802,43.1913044 40.1483092,43.1913044 L40.1483092,43.1913044 L40.1483092,43.1913044 Z M34.298879,33.3178403 C33.7607314,33.3178403 33.323974,33.8104165 33.323974,34.4148919 L33.323974,39.9001497 C33.323974,40.5046251 33.7607314,40.9972013 34.298879,40.9972013 L40.1483092,40.9972013 C40.6864567,40.9972013 41.1232142,40.5046251 41.1232142,39.9001497 L41.1232142,34.4148919 C41.1232142,33.8104165 40.6864567,33.3178403 40.1483092,33.3178403 L34.298879,33.3178403 L34.298879,33.3178403 L34.298879,33.3178403 Z" id="Fill-5"/>
            <path d="M8.95134844,43.1913044 L3.10191834,43.1913044 C1.48942543,43.1913044 0.177203274,41.714673 0.177203274,39.9001497 L0.177203274,34.4148919 C0.177203274,32.6003686 1.48942543,31.1237372 3.10191834,31.1237372 L8.95134844,31.1237372 C10.5638414,31.1237372 11.8760635,32.6003686 11.8760635,34.4148919 L11.8760635,39.9001497 C11.8760635,41.714673 10.5638414,43.1913044 8.95134844,43.1913044 L8.95134844,43.1913044 L8.95134844,43.1913044 Z M3.10191834,33.3178403 C2.56377077,33.3178403 2.12701332,33.8104165 2.12701332,34.4148919 L2.12701332,39.9001497 C2.12701332,40.5046251 2.56377077,40.9972013 3.10191834,40.9972013 L8.95134844,40.9972013 C9.48949602,40.9972013 9.92625351,40.5046251 9.92625351,39.9001497 L9.92625351,34.4148919 C9.92625351,33.8104165 9.48949602,33.3178403 8.95134844,33.3178403 L3.10191834,33.3178403 L3.10191834,33.3178403 L3.10191834,33.3178403 Z" id="Fill-6"/>
        </g>
    </g>
           
</g>
<g class="-edit-user">
<g id="edit-user">
	<path d="M23.979,29.805c-5.541,0-9.414-6.667-10.339-9.385c-0.051-0.032-0.106-0.065-0.16-0.099   c-0.359-0.224-0.598-0.372-0.754-0.648c-1.332-2.357-1.685-4.243-1.048-5.605c0.306-0.654,0.769-1.048,1.175-1.283   c-0.002-1.019,0.071-2.968,0.573-4.862c0.021-0.075,2.006-7.073,10.553-7.073S34.511,7.848,34.53,7.919   c0.502,1.896,0.576,3.847,0.574,4.865c0.405,0.235,0.868,0.629,1.174,1.283c0.637,1.363,0.284,3.249-1.048,5.606   c-0.153,0.275-0.393,0.424-0.756,0.65c-0.053,0.033-0.107,0.066-0.158,0.098C33.395,23.136,29.522,29.805,23.979,29.805z    M14.374,18.522c0.049,0.031,0.104,0.065,0.161,0.1c0.469,0.291,0.807,0.501,0.932,0.945c0.502,1.74,3.91,8.237,8.512,8.237   c4.604,0,8.01-6.497,8.512-8.242c0.128-0.441,0.464-0.65,0.929-0.939c0.058-0.036,0.114-0.07,0.163-0.101   c1.234-2.25,1.04-3.253,0.896-3.585c-0.178-0.406-0.55-0.505-0.592-0.515c-0.47-0.112-0.82-0.551-0.794-1.033   c0.001-0.026,0.13-2.596-0.494-4.955c-0.062-0.22-1.64-5.585-8.619-5.585s-8.558,5.365-8.621,5.594   c-0.623,2.35-0.493,4.92-0.492,4.945c0.027,0.502-0.322,0.947-0.817,1.038c-0.019,0.005-0.392,0.104-0.568,0.511   C13.334,15.27,13.14,16.274,14.374,18.522z"/>
	<path d="M21.286,47.19c-11.146,0-18.776-1.907-19.12-1.995c-0.46-0.117-0.774-0.542-0.752-1.017   c0.478-10.023,6.721-13.135,11.375-14.604c3.629-1.146,5.529-3,5.548-3.019c0.393-0.388,1.025-0.386,1.414,0.006   c0.389,0.393,0.387,1.025-0.006,1.415c-0.091,0.09-2.268,2.216-6.354,3.505c-4.549,1.436-9.248,3.989-9.924,11.958   c2.457,0.528,10.305,1.998,20.483,1.712c0.552-0.021,1.013,0.419,1.028,0.972c0.015,0.552-0.42,1.012-0.972,1.027   C23.079,47.178,22.171,47.19,21.286,47.19z"/>
	<path d="M29.207,47.221c-0.262,0-0.518-0.103-0.707-0.293c-0.252-0.251-0.351-0.618-0.26-0.961l1.703-6.47   c0.045-0.171,0.135-0.328,0.26-0.453l8.171-8.172c1.107-1.105,3.033-1.105,4.139-0.001l2.043,2.044   c1.141,1.141,1.141,2.998,0,4.138l-8.172,8.172c-0.125,0.125-0.281,0.215-0.452,0.26l-6.47,1.703   C29.377,47.21,29.292,47.221,29.207,47.221z M31.809,40.268l-1.198,4.55l4.551-1.198l7.98-7.981c0.361-0.361,0.361-0.949,0-1.31   l-2.043-2.043c-0.35-0.349-0.961-0.351-1.311,0.001L31.809,40.268z"/>
	<path d="M35,45c-0.249,0-0.498-0.092-0.691-0.278l-3.666-3.51c-0.399-0.382-0.413-1.015-0.031-1.414   c0.383-0.399,1.018-0.412,1.414-0.031l3.666,3.51c0.399,0.382,0.413,1.015,0.031,1.414C35.526,44.896,35.263,45,35,45z"/>
	<path d="M34.867,31.53c-0.1,0-0.201-0.015-0.301-0.047c-4.086-1.29-6.265-3.416-6.355-3.505   c-0.392-0.389-0.395-1.022-0.006-1.414c0.389-0.393,1.019-0.396,1.412-0.009c0.029,0.029,1.966,1.89,5.551,3.021   c0.526,0.166,0.819,0.728,0.653,1.254C35.687,31.257,35.292,31.53,34.867,31.53z"/>
</g>
</g>
<g class="-edit">
<g id="edit">
	<g>
		<path d="M36,45H11c-0.3413696,0-0.6740112-0.0352783-1-0.090332V12h20c0.5522461,0,1-0.4472656,1-1    s-0.4477539-1-1-1H8.5c-1.9261475,0-3.4932251-1.5648804-3.4989624-3.4897461C5.0067749,4.5736694,6.5826416,3,8.5200195,3H12    h18c0.5522461,0,1-0.4472656,1-1s-0.4477539-1-1-1H12H8.5200195H8.5C5.4672852,1,3,3.4677734,3,6.5    c0,0.003479,0,0.0067749,0,0.0102539s0,0.0067749,0,0.0102539V39c0,4.4111328,3.5888672,8,8,8h25c0.5522461,0,1-0.4472656,1-1    S36.5522461,45,36,45z M5,39V10.7391968c0.8306885,0.6871338,1.8665771,1.1326904,3,1.2354736v32.213562    C6.2095947,43.1488647,5,41.2151489,5,39z"/>
		<path d="M30,4H9C8.4477539,4,8,4.4472656,8,5s0.4477539,1,1,1h21c0.5522461,0,1-0.4472656,1-1S30.5522461,4,30,4    z"/>
		<path d="M30,7H9C8.4477539,7,8,7.4472656,8,8s0.4477539,1,1,1h21c0.5522461,0,1-0.4472656,1-1S30.5522461,7,30,7    z"/>
		<path d="M42.472168,0H37.527832C35.03125,0,33,2.3740234,33,4.8710938V9v0.3427734V35    c0,0.1157227,0.0297241,0.2227783,0.0658569,0.3261719c-0.0917358,0.2585449-0.0856323,0.5499878,0.0562134,0.8095703l6,11    c0.175293,0.3212891,0.512207,0.5214844,0.8779297,0.5214844s0.7026367-0.2001953,0.8779297-0.5214844l6-11    c0.1418457-0.2595825,0.1479492-0.5510254,0.0562134-0.8095703C46.9702759,35.2227783,47,35.1157227,47,35V9.3427734V9    V4.8710938C47,2.3740234,44.96875,0,42.472168,0z M42.4923096,40h-4.9846191l-2.1817627-4h1.7432861    c0.140686,0.382019,0.500061,0.6572266,0.9307861,0.6572266S38.7901001,36.382019,38.9307861,36h2.1384277    c0.140686,0.382019,0.500061,0.6572266,0.9307861,0.6572266S42.7901001,36.382019,42.9307861,36h1.7432861L42.4923096,40z     M45,35h-2V10h2V35z M41,35h-2V10h2V35z M37,35h-2V10h2V35z M37.527832,2h4.9443359C43.8662109,2,45,3.4765625,45,4.8710938V8    H35V4.8710938C35,3.4765625,36.1337891,2,37.527832,2z M40,44.5693359L38.5985718,42h2.8028564L40,44.5693359z"/>
		<path d="M29,19c0.5522461,0,1-0.4472656,1-1s-0.4477539-1-1-1H18c-0.5522461,0-1,0.4472656-1,1v11    c0,0.5527344,0.4477539,1,1,1h11c0.5522461,0,1-0.4472656,1-1s-0.4477539-1-1-1H19v-9H29z"/>
	</g>
</g>
</g>
<g class="-folder-search">
<g id="folder-search">
	<rect x="4" y="44" width="25" height="2"/>
	<path d="M4.613,46H4c-1.654,0-3-1.346-3-3V4c0-0.552,0.448-1,1-1h15.757c1.068,0,2.073,0.416,2.829,1.172L25.414,9   H44c0.552,0,1,0.448,1,1v6h-2v-5H25c-0.265,0-0.52-0.105-0.707-0.293l-5.121-5.121C18.794,5.208,18.292,5,17.757,5H3v38   c0,0.551,0.449,1,1,1h0.613c0.937,0,1.738-0.637,1.949-1.55l5.463-23.675C12.13,18.321,12.534,18,13,18h33   c0.308,0,0.599,0.142,0.788,0.385s0.257,0.559,0.182,0.858l-2,8l-1.94-0.485L44.719,20H13.795L8.511,42.9   C8.09,44.725,6.487,46,4.613,46z"/>
	<path d="M39.358,44.499c-1.958,0-3.8-0.763-5.185-2.148c-1.385-1.384-2.148-3.226-2.148-5.184   s0.763-3.8,2.148-5.184c1.385-1.385,3.226-2.148,5.185-2.148s3.8,0.763,5.185,2.148c2.858,2.858,2.858,7.51,0,10.368   C43.158,43.736,41.317,44.499,39.358,44.499z M39.358,31.835c-1.424,0-2.763,0.555-3.771,1.562   c-1.007,1.007-1.562,2.346-1.562,3.77s0.555,2.763,1.562,3.77c1.007,1.007,2.346,1.562,3.771,1.562s2.763-0.555,3.771-1.562   c2.079-2.079,2.079-5.461,0-7.54C42.122,32.39,40.783,31.835,39.358,31.835z"/>
	<path d="M31.974,45.552c-0.256,0-0.512-0.098-0.707-0.293c-0.391-0.391-0.391-1.023,0-1.414l2.468-2.468   c0.391-0.391,1.023-0.391,1.414,0s0.391,1.023,0,1.414l-2.468,2.468C32.485,45.454,32.229,45.552,31.974,45.552z"/>
</g>
</g>
<g class="-folder">
  <title>
    Folder Icon
  </title>
  <g id="folder">
    <path d="M36.8239 5.6026c-.2222-.8807-1.311-1.5993-2.422-1.5993H20.7627c-1.1089 0-2.6622-.6365-3.4468-1.4152l-1.193-1.177C15.3381.6325 13.7869 0 12.678 0H6.1626C5.0517 0 4.0428.8947 3.9207 1.9896l-.5845 6.017h33.89l-.4023-2.404zm2.0156 4.4057H1.1604c-.6846 0-1.221.5885-1.155 1.271l1.8475 19.354c.0741.7887.7386 1.3932 1.5333 1.3932h33.2274c.7947 0 1.4572-.6045 1.5333-1.3932l1.8475-19.354c.0661-.6826-.4703-1.271-1.1549-1.271z"/>
  </g>
</g>
<g class="-game-2">
<g id="game-2">
	<path d="M24,15c-2.8,0-5-2.2-5-5s2.2-5,5-5s5,2.2,5,5S26.8,15,24,15z M24,7c-1.7,0-3,1.3-3,3s1.3,3,3,3s3-1.3,3-3   S25.7,7,24,7z"/>
	<path d="M10,15c-2.8,0-5-2.2-5-5s2.2-5,5-5s5,2.2,5,5S12.8,15,10,15z M10,7c-1.7,0-3,1.3-3,3s1.3,3,3,3s3-1.3,3-3   S11.7,7,10,7z"/>
	<path d="M38,15c-2.8,0-5-2.2-5-5s2.2-5,5-5s5,2.2,5,5S40.8,15,38,15z M38,7c-1.7,0-3,1.3-3,3s1.3,3,3,3s3-1.3,3-3   S39.7,7,38,7z"/>
	<path d="M24,29c-2.8,0-5-2.2-5-5s2.2-5,5-5s5,2.2,5,5S26.8,29,24,29z M24,21c-1.7,0-3,1.3-3,3s1.3,3,3,3s3-1.3,3-3   S25.7,21,24,21z"/>
	<path d="M10,29c-2.8,0-5-2.2-5-5s2.2-5,5-5s5,2.2,5,5S12.8,29,10,29z M10,21c-1.7,0-3,1.3-3,3s1.3,3,3,3s3-1.3,3-3   S11.7,21,10,21z"/>
	<path d="M38,29c-2.8,0-5-2.2-5-5s2.2-5,5-5s5,2.2,5,5S40.8,29,38,29z M38,21c-1.7,0-3,1.3-3,3s1.3,3,3,3s3-1.3,3-3   S39.7,21,38,21z"/>
	<path d="M24,43c-2.8,0-5-2.2-5-5s2.2-5,5-5s5,2.2,5,5S26.8,43,24,43z M24,35c-1.7,0-3,1.3-3,3s1.3,3,3,3s3-1.3,3-3   S25.7,35,24,35z"/>
	<path d="M10,43c-2.8,0-5-2.2-5-5s2.2-5,5-5s5,2.2,5,5S12.8,43,10,43z M10,35c-1.7,0-3,1.3-3,3s1.3,3,3,3s3-1.3,3-3   S11.7,35,10,35z"/>
	<path d="M38,43c-2.8,0-5-2.2-5-5s2.2-5,5-5s5,2.2,5,5S40.8,43,38,43z M38,35c-1.7,0-3,1.3-3,3s1.3,3,3,3s3-1.3,3-3   S39.7,35,38,35z"/>
	<path d="M38,39H24c-0.6,0-1-0.4-1-1s0.4-1,1-1h13V25H10c-0.6,0-1-0.4-1-1V10c0-0.6,0.4-1,1-1h14c0.6,0,1,0.4,1,1   s-0.4,1-1,1H11v12h27c0.6,0,1,0.4,1,1v14C39,38.6,38.6,39,38,39z"/>
</g>
</g>
<g class="-gift">
<g id="gift">
	<path d="M33,46H3c-0.552,0-1-0.448-1-1V15c0-0.552,0.448-1,1-1h30c0.552,0,1,0.448,1,1v30   C34,45.552,33.552,46,33,46z M4,44h28V16H4V44z"/>
	<path d="M33,46c-0.256,0-0.512-0.098-0.707-0.293c-0.391-0.391-0.391-1.023,0-1.414L44,32.586V4H15.414   L3.707,15.707c-0.391,0.391-1.023,0.391-1.414,0s-0.391-1.023,0-1.414l12-12C14.48,2.105,14.735,2,15,2h30c0.552,0,1,0.448,1,1v30   c0,0.265-0.105,0.52-0.293,0.707l-12,12C33.512,45.902,33.256,46,33,46z"/>
	<path d="M36,23c-0.063,0-0.126-0.006-0.189-0.018c-0.326-0.063-0.6-0.283-0.73-0.588l-3-7   c-0.161-0.376-0.077-0.812,0.212-1.101l11-11c0.286-0.287,0.715-0.373,1.09-0.217C44.756,3.231,45,3.596,45,4v10   c0,0.265-0.105,0.52-0.293,0.707l-8,8C36.518,22.896,36.263,23,36,23z M34.186,15.229l2.151,5.02L43,13.586V6.414L34.186,15.229z"/>
	<path d="M17,46c-0.552,0-1-0.448-1-1V14.5c0-0.265,0.105-0.52,0.293-0.707l11.5-11.5   c0.391-0.391,1.023-0.391,1.414,0s0.391,1.023,0,1.414L18,14.914V45C18,45.552,17.552,46,17,46z"/>
	<path d="M14.654,30.028C14.654,30.028,14.654,30.028,14.654,30.028c-2.169,0-4.576-1.227-5.479-2.792   C8.652,26.33,8.638,25.358,9.134,24.5c0.495-0.856,1.292-1.328,2.246-1.328c2.552,0,5.753,3.47,6.369,4.166   c0.306,0.346,0.335,0.856,0.071,1.235C17.165,29.511,16.041,30.028,14.654,30.028z M11.38,25.172c-0.206,0-0.355,0.054-0.515,0.329   c-0.095,0.164-0.164,0.379,0.042,0.736c0.541,0.938,2.326,1.792,3.746,1.792c0,0,0,0,0,0c0.268,0,0.583-0.029,0.871-0.13   C14.207,26.587,12.4,25.172,11.38,25.172z"/>
	<path d="M23,35c-0.226,0-0.453-0.076-0.64-0.232l-6-5c-0.424-0.354-0.481-0.984-0.128-1.408   c0.354-0.423,0.984-0.482,1.408-0.128l6,5c0.424,0.354,0.481,0.984,0.128,1.408C23.57,34.877,23.286,35,23,35z"/>
	<path d="M19.467,29.816c-1.048,0-1.938-0.354-2.575-1.022c-0.318-0.334-0.367-0.844-0.116-1.231   c0.551-0.854,3.432-5.111,6.085-5.111c0.783,0,1.476,0.348,2.003,1.006c0.67,0.835,0.766,1.916,0.263,2.963   C24.243,28.261,21.651,29.816,19.467,29.816z M19.058,27.781c0.126,0.023,0.263,0.036,0.409,0.036c1.399,0,3.309-1.12,3.857-2.262   c0.247-0.513,0.066-0.738-0.021-0.846c-0.181-0.226-0.32-0.257-0.442-0.257C21.889,24.452,20.216,26.214,19.058,27.781z"/>
	<path d="M12.59,35.942c-0.235,0-0.472-0.083-0.662-0.251c-0.414-0.366-0.452-0.999-0.086-1.412l5.177-5.848   c0.366-0.414,0.999-0.452,1.411-0.086c0.414,0.366,0.452,0.999,0.086,1.412l-5.177,5.848C13.142,35.828,12.866,35.942,12.59,35.942   z"/>
</g>
</g>
<g class="-help">
  <title>
    help icon
  </title>
  <g id="help" transform="translate(1 1)" fill="none" fill-rule="evenodd">
    <ellipse stroke="currentColor" cx="23.41463" cy="23.85158" rx="23.41463" ry="23.41463"/>
    <path d="M18.0059 13.33654C19.34386 11.91232 21.1805 11.2 23.51587 11.2c2.16036 0 3.8902.6092 5.18914 1.82762 1.2994 1.21882 1.9493 2.77573 1.9493 4.67113 0 1.14816-.2354 2.07943-.707 2.79462-.4707.71478-1.4365 1.7656-2.8965 3.15202-1.0619 1.0072-1.7532 1.86-2.0737 2.5588-.3204.6983-.4806 1.7302-.4806 3.0949h-2.892c0-1.5491.1841-2.7971.553-3.7448.3681-.9481 1.1876-2.0334 2.4578-3.2576l1.326-1.2837c.3977-.3681.72018-.7526.9674-1.1539.4503-.7037.675-1.4349.675-2.1933 0-1.0615-.3233-1.9821-.9703-2.7622-.6466-.7797-1.7167-1.16997-3.2095-1.16997-1.84693 0-3.1237.67165-3.8319 2.01453-.39804.74727-.6248 1.8252-.67985 3.2334H16c-.00082-2.33865.66795-4.2209 2.0059-5.6451zm3.53365 18.65986h3.23335v3.3796h-3.23335v-3.3796z" fill="currentColor"/>
  </g>
</g>
<g class="-history">
  <title>
    history
  </title>
  <g id="Page-1" fill="transparent" stroke-linecap="round">
    <g id="history" stroke="currentColor">
      <path d="M33.8722 3.25244c8.46333 3.5461 14.40027 11.8457 14.40027 21.52297 0 12.901-10.55694 23.3599-23.5789 23.3599-13.02194 0-23.57887-10.4589-23.57887-23.3599 0-10.66482 7.21436-19.66075 17.07177-22.45893"/>
      <path id="Shape" d="M33.1692 16.22035V1.24825h15.1094M35.88966 27.72283H22.2093V12.1628"/>
    </g>
  </g>
</g>
<g class="-invite">
  <title>
    Invite
  </title>
  <defs>
    <ellipse id="path-1" cx="20" cy="19.672" rx="20" ry="19.672"/>
    <filter x="-50%" y="-50%" width="200%" height="200%" filterUnits="objectBoundingBox" id="filter-2">
      <feOffset dy="3" in="SourceAlpha" result="shadowOffsetOuter1"/>
      <feGaussianBlur stdDeviation="2" in="shadowOffsetOuter1" result="shadowBlurOuter1"/>
      <feColorMatrix values="0 0 0 0 0 0 0 0 0 0 0 0 0 0 0 0 0 0 0.27 0" in="shadowBlurOuter1"/>
    </filter>
  </defs>
  <g id="Page-1" fill="none" fill-rule="evenodd">
    <g id="invite">
      <g id="Oval-73" fill="currentColor" transform="translate(4 1)">
        <use filter="url(#filter-2)" xlink:href="#path-1"/>
        <use xlink:href="#path-1"/>
      </g>
      <path d="M13.736 13.242c.008-.02.018-.04.028-.06.012-.02.023-.038.038-.055.016-.02.034-.035.055-.05.037-.03.044-.03.05-.035.022-.01.045-.017.07-.023.02-.008.044-.013.066-.015L33.36 13c.046.008.068.012.09.018.025.008.047.014.07.025.033.015.04.026.05.034.02.016.04.03.055.05.015.017.027.036.037.055.01.02.022.038.03.06.006.023.01.047.013.07.002.015.01 14.44.01 14.44 0 .196-.16.355-.355.355H14.068c-.196 0-.354-.158-.354-.354v-14.4c.01-.064.015-.088.022-.11zm.684 13.404c.893-1.324 2.94-4.09 5.772-6.305-2.778-1.87-4.796-4.42-5.772-5.81v12.116zM33.007 14.53c-.977 1.39-2.993 3.94-5.77 5.81 2.827 2.21 4.875 4.972 5.77 6.3V14.53zm-9.292 6.812c4.594-1.587 7.947-6.084 8.995-7.634H14.717c1.048 1.55 4.402 6.047 8.998 7.634zm2.893-.6c-.864.526-1.793.98-2.78 1.31h-.003c-.036.013-.072.02-.11.02-.037 0-.073-.007-.108-.02h-.003c-.987-.33-1.915-.782-2.778-1.31-3.12 2.38-5.35 5.576-6.055 6.658h17.89c-.706-1.082-2.934-4.28-6.052-6.657z" id="Shape" fill="#FFF"/>
    </g>
  </g>
</g>
<g class="-large-phone">

<g id="large-phone">
	<g>
		<path d="M35,40H13c-0.552,0-1-0.448-1-1V5c0-0.552,0.448-1,1-1h22c0.552,0,1,0.448,1,1v34    C36,39.552,35.552,40,35,40z M14,38h20V6H14V38z"/>
	</g>
	<g>
		<path d="M35,48H13c-2.757,0-5-2.243-5-5V5c0-2.757,2.243-5,5-5h22c2.757,0,5,2.243,5,5v38    C40,45.757,37.757,48,35,48z M13,2c-1.654,0-3,1.346-3,3v38c0,1.654,1.346,3,3,3h22c1.654,0,3-1.346,3-3V5    c0-1.654-1.346-3-3-3H13z"/>
	</g>
	<g>
		<circle cx="24" cy="43" r="2"/>
	</g>
</g>
</g>
<g class="-launch">
  <title>
    launch
  </title>
  <g id="launch">
    <path d="M29.93781 16.628166h-5.07756c-.725365 0-1.318846.626165-1.318846 1.391478s.59348 1.391478 1.318847 1.391478h5.07756c.725366 0 1.318847.626166 1.318847 1.39148v22.333225c0 .765313-.59348 1.391478-1.318846 1.391478H3.95654c-.725367 0-1.318848-.626165-1.318848-1.391478V20.8026c0-.765313.59348-1.391478 1.318847-1.391478h5.077554c.725366 0 1.318847-.626165 1.318847-1.391478s-.59348-1.391478-1.318846-1.391478H3.95654C1.78044 16.628166 0 18.50666 0 20.8026v22.333227c0 2.29594 1.780442 4.174435 3.95654 4.174435h25.915326c2.176096 0 3.95654-1.878496 3.95654-4.174435V20.8026c.06594-2.29594-1.7145-4.174434-3.890598-4.174434zM18.26602 31.169114V16.489018c0-4.45273 3.429-8.001 7.583365-8.001h3.494943l-3.16523 3.339548c-.52754.55659-.52754 1.391478 0 1.94807.263768.278295.59348.417443.92319.417443.329713 0 .659424-.13915.923194-.417447l5.40727-5.70506c.527537-.556592.527537-1.39148 0-1.94807L28.02548.417443c-.52754-.55659-1.318847-.55659-1.846385 0-.52754.55659-.52754 1.39148 0 1.94807l3.16523 3.339548h-3.494942c-5.341327 0-9.69352 4.313586-10.221058 9.809925 0 .139148-.065942.208722-.065942.34787v15.30626c.065942.765314.659423 1.39148 1.38479 1.39148.725364 0 1.318845-.626166 1.318845-1.39148z" fill="currentColor" fill-rule="evenodd"/>
  </g>
</g>
<g class="-list">
<g id="list">
	<path d="M41,46H7c-2.8,0-5-2.2-5-5V7c0-2.8,2.2-5,5-5h34c2.8,0,5,2.2,5,5v34C46,43.8,43.8,46,41,46z M7,4   C5.3,4,4,5.3,4,7v34c0,1.7,1.3,3,3,3h34c1.7,0,3-1.3,3-3V7c0-1.7-1.3-3-3-3H7z"/>
	<path d="M45,10H3c-0.6,0-1-0.4-1-1s0.4-1,1-1h42c0.6,0,1,0.4,1,1S45.6,10,45,10z"/>
	<path d="M8,7C7.7,7,7.5,6.9,7.3,6.7C7.1,6.5,7,6.3,7,6s0.1-0.5,0.3-0.7c0.4-0.4,1-0.4,1.4,0C8.9,5.5,9,5.7,9,6   S8.9,6.5,8.7,6.7C8.5,6.9,8.3,7,8,7z"/>
	<path d="M11,7c-0.3,0-0.5-0.1-0.7-0.3C10.1,6.5,10,6.3,10,6s0.1-0.5,0.3-0.7c0.4-0.4,1-0.4,1.4,0   C11.9,5.5,12,5.7,12,6s-0.1,0.5-0.3,0.7C11.5,6.9,11.3,7,11,7z"/>
	<path d="M14,7c-0.3,0-0.5-0.1-0.7-0.3C13.1,6.5,13,6.3,13,6s0.1-0.5,0.3-0.7c0.4-0.4,1-0.4,1.4,0   C14.9,5.5,15,5.7,15,6s-0.1,0.5-0.3,0.7C14.5,6.9,14.3,7,14,7z"/>
	<path d="M10.5,21C8.6,21,7,19.4,7,17.5S8.6,14,10.5,14s3.5,1.6,3.5,3.5S12.4,21,10.5,21z M10.5,16   C9.7,16,9,16.7,9,17.5S9.7,19,10.5,19s1.5-0.7,1.5-1.5S11.3,16,10.5,16z"/>
	<path d="M10.5,30C8.6,30,7,28.4,7,26.5S8.6,23,10.5,23s3.5,1.6,3.5,3.5S12.4,30,10.5,30z M10.5,25   C9.7,25,9,25.7,9,26.5S9.7,28,10.5,28s1.5-0.7,1.5-1.5S11.3,25,10.5,25z"/>
	<path d="M10.5,39C8.6,39,7,37.4,7,35.5S8.6,32,10.5,32s3.5,1.6,3.5,3.5S12.4,39,10.5,39z M10.5,34   C9.7,34,9,34.7,9,35.5S9.7,37,10.5,37s1.5-0.7,1.5-1.5S11.3,34,10.5,34z"/>
	<path d="M39,19H18c-0.6,0-1-0.4-1-1s0.4-1,1-1h21c0.6,0,1,0.4,1,1S39.6,19,39,19z"/>
	<path d="M39,28H18c-0.6,0-1-0.4-1-1s0.4-1,1-1h21c0.6,0,1,0.4,1,1S39.6,28,39,28z"/>
	<path d="M39,37H18c-0.6,0-1-0.4-1-1s0.4-1,1-1h21c0.6,0,1,0.4,1,1S39.6,37,39,37z"/>
</g>
</g>
<g class="-log-out">
  <title>
    Log_out
  </title>
  <g id="log-out" fill="none" fill-rule="evenodd">
    <path d="M23.665 1.118C11.04 1.118.808 11.35.808 23.975c0 12.624 10.233 22.857 22.857 22.857 12.62 0 22.857-10.233 22.857-22.86 0-12.62-10.236-22.854-22.857-22.854z" stroke="currentColor"/>
    <path d="M34.28 23.857l-5.94-5.115v3.07h-6.928v4.09h6.93v3.07l5.94-5.115zm-8.277-8.89V12.43h-9.83c-1.353 0-2.46 1.14-2.46 2.538v17.778c0 1.397 1.107 2.54 2.46 2.54h9.83v-2.54h-9.83V14.968h9.83z" fill="currentColor"/>
  </g>
</g>
<g class="-login">
    <!-- Generator: Sketch 3.4.3 (16618) - http://www.bohemiancoding.com/sketch -->
    <g id="login">
        <path d="M3.13043478,2.08695652 C2.55547826,2.08695652 2.08695652,2.55547826 2.08695652,3.13043478 L2.08695652,44.8695652 C2.08695652,45.4445217 2.55547826,45.9130435 3.13043478,45.9130435 L44.8695652,45.9130435 C45.4445217,45.9130435 45.9130435,45.4445217 45.9130435,44.8695652 L45.9130435,3.13043478 C45.9130435,2.55547826 45.4445217,2.08695652 44.8695652,2.08695652 L3.13043478,2.08695652 Z M44.8695652,48 L3.13043478,48 C1.40452174,48 0,46.5954783 0,44.8695652 L0,3.13043478 C0,1.40452174 1.40452174,0 3.13043478,0 L44.8695652,0 C46.5954783,0 48,1.40452174 48,3.13043478 L48,44.8695652 C48,46.5954783 46.5954783,48 44.8695652,48 L44.8695652,48 Z" id="Fill-1"/>
        <path d="M5.2173913,4.69565217 C4.9293913,4.69565217 4.69565217,4.9293913 4.69565217,5.2173913 C4.69565217,5.5053913 4.9293913,5.73913043 5.2173913,5.73913043 C5.5053913,5.73913043 5.73913043,5.5053913 5.73913043,5.2173913 C5.73913043,4.9293913 5.5053913,4.69565217 5.2173913,4.69565217 M5.2173913,6.7826087 C4.35443478,6.7826087 3.65217391,6.08034783 3.65217391,5.2173913 C3.65217391,4.35443478 4.35443478,3.65217391 5.2173913,3.65217391 C6.08034783,3.65217391 6.7826087,4.35443478 6.7826087,5.2173913 C6.7826087,6.08034783 6.08034783,6.7826087 5.2173913,6.7826087" id="Fill-3"/>
        <path d="M9.39130435,4.69565217 C9.10330435,4.69565217 8.86956522,4.9293913 8.86956522,5.2173913 C8.86956522,5.5053913 9.10330435,5.73913043 9.39130435,5.73913043 C9.67930435,5.73913043 9.91304348,5.5053913 9.91304348,5.2173913 C9.91304348,4.9293913 9.67930435,4.69565217 9.39130435,4.69565217 M9.39130435,6.7826087 C8.52834783,6.7826087 7.82608696,6.08034783 7.82608696,5.2173913 C7.82608696,4.35443478 8.52834783,3.65217391 9.39130435,3.65217391 C10.2542609,3.65217391 10.9565217,4.35443478 10.9565217,5.2173913 C10.9565217,6.08034783 10.2542609,6.7826087 9.39130435,6.7826087" id="Fill-5"/>
        <path d="M13.5652174,4.69565217 C13.2772174,4.69565217 13.0434783,4.9293913 13.0434783,5.2173913 C13.0434783,5.5053913 13.2772174,5.73913043 13.5652174,5.73913043 C13.8532174,5.73913043 14.0869565,5.5053913 14.0869565,5.2173913 C14.0869565,4.9293913 13.8532174,4.69565217 13.5652174,4.69565217 M13.5652174,6.7826087 C12.7022609,6.7826087 12,6.08034783 12,5.2173913 C12,4.35443478 12.7022609,3.65217391 13.5652174,3.65217391 C14.4281739,3.65217391 15.1304348,4.35443478 15.1304348,5.2173913 C15.1304348,6.08034783 14.4281739,6.7826087 13.5652174,6.7826087" id="Fill-7"/>
        <path d="M46.4347826,10.4347826 L0.52173913,10.4347826 L0.52173913,8.34782609 L46.4347826,8.34782609 L46.4347826,10.4347826 Z" id="Fill-9"/>
        <path d="M13.5652174,27.1304348 C12.4142609,27.1304348 11.4782609,26.1944348 11.4782609,25.0434783 L11.4782609,22.9565217 C11.4782609,21.8055652 12.4142609,20.8695652 13.5652174,20.8695652 L34.4347826,20.8695652 C35.5857391,20.8695652 36.5217391,21.8055652 36.5217391,22.9565217 L36.5217391,25.0434783 C36.5217391,26.1944348 35.5857391,27.1304348 34.4347826,27.1304348 L13.5652174,27.1304348 Z M13.5652174,22.9565217 L13.5652174,25.0434783 L34.4358261,25.0434783 L34.4347826,22.9565217 L13.5652174,22.9565217 Z" id="Fill-11"/>
        <path d="M21.9130435,31.3043478 L15.6521739,31.3043478 C15.0761739,31.3043478 14.6086957,30.8368696 14.6086957,30.2608696 C14.6086957,29.6848696 15.0761739,29.2173913 15.6521739,29.2173913 L21.9130435,29.2173913 C22.4890435,29.2173913 22.9565217,29.6848696 22.9565217,30.2608696 C22.9565217,30.8368696 22.4890435,31.3043478 21.9130435,31.3043478" id="Fill-12"/>
        <path d="M32.3478261,31.3043478 L26.0869565,31.3043478 C25.5109565,31.3043478 25.0434783,30.8368696 25.0434783,30.2608696 C25.0434783,29.6848696 25.5109565,29.2173913 26.0869565,29.2173913 L32.3478261,29.2173913 C32.9238261,29.2173913 33.3913043,29.6848696 33.3913043,30.2608696 C33.3913043,30.8368696 32.9238261,31.3043478 32.3478261,31.3043478" id="Fill-13"/>
        <path d="M28.6956522,26.0869565 L28.6956522,21.9130435 C28.6956522,21.3370435 29.1631304,20.8695652 29.7391304,20.8695652 C30.3151304,20.8695652 30.7826087,21.3370435 30.7826087,21.9130435 L30.7826087,26.0869565 C30.7826087,26.6629565 30.3151304,27.1304348 29.7391304,27.1304348 C29.1631304,27.1304348 28.6956522,26.6629565 28.6956522,26.0869565 Z" id="Fill-14"/>
    </g>
</g>
<g class="-mail-open">
<g id="mail-open">
	<path d="M43,47H5c-1.7,0-3-1.3-3-3V21.3c0-1.1,0.5-2.1,1.2-2.9l4-3.8L8.6,16l-4,3.8C4.2,20.2,4,20.7,4,21.3V44   c0,0.6,0.4,1,1,1h38c0.6,0,1-0.4,1-1V21.3c0-0.5-0.2-1.1-0.6-1.4l-4-3.8l1.4-1.4l4,3.8c0.8,0.8,1.2,1.8,1.2,2.9V44   C46,45.7,44.7,47,43,47z"/>
	<path d="M30.3,7.4l-5-4.7c-0.8-0.7-2-0.7-2.8,0l-5,4.7L16.3,6l5-4.7c1.5-1.5,4-1.5,5.5,0l5,4.7L30.3,7.4z"/>
	<path d="M3.7,46.7l-1.4-1.4l13.4-13.4c0.6-0.6,1.3-0.9,2.1-0.9h13.3c0.8,0,1.6,0.3,2.2,1l12.4,13.4l-1.5,1.4   L31.9,33.3c-0.2-0.2-0.5-0.3-0.7-0.3H17.8c-0.3,0-0.5,0.1-0.7,0.3L3.7,46.7z"/>
	
		<rect x="1.3" y="27" transform="matrix(0.7926 0.6097 -0.6097 0.7926 19.042 1.427599e-002)" width="16.4" height="2"/>
	<rect x="38.5" y="20.6" transform="matrix(0.6726 0.74 -0.74 0.6726 33.6509 -20.0629)" width="2" height="14.9"/>
	<path d="M41,27h-2V9c0-0.6-0.4-1-1-1H10C9.4,8,9,8.4,9,9v18H7V9c0-1.7,1.3-3,3-3h28c1.7,0,3,1.3,3,3V27z"/>
	<path d="M20,15h-6c-0.6,0-1-0.4-1-1s0.4-1,1-1h6c0.6,0,1,0.4,1,1S20.6,15,20,15z"/>
	<path d="M34,19H14c-0.6,0-1-0.4-1-1s0.4-1,1-1h20c0.6,0,1,0.4,1,1S34.6,19,34,19z"/>
	<path d="M34,23H14c-0.6,0-1-0.4-1-1s0.4-1,1-1h20c0.6,0,1,0.4,1,1S34.6,23,34,23z"/>
</g>
</g>
<g class="-male-group">
<g id="male-group">
	<path d="M23.667,30.459c-4.486,0-7.162-5.422-7.703-6.963c-0.231-0.151-0.519-0.364-0.739-0.771   c-0.77-1.423-0.974-2.666-0.605-3.693c0.188-0.524,0.492-0.89,0.77-1.132c0.001-0.76,0.062-2.16,0.422-3.521   c0.494-1.834,2.77-5.293,7.856-5.293c5.086,0,7.362,3.459,7.855,5.289c0.355,1.341,0.42,2.719,0.423,3.487   c0.274,0.226,0.536,0.539,0.71,0.948c0.435,1.019,0.246,2.334-0.562,3.911c-0.228,0.444-0.534,0.677-0.739,0.813   C30.759,25.177,28.095,30.459,23.667,30.459z M16.776,19.346c0.004,0-0.195,0.108-0.285,0.395   c-0.144,0.458,0.031,1.181,0.493,2.034c0.259,0.164,0.602,0.383,0.799,0.858c0.015,0.035,0.027,0.07,0.037,0.106   c0.349,1.211,2.697,5.72,5.847,5.72s5.499-4.509,5.848-5.72c0.123-0.484,0.503-0.726,0.686-0.841   c0.1-0.063,0.101-0.066,0.113-0.089c0.691-1.349,0.59-1.975,0.515-2.182c-0.07-0.192-0.198-0.255-0.223-0.266   c-0.442-0.132-0.694-0.536-0.669-0.997c0.001-0.019,0.09-1.824-0.347-3.475c-0.041-0.146-1.133-3.805-5.923-3.805   c-4.79,0-5.881,3.659-5.925,3.815c-0.434,1.64-0.345,3.445-0.344,3.464C17.42,18.791,17.17,19.185,16.776,19.346   C16.776,19.346,16.776,19.346,16.776,19.346z"/>
	<path d="M36.976,45H11.222c-0.763,0-1.495-0.331-2.061-0.932c-0.638-0.677-0.987-1.619-0.934-2.521   c0.247-4.21,1.295-9.332,7.26-11.59c2.497-0.943,3.841-2.213,3.854-2.226c0.398-0.381,1.032-0.369,1.413,0.027   c0.382,0.396,0.373,1.026-0.022,1.41c-0.065,0.063-1.626,1.559-4.537,2.659c-3.866,1.463-5.652,4.405-5.971,9.836   c-0.021,0.353,0.134,0.758,0.393,1.033C10.723,42.81,10.944,43,11.222,43h25.754c0.285,0,0.513-0.197,0.624-0.314   c0.253-0.269,0.398-0.64,0.378-0.969c-0.334-5.489-2.176-8.577-5.971-10.014c-2.884-1.091-4.527-2.499-4.596-2.559   c-0.417-0.362-0.462-0.993-0.1-1.411c0.36-0.415,0.992-0.461,1.409-0.102c0.036,0.031,1.486,1.252,3.995,2.2   c6.003,2.272,7.018,7.802,7.259,11.764c0.053,0.873-0.29,1.793-0.917,2.46C38.483,44.665,37.745,45,36.976,45z"/>
	<path d="M10,38H4.142c-1.573,0-2.975-1.5-3-3.21c-0.049-3.276-0.116-7.765,5.346-9.833   c1.464-0.554,2.836-1.278,3.765-1.812c-1.566-1.473-2.91-3.637-3.287-4.625c-0.24-0.162-0.52-0.371-0.74-0.779   c-0.77-1.422-0.974-2.665-0.606-3.693c0.188-0.527,0.493-0.895,0.771-1.138c0.001-0.761,0.061-2.165,0.422-3.527   c0.494-1.834,2.77-5.295,7.856-5.295c5.095,0,7.368,3.631,7.858,5.551c0.137,0.535-0.186,1.079-0.721,1.216   c-0.536,0.14-1.08-0.187-1.216-0.722c-0.043-0.16-1.136-4.045-5.921-4.045c-4.79,0-5.881,3.661-5.925,3.816   c-0.434,1.641-0.345,3.451-0.344,3.469c0.022,0.424-0.226,0.817-0.619,0.979l0,0c0.004,0-0.197,0.111-0.288,0.4   c-0.145,0.461,0.031,1.185,0.492,2.038c0.029,0.03,0.062,0.047,0.09,0.065c0.18,0.12,0.516,0.342,0.708,0.809   c0.015,0.035,0.027,0.07,0.037,0.106c0.199,0.691,2.019,3.595,3.704,4.628c0.291,0.179,0.471,0.493,0.477,0.834   c0.006,0.342-0.162,0.662-0.446,0.852c-0.102,0.067-2.535,1.676-5.359,2.744c-3.86,1.461-4.111,4.089-4.053,7.933   C3.15,35.363,3.664,36,4.142,36H10c0.552,0,1,0.447,1,1S10.552,38,10,38z"/>
	<path d="M43.548,38H38c-0.552,0-1-0.447-1-1s0.448-1,1-1h5.548c0.478,0,0.992-0.637,1-1.239   c0.058-3.844-0.193-6.472-4.054-7.933c-2.84-1.074-5.287-2.816-5.39-2.891c-0.29-0.208-0.447-0.555-0.413-0.91   s0.256-0.665,0.582-0.813c1.695-0.771,3.397-3.753,3.597-4.444c0.01-0.036,0.022-0.071,0.037-0.106   c0.193-0.466,0.528-0.688,0.708-0.809c0.029-0.019,0.061-0.035,0.09-0.063c0.462-0.856,0.637-1.581,0.493-2.041   c-0.091-0.292-0.295-0.402-0.319-0.414c-0.354-0.179-0.608-0.569-0.587-0.965c0.001-0.018,0.09-1.828-0.347-3.479   c-0.042-0.146-1.133-3.807-5.923-3.807c-4.759,0-5.721,3.857-5.76,4.021c-0.126,0.534-0.664,0.874-1.197,0.748   c-0.536-0.123-0.873-0.652-0.753-1.189c0.431-1.93,2.597-5.58,7.71-5.58c5.086,0,7.362,3.461,7.855,5.291   c0.361,1.365,0.421,2.771,0.423,3.531c0.278,0.243,0.583,0.61,0.771,1.138c0.367,1.028,0.163,2.271-0.607,3.693   c-0.24,0.444-0.55,0.652-0.738,0.777c-0.351,0.947-1.587,3.176-3.226,4.592c0.924,0.562,2.272,1.307,3.701,1.847   c5.462,2.068,5.395,6.557,5.346,9.833C46.523,36.5,45.122,38,43.548,38z"/>
</g>
</g>
<g class="-new-with-shadow">
    <!-- Generator: Sketch 39.1 (31720) - http://www.bohemiancoding.com/sketch -->
    <title>new-with-shadow</title>
    <desc>Created with Sketch.</desc>
    <defs>
        <ellipse id="path-1" cx="20" cy="19.6721311" rx="20" ry="19.6721311"/>
        <filter x="-50%" y="-50%" width="200%" height="200%" filterUnits="objectBoundingBox" id="filter-2">
            <feOffset dx="0" dy="2" in="SourceAlpha" result="shadowOffsetOuter1"/>
            <feGaussianBlur stdDeviation="1.5" in="shadowOffsetOuter1" result="shadowBlurOuter1"/>
            <feColorMatrix values="0 0 0 0 0   0 0 0 0 0   0 0 0 0 0  0 0 0 0.15 0" type="matrix" in="shadowBlurOuter1"/>
        </filter>
    </defs>
    <g id="new-with-shadow" stroke="none" stroke-width="1" fill="none" fill-rule="evenodd">
        <g id="New-2" transform="translate(3.000000, 1.000000)">
            <g id="Oval-73">
                <use fill="black" fill-opacity="1" filter="url(#filter-2)" xlink:href="#path-1"/>
                <use fill="currentColor" fill-rule="evenodd" xlink:href="#path-1"/>
            </g>
            <path d="M22.1371429,17.5349883 L22.1371429,11.8697421 C22.1371429,10.7562937 21.2419442,9.86229506 20.1376608,9.86229506 L19.8623392,9.86229506 C18.7484919,9.86229506 17.8628571,10.7610597 17.8628571,11.8697421 L17.8628571,17.5349883 L12.197611,17.5349883 C11.0841625,17.5349883 10.1901639,18.4301869 10.1901639,19.5344704 L10.1901639,19.8097919 C10.1901639,20.9236392 11.0889286,21.809274 12.197611,21.809274 L17.8628571,21.809274 L17.8628571,27.4745202 C17.8628571,28.5879686 18.7580558,29.4819672 19.8623392,29.4819672 L20.1376608,29.4819672 C21.2515081,29.4819672 22.1371429,28.5832026 22.1371429,27.4745202 L22.1371429,21.809274 L27.802389,21.809274 C28.9158375,21.809274 29.8098361,20.9140754 29.8098361,19.8097919 L29.8098361,19.5344704 C29.8098361,18.4206231 28.9110714,17.5349883 27.802389,17.5349883 L22.1371429,17.5349883 Z" id="Rectangle-352" fill="#FFFFFF" fill-rule="evenodd"/>
        </g>
    </g>
</g>
<g class="-new">
  <title>
    New
  </title>
  <g id="new" transform="translate(2 2)">
    <g id="Oval-73" transform="translate(3 1)">
      <use fill="#000" filter="url(#filter-2)" xlink:href="#path-1"/>
      <use fill="currentColor" xlink:href="#path-1"/>
    </g>
    <circle cx="22" cy="22" r="22" fill="currentColor"/>
    <path fill="FFFFFF" d="M24.665 19.335v-7.108c0-1.462-1.193-2.662-2.665-2.662-1.47 0-2.665 1.192-2.665 2.662v7.108h-7.108c-1.462 0-2.662 1.193-2.662 2.665 0 1.47 1.192 2.665 2.662 2.665h7.108v7.108c0 1.462 1.193 2.662 2.665 2.662 1.47 0 2.665-1.192 2.665-2.662v-7.108h7.108c1.462 0 2.662-1.193 2.662-2.665 0-1.47-1.192-2.665-2.662-2.665h-7.108z"/>
  </g>
</g>
<g class="-not-authorized">
    <!-- Generator: Sketch 3.4.3 (16618) - http://www.bohemiancoding.com/sketch -->
    <title>not-authorized</title>
    <desc>icon to display when attempting to access areas without authorization.</desc>
    <g id="not-authorized">
        <g>
            <g id="Clip-3"/>
            <g transform="translate(0.000000, 0.546512)">
                <g id="path-1"/>
                <path d="M3.77770698,45.1005149 L3.13681517,45.1005149 C1.40651183,45.1005149 0.000313650153,43.6946928 0.000313650153,41.9671818 L0.000313650153,1.23384837 C0.000313650153,0.657315038 0.467652377,0.189403928 1.04581416,0.189403928 L17.5208111,0.189403928 C18.6217232,0.189403928 19.6996342,0.635381706 20.4774866,1.41349282 L25.525163,6.45607059 L44.9568354,6.45607059 C45.5339517,6.45607059 46.0023359,6.92398171 46.0023359,7.50051503 L46.0023359,13.7671817 L43.9113349,13.7671817 L43.9113349,8.5449595 L25.0923258,8.5449595 C24.8142227,8.5449595 24.5486655,8.43424837 24.3531569,8.23893725 L18.9991488,2.89033725 C18.6091772,2.5007595 18.0707444,2.27829281 17.5208111,2.27829281 L2.09131466,2.27829281 L2.09131466,41.9671818 C2.09131466,42.5426706 2.55969889,43.0116262 3.13681517,43.0116262 L3.77770698,43.0116262 C4.75629545,43.0116262 5.59478685,42.3452706 5.81538747,41.3927371 L11.5269567,16.665515 C11.6367343,16.1913372 12.0591165,15.8560706 12.5463197,15.8560706 L47.0478364,15.8560706 C47.3688052,15.8560706 47.6730457,16.0043817 47.8716907,16.2581817 C48.0692904,16.5109372 48.1403845,16.8420262 48.0609264,17.154315 L45.9699253,25.5098706 L43.9427,25.0022706 L45.7075046,17.9449595 L13.3785381,17.9449595 L7.85306796,41.8616928 C7.41291222,43.7688484 5.73592943,45.1005149 3.77770698,45.1005149" id="Fill-2"/>
            </g>
        </g>
        <g id="Group-7" transform="translate(0.000000, 0.546512)">
            <g id="Clip-6"/>
            <g>
                <g id="path-3"/>
                <path d="M38.2128344,30.254364 C36.3257059,30.254364 34.5525372,30.9886084 33.219524,32.3213196 C31.8844199,33.6529862 31.1504786,35.4254084 31.1504786,37.3095862 C31.1504786,39.193764 31.8844199,40.9651418 33.219524,42.2978528 C34.5535827,43.630564 36.3257059,44.3648084 38.2128344,44.3648084 C40.0989173,44.3648084 41.872086,43.630564 43.2061447,42.2978528 C45.959993,39.5478306 45.959993,35.0713418 43.2061447,32.3213196 C41.872086,30.9886084 40.0989173,30.254364 38.2128344,30.254364 M38.2128344,46.4536971 C35.7674088,46.4536971 33.4693987,45.5022084 31.7411863,43.7746971 C30.0108829,42.0482306 29.058432,39.7525418 29.0594775,37.3095862 C29.0594775,34.8666306 30.0108829,32.5709418 31.7411863,30.8434306 C33.4693987,29.116964 35.7674088,28.1654749 38.2128344,28.1654749 C40.6572145,28.1654749 42.9552245,29.116964 44.6844824,30.8434306 C48.2538212,34.409164 48.2538212,40.2100084 44.6844824,43.7746971 C42.9552245,45.5022084 40.6572145,46.4536971 38.2128344,46.4536971" id="Fill-5"/>
            </g>
        </g>
        <path d="M32.479937,44.6275444 C32.2122889,44.6275444 31.9446406,44.5251888 31.740768,44.3215222 C31.3319773,43.9131444 31.3319773,43.2530556 31.740768,42.8446778 L43.2067721,31.3902556 C43.6145173,30.9829222 44.2763191,30.9829222 44.6851098,31.3902556 C45.092855,31.7986334 45.092855,32.4597666 44.6851098,32.8671 L33.2191057,44.3215222 C33.0152331,44.5251888 32.747585,44.6275444 32.479937,44.6275444" id="Fill-8"/>
        <path d="M29.2740142,45.6474444 L3.13650152,45.6474444 L3.13650152,43.5585556 L29.2740142,43.5585556 L29.2740142,45.6474444 L29.2740142,45.6474444 Z" id="Fill-1"/>
    </g>
</g>
<g class="-organization">
  <title>
    Shape
  </title>
  <g id="organization">
    <path d="M10.6747 19.86817l-3.20873.00242c-.132 0-2.59434-.0505-4.00786 1.9959-.6335.9055-1.3607 3.1344-2.0519 6.2712-.072.3338-.3648.5572-.6935.5572-.0504 0-.1032-.0049-.1536-.0192-.384-.0841-.6264-.4636-.5424-.8455.7512-3.4155 1.5168-5.6948 2.2704-6.7781 1.8672-2.6949 5.0735-2.6036 5.2007-2.6036h3.1055c.0912-.0168 4.0631-.4107 5.94468 2.76452.2016.33864.0912.7734-.24956.97514-.3384.20175-.7704.08885-.9744-.2522-1.40155-2.37547-4.60786-2.07284-4.6391-2.068zM9.10274 17.841c1.66074 0 3.2855-.58123 4.56708-1.63567.3024-.24978.34796-.69654.09838-1.0016-.24717-.30263-.69598-.34824-1.00078-.09846-1.04395.85988-2.31115 1.31383-3.66468 1.31383-3.1967 0-5.79583-2.6012-5.79583-5.79808 0-3.19687 2.5992-5.8005 5.7959-5.8005 1.3536 0 2.6208.45155 3.6623 1.31142.3024.24737.7512.20417 1.0008-.10087.2472-.30264.204-.7494-.0984-.99918-1.2815-1.0521-2.9015-1.6333-4.5646-1.6333-3.979 0-7.2141 3.2377-7.2141 7.2199s3.2351 7.2224 7.2142 7.2224h-.0001zm38.8813 9.99172c-.75598-3.42025-1.52156-5.69962-2.27276-6.77805-1.86716-2.69248-5.06388-2.6084-5.17186-2.60362l-3.05753.0024c-.1512-.0192-3.8231-.3843-5.7863 2.40188-.2256.31943-.1488.76378.168.98957.324.2258.7655.1489.9935-.1681 1.4735-2.09442 4.4446-1.811 4.5478-1.8014h3.1559c.024-.0192 2.5535-.06722 3.9815 1.99595.444.6341 1.1591 2.24336 2.0495 6.27124.0744.3338.36955.5572.69355.5572.0504 0 .1032-.0049.1536-.0192.38877-.0889.6264-.4684.5448-.8479l.00003-.0001zM38.89787 16.4191c-1.35117 0-2.61832-.45153-3.66232-1.3114-.3024-.2498-.75115-.20418-1.00078.09845-.24958.30505-.204.75176.0984 1.0016 1.28397 1.05202 2.90632 1.63567 4.56465 1.63567 3.97907 0 7.219-3.24012 7.219-7.2224 0-3.98227-3.23993-7.21998-7.219-7.21998-1.66316 0-3.28073.57887-4.56466 1.63326-.3024.24978-.34797.69654-.0984.99918.2496.30505.6984.34825 1.0008.10088 1.02957-.84545 2.33034-1.31142 3.6623-1.31142 3.19672 0 5.79343 2.6012 5.79343 5.79808 0 3.19687-2.5967 5.79808-5.7935 5.79808zm-4.67747 8.50978c-2.5679-4.2825-7.95336-3.7493-8.10933-3.7253h-4.3895c-.192-.00483-4.52868-.11768-7.0774 3.54753-1.41116 2.032-3.4871 9.8093-4.21906 13.047-.0863.3843.1537.7638.5376.8503.3816.0889.7632-.1537.8496-.5356.7656-3.401 2.7912-10.8132 3.9983-12.5449 2.0976-3.0167 5.8318-2.9326 5.8871-2.9375l4.4879-.0048c.0504-.0096 4.7495-.4587 6.835 3.0672.0168.0241.0336.0505.0552.0745 1.2791 1.6188 3.4223 8.894 4.2119 12.3479.0745.3291.3672.55.6912.55.0504 0 .108-.0048.1584-.0192.384-.0841.624-.4684.5352-.8503-.62153-2.7045-2.8175-10.7363-4.45182-12.8668l-.00003.0001zM14.12824 9.88123C14.12824 4.4314 18.5609 0 24.00154 0c5.44784 0 9.8757 4.4338 9.8757 9.88123 0 5.45225-4.43027 9.88365-9.8757 9.88365-5.44307 0-9.8733-4.4338-9.8733-9.88365zm1.4231 0c0 4.66444 3.7919 8.46175 8.45018 8.46175 4.6607 0 8.45496-3.79736 8.45496-8.46175 0-4.66202-3.7943-8.45697-8.45495-8.45697-4.65826-.0024-8.45016 3.79495-8.45016 8.45697z" fill="currentColor" fill-rule="evenodd"/>
  </g>
</g>
<g class="-profile">
  <title>
    profile Icon
  </title>
  <g id="profile" stroke="currentColor" fill="none" fill-rule="evenodd">
    <circle cx="24" cy="24" r="24"/>
    <path d="M24 28.8c4.4 0 8-3.6 8-8s-3.6-8-8-8-8 3.6-8 8 3.6 8 8 8zM41.6 39.948c0-5.4-11.66-8-17.6-8-5.94 0-17.6 2.6-17.6 8"/>
  </g>
</g>
<g class="-report-flag">
<g id="report-flag">
	<path d="M35.5,34.1c-3.9,0-7.4-1.4-10.8-2.8c-5.2-2.1-10.1-4.2-16.3-0.8l-1-1.8c7-3.8,12.6-1.5,18,0.7   c5.2,2.1,10.1,4.2,16.5,1.1V10.7c-6.7,2.9-12.1,0.7-17.3-1.5C19.5,7.1,14.6,5.1,8.4,8.4l-1-1.8c7-3.8,12.6-1.5,18,0.7   c5.4,2.2,10.4,4.3,17,0.9c0.3-0.2,0.7-0.1,1,0C43.8,8.5,44,8.8,44,9.1v22c0,0.4-0.2,0.7-0.5,0.9C40.6,33.5,38,34.1,35.5,34.1z"/>
	<path d="M8,49H5c-0.6,0-1-0.4-1-1V3.5C4,2.1,5.1,1,6.5,1S9,2.1,9,3.5V48C9,48.6,8.6,49,8,49z M6,47h1V3.5   C7,3.2,6.8,3,6.5,3S6,3.2,6,3.5V47z"/>
</g>
</g>
<g class="-review">
    <!-- Generator: Sketch 3.4.3 (16618) - http://www.bohemiancoding.com/sketch -->
    <g id="review">
        <path d="M38.0539721,47.4685723 L3.08545719,47.4685723 C1.3843418,47.4685723 0,46.0796006 0,44.3727958 L0,3.09577646 C0,1.3889717 1.3843418,0 3.08545719,0 L27.7691148,0 C28.0262362,0 28.2741014,0.0970009956 28.4643711,0.271396402 L40.8062001,11.6225768 C41.0180681,11.8176107 41.1394294,12.0941667 41.1394294,12.3831058 L41.1394294,44.3727958 C41.1394294,46.0796006 39.7550875,47.4685723 38.0539721,47.4685723 L38.0539721,47.4685723 L38.0539721,47.4685723 Z M3.08545719,2.06385098 C2.51876157,2.06385098 2.05697146,2.52615358 2.05697146,3.09577646 L2.05697146,44.3727958 C2.05697146,44.9424187 2.51876157,45.4047214 3.08545719,45.4047214 L38.0539721,45.4047214 C38.6206678,45.4047214 39.0824578,44.9424187 39.0824578,44.3727958 L39.0824578,12.8361211 L27.3690339,2.06385098 L3.08545719,2.06385098 L3.08545719,2.06385098 L3.08545719,2.06385098 Z" id="Fill-1"/>
        <path d="M40.1109437,13.4150313 L29.8260862,13.4150313 C28.1249709,13.4150313 26.7406291,12.0260596 26.7406291,10.3192549 L26.7406291,1.03192549 C26.7406291,0.461270691 27.2013907,0 27.7691148,0 C28.3368389,0 28.7976005,0.461270691 28.7976005,1.03192549 L28.7976005,10.3192549 C28.7976005,10.8888777 29.2593907,11.3511803 29.8260862,11.3511803 L40.1109437,11.3511803 C40.6786678,11.3511803 41.1394294,11.812451 41.1394294,12.3831058 C41.1394294,12.9537606 40.6786678,13.4150313 40.1109437,13.4150313" id="Fill-2"/>
        <path d="M17.7979457,33.2341922 C17.5367102,33.2341922 17.2744464,33.2238729 17.0101256,33.2052982 C11.0706204,32.7749854 6.58745112,27.5771767 7.01632968,21.6167751 C7.44109428,15.7162251 12.579409,11.1602741 18.5662245,11.5905871 C21.4428991,11.8000679 24.0665662,13.1199006 25.9538374,15.3075827 C27.8411088,17.4962966 28.7667459,20.2917828 28.5589918,23.1780783 C28.1537685,28.8165192 23.4258195,33.2341922 17.7979457,33.2341922 L17.7979457,33.2341922 L17.7979457,33.2341922 Z M17.777376,13.6255441 C13.2222126,13.6255441 9.39727416,17.201166 9.06815871,21.7664043 C8.72053054,26.590656 12.3500567,30.7988481 17.1582274,31.1476389 C21.9890249,31.4850785 26.1636485,27.8062641 26.5071627,23.0284491 C26.674806,20.6932018 25.9260684,18.4301892 24.398767,16.6583731 C22.8704373,14.8865571 20.7466142,13.8185142 18.4170941,13.6492784 C18.2031691,13.6337995 17.9902725,13.6255441 17.777376,13.6255441 L17.777376,13.6255441 L17.777376,13.6255441 Z" id="Fill-3"/>
        <path d="M23.9441763,23.8756599 C23.9194927,23.8756599 23.8937806,23.8746281 23.8680684,23.8725641 C23.3024013,23.832319 22.8766082,23.3369949 22.9167192,22.7694358 C23.0154538,21.3938791 22.5752619,20.0637273 21.6773938,19.0225143 C20.7784973,17.9792378 19.5288871,17.351827 18.1589441,17.2517302 C17.5922484,17.2114851 17.1654269,16.7161609 17.2065663,16.14757 C17.2477058,15.580011 17.7321225,15.137315 18.3060177,15.1940709 C20.225172,15.3313169 21.9735977,16.2125813 23.2324642,17.6706921 C24.4913307,19.1298346 25.1073938,20.9934921 24.9685481,22.918033 C24.9294657,23.4608259 24.4779605,23.8756599 23.9441763,23.8756599" id="Fill-4"/>
        <path d="M33.2828268,42.54216 C32.4908928,42.54216 31.7041013,42.20988 31.1466621,41.5638948 L21.8769201,31.6646335 C21.4881525,31.2487675 21.5087222,30.5955588 21.9221734,30.2065227 C22.3366533,29.816455 22.9876846,29.8350297 23.3764522,30.2508957 L32.6749918,40.1831784 C32.978395,40.534033 33.4638403,40.5701505 33.7836994,40.2915305 C33.9379723,40.1573803 34.0315644,39.9706018 34.0459632,39.7652486 C34.0613906,39.5609273 33.9955675,39.3617657 33.8618643,39.2069769 L24.9592918,29.5966548 C24.5725812,29.178725 24.5962363,28.5265481 25.0117445,28.1385442 C25.4272527,27.7505402 26.0782843,27.7742745 26.4649949,28.1911723 L35.3922511,37.8293565 C35.9095795,38.4278731 36.1523021,39.1595083 36.0977923,39.9148778 C36.0432826,40.6692153 35.6997684,41.3575095 35.1289587,41.8528339 C34.5962031,42.3151365 33.9379723,42.54216 33.2828268,42.54216" id="Fill-5"/>
    </g>

</g>
<g class="-roles">
  <title>
    roles
  </title>
  <g id="roles" fill="currentColor" fill-rule="evenodd">
    <path d="M20.9965 11.39876V1.95368l1.37252 1.3725.80947-.80946L20.83094.16765c-.22354-.22353-.58593-.22353-.80947 0L17.6724 2.51672l.80948.80947 1.37252-1.37252V11.398l1.1421.00076zM19.9278 35.7561v9.44508l-1.3725-1.3725-.80948.80946 2.34906 2.34906c.1114.1114.25787.16785.40436.16785.14648 0 .29296-.05493.40435-.16785l2.3483-2.34906-.81024-.80947-1.3725 1.3725V35.7561H19.9278zM40.1369 11.42284l-3.2211-.8194-.28152 1.1093 1.88215.47837-8.11988 4.82555.58517.9834 8.1191-4.82552-.47835 1.88062 1.10854.2823.8194-3.21958c.03815-.14725.01526-.3029-.06256-.43335-.07706-.1297-.2037-.2243-.35095-.26168zM9.8884 29.394l-8.11912 4.8248.47836-1.88216-1.10854-.28152-.81863 3.22033c-.07858.3044.10758.61797.4135.6958l3.21958.81938.28152-1.11007-1.88062-.47835 8.1191-4.82477-.58516-.98342zM4.2343 11.8222l-.2815-1.10932-3.21958.8194c-.30594.07857-.4921.38985-.4135.69578l.81862 3.21957 1.10854-.28228-.47836-1.88063 8.1191 4.82554.5844-.98342-8.1191-4.82553 1.8814-.4791zM38.6217 32.63304l.47837 1.8814-8.1191-4.82478-.58442.9834 8.1191 4.8248-1.88137.47835.28152 1.11007 3.22033-.8194c.14724-.03737.27237-.13274.35095-.2632.07858-.13046.1007-.2861.06256-.43258l-.8194-3.22034-1.10853.28228zM20.5 14.10487c-5.39697 0-9.7884 4.39067-9.7884 9.7884 0 5.3985 4.39143 9.78842 9.7884 9.78842s9.7884-4.38992 9.7884-9.78842c.00077-5.39774-4.39066-9.7884-9.7884-9.7884zm0 18.43242c-4.76603 0-8.644-3.87723-8.644-8.64402 0-4.76603 3.87797-8.644 8.644-8.644 4.76603 0 8.644 3.87797 8.644 8.644.00077 4.76603-3.8772 8.644-8.644 8.644z"/>
  </g>
</g>
<g class="-search">
<g id="search">
	<path d="M17,32C8.7,32,2,25.3,2,17S8.7,2,17,2s15,6.7,15,15S25.3,32,17,32z M17,4C9.8,4,4,9.8,4,17s5.8,13,13,13   s13-5.8,13-13S24.2,4,17,4z"/>
	<path d="M40.2,43.6c-0.5,0-1-0.2-1.4-0.6L25.1,29.4c-0.4-0.4-0.4-1,0-1.4s1-0.4,1.4,0l13.6,13.6l1.4-1.4L28,26.6   c-0.4-0.4-0.4-1,0-1.4s1-0.4,1.4,0L43,38.8c0.8,0.8,0.8,2,0,2.8L41.6,43C41.2,43.4,40.7,43.6,40.2,43.6z"/>
</g>
</g>
<g class="-setting-roll">
<g id="setting-roll">
	<path d="M25.3,47h-2.7c-1.5,0-2.7-1-3-2.5l-0.4-2.1c-1.8-0.4-3.5-1.2-5-2.1l-1.8,1.2c-1.2,0.8-2.8,0.7-3.8-0.3   l-1.9-1.9c-1-1-1.2-2.6-0.3-3.8l1.2-1.8c-0.9-1.6-1.6-3.3-2.1-5l-2.1-0.4C2,28,1,26.8,1,25.3v-2.7c0-1.5,1-2.7,2.5-3l2.1-0.4   c0.4-1.8,1.2-3.5,2.1-5l-1.2-1.8c-0.8-1.2-0.7-2.8,0.3-3.8l1.9-1.9c1-1,2.7-1.2,3.8-0.3l1.8,1.2c1.6-0.9,3.3-1.6,5-2.1l0.4-2.1   C20,2,21.2,1,22.7,1h2.7c1.5,0,2.7,1,3,2.5l0.4,2.1c1.8,0.4,3.5,1.2,5,2.1l1.8-1.2c1.2-0.8,2.8-0.7,3.8,0.3l1.9,1.9   c1,1,1.2,2.6,0.3,3.8l-1.2,1.8c0.9,1.6,1.6,3.3,2.1,5l2.1,0.4c1.4,0.3,2.5,1.5,2.5,3v2.7c0,1.5-1,2.7-2.5,3l-2.1,0.4   c-0.4,1.8-1.2,3.5-2.1,5l1.2,1.8c0.8,1.2,0.7,2.8-0.3,3.8l-1.9,1.9c-0.6,0.6-1.3,0.9-2.1,0.9l0,0c-0.6,0-1.2-0.2-1.7-0.5l-1.8-1.2   c-1.6,0.9-3.3,1.6-5,2.1l-0.4,2.1C28,46,26.8,47,25.3,47z M14.3,38.1c0.2,0,0.4,0.1,0.5,0.2c1.7,1.1,3.6,1.9,5.6,2.3   c0.4,0.1,0.7,0.4,0.8,0.8l0.5,2.8c0.1,0.5,0.5,0.8,1,0.8h2.7c0.5,0,0.9-0.3,1-0.8l0.5-2.8c0.1-0.4,0.4-0.7,0.8-0.8   c2-0.4,3.9-1.2,5.6-2.3c0.3-0.2,0.8-0.2,1.1,0l2.3,1.6c0.4,0.3,0.9,0.2,1.3-0.1l1.9-1.9c0.3-0.3,0.4-0.9,0.1-1.3l-1.6-2.3   c-0.2-0.3-0.2-0.8,0-1.1c1.1-1.7,1.9-3.6,2.3-5.6c0.1-0.4,0.4-0.7,0.8-0.8l2.8-0.5c0.5-0.1,0.8-0.5,0.8-1v-2.7c0-0.5-0.3-0.9-0.8-1   l-2.8-0.5c-0.4-0.1-0.7-0.4-0.8-0.8c-0.4-2-1.2-3.9-2.3-5.6c-0.2-0.3-0.2-0.8,0-1.1l1.6-2.3c0.3-0.4,0.2-0.9-0.1-1.3l-1.9-1.9   c-0.3-0.3-0.9-0.4-1.3-0.1l-2.3,1.6c-0.3,0.2-0.8,0.2-1.1,0c-1.7-1.1-3.6-1.9-5.6-2.3c-0.4-0.1-0.7-0.4-0.8-0.8l-0.5-2.8   c-0.1-0.5-0.5-0.8-1-0.8h-2.7c-0.5,0-0.9,0.3-1,0.8l-0.5,2.8c-0.1,0.4-0.4,0.7-0.8,0.8c-2,0.4-3.9,1.2-5.6,2.3   c-0.3,0.2-0.8,0.2-1.1,0l-2.3-1.6c-0.4-0.3-0.9-0.2-1.3,0.1l-1.9,1.9c-0.3,0.3-0.4,0.9-0.1,1.3l1.6,2.3c0.2,0.3,0.2,0.8,0,1.1   c-1.1,1.7-1.9,3.6-2.3,5.6c-0.1,0.4-0.4,0.7-0.8,0.8l-2.8,0.5c-0.5,0.1-0.8,0.5-0.8,1v2.7c0,0.5,0.3,0.9,0.8,1l2.8,0.5   c0.4,0.1,0.7,0.4,0.8,0.8c0.4,2,1.2,3.9,2.3,5.6c0.2,0.3,0.2,0.8,0,1.1l-1.6,2.3c-0.3,0.4-0.2,0.9,0.1,1.3l1.9,1.9   c0.3,0.3,0.9,0.4,1.3,0.1l2.3-1.6C13.9,38.2,14.1,38.1,14.3,38.1z"/>
	<path d="M24,33c-5,0-9-4-9-9s4-9,9-9s9,4,9,9S29,33,24,33z M24,17c-3.9,0-7,3.1-7,7s3.1,7,7,7s7-3.1,7-7   S27.9,17,24,17z"/>
</g>
</g>
<g class="-skyscraper">
<g id="skyscraper">
	<g>
		<path d="M46.96,31.001C46.982,30.836,47,30.671,47,30.5c0-1.115-0.413-2.171-1.154-2.99    C45.947,27.181,46,26.841,46,26.5c0-1.051-0.48-2.028-1.264-2.681C44.909,23.402,45,22.955,45,22.5c0-1.93-1.57-3.5-3.5-3.5    c-0.171,0-0.335,0.027-0.5,0.051V5c0-0.459-0.313-0.858-0.758-0.97l-12-3c-0.375-0.096-0.778,0.04-1.023,0.345l-8,10    C19.077,11.553,19,11.772,19,12v5.018c-0.011,0.334-0.013,0.659-0.018,0.987l-6.838-0.994c-0.034-0.005-0.069-0.001-0.103-0.003    C12.026,17.008,12.014,17,12,17c-0.011,0-0.02,0.006-0.031,0.006c-0.119,0.003-0.234,0.025-0.343,0.069    c-0.016,0.007-0.03,0.016-0.046,0.024c-0.089,0.042-0.171,0.098-0.246,0.166c-0.019,0.017-0.039,0.032-0.057,0.051    c-0.01,0.011-0.023,0.018-0.033,0.029l-6,6.931C5.087,24.458,5,24.69,5,24.931V45H3c-0.553,0-1,0.447-1,1s0.447,1,1,1h43    c0.553,0,1-0.447,1-1s-0.447-1-1-1h-4v-4.046C42.166,40.973,42.331,41,42.5,41c2.481,0,4.5-2.019,4.5-4.5    c0-0.903-0.266-1.766-0.76-2.5c0.494-0.734,0.76-1.597,0.76-2.5C47,31.336,46.983,31.176,46.96,31.001z M11,42.334    c-0.363-0.77-0.696-1.579-1-2.411V22c0-0.047-0.02-0.086-0.026-0.131L11,20.683V42.334z M13,19.156l5.984,0.87    c0.005,0.238,0.009,0.478,0.016,0.712V45h-6V19.156z M21,33.042c1.924,6.222,4.737,10.156,6.258,11.958H21V33.042z     M23.936,8.681L25,7.351v30.338c-0.359-0.74-0.714-1.542-1.058-2.403C23.97,35.194,24,35.101,24,35V9    C24,8.887,23.97,8.782,23.936,8.681z M28,3.601V42.69c-0.319-0.43-0.669-0.93-1.038-1.501C26.975,41.125,27,41.067,27,41V5    c0-0.042-0.019-0.078-0.024-0.119L28,3.601z M22,11.101v17.772c-0.529-2.448-0.896-5.186-1-8.223v-8.299L22,11.101z M8,24.148    v8.413c-0.696-3.483-0.967-6.251-1-6.605v-0.653L8,24.148z M7,37.084c0.758,2.762,1.781,5.593,3.145,7.916H7V37.084z M40,45H30    V3.531l9,2.25V20c0,0.017,0.009,0.03,0.009,0.047C38.387,20.679,38,21.545,38,22.5c0,0.179,0.014,0.356,0.041,0.53    C36.327,23.255,35,24.726,35,26.5c0,0.675,0.19,1.318,0.547,1.874C35.187,29.028,35,29.751,35,30.5    c0,0.616,0.126,1.218,0.37,1.777C34.5,33.115,34,34.266,34,35.5c0,2.481,2.019,4.5,4.5,4.5c0.354,0,0.704-0.042,1.047-0.124    c0.142,0.125,0.299,0.228,0.453,0.333V45z M44.966,31.183C44.98,31.287,45,31.392,45,31.5c0,0.675-0.269,1.309-0.755,1.785    c-0.192,0.188-0.301,0.446-0.301,0.715s0.108,0.526,0.301,0.715C44.731,35.191,45,35.825,45,36.5c0,1.379-1.121,2.5-2.5,2.5    c-0.729,0-1.423-0.33-1.905-0.906c-0.194-0.232-0.478-0.358-0.767-0.358c-0.128,0-0.258,0.024-0.381,0.075    C39.143,37.937,38.823,38,38.5,38c-1.379,0-2.5-1.121-2.5-2.5c0-0.863,0.444-1.654,1.189-2.117    c0.234-0.146,0.398-0.384,0.452-0.655c0.055-0.271-0.007-0.554-0.169-0.778C37.164,31.519,37,31.018,37,30.5    c0-0.709,0.308-1.239,0.565-1.559c0.328-0.406,0.288-0.996-0.092-1.354C37.168,27.298,37,26.912,37,26.5    c0-0.827,0.673-1.5,1.5-1.5c0.472,0,0.909,0.223,1.198,0.611c0.188,0.253,0.485,0.402,0.802,0.402h0.001    c0.316,0,0.613-0.15,0.802-0.404c0.027-0.036,0.057-0.069,0.086-0.103c0.221-0.247,0.306-0.588,0.225-0.909    c-0.08-0.322-0.314-0.583-0.626-0.697C40.396,23.685,40,23.121,40,22.5c0-0.827,0.673-1.5,1.5-1.5s1.5,0.673,1.5,1.5    c0,0.462-0.212,0.795-0.389,0.993c-0.222,0.248-0.306,0.588-0.225,0.909c0.08,0.322,0.314,0.583,0.626,0.697    C43.604,25.315,44,25.879,44,26.5c0,0.258-0.071,0.51-0.213,0.75c-0.254,0.432-0.149,0.984,0.245,1.294    C44.647,29.026,45,29.739,45,30.5c0,0.108-0.02,0.213-0.04,0.354C44.945,30.951,44.951,31.085,44.966,31.183z"/>
		<path d="M40.255,34.033c-0.098-0.026-0.269-0.083-0.32-0.179c-0.072-0.134-0.031-0.403,0.008-0.52    c0.184-0.516-0.082-1.084-0.597-1.273c-0.518-0.188-1.093,0.074-1.284,0.593c-0.043,0.116-0.402,1.161,0.098,2.121    c0.213,0.409,0.661,0.948,1.586,1.191C39.831,35.989,39.916,36,40.001,36c0.442,0,0.848-0.297,0.966-0.745    C41.107,34.721,40.789,34.174,40.255,34.033z"/>
		<path d="M41.242,28.03c-0.535-0.138-1.125,0.175-1.26,0.712c-0.134,0.536,0.146,1.063,0.681,1.197    c0.003,0.001,0.213,0.11,0.469,0.557C41.316,30.819,41.653,31,42.001,31c0.168,0,0.339-0.042,0.495-0.132    c0.479-0.274,0.646-0.885,0.372-1.364C42.208,28.349,41.457,28.083,41.242,28.03z"/>
	</g>
</g>
</g>
<g class="-status-pending">
    <!-- Generator: Sketch 3.4.3 (16618) - http://www.bohemiancoding.com/sketch -->
    <title>status-pending</title>
    <desc>icon for pending status results</desc>
    <g id="status-pending">
        <path d="M44.8695652,48 L3.1304348,48 C1.40452174,48 0,46.5954784 0,44.8695652 L0,3.1304348 C0,1.40452174 1.40452174,0 3.1304348,0 L44.8695652,0 C46.5954784,0 48,1.40452174 48,3.1304348 L48,44.8695652 C48,46.5954784 46.5954784,48 44.8695652,48 L44.8695652,48 Z M3.1304348,2.08695652 C2.55443478,2.08695652 2.08695652,2.55547826 2.08695652,3.1304348 L2.08695652,44.8695652 C2.08695652,45.4445216 2.55443478,45.9130436 3.1304348,45.9130436 L44.8695652,45.9130436 C45.4455652,45.9130436 45.9130436,45.4445216 45.9130436,44.8695652 L45.9130436,3.1304348 C45.9130436,2.55547826 45.4455652,2.08695652 44.8695652,2.08695652 L3.1304348,2.08695652 L3.1304348,2.08695652 Z" id="Fill-1"/>
        <path d="M5.21739132,6.78260868 C4.3544348,6.78260868 3.65217392,6.08034784 3.65217392,5.21739132 C3.65217392,4.3544348 4.3544348,3.65217392 5.21739132,3.65217392 C6.08034784,3.65217392 6.78260868,4.3544348 6.78260868,5.21739132 C6.78260868,6.08034784 6.08034784,6.78260868 5.21739132,6.78260868 L5.21739132,6.78260868 Z M5.21739132,4.69565216 C4.9304348,4.69565216 4.69565216,4.92939132 4.69565216,5.21739132 C4.69565216,5.50539132 4.9304348,5.73913044 5.21739132,5.73913044 C5.50434784,5.73913044 5.73913044,5.50539132 5.73913044,5.21739132 C5.73913044,4.92939132 5.50434784,4.69565216 5.21739132,4.69565216 L5.21739132,4.69565216 Z" id="Fill-3"/>
        <path d="M9.39130436,6.78260868 C8.52834784,6.78260868 7.82608696,6.08034784 7.82608696,5.21739132 C7.82608696,4.3544348 8.52834784,3.65217392 9.39130436,3.65217392 C10.2542609,3.65217392 10.9565217,4.3544348 10.9565217,5.21739132 C10.9565217,6.08034784 10.2542609,6.78260868 9.39130436,6.78260868 L9.39130436,6.78260868 Z M9.39130436,4.69565216 C9.10434784,4.69565216 8.8695652,4.92939132 8.8695652,5.21739132 C8.8695652,5.50539132 9.10434784,5.73913044 9.39130436,5.73913044 C9.67826088,5.73913044 9.91304348,5.50539132 9.91304348,5.21739132 C9.91304348,4.92939132 9.67826088,4.69565216 9.39130436,4.69565216 L9.39130436,4.69565216 Z" id="Fill-5"/>
        <path d="M13.5652174,6.78260868 C12.7022609,6.78260868 12,6.08034784 12,5.21739132 C12,4.3544348 12.7022609,3.65217392 13.5652174,3.65217392 C14.4281739,3.65217392 15.1304348,4.3544348 15.1304348,5.21739132 C15.1304348,6.08034784 14.4281739,6.78260868 13.5652174,6.78260868 L13.5652174,6.78260868 Z M13.5652174,4.69565216 C13.2782609,4.69565216 13.0434783,4.92939132 13.0434783,5.21739132 C13.0434783,5.50539132 13.2782609,5.73913044 13.5652174,5.73913044 C13.8521739,5.73913044 14.0869565,5.50539132 14.0869565,5.21739132 C14.0869565,4.92939132 13.8521739,4.69565216 13.5652174,4.69565216 L13.5652174,4.69565216 Z" id="Fill-7"/>
        <path d="M46.9565216,10.4347826 L1.04347826,10.4347826 L1.04347826,8.34782608 L46.9565216,8.34782608 L46.9565216,10.4347826 L46.9565216,10.4347826 L46.9565216,10.4347826 Z" id="Fill-9"/>
        <path d="M24,36.5217392 C19.7206956,36.5217392 15.984,33.6250436 14.9144348,29.4782608 C14.7704348,28.92 15.1064348,28.3502609 15.6646956,28.2073044 C16.2229565,28.0643478 16.7916522,28.3982609 16.9356522,28.9565216 C17.7673044,32.1819132 20.6723478,34.4347827 24,34.4347827 C27.3266087,34.4347827 30.2326956,32.1819132 31.0633044,28.9565216 C31.208348,28.3982609 31.7780868,28.0643478 32.3353044,28.2073044 C32.8925216,28.3502609 33.2295652,28.92 33.0855652,29.4782608 C32.016,33.6250436 28.2793044,36.5217392 24,36.5217392" id="Fill-11"/>
        <path d="M32.0737044,26.0869565 C31.6093564,26.0869565 31.1857044,25.7749565 31.0636173,25.3043478 C30.2319652,22.0789565 27.3269217,19.826087 24.000313,19.826087 C20.6726609,19.826087 17.7676174,22.0789565 16.9359652,25.3043478 C16.7909217,25.8626087 16.2222261,26.1965217 15.6639652,26.0535652 C15.1067478,25.9106087 14.7707478,25.3408696 14.9147478,24.7826087 C15.984313,20.6358261 19.7210087,17.7391304 24.000313,17.7391304 C28.2785739,17.7391304 32.0152696,20.6358261 33.0858784,24.7826087 C33.2288348,25.3408696 32.8928348,25.9106087 32.3356173,26.0535652 C32.2479652,26.0765217 32.1603132,26.0869565 32.0737044,26.0869565" id="Fill-12"/>
        <path d="M32.3488696,26.0869565 C32.2653912,26.0869565 32.179826,26.0775652 32.0953044,26.0556522 L27.9213913,25.0121739 C27.362087,24.8723478 27.0208696,24.3067826 27.1617391,23.7464348 C27.3005217,23.1881739 27.8681739,22.8448696 28.4264348,22.9878261 L31.588174,23.7777391 L32.3791304,20.616 C32.5179132,20.0577391 33.0855652,19.7154783 33.643826,19.8573913 C34.2031304,19.9972174 34.5433044,20.5627826 34.4034784,21.1231304 L33.36,25.2970435 C33.2410436,25.7707826 32.816348,26.0869565 32.3488696,26.0869565" id="Fill-13"/>
        <path d="M14.6097391,34.4347827 C14.5262609,34.4347827 14.4406956,34.4253912 14.3561739,34.4034784 C13.7968696,34.263652 13.4556522,33.6980868 13.5965217,33.1377392 L14.64,28.963826 C14.7787826,28.4055652 15.3464348,28.0622609 15.9046956,28.2052174 L20.0786087,29.2486956 C20.637913,29.3885216 20.978087,29.9540868 20.8382609,30.5144348 C20.6984348,31.0726956 20.1297391,31.4128696 19.5735652,31.2730436 L16.4107826,30.4831304 L15.6208696,33.6448696 C15.501913,34.1186088 15.0772174,34.4347827 14.6097391,34.4347827" id="Fill-14"/>
    </g>

</g>
<g class="-success">
    <!-- Generator: Sketch 3.4.3 (16618) - http://www.bohemiancoding.com/sketch -->
    <title>success</title>
    <desc>icon for successful form submissions</desc>&gt;
    <g id="success">
        <path d="M5.45454545,2.18181818 C3.65018182,2.18181818 2.18181818,3.65018182 2.18181818,5.45454545 L2.18181818,42.5454545 C2.18181818,44.3498182 3.65018182,45.8181818 5.45454545,45.8181818 L42.5454545,45.8181818 C44.3498182,45.8181818 45.8181818,44.3498182 45.8181818,42.5454545 L45.8181818,5.45454545 C45.8181818,3.65018182 44.3498182,2.18181818 42.5454545,2.18181818 L5.45454545,2.18181818 L5.45454545,2.18181818 Z M42.5454545,48 L5.45454545,48 C2.44690909,48 0,45.5530909 0,42.5454545 L0,5.45454545 C0,2.44690909 2.44690909,0 5.45454545,0 L42.5454545,0 C45.5530909,0 48,2.44690909 48,5.45454545 L48,42.5454545 C48,45.5530909 45.5530909,48 42.5454545,48 L42.5454545,48 L42.5454545,48 Z" id="Fill-1"/>
        <path d="M46.9090909,8.72727273 L1.09090909,8.72727273 C0.488727273,8.72727273 0,8.23963636 0,7.63636364 C0,7.03309091 0.488727273,6.54545455 1.09090909,6.54545455 L46.9090909,6.54545455 C47.5112727,6.54545455 48,7.03309091 48,7.63636364 C48,8.23963636 47.5112727,8.72727273 46.9090909,8.72727273" id="Fill-3"/>
        <path d="M6.54545455,5.45454545 C6.26181818,5.45454545 5.97818182,5.33454545 5.77090909,5.13818182 C5.57454545,4.93090909 5.45454545,4.64727273 5.45454545,4.36363636 C5.45454545,4.08 5.57454545,3.79527273 5.77090909,3.58909091 C6.17454545,3.18545455 6.90545455,3.18545455 7.32,3.58909091 C7.51636364,3.79527273 7.63636364,4.08 7.63636364,4.36363636 C7.63636364,4.64727273 7.51636364,4.93090909 7.32,5.13818182 C7.11272727,5.34436364 6.82909091,5.45454545 6.54545455,5.45454545" id="Fill-5"/>
        <path d="M9.81818182,5.45454545 C9.53454545,5.45454545 9.25090909,5.33454545 9.04363636,5.13818182 C8.84727273,4.93090909 8.72727273,4.64727273 8.72727273,4.36363636 C8.72727273,4.08 8.84727273,3.79527273 9.04363636,3.58909091 C9.44727273,3.18545455 10.1781818,3.18545455 10.5927273,3.58909091 C10.7890909,3.79527273 10.9090909,4.08 10.9090909,4.36363636 C10.9090909,4.64727273 10.7890909,4.93090909 10.5927273,5.13818182 C10.3854545,5.34436364 10.1018182,5.45454545 9.81818182,5.45454545" id="Fill-7"/>
        <path d="M13.0909091,5.45454545 C12.8072727,5.45454545 12.5236364,5.34436364 12.3163636,5.13818182 C12.12,4.93090909 12,4.64727273 12,4.36363636 C12,4.08 12.12,3.79527273 12.3163636,3.58909091 C12.7309091,3.18545455 13.4509091,3.18545455 13.8654545,3.58909091 C14.0618182,3.79527273 14.1818182,4.08 14.1818182,4.36363636 C14.1818182,4.64727273 14.0618182,4.93090909 13.8654545,5.13818182 C13.6581818,5.34436364 13.3745455,5.45454545 13.0909091,5.45454545" id="Fill-9"/>
        <path d="M16.3636364,34.9090909 C16.0832727,34.9090909 15.804,34.8010909 15.5923636,34.5894545 L10.1378182,29.1349091 C9.71127273,28.7083636 9.71127273,28.0189091 10.1378182,27.5923636 C10.5643636,27.1658182 11.2538182,27.1658182 11.6803636,27.5923636 L16.4301818,32.3432727 L35.3018182,16.6156364 C35.7643636,16.2316364 36.4527273,16.2927273 36.8378182,16.7552727 C37.224,17.2189091 37.1607273,17.9072727 36.6981818,18.2934545 L17.0618182,34.6570909 C16.8589091,34.8261818 16.6112727,34.9090909 16.3636364,34.9090909" id="Fill-11"/>
    </g>
</g>
<g class="-user">
<g id="user">
	<path d="M23.667,29.482c-5.285,0-8.976-6.333-9.868-8.938c-0.044-0.027-0.092-0.056-0.138-0.085   c-0.349-0.216-0.579-0.359-0.733-0.633c-1.275-2.256-1.611-4.064-0.998-5.375c0.29-0.619,0.725-0.998,1.112-1.226   c0-0.978,0.074-2.818,0.547-4.605c0.02-0.072,1.916-6.761,10.079-6.761c8.163,0,10.059,6.689,10.078,6.756   c0.474,1.791,0.548,3.631,0.548,4.61c0.387,0.229,0.822,0.607,1.111,1.226c0.613,1.311,0.277,3.119-0.997,5.375   c-0.156,0.274-0.386,0.417-0.734,0.634c-0.046,0.029-0.094,0.057-0.138,0.085C32.643,23.148,28.95,29.482,23.667,29.482z    M14.573,18.672c0.043,0.027,0.093,0.057,0.143,0.088c0.436,0.271,0.781,0.485,0.907,0.921c0.476,1.653,3.695,7.8,8.044,7.8   c4.348,0,7.568-6.148,8.044-7.799c0.126-0.438,0.471-0.651,0.907-0.922c0.05-0.031,0.099-0.061,0.143-0.088   c1.155-2.107,0.977-3.042,0.843-3.351c-0.158-0.364-0.491-0.454-0.529-0.463c-0.468-0.113-0.819-0.552-0.793-1.033   c0.001-0.024,0.123-2.46-0.469-4.694c-0.058-0.207-1.55-5.272-8.145-5.272c-6.647,0-8.132,5.224-8.146,5.277   c-0.593,2.241-0.468,4.665-0.467,4.689c0.027,0.502-0.323,0.947-0.817,1.038c-0.014,0.004-0.347,0.094-0.505,0.458   C13.597,15.63,13.419,16.565,14.573,18.672z"/>
	<path d="M23.667,45.973c-11.963,0-20.625-1.835-20.71-1.854c-0.478-0.103-0.812-0.537-0.789-1.025   c0.455-9.559,6.409-12.526,10.848-13.926c3.438-1.085,5.237-2.84,5.255-2.858c0.392-0.388,1.026-0.386,1.414,0.007   c0.389,0.392,0.386,1.025-0.007,1.414c-0.086,0.086-2.166,2.115-6.06,3.344c-4.295,1.355-8.731,3.763-9.394,11.253   c2.425,0.446,9.841,1.645,19.443,1.645c9.614,0,17.02-1.198,19.443-1.644c-0.662-7.49-5.098-9.898-9.393-11.253   c-3.896-1.229-5.974-3.258-6.06-3.344c-0.393-0.389-0.396-1.022-0.007-1.414c0.388-0.393,1.019-0.396,1.412-0.009   c0.024,0.023,1.858,1.787,5.257,2.86c4.438,1.4,10.392,4.368,10.847,13.926c0.023,0.488-0.311,0.922-0.789,1.025   C44.291,44.138,35.63,45.973,23.667,45.973z"/>
</g>
</g>
<g class="-warning">
  <title>
    Warning
  </title>
  <path id="warning" d="M47.774 42.563L25.507.873c-.31-.54-.885-.873-1.51-.873-.627 0-1.202.333-1.51.872L.224 42.562c-.302.53-.297 1.182.013 1.706.312.53.88.852 1.495.852h44.534c.612 0 1.185-.323 1.495-.852.31-.524.314-1.176.014-1.705zm-21.277-2.456h-5v-5.014h5v5.014zm0-8.774h-5V15.04h5v16.293z" fill="currentColor"/>
</g>
</svg>