<?xml version="1.0" encoding="utf-8"?>
<!-- Generator: Adobe Illustrator 16.0.4, SVG Export Plug-In . SVG Version: 6.00 Build 0)  -->
<!DOCTYPE svg PUBLIC "-//W3C//DTD SVG 1.1//EN" "http://www.w3.org/Graphics/SVG/1.1/DTD/svg11.dtd">
<svg xmlns="http://www.w3.org/2000/svg">
  <title>
    bell-o
  </title>
  <g id="bell-o" fill="currentColor">
    <path d="M69.308 139.125c0-.875-.436-1.313-1.308-1.313-3.215 0-5.98-1.162-8.296-3.486-2.315-2.324-3.473-5.1-3.473-8.326 0-.875-.435-1.313-1.307-1.313-.872 0-1.308.438-1.308 1.313 0 3.992 1.403 7.396 4.21 10.213 2.806 2.816 6.197 4.225 10.175 4.225.872 0 1.308-.438 1.308-1.313zM14.875 115.5h106.25c-14.494-16.406-21.74-39.156-21.74-68.25 0-2.79-.654-5.66-1.962-8.613-1.308-2.953-3.187-5.77-5.64-8.45-2.45-2.68-5.76-4.88-9.93-6.603C77.685 21.86 73.067 21 68 21s-9.685.86-13.853 2.584c-4.17 1.723-7.48 3.924-9.93 6.604-2.453 2.68-4.332 5.496-5.64 8.45-1.308 2.952-1.962 5.823-1.962 8.612 0 29.094-7.246 51.844-21.74 68.25zm121.125 0c0 2.844-1.035 5.305-3.106 7.383-2.07 2.078-4.522 3.117-7.356 3.117H88.923c0 5.797-2.043 10.746-6.13 14.848C78.707 144.948 73.776 147 68 147s-10.707-2.05-14.793-6.152c-4.087-4.102-6.13-9.05-6.13-14.848H10.462c-2.834 0-5.286-1.04-7.356-3.117C1.036 120.805 0 118.343 0 115.5c2.724-2.297 5.204-4.703 7.438-7.22 2.233-2.514 4.55-5.782 6.947-9.8 2.397-4.02 4.427-8.355 6.09-13.003 1.66-4.65 3.023-10.282 4.085-16.9 1.063-6.616 1.594-13.725 1.594-21.327 0-8.313 3.187-16.037 9.562-23.174 6.375-7.137 14.74-11.47 25.092-13.002-.436-1.04-.654-2.105-.654-3.2 0-2.186.763-4.046 2.288-5.577C63.968.767 65.822 0 68 0c2.18 0 4.032.766 5.558 2.297 1.525 1.53 2.288 3.39 2.288 5.578 0 1.094-.218 2.16-.654 3.2 10.353 1.53 18.717 5.864 25.092 13 6.375 7.138 9.562 14.863 9.562 23.175 0 7.602.53 14.71 1.594 21.328 1.062 6.617 2.425 12.25 4.086 16.9 1.662 4.647 3.692 8.98 6.09 13 2.397 4.02 4.713 7.288 6.947 9.803 2.233 2.517 4.713 4.923 7.437 7.22z" id="Shape"/>
  </g>
</svg>