<?xml version="1.0" encoding="utf-8"?>
<!-- Generator: Adobe Illustrator 16.0.4, SVG Export Plug-In . SVG Version: 6.00 Build 0)  -->
<!DOCTYPE svg PUBLIC "-//W3C//DTD SVG 1.1//EN" "http://www.w3.org/Graphics/SVG/1.1/DTD/svg11.dtd">
<svg>
    <g id="horizontal9">
        <path  d="M179.452,69.334l-20.856-20.857c-1.033-1.032-2.255-1.548-3.666-1.548c-1.412,0-2.635,0.516-3.668,1.548
	c-1.031,1.032-1.547,2.254-1.547,3.666v10.429H66.286V52.143c0-1.412-0.516-2.634-1.548-3.666c-1.033-1.032-2.255-1.548-3.667-1.548
	c-1.412,0-2.634,0.516-3.666,1.548L36.548,69.334C35.516,70.365,35,71.588,35,73s0.516,2.634,1.548,3.666l20.857,20.857
	c1.032,1.031,2.253,1.548,3.666,1.548c1.413,0,2.635-0.517,3.667-1.548c1.032-1.032,1.548-2.254,1.548-3.666v-10.43h83.429v10.43
	c0,1.412,0.516,2.634,1.547,3.666c1.033,1.031,2.256,1.548,3.668,1.548c1.411,0,2.633-0.517,3.666-1.548l20.856-20.857
	C180.484,75.634,181,74.412,181,73S180.484,70.365,179.452,69.334z"/>
    </g>
</svg>
